<?xml version="1.0" encoding="UTF-8"?><svg xmlns="http://www.w3.org/2000/svg" width="3.5in" height="3.5in" viewBox="0 0 252 252"><g id="a"><path d="M124.78,166.604c6.381,0,11.602-5.221,11.602-11.602h0c0-6.381-5.221-11.602-11.602-11.602h-16.14V31.049c0-.792.648-1.44,1.44-1.44h7.668v2.734s.081.533.8.533h14.842s.788.046.765-.51l.042-2.757h8.543c.792,0,1.44.648,1.44,1.44v162.052c0,.792-.648,1.44-1.44,1.44h-8.551s0-1.69,0-2.515-.857-.952-.857-.952c0,0-14.155-.159-14.885,0s-.666.92-.666.92v2.547h-7.701c-.792,0-1.44-.648-1.44-1.44v-26.497h16.14Z" fill="#d0d2d3" stroke="#221f20" stroke-miterlimit="10" stroke-width=".5"/><path d="M206.843,194.541h-58.466c-.792,0-1.44-.648-1.44-1.44V31.049c0-.792.648-1.44,1.44-1.44h58.466" fill="#d0d2d3" stroke="#221f20" stroke-miterlimit="10" stroke-width=".5"/><rect x="114.319" y="63.252" width="19.995" height="12.66" rx="6.33" ry="6.33" fill="#fff" stroke="#221f20" stroke-linecap="round" stroke-linejoin="round" stroke-width=".5"/><circle cx="125.156" cy="49.119" r="6.048" fill="none" stroke="#221f20" stroke-linecap="round" stroke-linejoin="round" stroke-width=".5"/><circle cx="125.156" cy="49.119" r="4.06" fill="none" stroke="#221f20" stroke-linecap="round" stroke-linejoin="round" stroke-width=".5"/><rect x="110.804" y="77.032" width="30.866" height="60.424" rx="1.44" ry="1.44" fill="none" stroke="#fff" stroke-linecap="round" stroke-linejoin="round" stroke-width=".5"/><rect x="144.185" y="30.806" width="2.792" height="162.479" rx="1.396" ry="1.396" fill="#221f20"/><polygon points="77.62 30.581 32.226 30.581 30.859 31.832 32.226 211.468 76.23 212.453 77.62 211.468 77.62 30.581" fill="#262626"/><rect x="30.858" y="31.818" width="45.394" height="180.649" fill="#4e4f4f"/><polygon points="68.948 150.318 38.695 150.318 38.695 132.166 53.57 132.166 68.948 132.166 68.948 150.318" fill="#fff" stroke="#221f20" stroke-miterlimit="10"/><circle cx="45.393" cy="98.1" r="3.737" fill="#fff" stroke="#221f20" stroke-miterlimit="10" stroke-width=".525"/><circle cx="45.393" cy="109.953" r="3.737" fill="#fff" stroke="#221f20" stroke-miterlimit="10" stroke-width=".525"/><circle cx="45.393" cy="121.807" r="3.737" fill="#fff" stroke="#221f20" stroke-miterlimit="10" stroke-width=".525"/><path d="M56.85,106.579c0-.492-.369-.738-.738-.738s-.738.369-.738.738l.492,4.55c0,.246.123.246.246.246s.246-.123.246-.246l.492-4.55M56.973,113.096c0-.492-.369-.861-.861-.861s-.861.369-.861.861c0,.369.369.738.861.738s.861-.369.861-.738Z" fill="#fff" fill-rule="evenodd"/><line x1="53.824" y1="150.311" x2="53.824" y2="132.214" fill="none" stroke="#221f20" stroke-miterlimit="10" stroke-width=".453"/><path d="M59.678,96.928c-.492-1.967-2.582-3.074-4.55-2.582-2.09.615-3.197,2.705-2.582,4.672.615,1.967,2.705,3.074,4.673,2.582,1.967-.615,3.074-2.705,2.459-4.673M59.186,97.666c.246,1.598-.984,3.197-2.705,3.32-1.23.246-2.582-.492-3.074-1.721l2.09-2.09.861,3.32,2.828-2.828ZM53.038,98.403c-.123-1.721.984-3.32,2.705-3.443,1.353-.246,2.582.492,3.197,1.721l-2.09,2.09-.861-3.32-2.951,2.951Z" fill="#fff" fill-rule="evenodd"/><path d="M59.916,121.679c0-2.053-1.691-3.744-3.864-3.744-2.053,0-3.744,1.691-3.744,3.744,0,2.174,1.691,3.864,3.744,3.864,2.174,0,3.864-1.691,3.864-3.864ZM58.95,121.679c0,1.691-1.328,2.898-2.898,2.898s-2.898-1.208-2.898-2.898c0-1.57,1.328-2.778,2.898-2.778s2.898,1.208,2.898,2.778ZM56.656,120.955c0,.362-.242.604-.604.604s-.604-.242-.604-.604.242-.604.604-.604.604.242.604.604ZM54.844,121.679l1.087,2.174s.121.121.242,0l1.208-2.174c.362-.725,0-1.57-.604-1.932-.725-.362-1.57-.121-1.932.604-.242.362-.242.845,0,1.328Z" fill="#fff" fill-rule="evenodd"/><polygon points="141.387 135.151 111.134 135.151 111.134 116.999 126.009 116.999 141.387 116.999 141.387 135.151" fill="#4e4f4f"/><circle cx="117.832" cy="82.933" r="3.737" fill="#221f20"/><circle cx="117.832" cy="94.786" r="3.737" fill="#221f20"/><circle cx="117.832" cy="106.64" r="3.737" fill="#221f20"/><line x1="126.263" y1="135.144" x2="126.263" y2="117.047" fill="none" stroke="#d0d2d3" stroke-miterlimit="10" stroke-width=".5"/><path d="M117.275,125.116l-.775.776-.746-.776v-3.447l.746-.761.775.761v3.447ZM117.275,130.324l-.775.761-.746-.761v-3.447l.746-.776.775.776v3.447ZM121.722,120.788l-.761.776h-3.567l-.79-.776.775-.761h3.582l.761.761ZM121.722,131.204l-.761.761h-3.567l-.79-.761.775-.776h3.582l.761.776ZM122.603,125.116l-.776.776-.761-.776v-3.447l.761-.761.776.761v3.447ZM122.603,130.324l-.776.761-.761-.761v-3.447l.761-.776.776.776v3.447Z" fill="#5daf57"/><path d="M131.315,125.116l-.775.776-.746-.776v-3.447l.746-.761.775.761v3.447ZM131.315,130.324l-.775.761-.746-.761v-3.447l.746-.776.775.776v3.447ZM135.762,120.788l-.761.776h-3.567l-.79-.776.775-.761h3.582l.761.761ZM135.762,131.204l-.761.761h-3.567l-.79-.761.775-.776h3.582l.761.776ZM136.643,125.116l-.776.776-.761-.776v-3.447l.761-.761.776.761v3.447ZM136.643,130.324l-.776.761-.761-.761v-3.447l.761-.776.776.776v3.447Z" fill="#5daf57"/><rect x="104.792" y="22.144" width="45.394" height="180.649" fill="none" stroke="#fff" stroke-linecap="round" stroke-linejoin="round" stroke-width="3"/><rect x="104.792" y="22.144" width="45.394" height="180.649" fill="none" stroke="#b3b3b3" stroke-dasharray="2.403" stroke-linecap="round" stroke-linejoin="round" stroke-width="1.201"/><polygon points="105.967 55.835 91.76 63.086 91.608 67.964 80.539 64.119 90.776 49.745 90.58 56.053 106.228 47.45 105.967 55.835" fill="#fff" stroke="#fff" stroke-linecap="round" stroke-linejoin="round" stroke-width="2.403"/><polygon points="105.967 55.835 91.76 63.086 91.608 67.964 80.539 64.119 90.776 49.745 90.58 56.053 106.228 47.45 105.967 55.835" fill="#de7c3a"/><circle cx="131.008" cy="100.8" r="3.734" fill="#de7c3a" stroke="#221f20" stroke-miterlimit="10" stroke-width=".5"/></g><g id="b"><rect x="8.027" y="3.782" width="46.248" height="14.357" fill="none"/><path d="M8.938,3.782h6.168v1.296h-4.668v2.244h4.32v1.224h-4.32v2.508h4.752v1.296h-6.252V3.782Z" fill="#221f20"/><path d="M16.305,6.146h1.297v.912l.023.024c.209-.344.48-.614.816-.81.336-.196.709-.294,1.115-.294.682,0,1.217.176,1.609.528.391.353.588.88.588,1.584v4.26h-1.369v-3.9c-.016-.488-.119-.842-.311-1.062-.193-.22-.492-.33-.9-.33-.232,0-.441.042-.625.126s-.34.2-.467.348c-.129.148-.229.322-.301.522s-.107.412-.107.636v3.66h-1.369v-6.204Z" fill="#221f20"/><path d="M29.038,12.35h-1.297v-.84h-.023c-.184.36-.451.618-.803.774-.354.156-.725.234-1.117.234-.488,0-.914-.086-1.277-.258-.365-.172-.666-.406-.906-.702s-.42-.646-.541-1.05c-.119-.404-.18-.838-.18-1.302,0-.56.076-1.044.229-1.452.152-.408.354-.744.605-1.008s.541-.458.865-.582.654-.186.99-.186c.191,0,.387.018.588.054.199.036.391.094.576.174.184.08.354.182.51.306s.285.27.389.438h.025v-3.168h1.367v8.568ZM24.262,9.314c0,.264.033.524.102.78s.172.484.312.684c.139.2.316.36.533.48.217.12.473.18.768.18.305,0,.566-.064.787-.192.219-.128.398-.296.539-.504s.244-.442.312-.702c.068-.26.102-.526.102-.798,0-.688-.154-1.224-.461-1.608-.309-.384-.727-.576-1.254-.576-.32,0-.592.066-.811.198-.221.132-.4.304-.541.516-.139.212-.238.452-.299.72s-.09.542-.09.822Z" fill="#221f20"/><path d="M36.85,8.222c-.057-.384-.211-.674-.463-.87-.252-.196-.57-.294-.953-.294-.176,0-.365.03-.564.09-.201.06-.385.172-.553.336-.168.164-.307.392-.42.684-.111.292-.168.674-.168,1.146,0,.256.031.512.09.768.061.256.156.484.289.684.131.2.301.362.51.486.207.125.459.186.756.186.4,0,.73-.124.99-.372.26-.248.422-.596.486-1.044h1.367c-.129.808-.434,1.426-.918,1.854-.484.428-1.127.642-1.926.642-.488,0-.918-.082-1.291-.246-.371-.164-.686-.388-.941-.672-.256-.284-.449-.622-.582-1.014-.131-.392-.197-.816-.197-1.272,0-.464.064-.9.191-1.308.129-.408.32-.762.576-1.062.256-.3.574-.536.953-.708.381-.172.826-.258,1.34-.258.359,0,.701.046,1.025.138s.611.23.863.414.459.416.619.696c.158.28.256.612.287.996h-1.367Z" fill="#221f20"/><path d="M44.53,10.97c0,.168.021.288.066.36.043.072.129.108.258.108h.143c.057,0,.121-.008.193-.024v.948c-.049.016-.111.034-.188.054s-.152.038-.232.054c-.08.016-.16.028-.24.036-.08.008-.148.012-.205.012-.279,0-.512-.056-.695-.168s-.305-.308-.359-.588c-.273.264-.607.456-1.002.576-.396.12-.779.18-1.146.18-.281,0-.549-.038-.805-.114-.256-.076-.482-.188-.678-.336-.195-.148-.352-.336-.469-.564-.115-.228-.174-.494-.174-.798,0-.384.07-.696.211-.936.139-.24.324-.428.553-.564.227-.136.482-.234.768-.294.283-.06.57-.106.857-.138.248-.048.484-.082.709-.102.223-.02.422-.054.594-.102.172-.048.307-.122.408-.222.1-.1.148-.25.148-.45,0-.176-.041-.32-.125-.432-.084-.112-.188-.198-.312-.258-.123-.06-.262-.1-.414-.12-.152-.02-.295-.03-.432-.03-.385,0-.701.08-.947.24-.248.16-.389.408-.42.744h-1.369c.023-.4.121-.732.289-.996.168-.264.381-.476.641-.636s.555-.272.883-.336.664-.096,1.008-.096c.305,0,.604.032.9.096.295.064.561.168.797.312s.426.33.57.558c.145.228.217.506.217.834v3.192ZM43.161,9.242c-.207.136-.463.218-.768.246-.305.028-.607.07-.912.126-.145.024-.283.058-.42.102s-.256.104-.359.18c-.104.076-.186.176-.246.3s-.09.274-.09.45c0,.152.043.28.131.384s.195.186.318.246c.125.06.26.102.408.126.148.024.281.036.402.036.152,0,.316-.02.492-.06.176-.04.342-.108.498-.204.156-.096.285-.218.389-.366.105-.148.156-.33.156-.546v-1.02Z" fill="#221f20"/><path d="M46.042,6.146h1.295v.84h.025c.191-.36.459-.618.803-.774.344-.156.717-.234,1.117-.234.486,0,.914.086,1.277.258.363.172.666.408.906.708.24.3.42.65.539,1.05.121.4.182.828.182,1.284,0,.416-.055.82-.162,1.212-.109.392-.273.738-.492,1.038-.221.3-.498.54-.834.72s-.732.27-1.189.27c-.199,0-.398-.018-.6-.054-.199-.036-.391-.094-.576-.174-.184-.08-.354-.182-.51-.306-.156-.124-.285-.27-.389-.438h-.025v3.096h-1.367V6.146ZM50.817,9.254c0-.28-.035-.552-.107-.816-.072-.264-.18-.498-.324-.702-.145-.204-.324-.368-.541-.492-.215-.124-.463-.186-.742-.186-.576,0-1.012.2-1.303.6-.293.4-.438.932-.438,1.596,0,.312.037.602.113.87s.189.498.342.69.334.344.547.456c.211.112.457.168.738.168.311,0,.574-.064.791-.192s.395-.294.533-.498c.141-.204.24-.436.301-.696.061-.26.09-.526.09-.798Z" fill="#221f20"/><rect x="158.997" y="204.892" width="86.557" height="11.448" fill="none"/><path d="M160.894,210.603c0,.328.056.607.168.84.111.232.268.422.468.57.199.147.43.256.689.323.26.068.542.103.847.103.327,0,.607-.038.84-.114.231-.076.42-.174.563-.294.145-.12.248-.258.312-.414.063-.156.096-.313.096-.474,0-.328-.074-.57-.222-.727-.148-.156-.311-.266-.486-.33-.304-.111-.658-.218-1.062-.317-.404-.101-.902-.23-1.494-.391-.368-.096-.674-.222-.918-.378-.244-.155-.438-.33-.582-.521-.145-.192-.246-.396-.307-.612-.06-.216-.09-.436-.09-.66,0-.432.09-.806.271-1.122.18-.315.418-.577.714-.786.296-.208.632-.361,1.008-.462.376-.1.756-.149,1.14-.149.448,0,.87.058,1.267.174.396.116.744.29,1.044.521.3.232.538.519.714.858s.264.734.264,1.182h-1.5c-.04-.552-.228-.941-.563-1.17-.336-.228-.765-.342-1.284-.342-.176,0-.356.019-.54.054-.184.036-.353.097-.504.181-.152.084-.278.197-.378.342-.101.144-.15.324-.15.54,0,.304.094.542.282.714.188.172.434.302.738.39.031.009.157.042.378.103.22.06.466.126.738.198.271.071.537.142.798.21.26.067.445.118.558.149.28.088.524.208.732.36s.382.326.521.521c.14.196.244.406.312.631.067.224.102.447.102.672,0,.479-.098.89-.294,1.229s-.454.618-.774.834c-.319.216-.684.374-1.092.475-.408.1-.824.149-1.248.149-.487,0-.947-.06-1.38-.18-.432-.12-.808-.304-1.128-.552s-.576-.566-.768-.954c-.192-.389-.292-.847-.3-1.374h1.5Z" fill="#221f20"/><path d="M167.494,204.892h1.368v3.18h.024c.168-.28.418-.514.75-.702.332-.188.702-.282,1.109-.282.681,0,1.216.177,1.608.528.392.353.588.88.588,1.584v4.26h-1.368v-3.899c-.016-.488-.12-.842-.312-1.062-.192-.22-.492-.33-.9-.33-.232,0-.44.042-.624.126s-.34.2-.468.349c-.128.147-.229.321-.3.521-.072.2-.108.412-.108.636v3.66h-1.368v-8.567Z" fill="#221f20"/><path d="M175.45,210.711c0,.24.034.473.102.696.068.224.17.42.307.588.136.168.308.302.516.402.208.1.456.149.744.149.399,0,.722-.086.966-.258s.426-.43.546-.773h1.296c-.071.336-.195.636-.372.899-.176.265-.388.486-.636.666s-.526.316-.834.408-.63.138-.966.138c-.488,0-.92-.08-1.296-.239-.376-.16-.694-.385-.954-.673s-.456-.632-.588-1.031c-.132-.4-.198-.841-.198-1.32,0-.439.07-.858.21-1.254.14-.396.34-.744.601-1.044.26-.3.573-.538.941-.714s.784-.265,1.248-.265c.488,0,.926.103,1.314.307.388.204.71.474.966.81s.441.722.558,1.158c.116.436.146.886.09,1.35h-4.56ZM178.642,209.811c-.017-.216-.062-.424-.139-.624s-.18-.374-.312-.522c-.132-.147-.292-.268-.48-.359-.188-.093-.397-.139-.63-.139-.24,0-.458.042-.654.126-.195.084-.363.2-.504.349-.14.147-.252.321-.336.521s-.13.416-.138.648h3.192Z" fill="#221f20"/><path d="M181.09,204.892h1.368v8.567h-1.368v-8.567Z" fill="#221f20"/><path d="M183.334,207.255h1.02v-.516c0-.392.048-.71.145-.954.096-.244.224-.432.384-.563.16-.133.342-.221.546-.265s.418-.065.642-.065c.44,0,.76.027.96.084v1.067c-.088-.023-.182-.042-.281-.054-.101-.012-.219-.018-.354-.018-.185,0-.342.044-.474.132-.133.088-.198.26-.198.516v.636h1.164v1.021h-1.164v5.184h-1.368v-5.184h-1.02v-1.021Z" fill="#221f20"/><path d="M191.254,204.892h1.5v8.567h-1.5v-8.567Z" fill="#221f20"/><path d="M194.59,204.892h3.552c.656,0,1.225.111,1.704.336.48.224.872.529,1.176.918.304.388.53.842.679,1.361.147.521.222,1.076.222,1.668s-.074,1.148-.222,1.668c-.148.521-.375.975-.679,1.362-.304.389-.695.694-1.176.918-.479.225-1.048.336-1.704.336h-3.552v-8.567ZM196.09,212.235h1.476c.584,0,1.062-.078,1.435-.234.372-.155.664-.372.876-.647.212-.276.355-.601.432-.973s.114-.773.114-1.206-.038-.834-.114-1.206c-.076-.371-.22-.695-.432-.972-.212-.275-.504-.492-.876-.647-.372-.156-.851-.234-1.435-.234h-1.476v6.12Z" fill="#221f20"/><path d="M206.433,204.892h1.368v3.168h.024c.096-.152.212-.288.348-.408s.286-.222.45-.306c.164-.085.336-.148.516-.192s.358-.066.534-.066c.487,0,.914.086,1.278.259.363.172.666.407.905.708.24.3.42.649.54,1.05.12.399.181.828.181,1.284,0,.416-.055.819-.162,1.212-.108.392-.272.737-.492,1.038-.221.3-.498.539-.834.72-.336.18-.732.27-1.188.27-.208,0-.418-.014-.63-.042s-.414-.082-.605-.162c-.192-.079-.366-.184-.522-.312s-.286-.296-.39-.504h-.024v.852h-1.296v-8.567ZM211.21,210.363c0-.28-.036-.552-.108-.816-.072-.264-.18-.498-.324-.701-.144-.204-.323-.368-.54-.492-.216-.124-.464-.187-.743-.187-.576,0-1.011.2-1.303.601-.292.399-.438.932-.438,1.596,0,.312.038.602.114.87.075.268.189.498.342.689.151.192.334.345.546.456.212.112.458.168.738.168.312,0,.575-.063.792-.191.216-.128.394-.294.533-.498.141-.204.24-.437.301-.696.06-.26.09-.525.09-.798Z" fill="#221f20"/><path d="M219.177,213.459h-1.344v-.863h-.024c-.168.312-.418.562-.75.75-.332.188-.67.281-1.014.281-.816,0-1.406-.202-1.771-.605-.363-.404-.546-1.015-.546-1.83v-3.937h1.368v3.805c0,.544.104.928.312,1.151.208.225.499.336.876.336.288,0,.527-.044.72-.132s.348-.206.468-.354c.12-.148.206-.326.258-.534.053-.208.078-.432.078-.672v-3.601h1.368v6.204Z" fill="#221f20"/><path d="M219.993,207.255h1.032v-1.859h1.368v1.859h1.236v1.021h-1.236v3.312c0,.145.006.269.018.372.013.104.04.192.084.265.044.071.11.126.198.161.088.036.208.055.36.055.096,0,.191-.002.288-.006.096-.004.191-.019.288-.042v1.056c-.152.016-.301.032-.444.048-.145.016-.292.024-.444.024-.359,0-.649-.034-.87-.103-.22-.067-.392-.168-.516-.3s-.208-.298-.252-.498-.07-.428-.078-.684v-3.66h-1.032v-1.021Z" fill="#221f20"/><path d="M223.989,207.255h1.032v-1.859h1.368v1.859h1.236v1.021h-1.236v3.312c0,.145.006.269.018.372.013.104.04.192.084.265.044.071.11.126.198.161.088.036.208.055.36.055.096,0,.191-.002.288-.006.096-.004.191-.019.288-.042v1.056c-.152.016-.301.032-.444.048-.145.016-.292.024-.444.024-.359,0-.649-.034-.87-.103-.22-.067-.392-.168-.516-.3s-.208-.298-.252-.498-.07-.428-.078-.684v-3.66h-1.032v-1.021Z" fill="#221f20"/><path d="M231.454,213.627c-.496,0-.938-.082-1.326-.246-.389-.163-.717-.39-.984-.678s-.472-.632-.612-1.032c-.14-.399-.21-.84-.21-1.319,0-.473.07-.908.21-1.309.141-.399.345-.744.612-1.032.268-.287.596-.514.984-.678.388-.164.83-.246,1.326-.246s.938.082,1.325.246c.389.164.716.391.984.678.268.288.472.633.612,1.032.14.4.21.836.21,1.309,0,.479-.07.92-.21,1.319-.141.4-.345.744-.612,1.032-.269.288-.596.515-.984.678-.388.164-.83.246-1.325.246ZM231.454,212.547c.304,0,.567-.063.792-.191.224-.128.407-.296.552-.504.144-.208.25-.442.317-.702.068-.26.103-.526.103-.798,0-.265-.034-.528-.103-.792-.067-.265-.174-.498-.317-.702-.145-.204-.328-.37-.552-.498-.225-.128-.488-.192-.792-.192s-.568.064-.792.192c-.225.128-.408.294-.553.498-.144.204-.25.438-.317.702-.068.264-.103.527-.103.792,0,.271.034.538.103.798.067.26.174.494.317.702.145.208.328.376.553.504.224.128.487.191.792.191Z" fill="#221f20"/><path d="M235.725,207.255h1.296v.912l.024.024c.208-.344.479-.614.816-.811.336-.195.708-.294,1.115-.294.681,0,1.216.177,1.608.528.392.353.588.88.588,1.584v4.26h-1.368v-3.899c-.016-.488-.12-.842-.312-1.062-.192-.22-.492-.33-.9-.33-.232,0-.44.042-.624.126s-.34.2-.468.349c-.128.147-.229.321-.3.521-.072.2-.108.412-.108.636v3.66h-1.368v-6.204Z" fill="#221f20"/><line x1="120.1" y1="137.166" x2="87.328" y2="235.874" fill="none" stroke="#fff" stroke-linecap="round" stroke-linejoin="round" stroke-width="2"/><line x1="120.1" y1="137.166" x2="87.328" y2="235.874" fill="none" stroke="#211f1f" stroke-linecap="round" stroke-linejoin="round" stroke-width=".75"/><line x1="129.603" y1="184.676" x2="118.656" y2="218.085" fill="none" stroke="#fff" stroke-linecap="round" stroke-linejoin="round" stroke-width="2"/><line x1="129.603" y1="184.676" x2="118.656" y2="218.085" fill="none" stroke="#211f1f" stroke-linecap="round" stroke-linejoin="round" stroke-width=".75"/><line x1="134.719" y1="105.735" x2="173.587" y2="202.326" fill="none" stroke="#fff" stroke-linecap="round" stroke-linejoin="round" stroke-width="2"/><line x1="134.719" y1="105.735" x2="173.587" y2="202.326" fill="none" stroke="#211f1f" stroke-linecap="round" stroke-linejoin="round" stroke-width=".75"/><line x1="32.148" y1="14.747" x2="40.318" y2="28.696" fill="none" stroke="#211f1f" stroke-linecap="round" stroke-linejoin="round" stroke-width=".75"/><rect x="42.463" y="238.082" width="91.924" height="9.156" fill="none"/><path d="M44.359,243.794c0,.328.056.607.168.84.111.232.268.422.468.57.199.147.43.256.689.323.26.068.542.103.847.103.327,0,.607-.038.84-.114.231-.076.42-.174.563-.294.145-.12.248-.258.312-.414.063-.156.096-.313.096-.474,0-.328-.074-.57-.222-.727-.148-.156-.311-.266-.486-.33-.304-.111-.658-.218-1.062-.317-.404-.101-.902-.23-1.494-.391-.368-.096-.674-.222-.918-.378-.244-.155-.438-.33-.582-.521-.145-.192-.246-.396-.307-.612-.06-.216-.09-.436-.09-.66,0-.432.09-.806.271-1.122.18-.315.418-.577.714-.786.296-.208.632-.361,1.008-.462.376-.1.756-.149,1.14-.149.448,0,.87.058,1.267.174.396.116.744.29,1.044.521.3.232.538.519.714.858s.264.734.264,1.182h-1.5c-.04-.552-.228-.941-.563-1.17-.336-.228-.765-.342-1.284-.342-.176,0-.356.019-.54.054-.184.036-.353.097-.504.181-.152.084-.278.197-.378.342-.101.144-.15.324-.15.54,0,.304.094.542.282.714.188.172.434.302.738.39.031.009.157.042.378.103.22.06.466.126.738.198.271.071.537.142.798.21.26.067.445.118.558.149.28.088.524.208.732.36s.382.326.521.521c.14.196.244.406.312.631.067.224.102.447.102.672,0,.479-.098.89-.294,1.229s-.454.618-.774.834c-.319.216-.684.374-1.092.475-.408.1-.824.149-1.248.149-.487,0-.947-.06-1.38-.18-.432-.12-.808-.304-1.128-.552s-.576-.566-.768-.954c-.192-.389-.292-.847-.3-1.374h1.5Z" fill="#221f20"/><path d="M50.959,238.082h1.368v3.18h.024c.168-.28.418-.514.75-.702.332-.188.702-.282,1.109-.282.681,0,1.216.177,1.608.528.392.353.588.88.588,1.584v4.26h-1.368v-3.899c-.016-.488-.12-.842-.312-1.062-.192-.22-.492-.33-.9-.33-.232,0-.44.042-.624.126s-.34.2-.468.349c-.128.147-.229.321-.3.521-.072.2-.108.412-.108.636v3.66h-1.368v-8.567Z" fill="#221f20"/><path d="M58.915,243.901c0,.24.034.473.102.696.068.224.17.42.307.588.136.168.308.302.516.402.208.1.456.149.744.149.399,0,.722-.086.966-.258s.426-.43.546-.773h1.296c-.071.336-.195.636-.372.899-.176.265-.388.486-.636.666s-.526.316-.834.408-.63.138-.966.138c-.488,0-.92-.08-1.296-.239-.376-.16-.694-.385-.954-.673s-.456-.632-.588-1.031c-.132-.4-.198-.841-.198-1.32,0-.439.07-.858.21-1.254.14-.396.34-.744.601-1.044.26-.3.573-.538.941-.714s.784-.265,1.248-.265c.488,0,.926.103,1.314.307.388.204.71.474.966.81s.441.722.558,1.158c.116.436.146.886.09,1.35h-4.56ZM62.107,243.002c-.017-.216-.062-.424-.139-.624s-.18-.374-.312-.522c-.132-.147-.292-.268-.48-.359-.188-.093-.397-.139-.63-.139-.24,0-.458.042-.654.126-.195.084-.363.2-.504.349-.14.147-.252.321-.336.521s-.13.416-.138.648h3.192Z" fill="#221f20"/><path d="M64.554,238.082h1.368v8.567h-1.368v-8.567Z" fill="#221f20"/><path d="M66.798,240.445h1.02v-.516c0-.392.048-.71.145-.954.096-.244.224-.432.384-.563.16-.133.342-.221.546-.265s.418-.065.642-.065c.44,0,.76.027.96.084v1.067c-.088-.023-.182-.042-.281-.054-.101-.012-.219-.018-.354-.018-.185,0-.342.044-.474.132-.133.088-.198.26-.198.516v.636h1.164v1.021h-1.164v5.184h-1.368v-5.184h-1.02v-1.021Z" fill="#221f20"/><path d="M74.718,238.082h1.5v8.567h-1.5v-8.567Z" fill="#221f20"/><path d="M78.054,238.082h3.552c.656,0,1.225.111,1.704.336.48.224.872.529,1.176.918.304.388.53.842.679,1.361.147.521.222,1.076.222,1.668s-.074,1.148-.222,1.668c-.148.521-.375.975-.679,1.362-.304.389-.695.694-1.176.918-.479.225-1.048.336-1.704.336h-3.552v-8.567ZM79.554,245.426h1.476c.584,0,1.062-.078,1.435-.234.372-.155.664-.372.876-.647.212-.276.355-.601.432-.973s.114-.773.114-1.206-.038-.834-.114-1.206c-.076-.371-.22-.695-.432-.972-.212-.275-.504-.492-.876-.647-.372-.156-.851-.234-1.435-.234h-1.476v6.12Z" fill="#221f20"/><path d="M89.862,240.445h1.296v.912l.024.024c.208-.344.479-.614.816-.811.336-.195.708-.294,1.115-.294.681,0,1.216.177,1.608.528.392.353.588.88.588,1.584v4.26h-1.368v-3.899c-.016-.488-.12-.842-.312-1.062-.192-.22-.492-.33-.9-.33-.232,0-.44.042-.624.126s-.34.2-.468.349c-.128.147-.229.321-.3.521-.072.2-.108.412-.108.636v3.66h-1.368v-6.204Z" fill="#221f20"/><path d="M102.198,246.649h-1.344v-.863h-.024c-.168.312-.418.562-.75.75-.332.188-.67.281-1.014.281-.816,0-1.406-.202-1.771-.605-.363-.404-.546-1.015-.546-1.83v-3.937h1.368v3.805c0,.544.104.928.312,1.151.208.225.499.336.876.336.288,0,.527-.044.72-.132s.348-.206.468-.354c.12-.148.206-.326.258-.534.053-.208.078-.432.078-.672v-3.601h1.368v6.204Z" fill="#221f20"/><path d="M103.637,240.445h1.296v.864h.036c.104-.151.216-.292.336-.42s.254-.236.402-.324c.147-.088.318-.157.51-.21.192-.052.412-.078.66-.078.376,0,.726.084,1.05.252s.554.429.69.78c.231-.319.5-.572.804-.756s.685-.276,1.14-.276c.656,0,1.166.16,1.53.48s.546.856.546,1.607v4.284h-1.368v-3.624c0-.248-.008-.474-.023-.678-.017-.204-.062-.38-.138-.528-.076-.147-.19-.262-.343-.342-.151-.08-.359-.12-.624-.12-.464,0-.8.145-1.008.433s-.312.695-.312,1.224v3.636h-1.368v-3.983c0-.433-.078-.758-.234-.979-.155-.22-.441-.33-.857-.33-.177,0-.347.036-.511.108s-.308.176-.432.312c-.124.137-.224.305-.3.504-.076.2-.114.429-.114.685v3.684h-1.368v-6.204Z" fill="#221f20"/><path d="M114.114,238.082h1.368v3.168h.024c.096-.152.212-.288.348-.408s.286-.222.45-.306c.164-.085.336-.148.516-.192s.358-.066.534-.066c.487,0,.914.086,1.278.259.363.172.666.407.905.708.24.3.42.649.54,1.05.12.399.181.828.181,1.284,0,.416-.055.819-.162,1.212-.108.392-.272.737-.492,1.038-.221.3-.498.539-.834.72-.336.18-.732.27-1.188.27-.208,0-.418-.014-.63-.042s-.414-.082-.605-.162c-.192-.079-.366-.184-.522-.312s-.286-.296-.39-.504h-.024v.852h-1.296v-8.567ZM118.89,243.554c0-.28-.036-.552-.108-.816-.072-.264-.18-.498-.324-.701-.144-.204-.323-.368-.54-.492-.216-.124-.464-.187-.743-.187-.576,0-1.011.2-1.303.601-.292.399-.438.932-.438,1.596,0,.312.038.602.114.87.075.268.189.498.342.689.151.192.334.345.546.456.212.112.458.168.738.168.312,0,.575-.063.792-.191.216-.128.394-.294.533-.498.141-.204.24-.437.301-.696.06-.26.09-.525.09-.798Z" fill="#221f20"/><path d="M122.478,243.901c0,.24.034.473.102.696.068.224.17.42.307.588.136.168.308.302.516.402.208.1.456.149.744.149.399,0,.722-.086.966-.258s.426-.43.546-.773h1.296c-.071.336-.195.636-.372.899-.176.265-.388.486-.636.666s-.526.316-.834.408-.63.138-.966.138c-.488,0-.92-.08-1.296-.239-.376-.16-.694-.385-.954-.673s-.456-.632-.588-1.031c-.132-.4-.198-.841-.198-1.32,0-.439.07-.858.21-1.254.14-.396.34-.744.601-1.044.26-.3.573-.538.941-.714s.784-.265,1.248-.265c.488,0,.926.103,1.314.307.388.204.71.474.966.81s.441.722.558,1.158c.116.436.146.886.09,1.35h-4.56ZM125.671,243.002c-.017-.216-.062-.424-.139-.624s-.18-.374-.312-.522c-.132-.147-.292-.268-.48-.359-.188-.093-.397-.139-.63-.139-.24,0-.458.042-.654.126-.195.084-.363.2-.504.349-.14.147-.252.321-.336.521s-.13.416-.138.648h3.192Z" fill="#221f20"/><path d="M128.082,240.445h1.284v1.2h.024c.04-.168.117-.332.233-.492.116-.159.256-.306.42-.438s.347-.238.546-.318c.2-.08.404-.12.612-.12.16,0,.271.005.33.013.061.008.122.016.187.023v1.32c-.097-.016-.194-.03-.295-.042-.1-.012-.197-.019-.294-.019-.231,0-.449.047-.653.139s-.383.228-.534.408c-.152.18-.272.401-.36.666-.088.264-.132.567-.132.911v2.952h-1.368v-6.204Z" fill="#221f20"/><rect x="106.82" y="220.603" width="91.924" height="9.156" fill="none"/><path d="M107.732,220.603h5.916v1.296h-4.416v2.244h3.876v1.224h-3.876v3.804h-1.5v-8.567Z" fill="#221f20"/><path d="M119.852,227.791c0,.168.021.288.066.36.043.071.13.107.258.107h.144c.056,0,.12-.008.192-.023v.948c-.048.016-.11.033-.187.054-.076.02-.153.038-.233.054s-.16.028-.24.036-.148.012-.204.012c-.28,0-.512-.056-.696-.168-.184-.111-.304-.308-.359-.588-.272.264-.606.456-1.002.576-.396.12-.778.18-1.146.18-.28,0-.548-.038-.804-.113-.256-.076-.482-.188-.678-.337-.196-.147-.353-.336-.469-.563-.115-.229-.174-.494-.174-.798,0-.384.07-.696.21-.937.14-.239.324-.428.553-.563.228-.136.483-.234.768-.294.284-.061.57-.106.858-.139.247-.048.483-.081.708-.102.224-.02.422-.054.594-.102.172-.049.308-.122.408-.223.1-.1.149-.25.149-.45,0-.176-.042-.319-.126-.432s-.188-.198-.312-.258c-.124-.061-.263-.1-.414-.12-.152-.02-.296-.03-.433-.03-.384,0-.7.08-.947.24-.248.16-.389.408-.42.744h-1.368c.023-.4.12-.732.288-.996s.382-.476.642-.636.554-.272.882-.336c.328-.064.664-.097,1.008-.097.305,0,.604.032.9.097.296.063.562.168.798.312.236.145.426.33.57.559.144.228.216.506.216.834v3.191ZM118.484,226.063c-.208.136-.464.218-.768.246-.305.027-.608.069-.912.126-.145.023-.284.058-.42.102-.137.044-.257.104-.36.18-.104.076-.186.177-.246.301-.06.124-.09.273-.09.449,0,.152.044.28.132.385.088.104.194.186.318.245.124.061.26.103.408.126.147.024.281.036.401.036.152,0,.316-.02.492-.06s.342-.108.498-.204.286-.218.39-.366c.104-.147.156-.33.156-.546v-1.02Z" fill="#221f20"/><path d="M125.516,225.043c-.057-.384-.21-.674-.462-.87-.252-.195-.57-.294-.954-.294-.176,0-.364.03-.564.09-.2.061-.384.173-.552.336-.168.164-.308.393-.42.685s-.168.674-.168,1.146c0,.257.03.513.09.769.061.256.156.484.288.684.132.2.302.362.51.486s.46.186.756.186c.4,0,.73-.124.99-.372.26-.247.422-.596.486-1.044h1.368c-.129.809-.435,1.427-.918,1.854-.484.428-1.127.642-1.927.642-.487,0-.918-.082-1.29-.246-.372-.163-.686-.388-.941-.672-.256-.283-.45-.622-.582-1.014s-.198-.816-.198-1.272c0-.464.064-.899.192-1.308s.319-.762.576-1.062c.256-.301.573-.536.953-.708.38-.173.826-.259,1.339-.259.359,0,.701.047,1.025.139s.612.229.864.414c.252.184.458.416.618.695.159.28.256.612.288.996h-1.368Z" fill="#221f20"/><path d="M129.068,226.423c0,.24.034.473.102.696.068.224.17.42.307.588.136.168.308.302.516.402.208.1.456.149.744.149.399,0,.722-.086.966-.258s.426-.43.546-.773h1.296c-.071.336-.195.636-.372.899-.176.265-.388.486-.636.666s-.526.316-.834.408-.63.138-.966.138c-.488,0-.92-.08-1.296-.239-.376-.16-.694-.385-.954-.673s-.456-.632-.588-1.031c-.132-.4-.198-.841-.198-1.32,0-.439.07-.858.21-1.254.14-.396.34-.744.601-1.044.26-.3.573-.538.941-.714s.784-.265,1.248-.265c.488,0,.926.103,1.314.307.388.204.71.474.966.81s.441.722.558,1.158c.116.436.146.886.09,1.35h-4.56ZM132.26,225.523c-.017-.216-.062-.424-.139-.624s-.18-.374-.312-.522c-.132-.147-.292-.268-.48-.359-.188-.093-.397-.139-.63-.139-.24,0-.458.042-.654.126-.195.084-.363.2-.504.349-.14.147-.252.321-.336.521s-.13.416-.138.648h3.192Z" fill="#221f20"/><path d="M134.708,222.967h1.296v.841h.024c.191-.36.46-.618.804-.774s.716-.234,1.116-.234c.487,0,.914.086,1.278.259.363.172.666.407.905.708.24.3.42.649.54,1.05.12.399.181.828.181,1.284,0,.416-.055.819-.162,1.212-.108.392-.272.737-.492,1.038-.221.3-.498.539-.834.72-.336.18-.732.27-1.188.27-.199,0-.399-.018-.6-.054s-.392-.094-.576-.174c-.184-.08-.354-.182-.51-.307-.156-.123-.286-.27-.39-.438h-.024v3.096h-1.368v-8.496ZM139.484,226.075c0-.28-.036-.552-.108-.816-.072-.264-.18-.498-.324-.701-.144-.204-.323-.368-.54-.492-.216-.124-.464-.187-.743-.187-.576,0-1.011.2-1.303.601-.292.399-.438.932-.438,1.596,0,.312.038.602.114.87.075.268.189.498.342.689.151.192.334.345.546.456.212.112.458.168.738.168.312,0,.575-.063.792-.191.216-.128.394-.294.533-.498.141-.204.24-.437.301-.696.06-.26.09-.525.09-.798Z" fill="#221f20"/><path d="M142.04,220.603h1.368v8.567h-1.368v-8.567Z" fill="#221f20"/><path d="M150.091,227.791c0,.168.021.288.066.36.043.071.13.107.258.107h.144c.056,0,.12-.008.192-.023v.948c-.048.016-.11.033-.187.054-.076.02-.153.038-.233.054s-.16.028-.24.036-.148.012-.204.012c-.28,0-.512-.056-.696-.168-.184-.111-.304-.308-.359-.588-.272.264-.606.456-1.002.576-.396.12-.778.18-1.146.18-.28,0-.548-.038-.804-.113-.256-.076-.482-.188-.678-.337-.196-.147-.353-.336-.469-.563-.115-.229-.174-.494-.174-.798,0-.384.07-.696.21-.937.14-.239.324-.428.553-.563.228-.136.483-.234.768-.294.284-.061.57-.106.858-.139.247-.048.483-.081.708-.102.224-.02.422-.054.594-.102.172-.049.308-.122.408-.223.1-.1.149-.25.149-.45,0-.176-.042-.319-.126-.432s-.188-.198-.312-.258c-.124-.061-.263-.1-.414-.12-.152-.02-.296-.03-.433-.03-.384,0-.7.08-.947.24-.248.16-.389.408-.42.744h-1.368c.023-.4.12-.732.288-.996s.382-.476.642-.636.554-.272.882-.336c.328-.064.664-.097,1.008-.097.305,0,.604.032.9.097.296.063.562.168.798.312.236.145.426.33.57.559.144.228.216.506.216.834v3.191ZM148.723,226.063c-.208.136-.464.218-.768.246-.305.027-.608.069-.912.126-.145.023-.284.058-.42.102-.137.044-.257.104-.36.18-.104.076-.186.177-.246.301-.06.124-.09.273-.09.449,0,.152.044.28.132.385.088.104.194.186.318.245.124.061.26.103.408.126.147.024.281.036.401.036.152,0,.316-.02.492-.06s.342-.108.498-.204.286-.218.39-.366c.104-.147.156-.33.156-.546v-1.02Z" fill="#221f20"/><path d="M150.943,222.967h1.032v-1.859h1.368v1.859h1.236v1.021h-1.236v3.312c0,.145.006.269.018.372.013.104.04.192.084.265.044.071.11.126.198.161.088.036.208.055.36.055.096,0,.191-.002.288-.006.096-.004.191-.019.288-.042v1.056c-.152.016-.301.032-.444.048-.145.016-.292.024-.444.024-.359,0-.649-.034-.87-.103-.22-.067-.392-.168-.516-.3s-.208-.298-.252-.498-.07-.428-.078-.684v-3.66h-1.032v-1.021Z" fill="#221f20"/><path d="M156.631,226.423c0,.24.034.473.102.696.068.224.17.42.307.588.136.168.308.302.516.402.208.1.456.149.744.149.399,0,.722-.086.966-.258s.426-.43.546-.773h1.296c-.071.336-.195.636-.372.899-.176.265-.388.486-.636.666s-.526.316-.834.408-.63.138-.966.138c-.488,0-.92-.08-1.296-.239-.376-.16-.694-.385-.954-.673s-.456-.632-.588-1.031c-.132-.4-.198-.841-.198-1.32,0-.439.07-.858.21-1.254.14-.396.34-.744.601-1.044.26-.3.573-.538.941-.714s.784-.265,1.248-.265c.488,0,.926.103,1.314.307.388.204.71.474.966.81s.441.722.558,1.158c.116.436.146.886.09,1.35h-4.56ZM159.824,225.523c-.017-.216-.062-.424-.139-.624s-.18-.374-.312-.522c-.132-.147-.292-.268-.48-.359-.188-.093-.397-.139-.63-.139-.24,0-.458.042-.654.126-.195.084-.363.2-.504.349-.14.147-.252.321-.336.521s-.13.416-.138.648h3.192Z" fill="#221f20"/></g></svg>