<?xml version="1.0" encoding="UTF-8"?><svg id="b" xmlns="http://www.w3.org/2000/svg" width="5.75in" height="2in" viewBox="0 0 414 144"><rect x="4.888" y="52.498" width="403.2" height="86.552" fill="none" stroke="#ccc" stroke-linecap="round" stroke-linejoin="round" stroke-width="1.645"/><polygon points="8.793 56.157 404.31 56.157 404.046 94.428 8.53 94.428 8.793 56.157" fill="#ccc" fill-rule="evenodd"/><path d="M26.642,93.728h29.329c2.007,0,3.653-1.647,3.653-3.653v-29.329c0-2.058-1.647-3.705-3.653-3.705h-29.329c-2.058,0-3.705,1.647-3.705,3.705v29.329c0,2.007,1.647,3.653,3.705,3.653Z" fill="#e5e5e4"/><path d="M59.058,72.272v-3.396c-1.955-5.197-6.02-9.313-11.217-11.217h-6.998c-.154,0-.309.154-.309.36,0,.051,0,.154.103.206,2.213,2.213,4.013,4.837,5.197,7.718,4.631,2.264,6.946,7.512,5.506,12.452,2.984-1.441,5.608-3.499,7.718-6.123M44.394,93.162h3.447c5.197-1.955,9.262-6.02,11.217-11.217v-6.998c0-.154-.154-.309-.36-.309-.103,0-.206,0-.257.103-2.213,2.213-4.837,4.013-7.718,5.197-2.264,4.631-7.512,6.946-12.452,5.506,1.441,2.984,3.55,5.608,6.123,7.718ZM23.555,78.497v3.447c1.904,5.197,6.02,9.262,11.217,11.217h6.946c.206,0,.36-.154.36-.36,0-.103-.051-.206-.103-.257-2.264-2.213-4.065-4.837-5.248-7.718-4.631-2.264-6.946-7.512-5.454-12.452-3.036,1.441-5.66,3.55-7.718,6.123ZM38.168,57.659h-3.396c-5.197,1.904-9.313,6.02-11.217,11.217v6.946c0,.206.154.36.309.36.103,0,.206-.051.257-.103,2.213-2.264,4.837-4.065,7.718-5.248,2.264-4.631,7.512-6.946,12.452-5.454-1.441-3.036-3.499-5.66-6.123-7.718Z" fill="#fff" fill-rule="evenodd"/><path d="M29.421,86.936c-.772-.72-1.801-1.081-2.83-1.081-1.286-1.801-2.213-3.808-2.778-5.917v-9.107c.566-2.11,1.492-4.116,2.778-5.917h4.271c.412,0,.823.103,1.183.257l4.476,1.955c-3.962,2.264-5.711,6.998-4.271,11.32l-2.47,5.66c-.257.515-.36,1.132-.36,1.698v1.132M53.038,93.728h33.754v-1.749c0-.206.154-.36.36-.36h1.029v-7.461h-5.197v-15.127h5.197v-10.805h-11.32v2.727h-.566v-2.727h-8.233v2.727h-.566v-2.727h-7.872v-.206c0-.515-.412-.978-.926-.978h-5.66c-.72,0-1.286.617-1.286,1.286v6.638c0,.412-.051.823-.206,1.183l-2.007,4.476c-2.264-3.962-6.998-5.711-11.32-4.271l-5.608-2.47c-.566-.257-1.132-.36-1.749-.36h-1.132c.72-.772,1.081-1.801,1.081-2.83v-2.367c0-.669-.566-1.286-1.286-1.286h-5.66c-.515,0-.926.463-.926.978v1.029h-.617v34.68h7.204c.72,0,1.286-.566,1.286-1.286v-6.638c0-.412.103-.772.257-1.132l1.955-4.528c2.264,3.962,6.998,5.763,11.32,4.271l5.66,2.47c.515.257,1.132.36,1.698.36h1.132c-.669.772-1.081,1.801-1.081,2.83v2.367c0,.72.566,1.286,1.286,1.286ZM53.141,63.833c.772.72,1.801,1.081,2.83,1.081,1.286,1.801,2.213,3.808,2.778,5.917v9.107c-.566,2.11-1.492,4.116-2.778,5.917h-4.271c-.412,0-.772-.051-1.132-.257l-4.528-1.955c3.962-2.264,5.763-6.998,4.271-11.32l2.47-5.608c.257-.566.36-1.132.36-1.749v-1.132Z" fill="#e5e5e4" fill-rule="evenodd"/><path d="M59.984,61.261v25.058c0,.823.617,1.492,1.441,1.492h18.215c.772,0,1.441-.669,1.441-1.492v-25.058c0-.823-.669-1.492-1.441-1.492h-18.215c-.823,0-1.441.669-1.441,1.492" fill="#ccc" fill-rule="evenodd"/><path d="M62.094,68.104v11.32c0,.669.257,1.235.72,1.698l4.579,4.374c.412.412.978.617,1.595.617h7.667c1.286,0,2.315-1.029,2.315-2.315v-20.015c0-1.286-1.029-2.367-2.315-2.367h-7.667c-.617,0-1.183.257-1.595.669l-4.579,4.374c-.463.412-.72,1.029-.72,1.647Z" fill="#fff"/><path d="M70.687,81.173h4.631v-1.441h-4.631v1.441ZM65.696,74.484h4.682v-1.389h-4.682v1.389ZM70.687,67.847h4.631v-1.389h-4.631v1.389Z" fill="#ccc" fill-rule="evenodd"/><path d="M26.436,93.728h29.689c1.955,0,3.499-1.595,3.499-3.499v-4.991c0-.206-.154-.36-.36-.36h-2.213c-.206,0-.36.154-.36.36v4.991c0,.309-.257.566-.566.566h-29.689c-.309,0-.566-.257-.566-.566v-4.991c0-.206-.154-.36-.36-.36h-2.213c-.206,0-.36.154-.36.36v4.991c0,1.904,1.595,3.499,3.499,3.499Z" fill="#ccc"/><path d="M77.478,93.265h1.852c.515,0,.978-.412.978-.926v-14.458c0-.515-.463-.926-.978-.926h-1.852c-.515,0-.926.412-.926.926v14.458c0,.515.412.926.926.926" fill="#ccc" fill-rule="evenodd"/><rect x="80.308" y="78.086" width="7.872" height="14.047" fill="#e9e8e7"/><rect x="63.277" y="87.965" width="11.68" height="5.557" fill="#ccc"/><path d="M390.198,56.231H90.226v1.199c0,1.002.811,1.813,1.813,1.813h173.472c1.526,0,1.91,4.811,2.673,6.146l1.622,2.766c.763,1.288,2.146,2.099,3.673,2.099h5.635c1.526,0,2.91-.811,3.673-2.099l1.574-2.766c.763-1.336,1.194-6.146,2.72-6.146h101.306c1.002,0,1.813-.811,1.813-1.813v-1.199" fill="#d9d9d9" fill-rule="evenodd" stroke="#fff" stroke-miterlimit="10" stroke-width=".803"/><path d="M281.446,64.054c0-2.862-2.29-5.151-5.151-5.151s-5.151,2.289-5.151,5.151,2.29,5.151,5.151,5.151,5.151-2.289,5.151-5.151Z" fill="#8bbae4"/><path d="M279.423,64.054c0-1.717-1.412-3.129-3.129-3.129s-3.129,1.412-3.129,3.129,1.412,3.129,3.129,3.129,3.129-1.412,3.129-3.129Z" fill="#818181"/><path d="M275.049,63.324l.215.215c.3.258.3.73,0,1.03l-.215.215c-.086.086-.086.258,0,.343l.172.129c.086.086.258.086.343,0l.215-.215c.258-.258.73-.258,1.03,0l.215.215c.086.129.258.129.343,0l.129-.129c.129-.086.129-.258,0-.343l-.215-.215c-.258-.3-.258-.773,0-1.03l.215-.215c.129-.086.129-.258,0-.343l-.129-.172c-.086-.086-.258-.086-.343,0l-.215.215c-.3.3-.773.3-1.03,0l-.215-.215c-.129-.086-.258-.086-.343,0l-.172.172c-.086.086-.086.215,0,.343" fill="#fff" fill-rule="evenodd"/><polygon points="8.793 96.382 404.31 96.382 404.046 134.654 8.53 134.654 8.793 96.382" fill="#ccc" fill-rule="evenodd"/><path d="M26.642,133.953h29.329c2.007,0,3.653-1.647,3.653-3.653v-29.329c0-2.058-1.647-3.705-3.653-3.705h-29.329c-2.058,0-3.705,1.647-3.705,3.705v29.329c0,2.007,1.647,3.653,3.705,3.653Z" fill="#e5e5e4"/><path d="M59.058,112.497v-3.396c-1.955-5.197-6.02-9.313-11.217-11.217h-6.998c-.154,0-.309.154-.309.36,0,.051,0,.154.103.206,2.213,2.213,4.013,4.837,5.197,7.718,4.631,2.264,6.946,7.512,5.506,12.452,2.984-1.441,5.608-3.499,7.718-6.123M44.394,133.387h3.447c5.197-1.955,9.262-6.02,11.217-11.217v-6.998c0-.154-.154-.309-.36-.309-.103,0-.206,0-.257.103-2.213,2.213-4.837,4.013-7.718,5.197-2.264,4.631-7.512,6.946-12.452,5.506,1.441,2.984,3.55,5.608,6.123,7.718ZM23.555,118.723v3.447c1.904,5.197,6.02,9.262,11.217,11.217h6.946c.206,0,.36-.154.36-.36,0-.103-.051-.206-.103-.257-2.264-2.213-4.065-4.837-5.248-7.718-4.631-2.264-6.946-7.512-5.454-12.452-3.036,1.441-5.66,3.55-7.718,6.123ZM38.168,97.884h-3.396c-5.197,1.904-9.313,6.02-11.217,11.217v6.946c0,.206.154.36.309.36.103,0,.206-.051.257-.103,2.213-2.264,4.837-4.065,7.718-5.248,2.264-4.631,7.512-6.946,12.452-5.454-1.441-3.036-3.499-5.66-6.123-7.718Z" fill="#fff" fill-rule="evenodd"/><path d="M29.421,127.161c-.772-.72-1.801-1.081-2.83-1.081-1.286-1.801-2.213-3.808-2.778-5.917v-9.107c.566-2.11,1.492-4.116,2.778-5.917h4.271c.412,0,.823.103,1.183.257l4.476,1.955c-3.962,2.264-5.711,6.998-4.271,11.32l-2.47,5.66c-.257.515-.36,1.132-.36,1.698v1.132M53.038,133.953h33.754v-1.749c0-.206.154-.36.36-.36h1.029v-7.461h-5.197v-15.127h5.197v-10.805h-11.32v2.727h-.566v-2.727h-8.233v2.727h-.566v-2.727h-7.872v-.206c0-.515-.412-.978-.926-.978h-5.66c-.72,0-1.286.617-1.286,1.286v6.638c0,.412-.051.823-.206,1.183l-2.007,4.476c-2.264-3.962-6.998-5.711-11.32-4.271l-5.608-2.47c-.566-.257-1.132-.36-1.749-.36h-1.132c.72-.772,1.081-1.801,1.081-2.83v-2.367c0-.669-.566-1.286-1.286-1.286h-5.66c-.515,0-.926.463-.926.978v1.029h-.617v34.68h7.204c.72,0,1.286-.566,1.286-1.286v-6.638c0-.412.103-.772.257-1.132l1.955-4.528c2.264,3.962,6.998,5.763,11.32,4.271l5.66,2.47c.515.257,1.132.36,1.698.36h1.132c-.669.772-1.081,1.801-1.081,2.83v2.367c0,.72.566,1.286,1.286,1.286ZM53.141,104.059c.772.72,1.801,1.081,2.83,1.081,1.286,1.801,2.213,3.808,2.778,5.917v9.107c-.566,2.11-1.492,4.116-2.778,5.917h-4.271c-.412,0-.772-.051-1.132-.257l-4.528-1.955c3.962-2.264,5.763-6.998,4.271-11.32l2.47-5.608c.257-.566.36-1.132.36-1.749v-1.132Z" fill="#e5e5e4" fill-rule="evenodd"/><path d="M59.984,101.486v25.058c0,.823.617,1.492,1.441,1.492h18.215c.772,0,1.441-.669,1.441-1.492v-25.058c0-.823-.669-1.492-1.441-1.492h-18.215c-.823,0-1.441.669-1.441,1.492" fill="#ccc" fill-rule="evenodd"/><path d="M62.094,108.329v11.32c0,.669.257,1.235.72,1.698l4.579,4.374c.412.412.978.617,1.595.617h7.667c1.286,0,2.315-1.029,2.315-2.315v-20.015c0-1.286-1.029-2.367-2.315-2.367h-7.667c-.617,0-1.183.257-1.595.669l-4.579,4.374c-.463.412-.72,1.029-.72,1.647Z" fill="#fff"/><path d="M70.687,121.399h4.631v-1.441h-4.631v1.441ZM65.696,114.71h4.682v-1.389h-4.682v1.389ZM70.687,108.072h4.631v-1.389h-4.631v1.389Z" fill="#ccc" fill-rule="evenodd"/><path d="M26.436,133.953h29.689c1.955,0,3.499-1.595,3.499-3.499v-4.991c0-.206-.154-.36-.36-.36h-2.213c-.206,0-.36.154-.36.36v4.991c0,.309-.257.566-.566.566h-29.689c-.309,0-.566-.257-.566-.566v-4.991c0-.206-.154-.36-.36-.36h-2.213c-.206,0-.36.154-.36.36v4.991c0,1.904,1.595,3.499,3.499,3.499Z" fill="#ccc"/><path d="M77.478,133.49h1.852c.515,0,.978-.412.978-.926v-14.458c0-.515-.463-.926-.978-.926h-1.852c-.515,0-.926.412-.926.926v14.458c0,.515.412.926.926.926" fill="#ccc" fill-rule="evenodd"/><rect x="80.308" y="118.311" width="7.872" height="14.047" fill="#e9e8e7"/><rect x="63.277" y="128.19" width="11.68" height="5.557" fill="#ccc"/><path d="M390.198,96.457H90.226v1.199c0,1.002.811,1.813,1.813,1.813h173.472c1.526,0,1.91,4.811,2.673,6.146l1.622,2.766c.763,1.288,2.146,2.099,3.673,2.099h5.635c1.526,0,2.91-.811,3.673-2.099l1.574-2.766c.763-1.336,1.194-6.146,2.72-6.146h101.306c1.002,0,1.813-.811,1.813-1.813v-1.199" fill="#d9d9d9" fill-rule="evenodd" stroke="#fff" stroke-miterlimit="10" stroke-width=".803"/><path d="M281.446,104.279c0-2.862-2.29-5.151-5.151-5.151s-5.151,2.289-5.151,5.151,2.29,5.151,5.151,5.151,5.151-2.289,5.151-5.151Z" fill="#8bbae4"/><path d="M279.423,104.279c0-1.717-1.412-3.129-3.129-3.129s-3.129,1.412-3.129,3.129,1.412,3.129,3.129,3.129,3.129-1.412,3.129-3.129Z" fill="#818181"/><path d="M275.049,103.549l.215.215c.3.258.3.73,0,1.03l-.215.215c-.086.086-.086.258,0,.343l.172.129c.086.086.258.086.343,0l.215-.215c.258-.258.73-.258,1.03,0l.215.215c.086.129.258.129.343,0l.129-.129c.129-.086.129-.258,0-.343l-.215-.215c-.258-.3-.258-.773,0-1.03l.215-.215c.129-.086.129-.258,0-.343l-.129-.172c-.086-.086-.258-.086-.343,0l-.215.215c-.3.3-.773.3-1.03,0l-.215-.215c-.129-.086-.258-.086-.343,0l-.172.172c-.086.086-.086.215,0,.343" fill="#fff" fill-rule="evenodd"/><path d="M173.175,92.01c.051.001.103.002.154.002h4.559c2.97,0,5.4-2.43,5.4-5.4v-2.677c0-2.97-2.43-5.4-5.4-5.4h-4.53l-.012-.043c-.293-.741-1.019-1.269-1.861-1.269h-68.287c-1.1,0-2,.9-2,2v11.753c0,1.1.9,2,2,2h68.287c.704,0,1.326-.369,1.683-.922l.007-.043Z" fill="#ececec" fill-rule="evenodd"/><path d="M107.641,90.761v-11.449c0-.56-.458-1.069-1.018-1.069h-.051l-9.413.153c-.56,0-1.018.458-1.018,1.069v11.194c0,.56.458,1.018,1.018,1.018l9.413.153c.611,0,1.069-.458,1.069-1.018v-.051Z" fill="#676767" fill-rule="evenodd"/><path d="M182.773,86.158h.051c0-.051.051-.102.051-.153v-.051c0-.051-.051-.102-.102-.102h-.051v-.153c.051,0,.102-.051.102-.153l-.051-.051c0-.051-.051-.102-.102-.102l-.051.051v-.204c.051,0,.102-.051.051-.102v-.102c0-.051-.051-.051-.102-.051h-.051c-.051-.051-.051-.102-.051-.153h.051s.051-.102,0-.153v-.051c-.051-.051-.102-.102-.153-.051h-.051c0-.051,0-.102-.051-.153h.051c.051-.051.051-.102,0-.153v-.051c-.051-.051-.102-.051-.153-.051l-.051.051c0-.051-.051-.102-.051-.153v-.051c.051,0,.051-.051,0-.102v-.051c-.051-.051-.102-.102-.153-.051h-.051s-.051-.051-.102-.102l.051-.051c.051,0,.051-.051,0-.102l-.051-.051c-.051-.051-.102-.051-.153-.051v.051c-.051-.051-.102-.102-.153-.102l.051-.051c.051-.051,0-.102,0-.153l-.051-.051h-.153l-.051.051q-.051-.051-.102-.102v-.051c.051-.051.051-.102,0-.102l-.051-.051c-.051-.051-.153-.051-.153,0l-.051.051-.102-.102v-.051c.051-.051,0-.102-.051-.102l-.051-.051c-.051-.051-.102,0-.153,0v.051c-.051,0-.102-.051-.153-.051v-.051c.051-.051,0-.102-.051-.102l-.051-.051c-.051,0-.102,0-.153.051v.051c-.051-.051-.102-.051-.153-.102.051-.051,0-.102-.051-.153h-.051c-.102-.051-.153,0-.153.051v.051c-.051-.051-.102-.051-.153-.051v-.051c0-.051-.051-.102-.102-.102h-.051c-.051-.051-.102,0-.153.051v.051c-.051,0-.102-.051-.153-.051v-.051c0-.051-.051-.051-.102-.102h-.051c-.051,0-.102.051-.102.102v.051h-.204v-.051c0-.051,0-.102-.102-.102h-.051c-.051,0-.102.051-.102.102v.051h-.153v-.051c0-.051-.051-.102-.153-.102h-.051c-.051.051-.102.051-.102.102v.051c-.051,0-.102.051-.153.051v-.051c0-.051-.051-.102-.102-.051h-.102c-.051,0-.102.051-.102.102l.051.051c-.051,0-.102,0-.153.051l-.051-.051c0-.051-.051-.102-.102-.051h-.051c-.102.051-.102.102-.102.153-.051.051-.102.051-.153.102v-.051c0-.051-.102-.051-.153-.051l-.051.051c-.051,0-.051.051-.051.102v.051c-.051,0-.102.051-.102.051l-.051-.051s-.102-.051-.153,0l-.051.051c-.051,0-.051.051-.051.102l.051.051c-.051.051-.102.051-.153.102v-.051c-.051-.051-.102-.051-.153,0l-.051.051c-.051,0-.102.051-.051.102l.051.051c-.051.051-.102.051-.153.102v-.051h-.153l-.051.051c-.051.051-.051.102-.051.153l.051.051c-.051,0-.051.051-.102.102l-.051-.051c-.051,0-.102,0-.153.051l-.051.051v.102l.051.051c-.051.051-.051.102-.102.102h-.051c0-.051-.102,0-.102.051l-.051.051c-.051.051-.051.102,0,.102l.051.051c-.051.051-.051.102-.102.153l-.051-.051c-.051,0-.102,0-.102.051l-.051.051c-.051.051,0,.102,0,.153h.051c0,.051-.051.102-.051.153h-.051c-.051-.051-.102,0-.102.051l-.051.051c0,.051,0,.153.051.153h.051c-.051.051-.051.102-.051.153h-.051c-.051,0-.102,0-.153.051v.102c0,.051,0,.102.051.102l.051.051c0,.051-.051.102-.051.153l-.051-.051c-.051,0-.102.051-.102.102v.051c-.051.102,0,.153.051.153h.051c0,.051-.051.102-.051.153h-.051c-.051,0-.051.051-.102.102v.051c0,.051.051.102.102.153h.051v.153h-.051c-.051,0-.102.051-.102.102v.051c0,.051.051.102.102.102h.051v.153l-.051.051c-.051,0-.102.051-.102.102v.051c.051.051.051.102.102.102h.051c0,.051.051.102.051.153h-.051c-.051,0-.102.102-.051.153v.051c0,.051.051.102.102.102h.051c0,.051.051.102.051.153h-.051c-.051,0-.051.051-.051.102v.102c.051.051.102.051.153.051h.051c0,.051,0,.102.051.153h-.051c-.051.051-.051.102-.051.153l.051.051c0,.051.051.102.102.051h.051c0,.051.051.102.051.153h-.051c0,.051-.051.102,0,.153l.051.051c0,.051.051.051.102.051l.051-.051c.051.051.051.102.102.153l-.051.051c-.051,0-.051.051,0,.102l.051.051c0,.051.102.102.102.051h.051c.051,0,.051.051.102.102l-.051.051v.102l.051.051c.051.051.102.051.153.051l.051-.051c.051.051.051.102.102.102l-.051.051c0,.051,0,.102.051.153l.051.051c.051,0,.102.051.153,0v-.051c.051.051.102.051.153.102l-.051.051c-.051.051,0,.102.051.102l.051.051c.051.051.102.051.153,0v-.051c.051.051.102.102.153.102l-.051.051c0,.051,0,.102.051.102l.051.051c.051.051.153.051.153,0l.051-.051s.051.051.102.051v.051c0,.051,0,.102.051.153h.051c.051.051.153,0,.153-.051.051,0,.102,0,.153.051v.051s0,.051.102.102h.051c.051.051.102,0,.102-.051l.051-.051c.051.051.102.051.153.051l-.051.051c0,.051.051.102.102.102l.102.051c.051,0,.102-.051.102-.102v-.051c.051.051.102.051.153.051v.051c0,.051.051.102.102.102h.051c.102,0,.153-.051.153-.102v-.051c.051,0,.102.051.153.051v.051s.051.051.102.051h.051c.102,0,.102-.051.102-.051v-.051c.102,0,.153-.051.204-.051v.051c0,.051.051.102.102.102h.051c.051,0,.102-.051.102-.102v-.051c.051,0,.102,0,.153-.051v.051c.051.051.102.102.153.102l.051-.051c.051,0,.102-.051.102-.102v-.051c.051,0,.102,0,.153-.051v.051c0,.051.051.102.153.051h.051c.051-.051.102-.102.051-.102v-.051c.051-.051.102-.051.153-.051.051.051.102.102.153.051h.051c.051-.051.102-.102.051-.153v-.051c.051,0,.102-.051.153-.051v.051c.051.051.102.051.153,0l.051-.051c.051,0,.102-.051.051-.102v-.051c.051,0,.051-.051.102-.102l.051.051c0,.051.102.051.153,0l.051-.051c.051,0,.051-.051,0-.102v-.051q.051-.051.102-.102l.051.051c0,.051.102,0,.153,0l.051-.051c0-.051.051-.102,0-.153l-.051-.051c.051,0,.102-.051.153-.102v.051c.051,0,.102,0,.153-.051l.051-.051c.051,0,.051-.102,0-.102l-.051-.051c.051-.051.102-.102.102-.102h.051c.051.051.102,0,.153-.051v-.051c.051-.051.051-.102,0-.102v-.051c0-.051.051-.102.051-.153l.051.051c.051,0,.102,0,.153-.051v-.051c.051-.051.051-.102,0-.153h-.051c.051-.051.051-.102.051-.153h.051c.051.051.102,0,.153-.051v-.051c.051-.051,0-.102,0-.153h-.051c0-.051,0-.102.051-.153h.051c.051,0,.102,0,.102-.051v-.102c.051-.051,0-.102-.051-.102v-.153h.051c.051,0,.102-.051.102-.102l.051-.051c0-.051-.051-.153-.102-.153v-.153h.051c.051,0,.102-.051.102-.102v-.051c0-.051-.051-.102-.051-.102l-.051-.051v-.153h.051c.051,0,.051-.051.051-.102v-.051c0-.051,0-.102-.051-.102h-.051v-.153Z" fill="#a7a6a6"/><path d="M181.196,86.463c0-1.476-1.221-2.646-2.646-2.646-1.476,0-2.646,1.17-2.646,2.646,0,1.425,1.17,2.595,2.646,2.595,1.425,0,2.646-1.17,2.646-2.595Z" fill="#ddd" fill-rule="evenodd"/><path d="M179.975,87.43l-.611-.661c-.204-.204-.204-.458,0-.661l.611-.661-.458-.458-.661.661c-.153.153-.458.153-.661,0l-.611-.661-.509.458.661.661c.153.204.153.458,0,.661l-.661.661.509.458.611-.661c.204-.153.509-.153.661,0l.661.661.458-.458Z" fill="#a2a2a1"/><rect x="115.943" y="80.937" width="16.551" height="7.966" fill="#005cb9"/><rect x="141.946" y="80.937" width="16.551" height="7.966" fill="#1a1a1a"/><path d="M173.175,75.672c.051.001.103.002.154.002h4.559c2.97,0,5.4-2.43,5.4-5.4v-2.677c0-2.97-2.43-5.4-5.4-5.4h-4.53l-.012-.043c-.293-.741-1.019-1.269-1.861-1.269h-68.287c-1.1,0-2,.9-2,2v11.753c0,1.1.9,2,2,2h68.287c.704,0,1.326-.369,1.683-.922l.007-.043Z" fill="#ececec" fill-rule="evenodd"/><path d="M107.641,74.424v-11.449c0-.56-.458-1.069-1.018-1.069h-.051l-9.413.153c-.56,0-1.018.458-1.018,1.069v11.194c0,.56.458,1.018,1.018,1.018l9.413.153c.611,0,1.069-.458,1.069-1.018v-.051Z" fill="#676767" fill-rule="evenodd"/><path d="M182.773,69.82h.051c0-.051.051-.102.051-.153v-.051c0-.051-.051-.102-.102-.102h-.051v-.153c.051,0,.102-.051.102-.153l-.051-.051c0-.051-.051-.102-.102-.102l-.051.051v-.204c.051,0,.102-.051.051-.102v-.102c0-.051-.051-.051-.102-.051h-.051c-.051-.051-.051-.102-.051-.153h.051s.051-.102,0-.153v-.051c-.051-.051-.102-.102-.153-.051h-.051c0-.051,0-.102-.051-.153h.051c.051-.051.051-.102,0-.153v-.051c-.051-.051-.102-.051-.153-.051l-.051.051c0-.051-.051-.102-.051-.153v-.051c.051,0,.051-.051,0-.102v-.051c-.051-.051-.102-.102-.153-.051h-.051s-.051-.051-.102-.102l.051-.051c.051,0,.051-.051,0-.102l-.051-.051c-.051-.051-.102-.051-.153-.051v.051c-.051-.051-.102-.102-.153-.102l.051-.051c.051-.051,0-.102,0-.153l-.051-.051h-.153l-.051.051q-.051-.051-.102-.102v-.051c.051-.051.051-.102,0-.102l-.051-.051c-.051-.051-.153-.051-.153,0l-.051.051-.102-.102v-.051c.051-.051,0-.102-.051-.102l-.051-.051c-.051-.051-.102,0-.153,0v.051c-.051,0-.102-.051-.153-.051v-.051c.051-.051,0-.102-.051-.102l-.051-.051c-.051,0-.102,0-.153.051v.051c-.051-.051-.102-.051-.153-.102.051-.051,0-.102-.051-.153h-.051c-.102-.051-.153,0-.153.051v.051c-.051-.051-.102-.051-.153-.051v-.051c0-.051-.051-.102-.102-.102h-.051c-.051-.051-.102,0-.153.051v.051c-.051,0-.102-.051-.153-.051v-.051c0-.051-.051-.051-.102-.102h-.051c-.051,0-.102.051-.102.102v.051h-.204v-.051c0-.051,0-.102-.102-.102h-.051c-.051,0-.102.051-.102.102v.051h-.153v-.051c0-.051-.051-.102-.153-.102h-.051c-.051.051-.102.051-.102.102v.051c-.051,0-.102.051-.153.051v-.051c0-.051-.051-.102-.102-.051h-.102c-.051,0-.102.051-.102.102l.051.051c-.051,0-.102,0-.153.051l-.051-.051c0-.051-.051-.102-.102-.051h-.051c-.102.051-.102.102-.102.153-.051.051-.102.051-.153.102v-.051c0-.051-.102-.051-.153-.051l-.051.051c-.051,0-.051.051-.051.102v.051c-.051,0-.102.051-.102.051l-.051-.051s-.102-.051-.153,0l-.051.051c-.051,0-.051.051-.051.102l.051.051c-.051.051-.102.051-.153.102v-.051c-.051-.051-.102-.051-.153,0l-.051.051c-.051,0-.102.051-.051.102l.051.051c-.051.051-.102.051-.153.102v-.051h-.153l-.051.051c-.051.051-.051.102-.051.153l.051.051c-.051,0-.051.051-.102.102l-.051-.051c-.051,0-.102,0-.153.051l-.051.051v.102l.051.051c-.051.051-.051.102-.102.102h-.051c0-.051-.102,0-.102.051l-.051.051c-.051.051-.051.102,0,.102l.051.051c-.051.051-.051.102-.102.153l-.051-.051c-.051,0-.102,0-.102.051l-.051.051c-.051.051,0,.102,0,.153h.051c0,.051-.051.102-.051.153h-.051c-.051-.051-.102,0-.102.051l-.051.051c0,.051,0,.153.051.153h.051c-.051.051-.051.102-.051.153h-.051c-.051,0-.102,0-.153.051v.102c0,.051,0,.102.051.102l.051.051c0,.051-.051.102-.051.153l-.051-.051c-.051,0-.102.051-.102.102v.051c-.051.102,0,.153.051.153h.051c0,.051-.051.102-.051.153h-.051c-.051,0-.051.051-.102.102v.051c0,.051.051.102.102.153h.051v.153h-.051c-.051,0-.102.051-.102.102v.051c0,.051.051.102.102.102h.051v.153l-.051.051c-.051,0-.102.051-.102.102v.051c.051.051.051.102.102.102h.051c0,.051.051.102.051.153h-.051c-.051,0-.102.102-.051.153v.051c0,.051.051.102.102.102h.051c0,.051.051.102.051.153h-.051c-.051,0-.051.051-.051.102v.102c.051.051.102.051.153.051h.051c0,.051,0,.102.051.153h-.051c-.051.051-.051.102-.051.153l.051.051c0,.051.051.102.102.051h.051c0,.051.051.102.051.153h-.051c0,.051-.051.102,0,.153l.051.051c0,.051.051.051.102.051l.051-.051c.051.051.051.102.102.153l-.051.051c-.051,0-.051.051,0,.102l.051.051c0,.051.102.102.102.051h.051c.051,0,.051.051.102.102l-.051.051v.102l.051.051c.051.051.102.051.153.051l.051-.051c.051.051.051.102.102.102l-.051.051c0,.051,0,.102.051.153l.051.051c.051,0,.102.051.153,0v-.051c.051.051.102.051.153.102l-.051.051c-.051.051,0,.102.051.102l.051.051c.051.051.102.051.153,0v-.051c.051.051.102.102.153.102l-.051.051c0,.051,0,.102.051.102l.051.051c.051.051.153.051.153,0l.051-.051s.051.051.102.051v.051c0,.051,0,.102.051.153h.051c.051.051.153,0,.153-.051.051,0,.102,0,.153.051v.051s0,.051.102.102h.051c.051.051.102,0,.102-.051l.051-.051c.051.051.102.051.153.051l-.051.051c0,.051.051.102.102.102l.102.051c.051,0,.102-.051.102-.102v-.051c.051.051.102.051.153.051v.051c0,.051.051.102.102.102h.051c.102,0,.153-.051.153-.102v-.051c.051,0,.102.051.153.051v.051s.051.051.102.051h.051c.102,0,.102-.051.102-.051v-.051c.102,0,.153-.051.204-.051v.051c0,.051.051.102.102.102h.051c.051,0,.102-.051.102-.102v-.051c.051,0,.102,0,.153-.051v.051c.051.051.102.102.153.102l.051-.051c.051,0,.102-.051.102-.102v-.051c.051,0,.102,0,.153-.051v.051c0,.051.051.102.153.051h.051c.051-.051.102-.102.051-.102v-.051c.051-.051.102-.051.153-.051.051.051.102.102.153.051h.051c.051-.051.102-.102.051-.153v-.051c.051,0,.102-.051.153-.051v.051c.051.051.102.051.153,0l.051-.051c.051,0,.102-.051.051-.102v-.051c.051,0,.051-.051.102-.102l.051.051c0,.051.102.051.153,0l.051-.051c.051,0,.051-.051,0-.102v-.051q.051-.051.102-.102l.051.051c0,.051.102,0,.153,0l.051-.051c0-.051.051-.102,0-.153l-.051-.051c.051,0,.102-.051.153-.102v.051c.051,0,.102,0,.153-.051l.051-.051c.051,0,.051-.102,0-.102l-.051-.051c.051-.051.102-.102.102-.102h.051c.051.051.102,0,.153-.051v-.051c.051-.051.051-.102,0-.102v-.051c0-.051.051-.102.051-.153l.051.051c.051,0,.102,0,.153-.051v-.051c.051-.051.051-.102,0-.153h-.051c.051-.051.051-.102.051-.153h.051c.051.051.102,0,.153-.051v-.051c.051-.051,0-.102,0-.153h-.051c0-.051,0-.102.051-.153h.051c.051,0,.102,0,.102-.051v-.102c.051-.051,0-.102-.051-.102v-.153h.051c.051,0,.102-.051.102-.102l.051-.051c0-.051-.051-.153-.102-.153v-.153h.051c.051,0,.102-.051.102-.102v-.051c0-.051-.051-.102-.051-.102l-.051-.051v-.153h.051c.051,0,.051-.051.051-.102v-.051c0-.051,0-.102-.051-.102h-.051v-.153Z" fill="#a7a6a6"/><path d="M181.196,70.126c0-1.476-1.221-2.646-2.646-2.646-1.476,0-2.646,1.17-2.646,2.646,0,1.425,1.17,2.595,2.646,2.595,1.425,0,2.646-1.17,2.646-2.595Z" fill="#ddd" fill-rule="evenodd"/><path d="M179.975,71.092l-.611-.661c-.204-.204-.204-.458,0-.661l.611-.661-.458-.458-.661.661c-.153.153-.458.153-.661,0l-.611-.661-.509.458.661.661c.153.204.153.458,0,.661l-.661.661.509.458.611-.661c.204-.153.509-.153.661,0l.661.661.458-.458Z" fill="#a2a2a1"/><rect x="115.943" y="64.6" width="16.551" height="7.966" fill="#005cb9"/><rect x="141.946" y="64.6" width="16.551" height="7.966" fill="#1a1a1a"/><path d="M376.807,92.01c.051.001.103.002.154.002h4.559c2.97,0,5.4-2.43,5.4-5.4v-2.677c0-2.97-2.43-5.4-5.4-5.4h-4.53l-.012-.043c-.293-.741-1.019-1.269-1.861-1.269h-68.287c-1.1,0-2,.9-2,2v11.753c0,1.1.9,2,2,2h68.287c.704,0,1.326-.369,1.683-.922l.007-.043Z" fill="#ececec" fill-rule="evenodd"/><path d="M311.273,90.761v-11.449c0-.56-.458-1.069-1.018-1.069h-.051l-9.413.153c-.56,0-1.018.458-1.018,1.069v11.194c0,.56.458,1.018,1.018,1.018l9.413.153c.611,0,1.069-.458,1.069-1.018v-.051Z" fill="#676767" fill-rule="evenodd"/><path d="M386.405,86.158h.051c0-.051.051-.102.051-.153v-.051c0-.051-.051-.102-.102-.102h-.051v-.153c.051,0,.102-.051.102-.153l-.051-.051c0-.051-.051-.102-.102-.102l-.051.051v-.204c.051,0,.102-.051.051-.102v-.102c0-.051-.051-.051-.102-.051h-.051c-.051-.051-.051-.102-.051-.153h.051s.051-.102,0-.153v-.051c-.051-.051-.102-.102-.153-.051h-.051c0-.051,0-.102-.051-.153h.051c.051-.051.051-.102,0-.153v-.051c-.051-.051-.102-.051-.153-.051l-.051.051c0-.051-.051-.102-.051-.153v-.051c.051,0,.051-.051,0-.102v-.051c-.051-.051-.102-.102-.153-.051h-.051s-.051-.051-.102-.102l.051-.051c.051,0,.051-.051,0-.102l-.051-.051c-.051-.051-.102-.051-.153-.051v.051c-.051-.051-.102-.102-.153-.102l.051-.051c.051-.051,0-.102,0-.153l-.051-.051h-.153l-.051.051q-.051-.051-.102-.102v-.051c.051-.051.051-.102,0-.102l-.051-.051c-.051-.051-.153-.051-.153,0l-.051.051-.102-.102v-.051c.051-.051,0-.102-.051-.102l-.051-.051c-.051-.051-.102,0-.153,0v.051c-.051,0-.102-.051-.153-.051v-.051c.051-.051,0-.102-.051-.102l-.051-.051c-.051,0-.102,0-.153.051v.051c-.051-.051-.102-.051-.153-.102.051-.051,0-.102-.051-.153h-.051c-.102-.051-.153,0-.153.051v.051c-.051-.051-.102-.051-.153-.051v-.051c0-.051-.051-.102-.102-.102h-.051c-.051-.051-.102,0-.153.051v.051c-.051,0-.102-.051-.153-.051v-.051c0-.051-.051-.051-.102-.102h-.051c-.051,0-.102.051-.102.102v.051h-.204v-.051c0-.051,0-.102-.102-.102h-.051c-.051,0-.102.051-.102.102v.051h-.153v-.051c0-.051-.051-.102-.153-.102h-.051c-.051.051-.102.051-.102.102v.051c-.051,0-.102.051-.153.051v-.051c0-.051-.051-.102-.102-.051h-.102c-.051,0-.102.051-.102.102l.051.051c-.051,0-.102,0-.153.051l-.051-.051c0-.051-.051-.102-.102-.051h-.051c-.102.051-.102.102-.102.153-.051.051-.102.051-.153.102v-.051c0-.051-.102-.051-.153-.051l-.051.051c-.051,0-.051.051-.051.102v.051c-.051,0-.102.051-.102.051l-.051-.051s-.102-.051-.153,0l-.051.051c-.051,0-.051.051-.051.102l.051.051c-.051.051-.102.051-.153.102v-.051c-.051-.051-.102-.051-.153,0l-.051.051c-.051,0-.102.051-.051.102l.051.051c-.051.051-.102.051-.153.102v-.051h-.153l-.051.051c-.051.051-.051.102-.051.153l.051.051c-.051,0-.051.051-.102.102l-.051-.051c-.051,0-.102,0-.153.051l-.051.051v.102l.051.051c-.051.051-.051.102-.102.102h-.051c0-.051-.102,0-.102.051l-.051.051c-.051.051-.051.102,0,.102l.051.051c-.051.051-.051.102-.102.153l-.051-.051c-.051,0-.102,0-.102.051l-.051.051c-.051.051,0,.102,0,.153h.051c0,.051-.051.102-.051.153h-.051c-.051-.051-.102,0-.102.051l-.051.051c0,.051,0,.153.051.153h.051c-.051.051-.051.102-.051.153h-.051c-.051,0-.102,0-.153.051v.102c0,.051,0,.102.051.102l.051.051c0,.051-.051.102-.051.153l-.051-.051c-.051,0-.102.051-.102.102v.051c-.051.102,0,.153.051.153h.051c0,.051-.051.102-.051.153h-.051c-.051,0-.051.051-.102.102v.051c0,.051.051.102.102.153h.051v.153h-.051c-.051,0-.102.051-.102.102v.051c0,.051.051.102.102.102h.051v.153l-.051.051c-.051,0-.102.051-.102.102v.051c.051.051.051.102.102.102h.051c0,.051.051.102.051.153h-.051c-.051,0-.102.102-.051.153v.051c0,.051.051.102.102.102h.051c0,.051.051.102.051.153h-.051c-.051,0-.051.051-.051.102v.102c.051.051.102.051.153.051h.051c0,.051,0,.102.051.153h-.051c-.051.051-.051.102-.051.153l.051.051c0,.051.051.102.102.051h.051c0,.051.051.102.051.153h-.051c0,.051-.051.102,0,.153l.051.051c0,.051.051.051.102.051l.051-.051c.051.051.051.102.102.153l-.051.051c-.051,0-.051.051,0,.102l.051.051c0,.051.102.102.102.051h.051c.051,0,.051.051.102.102l-.051.051v.102l.051.051c.051.051.102.051.153.051l.051-.051c.051.051.051.102.102.102l-.051.051c0,.051,0,.102.051.153l.051.051c.051,0,.102.051.153,0v-.051c.051.051.102.051.153.102l-.051.051c-.051.051,0,.102.051.102l.051.051c.051.051.102.051.153,0v-.051c.051.051.102.102.153.102l-.051.051c0,.051,0,.102.051.102l.051.051c.051.051.153.051.153,0l.051-.051s.051.051.102.051v.051c0,.051,0,.102.051.153h.051c.051.051.153,0,.153-.051.051,0,.102,0,.153.051v.051s0,.051.102.102h.051c.051.051.102,0,.102-.051l.051-.051c.051.051.102.051.153.051l-.051.051c0,.051.051.102.102.102l.102.051c.051,0,.102-.051.102-.102v-.051c.051.051.102.051.153.051v.051c0,.051.051.102.102.102h.051c.102,0,.153-.051.153-.102v-.051c.051,0,.102.051.153.051v.051s.051.051.102.051h.051c.102,0,.102-.051.102-.051v-.051c.102,0,.153-.051.204-.051v.051c0,.051.051.102.102.102h.051c.051,0,.102-.051.102-.102v-.051c.051,0,.102,0,.153-.051v.051c.051.051.102.102.153.102l.051-.051c.051,0,.102-.051.102-.102v-.051c.051,0,.102,0,.153-.051v.051c0,.051.051.102.153.051h.051c.051-.051.102-.102.051-.102v-.051c.051-.051.102-.051.153-.051.051.051.102.102.153.051h.051c.051-.051.102-.102.051-.153v-.051c.051,0,.102-.051.153-.051v.051c.051.051.102.051.153,0l.051-.051c.051,0,.102-.051.051-.102v-.051c.051,0,.051-.051.102-.102l.051.051c0,.051.102.051.153,0l.051-.051c.051,0,.051-.051,0-.102v-.051q.051-.051.102-.102l.051.051c0,.051.102,0,.153,0l.051-.051c0-.051.051-.102,0-.153l-.051-.051c.051,0,.102-.051.153-.102v.051c.051,0,.102,0,.153-.051l.051-.051c.051,0,.051-.102,0-.102l-.051-.051c.051-.051.102-.102.102-.102h.051c.051.051.102,0,.153-.051v-.051c.051-.051.051-.102,0-.102v-.051c0-.051.051-.102.051-.153l.051.051c.051,0,.102,0,.153-.051v-.051c.051-.051.051-.102,0-.153h-.051c.051-.051.051-.102.051-.153h.051c.051.051.102,0,.153-.051v-.051c.051-.051,0-.102,0-.153h-.051c0-.051,0-.102.051-.153h.051c.051,0,.102,0,.102-.051v-.102c.051-.051,0-.102-.051-.102v-.153h.051c.051,0,.102-.051.102-.102l.051-.051c0-.051-.051-.153-.102-.153v-.153h.051c.051,0,.102-.051.102-.102v-.051c0-.051-.051-.102-.051-.102l-.051-.051v-.153h.051c.051,0,.051-.051.051-.102v-.051c0-.051,0-.102-.051-.102h-.051v-.153Z" fill="#a7a6a6"/><path d="M384.828,86.463c0-1.476-1.221-2.646-2.646-2.646-1.476,0-2.646,1.17-2.646,2.646,0,1.425,1.17,2.595,2.646,2.595,1.425,0,2.646-1.17,2.646-2.595Z" fill="#ddd" fill-rule="evenodd"/><path d="M383.607,87.43l-.611-.661c-.204-.204-.204-.458,0-.661l.611-.661-.458-.458-.661.661c-.153.153-.458.153-.661,0l-.611-.661-.509.458.661.661c.153.204.153.458,0,.661l-.661.661.509.458.611-.661c.204-.153.509-.153.661,0l.661.661.458-.458Z" fill="#a2a2a1"/><rect x="319.575" y="80.937" width="16.551" height="7.966" fill="#005cb9"/><rect x="345.579" y="80.937" width="16.551" height="7.966" fill="#1a1a1a"/><path d="M376.807,75.672c.051.001.103.002.154.002h4.559c2.97,0,5.4-2.43,5.4-5.4v-2.677c0-2.97-2.43-5.4-5.4-5.4h-4.53l-.012-.043c-.293-.741-1.019-1.269-1.861-1.269h-68.287c-1.1,0-2,.9-2,2v11.753c0,1.1.9,2,2,2h68.287c.704,0,1.326-.369,1.683-.922l.007-.043Z" fill="#ececec" fill-rule="evenodd"/><path d="M311.273,74.424v-11.449c0-.56-.458-1.069-1.018-1.069h-.051l-9.413.153c-.56,0-1.018.458-1.018,1.069v11.194c0,.56.458,1.018,1.018,1.018l9.413.153c.611,0,1.069-.458,1.069-1.018v-.051Z" fill="#676767" fill-rule="evenodd"/><path d="M386.405,69.82h.051c0-.051.051-.102.051-.153v-.051c0-.051-.051-.102-.102-.102h-.051v-.153c.051,0,.102-.051.102-.153l-.051-.051c0-.051-.051-.102-.102-.102l-.051.051v-.204c.051,0,.102-.051.051-.102v-.102c0-.051-.051-.051-.102-.051h-.051c-.051-.051-.051-.102-.051-.153h.051s.051-.102,0-.153v-.051c-.051-.051-.102-.102-.153-.051h-.051c0-.051,0-.102-.051-.153h.051c.051-.051.051-.102,0-.153v-.051c-.051-.051-.102-.051-.153-.051l-.051.051c0-.051-.051-.102-.051-.153v-.051c.051,0,.051-.051,0-.102v-.051c-.051-.051-.102-.102-.153-.051h-.051s-.051-.051-.102-.102l.051-.051c.051,0,.051-.051,0-.102l-.051-.051c-.051-.051-.102-.051-.153-.051v.051c-.051-.051-.102-.102-.153-.102l.051-.051c.051-.051,0-.102,0-.153l-.051-.051h-.153l-.051.051q-.051-.051-.102-.102v-.051c.051-.051.051-.102,0-.102l-.051-.051c-.051-.051-.153-.051-.153,0l-.051.051-.102-.102v-.051c.051-.051,0-.102-.051-.102l-.051-.051c-.051-.051-.102,0-.153,0v.051c-.051,0-.102-.051-.153-.051v-.051c.051-.051,0-.102-.051-.102l-.051-.051c-.051,0-.102,0-.153.051v.051c-.051-.051-.102-.051-.153-.102.051-.051,0-.102-.051-.153h-.051c-.102-.051-.153,0-.153.051v.051c-.051-.051-.102-.051-.153-.051v-.051c0-.051-.051-.102-.102-.102h-.051c-.051-.051-.102,0-.153.051v.051c-.051,0-.102-.051-.153-.051v-.051c0-.051-.051-.051-.102-.102h-.051c-.051,0-.102.051-.102.102v.051h-.204v-.051c0-.051,0-.102-.102-.102h-.051c-.051,0-.102.051-.102.102v.051h-.153v-.051c0-.051-.051-.102-.153-.102h-.051c-.051.051-.102.051-.102.102v.051c-.051,0-.102.051-.153.051v-.051c0-.051-.051-.102-.102-.051h-.102c-.051,0-.102.051-.102.102l.051.051c-.051,0-.102,0-.153.051l-.051-.051c0-.051-.051-.102-.102-.051h-.051c-.102.051-.102.102-.102.153-.051.051-.102.051-.153.102v-.051c0-.051-.102-.051-.153-.051l-.051.051c-.051,0-.051.051-.051.102v.051c-.051,0-.102.051-.102.051l-.051-.051s-.102-.051-.153,0l-.051.051c-.051,0-.051.051-.051.102l.051.051c-.051.051-.102.051-.153.102v-.051c-.051-.051-.102-.051-.153,0l-.051.051c-.051,0-.102.051-.051.102l.051.051c-.051.051-.102.051-.153.102v-.051h-.153l-.051.051c-.051.051-.051.102-.051.153l.051.051c-.051,0-.051.051-.102.102l-.051-.051c-.051,0-.102,0-.153.051l-.051.051v.102l.051.051c-.051.051-.051.102-.102.102h-.051c0-.051-.102,0-.102.051l-.051.051c-.051.051-.051.102,0,.102l.051.051c-.051.051-.051.102-.102.153l-.051-.051c-.051,0-.102,0-.102.051l-.051.051c-.051.051,0,.102,0,.153h.051c0,.051-.051.102-.051.153h-.051c-.051-.051-.102,0-.102.051l-.051.051c0,.051,0,.153.051.153h.051c-.051.051-.051.102-.051.153h-.051c-.051,0-.102,0-.153.051v.102c0,.051,0,.102.051.102l.051.051c0,.051-.051.102-.051.153l-.051-.051c-.051,0-.102.051-.102.102v.051c-.051.102,0,.153.051.153h.051c0,.051-.051.102-.051.153h-.051c-.051,0-.051.051-.102.102v.051c0,.051.051.102.102.153h.051v.153h-.051c-.051,0-.102.051-.102.102v.051c0,.051.051.102.102.102h.051v.153l-.051.051c-.051,0-.102.051-.102.102v.051c.051.051.051.102.102.102h.051c0,.051.051.102.051.153h-.051c-.051,0-.102.102-.051.153v.051c0,.051.051.102.102.102h.051c0,.051.051.102.051.153h-.051c-.051,0-.051.051-.051.102v.102c.051.051.102.051.153.051h.051c0,.051,0,.102.051.153h-.051c-.051.051-.051.102-.051.153l.051.051c0,.051.051.102.102.051h.051c0,.051.051.102.051.153h-.051c0,.051-.051.102,0,.153l.051.051c0,.051.051.051.102.051l.051-.051c.051.051.051.102.102.153l-.051.051c-.051,0-.051.051,0,.102l.051.051c0,.051.102.102.102.051h.051c.051,0,.051.051.102.102l-.051.051v.102l.051.051c.051.051.102.051.153.051l.051-.051c.051.051.051.102.102.102l-.051.051c0,.051,0,.102.051.153l.051.051c.051,0,.102.051.153,0v-.051c.051.051.102.051.153.102l-.051.051c-.051.051,0,.102.051.102l.051.051c.051.051.102.051.153,0v-.051c.051.051.102.102.153.102l-.051.051c0,.051,0,.102.051.102l.051.051c.051.051.153.051.153,0l.051-.051s.051.051.102.051v.051c0,.051,0,.102.051.153h.051c.051.051.153,0,.153-.051.051,0,.102,0,.153.051v.051s0,.051.102.102h.051c.051.051.102,0,.102-.051l.051-.051c.051.051.102.051.153.051l-.051.051c0,.051.051.102.102.102l.102.051c.051,0,.102-.051.102-.102v-.051c.051.051.102.051.153.051v.051c0,.051.051.102.102.102h.051c.102,0,.153-.051.153-.102v-.051c.051,0,.102.051.153.051v.051s.051.051.102.051h.051c.102,0,.102-.051.102-.051v-.051c.102,0,.153-.051.204-.051v.051c0,.051.051.102.102.102h.051c.051,0,.102-.051.102-.102v-.051c.051,0,.102,0,.153-.051v.051c.051.051.102.102.153.102l.051-.051c.051,0,.102-.051.102-.102v-.051c.051,0,.102,0,.153-.051v.051c0,.051.051.102.153.051h.051c.051-.051.102-.102.051-.102v-.051c.051-.051.102-.051.153-.051.051.051.102.102.153.051h.051c.051-.051.102-.102.051-.153v-.051c.051,0,.102-.051.153-.051v.051c.051.051.102.051.153,0l.051-.051c.051,0,.102-.051.051-.102v-.051c.051,0,.051-.051.102-.102l.051.051c0,.051.102.051.153,0l.051-.051c.051,0,.051-.051,0-.102v-.051q.051-.051.102-.102l.051.051c0,.051.102,0,.153,0l.051-.051c0-.051.051-.102,0-.153l-.051-.051c.051,0,.102-.051.153-.102v.051c.051,0,.102,0,.153-.051l.051-.051c.051,0,.051-.102,0-.102l-.051-.051c.051-.051.102-.102.102-.102h.051c.051.051.102,0,.153-.051v-.051c.051-.051.051-.102,0-.102v-.051c0-.051.051-.102.051-.153l.051.051c.051,0,.102,0,.153-.051v-.051c.051-.051.051-.102,0-.153h-.051c.051-.051.051-.102.051-.153h.051c.051.051.102,0,.153-.051v-.051c.051-.051,0-.102,0-.153h-.051c0-.051,0-.102.051-.153h.051c.051,0,.102,0,.102-.051v-.102c.051-.051,0-.102-.051-.102v-.153h.051c.051,0,.102-.051.102-.102l.051-.051c0-.051-.051-.153-.102-.153v-.153h.051c.051,0,.102-.051.102-.102v-.051c0-.051-.051-.102-.051-.102l-.051-.051v-.153h.051c.051,0,.051-.051.051-.102v-.051c0-.051,0-.102-.051-.102h-.051v-.153Z" fill="#a7a6a6"/><path d="M384.828,70.126c0-1.476-1.221-2.646-2.646-2.646-1.476,0-2.646,1.17-2.646,2.646,0,1.425,1.17,2.595,2.646,2.595,1.425,0,2.646-1.17,2.646-2.595Z" fill="#ddd" fill-rule="evenodd"/><path d="M383.607,71.092l-.611-.661c-.204-.204-.204-.458,0-.661l.611-.661-.458-.458-.661.661c-.153.153-.458.153-.661,0l-.611-.661-.509.458.661.661c.153.204.153.458,0,.661l-.661.661.509.458.611-.661c.204-.153.509-.153.661,0l.661.661.458-.458Z" fill="#a2a2a1"/><rect x="319.575" y="64.6" width="16.551" height="7.966" fill="#005cb9"/><rect x="345.579" y="64.6" width="16.551" height="7.966" fill="#1a1a1a"/><path d="M173.175,132.412c.051.001.103.002.154.002h4.559c2.97,0,5.4-2.43,5.4-5.4v-2.677c0-2.97-2.43-5.4-5.4-5.4h-4.53l-.012-.043c-.293-.741-1.019-1.269-1.861-1.269h-68.287c-1.1,0-2,.9-2,2v11.753c0,1.1.9,2,2,2h68.287c.704,0,1.326-.369,1.683-.922l.007-.043Z" fill="#ececec" fill-rule="evenodd"/><path d="M107.641,131.164v-11.449c0-.56-.458-1.069-1.018-1.069h-.051l-9.413.153c-.56,0-1.018.458-1.018,1.069v11.194c0,.56.458,1.018,1.018,1.018l9.413.153c.611,0,1.069-.458,1.069-1.018v-.051Z" fill="#676767" fill-rule="evenodd"/><path d="M182.773,126.56h.051c0-.051.051-.102.051-.153v-.051c0-.051-.051-.102-.102-.102h-.051v-.153c.051,0,.102-.051.102-.153l-.051-.051c0-.051-.051-.102-.102-.102l-.051.051v-.204c.051,0,.102-.051.051-.102v-.102c0-.051-.051-.051-.102-.051h-.051c-.051-.051-.051-.102-.051-.153h.051s.051-.102,0-.153v-.051c-.051-.051-.102-.102-.153-.051h-.051c0-.051,0-.102-.051-.153h.051c.051-.051.051-.102,0-.153v-.051c-.051-.051-.102-.051-.153-.051l-.051.051c0-.051-.051-.102-.051-.153v-.051c.051,0,.051-.051,0-.102v-.051c-.051-.051-.102-.102-.153-.051h-.051s-.051-.051-.102-.102l.051-.051c.051,0,.051-.051,0-.102l-.051-.051c-.051-.051-.102-.051-.153-.051v.051c-.051-.051-.102-.102-.153-.102l.051-.051c.051-.051,0-.102,0-.153l-.051-.051h-.153l-.051.051q-.051-.051-.102-.102v-.051c.051-.051.051-.102,0-.102l-.051-.051c-.051-.051-.153-.051-.153,0l-.051.051-.102-.102v-.051c.051-.051,0-.102-.051-.102l-.051-.051c-.051-.051-.102,0-.153,0v.051c-.051,0-.102-.051-.153-.051v-.051c.051-.051,0-.102-.051-.102l-.051-.051c-.051,0-.102,0-.153.051v.051c-.051-.051-.102-.051-.153-.102.051-.051,0-.102-.051-.153h-.051c-.102-.051-.153,0-.153.051v.051c-.051-.051-.102-.051-.153-.051v-.051c0-.051-.051-.102-.102-.102h-.051c-.051-.051-.102,0-.153.051v.051c-.051,0-.102-.051-.153-.051v-.051c0-.051-.051-.051-.102-.102h-.051c-.051,0-.102.051-.102.102v.051h-.204v-.051c0-.051,0-.102-.102-.102h-.051c-.051,0-.102.051-.102.102v.051h-.153v-.051c0-.051-.051-.102-.153-.102h-.051c-.051.051-.102.051-.102.102v.051c-.051,0-.102.051-.153.051v-.051c0-.051-.051-.102-.102-.051h-.102c-.051,0-.102.051-.102.102l.051.051c-.051,0-.102,0-.153.051l-.051-.051c0-.051-.051-.102-.102-.051h-.051c-.102.051-.102.102-.102.153-.051.051-.102.051-.153.102v-.051c0-.051-.102-.051-.153-.051l-.051.051c-.051,0-.051.051-.051.102v.051c-.051,0-.102.051-.102.051l-.051-.051s-.102-.051-.153,0l-.051.051c-.051,0-.051.051-.051.102l.051.051c-.051.051-.102.051-.153.102v-.051c-.051-.051-.102-.051-.153,0l-.051.051c-.051,0-.102.051-.051.102l.051.051c-.051.051-.102.051-.153.102v-.051h-.153l-.051.051c-.051.051-.051.102-.051.153l.051.051c-.051,0-.051.051-.102.102l-.051-.051c-.051,0-.102,0-.153.051l-.051.051v.102l.051.051c-.051.051-.051.102-.102.102h-.051c0-.051-.102,0-.102.051l-.051.051c-.051.051-.051.102,0,.102l.051.051c-.051.051-.051.102-.102.153l-.051-.051c-.051,0-.102,0-.102.051l-.051.051c-.051.051,0,.102,0,.153h.051c0,.051-.051.102-.051.153h-.051c-.051-.051-.102,0-.102.051l-.051.051c0,.051,0,.153.051.153h.051c-.051.051-.051.102-.051.153h-.051c-.051,0-.102,0-.153.051v.102c0,.051,0,.102.051.102l.051.051c0,.051-.051.102-.051.153l-.051-.051c-.051,0-.102.051-.102.102v.051c-.051.102,0,.153.051.153h.051c0,.051-.051.102-.051.153h-.051c-.051,0-.051.051-.102.102v.051c0,.051.051.102.102.153h.051v.153h-.051c-.051,0-.102.051-.102.102v.051c0,.051.051.102.102.102h.051v.153l-.051.051c-.051,0-.102.051-.102.102v.051c.051.051.051.102.102.102h.051c0,.051.051.102.051.153h-.051c-.051,0-.102.102-.051.153v.051c0,.051.051.102.102.102h.051c0,.051.051.102.051.153h-.051c-.051,0-.051.051-.051.102v.102c.051.051.102.051.153.051h.051c0,.051,0,.102.051.153h-.051c-.051.051-.051.102-.051.153l.051.051c0,.051.051.102.102.051h.051c0,.051.051.102.051.153h-.051c0,.051-.051.102,0,.153l.051.051c0,.051.051.051.102.051l.051-.051c.051.051.051.102.102.153l-.051.051c-.051,0-.051.051,0,.102l.051.051c0,.051.102.102.102.051h.051c.051,0,.051.051.102.102l-.051.051v.102l.051.051c.051.051.102.051.153.051l.051-.051c.051.051.051.102.102.102l-.051.051c0,.051,0,.102.051.153l.051.051c.051,0,.102.051.153,0v-.051c.051.051.102.051.153.102l-.051.051c-.051.051,0,.102.051.102l.051.051c.051.051.102.051.153,0v-.051c.051.051.102.102.153.102l-.051.051c0,.051,0,.102.051.102l.051.051c.051.051.153.051.153,0l.051-.051s.051.051.102.051v.051c0,.051,0,.102.051.153h.051c.051.051.153,0,.153-.051.051,0,.102,0,.153.051v.051s0,.051.102.102h.051c.051.051.102,0,.102-.051l.051-.051c.051.051.102.051.153.051l-.051.051c0,.051.051.102.102.102l.102.051c.051,0,.102-.051.102-.102v-.051c.051.051.102.051.153.051v.051c0,.051.051.102.102.102h.051c.102,0,.153-.051.153-.102v-.051c.051,0,.102.051.153.051v.051s.051.051.102.051h.051c.102,0,.102-.051.102-.051v-.051c.102,0,.153-.051.204-.051v.051c0,.051.051.102.102.102h.051c.051,0,.102-.051.102-.102v-.051c.051,0,.102,0,.153-.051v.051c.051.051.102.102.153.102l.051-.051c.051,0,.102-.051.102-.102v-.051c.051,0,.102,0,.153-.051v.051c0,.051.051.102.153.051h.051c.051-.051.102-.102.051-.102v-.051c.051-.051.102-.051.153-.051.051.051.102.102.153.051h.051c.051-.051.102-.102.051-.153v-.051c.051,0,.102-.051.153-.051v.051c.051.051.102.051.153,0l.051-.051c.051,0,.102-.051.051-.102v-.051c.051,0,.051-.051.102-.102l.051.051c0,.051.102.051.153,0l.051-.051c.051,0,.051-.051,0-.102v-.051q.051-.051.102-.102l.051.051c0,.051.102,0,.153,0l.051-.051c0-.051.051-.102,0-.153l-.051-.051c.051,0,.102-.051.153-.102v.051c.051,0,.102,0,.153-.051l.051-.051c.051,0,.051-.102,0-.102l-.051-.051c.051-.051.102-.102.102-.102h.051c.051.051.102,0,.153-.051v-.051c.051-.051.051-.102,0-.102v-.051c0-.051.051-.102.051-.153l.051.051c.051,0,.102,0,.153-.051v-.051c.051-.051.051-.102,0-.153h-.051c.051-.051.051-.102.051-.153h.051c.051.051.102,0,.153-.051v-.051c.051-.051,0-.102,0-.153h-.051c0-.051,0-.102.051-.153h.051c.051,0,.102,0,.102-.051v-.102c.051-.051,0-.102-.051-.102v-.153h.051c.051,0,.102-.051.102-.102l.051-.051c0-.051-.051-.153-.102-.153v-.153h.051c.051,0,.102-.051.102-.102v-.051c0-.051-.051-.102-.051-.102l-.051-.051v-.153h.051c.051,0,.051-.051.051-.102v-.051c0-.051,0-.102-.051-.102h-.051v-.153Z" fill="#a7a6a6"/><path d="M181.196,126.865c0-1.476-1.221-2.646-2.646-2.646-1.476,0-2.646,1.17-2.646,2.646,0,1.425,1.17,2.595,2.646,2.595,1.425,0,2.646-1.17,2.646-2.595Z" fill="#ddd" fill-rule="evenodd"/><path d="M179.975,127.832l-.611-.661c-.204-.204-.204-.458,0-.661l.611-.661-.458-.458-.661.661c-.153.153-.458.153-.661,0l-.611-.661-.509.458.661.661c.153.204.153.458,0,.661l-.661.661.509.458.611-.661c.204-.153.509-.153.661,0l.661.661.458-.458Z" fill="#a2a2a1"/><rect x="115.943" y="121.339" width="16.551" height="7.966" fill="#005cb9"/><rect x="141.946" y="121.339" width="16.551" height="7.966" fill="#1a1a1a"/><path d="M173.175,116.074c.051.001.103.002.154.002h4.559c2.97,0,5.4-2.43,5.4-5.4v-2.677c0-2.97-2.43-5.4-5.4-5.4h-4.53l-.012-.043c-.293-.741-1.019-1.269-1.861-1.269h-68.287c-1.1,0-2,.9-2,2v11.753c0,1.1.9,2,2,2h68.287c.704,0,1.326-.369,1.683-.922l.007-.043Z" fill="#ececec" fill-rule="evenodd"/><path d="M107.641,114.826v-11.449c0-.56-.458-1.069-1.018-1.069h-.051l-9.413.153c-.56,0-1.018.458-1.018,1.069v11.194c0,.56.458,1.018,1.018,1.018l9.413.153c.611,0,1.069-.458,1.069-1.018v-.051Z" fill="#676767" fill-rule="evenodd"/><path d="M182.773,110.222h.051c0-.051.051-.102.051-.153v-.051c0-.051-.051-.102-.102-.102h-.051v-.153c.051,0,.102-.051.102-.153l-.051-.051c0-.051-.051-.102-.102-.102l-.051.051v-.204c.051,0,.102-.051.051-.102v-.102c0-.051-.051-.051-.102-.051h-.051c-.051-.051-.051-.102-.051-.153h.051s.051-.102,0-.153v-.051c-.051-.051-.102-.102-.153-.051h-.051c0-.051,0-.102-.051-.153h.051c.051-.051.051-.102,0-.153v-.051c-.051-.051-.102-.051-.153-.051l-.051.051c0-.051-.051-.102-.051-.153v-.051c.051,0,.051-.051,0-.102v-.051c-.051-.051-.102-.102-.153-.051h-.051s-.051-.051-.102-.102l.051-.051c.051,0,.051-.051,0-.102l-.051-.051c-.051-.051-.102-.051-.153-.051v.051c-.051-.051-.102-.102-.153-.102l.051-.051c.051-.051,0-.102,0-.153l-.051-.051h-.153l-.051.051q-.051-.051-.102-.102v-.051c.051-.051.051-.102,0-.102l-.051-.051c-.051-.051-.153-.051-.153,0l-.051.051-.102-.102v-.051c.051-.051,0-.102-.051-.102l-.051-.051c-.051-.051-.102,0-.153,0v.051c-.051,0-.102-.051-.153-.051v-.051c.051-.051,0-.102-.051-.102l-.051-.051c-.051,0-.102,0-.153.051v.051c-.051-.051-.102-.051-.153-.102.051-.051,0-.102-.051-.153h-.051c-.102-.051-.153,0-.153.051v.051c-.051-.051-.102-.051-.153-.051v-.051c0-.051-.051-.102-.102-.102h-.051c-.051-.051-.102,0-.153.051v.051c-.051,0-.102-.051-.153-.051v-.051c0-.051-.051-.051-.102-.102h-.051c-.051,0-.102.051-.102.102v.051h-.204v-.051c0-.051,0-.102-.102-.102h-.051c-.051,0-.102.051-.102.102v.051h-.153v-.051c0-.051-.051-.102-.153-.102h-.051c-.051.051-.102.051-.102.102v.051c-.051,0-.102.051-.153.051v-.051c0-.051-.051-.102-.102-.051h-.102c-.051,0-.102.051-.102.102l.051.051c-.051,0-.102,0-.153.051l-.051-.051c0-.051-.051-.102-.102-.051h-.051c-.102.051-.102.102-.102.153-.051.051-.102.051-.153.102v-.051c0-.051-.102-.051-.153-.051l-.051.051c-.051,0-.051.051-.051.102v.051c-.051,0-.102.051-.102.051l-.051-.051s-.102-.051-.153,0l-.051.051c-.051,0-.051.051-.051.102l.051.051c-.051.051-.102.051-.153.102v-.051c-.051-.051-.102-.051-.153,0l-.051.051c-.051,0-.102.051-.051.102l.051.051c-.051.051-.102.051-.153.102v-.051h-.153l-.051.051c-.051.051-.051.102-.051.153l.051.051c-.051,0-.051.051-.102.102l-.051-.051c-.051,0-.102,0-.153.051l-.051.051v.102l.051.051c-.051.051-.051.102-.102.102h-.051c0-.051-.102,0-.102.051l-.051.051c-.051.051-.051.102,0,.102l.051.051c-.051.051-.051.102-.102.153l-.051-.051c-.051,0-.102,0-.102.051l-.051.051c-.051.051,0,.102,0,.153h.051c0,.051-.051.102-.051.153h-.051c-.051-.051-.102,0-.102.051l-.051.051c0,.051,0,.153.051.153h.051c-.051.051-.051.102-.051.153h-.051c-.051,0-.102,0-.153.051v.102c0,.051,0,.102.051.102l.051.051c0,.051-.051.102-.051.153l-.051-.051c-.051,0-.102.051-.102.102v.051c-.051.102,0,.153.051.153h.051c0,.051-.051.102-.051.153h-.051c-.051,0-.051.051-.102.102v.051c0,.051.051.102.102.153h.051v.153h-.051c-.051,0-.102.051-.102.102v.051c0,.051.051.102.102.102h.051v.153l-.051.051c-.051,0-.102.051-.102.102v.051c.051.051.051.102.102.102h.051c0,.051.051.102.051.153h-.051c-.051,0-.102.102-.051.153v.051c0,.051.051.102.102.102h.051c0,.051.051.102.051.153h-.051c-.051,0-.051.051-.051.102v.102c.051.051.102.051.153.051h.051c0,.051,0,.102.051.153h-.051c-.051.051-.051.102-.051.153l.051.051c0,.051.051.102.102.051h.051c0,.051.051.102.051.153h-.051c0,.051-.051.102,0,.153l.051.051c0,.051.051.051.102.051l.051-.051c.051.051.051.102.102.153l-.051.051c-.051,0-.051.051,0,.102l.051.051c0,.051.102.102.102.051h.051c.051,0,.051.051.102.102l-.051.051v.102l.051.051c.051.051.102.051.153.051l.051-.051c.051.051.051.102.102.102l-.051.051c0,.051,0,.102.051.153l.051.051c.051,0,.102.051.153,0v-.051c.051.051.102.051.153.102l-.051.051c-.051.051,0,.102.051.102l.051.051c.051.051.102.051.153,0v-.051c.051.051.102.102.153.102l-.051.051c0,.051,0,.102.051.102l.051.051c.051.051.153.051.153,0l.051-.051s.051.051.102.051v.051c0,.051,0,.102.051.153h.051c.051.051.153,0,.153-.051.051,0,.102,0,.153.051v.051s0,.051.102.102h.051c.051.051.102,0,.102-.051l.051-.051c.051.051.102.051.153.051l-.051.051c0,.051.051.102.102.102l.102.051c.051,0,.102-.051.102-.102v-.051c.051.051.102.051.153.051v.051c0,.051.051.102.102.102h.051c.102,0,.153-.051.153-.102v-.051c.051,0,.102.051.153.051v.051s.051.051.102.051h.051c.102,0,.102-.051.102-.051v-.051c.102,0,.153-.051.204-.051v.051c0,.051.051.102.102.102h.051c.051,0,.102-.051.102-.102v-.051c.051,0,.102,0,.153-.051v.051c.051.051.102.102.153.102l.051-.051c.051,0,.102-.051.102-.102v-.051c.051,0,.102,0,.153-.051v.051c0,.051.051.102.153.051h.051c.051-.051.102-.102.051-.102v-.051c.051-.051.102-.051.153-.051.051.051.102.102.153.051h.051c.051-.051.102-.102.051-.153v-.051c.051,0,.102-.051.153-.051v.051c.051.051.102.051.153,0l.051-.051c.051,0,.102-.051.051-.102v-.051c.051,0,.051-.051.102-.102l.051.051c0,.051.102.051.153,0l.051-.051c.051,0,.051-.051,0-.102v-.051q.051-.051.102-.102l.051.051c0,.051.102,0,.153,0l.051-.051c0-.051.051-.102,0-.153l-.051-.051c.051,0,.102-.051.153-.102v.051c.051,0,.102,0,.153-.051l.051-.051c.051,0,.051-.102,0-.102l-.051-.051c.051-.051.102-.102.102-.102h.051c.051.051.102,0,.153-.051v-.051c.051-.051.051-.102,0-.102v-.051c0-.051.051-.102.051-.153l.051.051c.051,0,.102,0,.153-.051v-.051c.051-.051.051-.102,0-.153h-.051c.051-.051.051-.102.051-.153h.051c.051.051.102,0,.153-.051v-.051c.051-.051,0-.102,0-.153h-.051c0-.051,0-.102.051-.153h.051c.051,0,.102,0,.102-.051v-.102c.051-.051,0-.102-.051-.102v-.153h.051c.051,0,.102-.051.102-.102l.051-.051c0-.051-.051-.153-.102-.153v-.153h.051c.051,0,.102-.051.102-.102v-.051c0-.051-.051-.102-.051-.102l-.051-.051v-.153h.051c.051,0,.051-.051.051-.102v-.051c0-.051,0-.102-.051-.102h-.051v-.153Z" fill="#a7a6a6"/><path d="M181.196,110.528c0-1.476-1.221-2.646-2.646-2.646-1.476,0-2.646,1.17-2.646,2.646,0,1.425,1.17,2.595,2.646,2.595,1.425,0,2.646-1.17,2.646-2.595Z" fill="#ddd" fill-rule="evenodd"/><path d="M179.975,111.494l-.611-.661c-.204-.204-.204-.458,0-.661l.611-.661-.458-.458-.661.661c-.153.153-.458.153-.661,0l-.611-.661-.509.458.661.661c.153.204.153.458,0,.661l-.661.661.509.458.611-.661c.204-.153.509-.153.661,0l.661.661.458-.458Z" fill="#a2a2a1"/><rect x="115.943" y="105.002" width="16.551" height="7.966" fill="#005cb9"/><rect x="141.946" y="105.002" width="16.551" height="7.966" fill="#1a1a1a"/><path d="M376.807,132.412c.051.001.103.002.154.002h4.559c2.97,0,5.4-2.43,5.4-5.4v-2.677c0-2.97-2.43-5.4-5.4-5.4h-4.53l-.012-.043c-.293-.741-1.019-1.269-1.861-1.269h-68.287c-1.1,0-2,.9-2,2v11.753c0,1.1.9,2,2,2h68.287c.704,0,1.326-.369,1.683-.922l.007-.043Z" fill="#ececec" fill-rule="evenodd"/><path d="M311.273,131.164v-11.449c0-.56-.458-1.069-1.018-1.069h-.051l-9.413.153c-.56,0-1.018.458-1.018,1.069v11.194c0,.56.458,1.018,1.018,1.018l9.413.153c.611,0,1.069-.458,1.069-1.018v-.051Z" fill="#676767" fill-rule="evenodd"/><path d="M386.405,126.56h.051c0-.051.051-.102.051-.153v-.051c0-.051-.051-.102-.102-.102h-.051v-.153c.051,0,.102-.051.102-.153l-.051-.051c0-.051-.051-.102-.102-.102l-.051.051v-.204c.051,0,.102-.051.051-.102v-.102c0-.051-.051-.051-.102-.051h-.051c-.051-.051-.051-.102-.051-.153h.051s.051-.102,0-.153v-.051c-.051-.051-.102-.102-.153-.051h-.051c0-.051,0-.102-.051-.153h.051c.051-.051.051-.102,0-.153v-.051c-.051-.051-.102-.051-.153-.051l-.051.051c0-.051-.051-.102-.051-.153v-.051c.051,0,.051-.051,0-.102v-.051c-.051-.051-.102-.102-.153-.051h-.051s-.051-.051-.102-.102l.051-.051c.051,0,.051-.051,0-.102l-.051-.051c-.051-.051-.102-.051-.153-.051v.051c-.051-.051-.102-.102-.153-.102l.051-.051c.051-.051,0-.102,0-.153l-.051-.051h-.153l-.051.051q-.051-.051-.102-.102v-.051c.051-.051.051-.102,0-.102l-.051-.051c-.051-.051-.153-.051-.153,0l-.051.051-.102-.102v-.051c.051-.051,0-.102-.051-.102l-.051-.051c-.051-.051-.102,0-.153,0v.051c-.051,0-.102-.051-.153-.051v-.051c.051-.051,0-.102-.051-.102l-.051-.051c-.051,0-.102,0-.153.051v.051c-.051-.051-.102-.051-.153-.102.051-.051,0-.102-.051-.153h-.051c-.102-.051-.153,0-.153.051v.051c-.051-.051-.102-.051-.153-.051v-.051c0-.051-.051-.102-.102-.102h-.051c-.051-.051-.102,0-.153.051v.051c-.051,0-.102-.051-.153-.051v-.051c0-.051-.051-.051-.102-.102h-.051c-.051,0-.102.051-.102.102v.051h-.204v-.051c0-.051,0-.102-.102-.102h-.051c-.051,0-.102.051-.102.102v.051h-.153v-.051c0-.051-.051-.102-.153-.102h-.051c-.051.051-.102.051-.102.102v.051c-.051,0-.102.051-.153.051v-.051c0-.051-.051-.102-.102-.051h-.102c-.051,0-.102.051-.102.102l.051.051c-.051,0-.102,0-.153.051l-.051-.051c0-.051-.051-.102-.102-.051h-.051c-.102.051-.102.102-.102.153-.051.051-.102.051-.153.102v-.051c0-.051-.102-.051-.153-.051l-.051.051c-.051,0-.051.051-.051.102v.051c-.051,0-.102.051-.102.051l-.051-.051s-.102-.051-.153,0l-.051.051c-.051,0-.051.051-.051.102l.051.051c-.051.051-.102.051-.153.102v-.051c-.051-.051-.102-.051-.153,0l-.051.051c-.051,0-.102.051-.051.102l.051.051c-.051.051-.102.051-.153.102v-.051h-.153l-.051.051c-.051.051-.051.102-.051.153l.051.051c-.051,0-.051.051-.102.102l-.051-.051c-.051,0-.102,0-.153.051l-.051.051v.102l.051.051c-.051.051-.051.102-.102.102h-.051c0-.051-.102,0-.102.051l-.051.051c-.051.051-.051.102,0,.102l.051.051c-.051.051-.051.102-.102.153l-.051-.051c-.051,0-.102,0-.102.051l-.051.051c-.051.051,0,.102,0,.153h.051c0,.051-.051.102-.051.153h-.051c-.051-.051-.102,0-.102.051l-.051.051c0,.051,0,.153.051.153h.051c-.051.051-.051.102-.051.153h-.051c-.051,0-.102,0-.153.051v.102c0,.051,0,.102.051.102l.051.051c0,.051-.051.102-.051.153l-.051-.051c-.051,0-.102.051-.102.102v.051c-.051.102,0,.153.051.153h.051c0,.051-.051.102-.051.153h-.051c-.051,0-.051.051-.102.102v.051c0,.051.051.102.102.153h.051v.153h-.051c-.051,0-.102.051-.102.102v.051c0,.051.051.102.102.102h.051v.153l-.051.051c-.051,0-.102.051-.102.102v.051c.051.051.051.102.102.102h.051c0,.051.051.102.051.153h-.051c-.051,0-.102.102-.051.153v.051c0,.051.051.102.102.102h.051c0,.051.051.102.051.153h-.051c-.051,0-.051.051-.051.102v.102c.051.051.102.051.153.051h.051c0,.051,0,.102.051.153h-.051c-.051.051-.051.102-.051.153l.051.051c0,.051.051.102.102.051h.051c0,.051.051.102.051.153h-.051c0,.051-.051.102,0,.153l.051.051c0,.051.051.051.102.051l.051-.051c.051.051.051.102.102.153l-.051.051c-.051,0-.051.051,0,.102l.051.051c0,.051.102.102.102.051h.051c.051,0,.051.051.102.102l-.051.051v.102l.051.051c.051.051.102.051.153.051l.051-.051c.051.051.051.102.102.102l-.051.051c0,.051,0,.102.051.153l.051.051c.051,0,.102.051.153,0v-.051c.051.051.102.051.153.102l-.051.051c-.051.051,0,.102.051.102l.051.051c.051.051.102.051.153,0v-.051c.051.051.102.102.153.102l-.051.051c0,.051,0,.102.051.102l.051.051c.051.051.153.051.153,0l.051-.051s.051.051.102.051v.051c0,.051,0,.102.051.153h.051c.051.051.153,0,.153-.051.051,0,.102,0,.153.051v.051s0,.051.102.102h.051c.051.051.102,0,.102-.051l.051-.051c.051.051.102.051.153.051l-.051.051c0,.051.051.102.102.102l.102.051c.051,0,.102-.051.102-.102v-.051c.051.051.102.051.153.051v.051c0,.051.051.102.102.102h.051c.102,0,.153-.051.153-.102v-.051c.051,0,.102.051.153.051v.051s.051.051.102.051h.051c.102,0,.102-.051.102-.051v-.051c.102,0,.153-.051.204-.051v.051c0,.051.051.102.102.102h.051c.051,0,.102-.051.102-.102v-.051c.051,0,.102,0,.153-.051v.051c.051.051.102.102.153.102l.051-.051c.051,0,.102-.051.102-.102v-.051c.051,0,.102,0,.153-.051v.051c0,.051.051.102.153.051h.051c.051-.051.102-.102.051-.102v-.051c.051-.051.102-.051.153-.051.051.051.102.102.153.051h.051c.051-.051.102-.102.051-.153v-.051c.051,0,.102-.051.153-.051v.051c.051.051.102.051.153,0l.051-.051c.051,0,.102-.051.051-.102v-.051c.051,0,.051-.051.102-.102l.051.051c0,.051.102.051.153,0l.051-.051c.051,0,.051-.051,0-.102v-.051q.051-.051.102-.102l.051.051c0,.051.102,0,.153,0l.051-.051c0-.051.051-.102,0-.153l-.051-.051c.051,0,.102-.051.153-.102v.051c.051,0,.102,0,.153-.051l.051-.051c.051,0,.051-.102,0-.102l-.051-.051c.051-.051.102-.102.102-.102h.051c.051.051.102,0,.153-.051v-.051c.051-.051.051-.102,0-.102v-.051c0-.051.051-.102.051-.153l.051.051c.051,0,.102,0,.153-.051v-.051c.051-.051.051-.102,0-.153h-.051c.051-.051.051-.102.051-.153h.051c.051.051.102,0,.153-.051v-.051c.051-.051,0-.102,0-.153h-.051c0-.051,0-.102.051-.153h.051c.051,0,.102,0,.102-.051v-.102c.051-.051,0-.102-.051-.102v-.153h.051c.051,0,.102-.051.102-.102l.051-.051c0-.051-.051-.153-.102-.153v-.153h.051c.051,0,.102-.051.102-.102v-.051c0-.051-.051-.102-.051-.102l-.051-.051v-.153h.051c.051,0,.051-.051.051-.102v-.051c0-.051,0-.102-.051-.102h-.051v-.153Z" fill="#a7a6a6"/><path d="M384.828,126.865c0-1.476-1.221-2.646-2.646-2.646-1.476,0-2.646,1.17-2.646,2.646,0,1.425,1.17,2.595,2.646,2.595,1.425,0,2.646-1.17,2.646-2.595Z" fill="#ddd" fill-rule="evenodd"/><path d="M383.607,127.832l-.611-.661c-.204-.204-.204-.458,0-.661l.611-.661-.458-.458-.661.661c-.153.153-.458.153-.661,0l-.611-.661-.509.458.661.661c.153.204.153.458,0,.661l-.661.661.509.458.611-.661c.204-.153.509-.153.661,0l.661.661.458-.458Z" fill="#a2a2a1"/><rect x="319.575" y="121.339" width="16.551" height="7.966" fill="#005cb9"/><rect x="345.579" y="121.339" width="16.551" height="7.966" fill="#1a1a1a"/><path d="M376.807,116.074c.051.001.103.002.154.002h4.559c2.97,0,5.4-2.43,5.4-5.4v-2.677c0-2.97-2.43-5.4-5.4-5.4h-4.53l-.012-.043c-.293-.741-1.019-1.269-1.861-1.269h-68.287c-1.1,0-2,.9-2,2v11.753c0,1.1.9,2,2,2h68.287c.704,0,1.326-.369,1.683-.922l.007-.043Z" fill="#ececec" fill-rule="evenodd"/><path d="M311.273,114.826v-11.449c0-.56-.458-1.069-1.018-1.069h-.051l-9.413.153c-.56,0-1.018.458-1.018,1.069v11.194c0,.56.458,1.018,1.018,1.018l9.413.153c.611,0,1.069-.458,1.069-1.018v-.051Z" fill="#676767" fill-rule="evenodd"/><path d="M386.405,110.222h.051c0-.051.051-.102.051-.153v-.051c0-.051-.051-.102-.102-.102h-.051v-.153c.051,0,.102-.051.102-.153l-.051-.051c0-.051-.051-.102-.102-.102l-.051.051v-.204c.051,0,.102-.051.051-.102v-.102c0-.051-.051-.051-.102-.051h-.051c-.051-.051-.051-.102-.051-.153h.051s.051-.102,0-.153v-.051c-.051-.051-.102-.102-.153-.051h-.051c0-.051,0-.102-.051-.153h.051c.051-.051.051-.102,0-.153v-.051c-.051-.051-.102-.051-.153-.051l-.051.051c0-.051-.051-.102-.051-.153v-.051c.051,0,.051-.051,0-.102v-.051c-.051-.051-.102-.102-.153-.051h-.051s-.051-.051-.102-.102l.051-.051c.051,0,.051-.051,0-.102l-.051-.051c-.051-.051-.102-.051-.153-.051v.051c-.051-.051-.102-.102-.153-.102l.051-.051c.051-.051,0-.102,0-.153l-.051-.051h-.153l-.051.051q-.051-.051-.102-.102v-.051c.051-.051.051-.102,0-.102l-.051-.051c-.051-.051-.153-.051-.153,0l-.051.051-.102-.102v-.051c.051-.051,0-.102-.051-.102l-.051-.051c-.051-.051-.102,0-.153,0v.051c-.051,0-.102-.051-.153-.051v-.051c.051-.051,0-.102-.051-.102l-.051-.051c-.051,0-.102,0-.153.051v.051c-.051-.051-.102-.051-.153-.102.051-.051,0-.102-.051-.153h-.051c-.102-.051-.153,0-.153.051v.051c-.051-.051-.102-.051-.153-.051v-.051c0-.051-.051-.102-.102-.102h-.051c-.051-.051-.102,0-.153.051v.051c-.051,0-.102-.051-.153-.051v-.051c0-.051-.051-.051-.102-.102h-.051c-.051,0-.102.051-.102.102v.051h-.204v-.051c0-.051,0-.102-.102-.102h-.051c-.051,0-.102.051-.102.102v.051h-.153v-.051c0-.051-.051-.102-.153-.102h-.051c-.051.051-.102.051-.102.102v.051c-.051,0-.102.051-.153.051v-.051c0-.051-.051-.102-.102-.051h-.102c-.051,0-.102.051-.102.102l.051.051c-.051,0-.102,0-.153.051l-.051-.051c0-.051-.051-.102-.102-.051h-.051c-.102.051-.102.102-.102.153-.051.051-.102.051-.153.102v-.051c0-.051-.102-.051-.153-.051l-.051.051c-.051,0-.051.051-.051.102v.051c-.051,0-.102.051-.102.051l-.051-.051s-.102-.051-.153,0l-.051.051c-.051,0-.051.051-.051.102l.051.051c-.051.051-.102.051-.153.102v-.051c-.051-.051-.102-.051-.153,0l-.051.051c-.051,0-.102.051-.051.102l.051.051c-.051.051-.102.051-.153.102v-.051h-.153l-.051.051c-.051.051-.051.102-.051.153l.051.051c-.051,0-.051.051-.102.102l-.051-.051c-.051,0-.102,0-.153.051l-.051.051v.102l.051.051c-.051.051-.051.102-.102.102h-.051c0-.051-.102,0-.102.051l-.051.051c-.051.051-.051.102,0,.102l.051.051c-.051.051-.051.102-.102.153l-.051-.051c-.051,0-.102,0-.102.051l-.051.051c-.051.051,0,.102,0,.153h.051c0,.051-.051.102-.051.153h-.051c-.051-.051-.102,0-.102.051l-.051.051c0,.051,0,.153.051.153h.051c-.051.051-.051.102-.051.153h-.051c-.051,0-.102,0-.153.051v.102c0,.051,0,.102.051.102l.051.051c0,.051-.051.102-.051.153l-.051-.051c-.051,0-.102.051-.102.102v.051c-.051.102,0,.153.051.153h.051c0,.051-.051.102-.051.153h-.051c-.051,0-.051.051-.102.102v.051c0,.051.051.102.102.153h.051v.153h-.051c-.051,0-.102.051-.102.102v.051c0,.051.051.102.102.102h.051v.153l-.051.051c-.051,0-.102.051-.102.102v.051c.051.051.051.102.102.102h.051c0,.051.051.102.051.153h-.051c-.051,0-.102.102-.051.153v.051c0,.051.051.102.102.102h.051c0,.051.051.102.051.153h-.051c-.051,0-.051.051-.051.102v.102c.051.051.102.051.153.051h.051c0,.051,0,.102.051.153h-.051c-.051.051-.051.102-.051.153l.051.051c0,.051.051.102.102.051h.051c0,.051.051.102.051.153h-.051c0,.051-.051.102,0,.153l.051.051c0,.051.051.051.102.051l.051-.051c.051.051.051.102.102.153l-.051.051c-.051,0-.051.051,0,.102l.051.051c0,.051.102.102.102.051h.051c.051,0,.051.051.102.102l-.051.051v.102l.051.051c.051.051.102.051.153.051l.051-.051c.051.051.051.102.102.102l-.051.051c0,.051,0,.102.051.153l.051.051c.051,0,.102.051.153,0v-.051c.051.051.102.051.153.102l-.051.051c-.051.051,0,.102.051.102l.051.051c.051.051.102.051.153,0v-.051c.051.051.102.102.153.102l-.051.051c0,.051,0,.102.051.102l.051.051c.051.051.153.051.153,0l.051-.051s.051.051.102.051v.051c0,.051,0,.102.051.153h.051c.051.051.153,0,.153-.051.051,0,.102,0,.153.051v.051s0,.051.102.102h.051c.051.051.102,0,.102-.051l.051-.051c.051.051.102.051.153.051l-.051.051c0,.051.051.102.102.102l.102.051c.051,0,.102-.051.102-.102v-.051c.051.051.102.051.153.051v.051c0,.051.051.102.102.102h.051c.102,0,.153-.051.153-.102v-.051c.051,0,.102.051.153.051v.051s.051.051.102.051h.051c.102,0,.102-.051.102-.051v-.051c.102,0,.153-.051.204-.051v.051c0,.051.051.102.102.102h.051c.051,0,.102-.051.102-.102v-.051c.051,0,.102,0,.153-.051v.051c.051.051.102.102.153.102l.051-.051c.051,0,.102-.051.102-.102v-.051c.051,0,.102,0,.153-.051v.051c0,.051.051.102.153.051h.051c.051-.051.102-.102.051-.102v-.051c.051-.051.102-.051.153-.051.051.051.102.102.153.051h.051c.051-.051.102-.102.051-.153v-.051c.051,0,.102-.051.153-.051v.051c.051.051.102.051.153,0l.051-.051c.051,0,.102-.051.051-.102v-.051c.051,0,.051-.051.102-.102l.051.051c0,.051.102.051.153,0l.051-.051c.051,0,.051-.051,0-.102v-.051q.051-.051.102-.102l.051.051c0,.051.102,0,.153,0l.051-.051c0-.051.051-.102,0-.153l-.051-.051c.051,0,.102-.051.153-.102v.051c.051,0,.102,0,.153-.051l.051-.051c.051,0,.051-.102,0-.102l-.051-.051c.051-.051.102-.102.102-.102h.051c.051.051.102,0,.153-.051v-.051c.051-.051.051-.102,0-.102v-.051c0-.051.051-.102.051-.153l.051.051c.051,0,.102,0,.153-.051v-.051c.051-.051.051-.102,0-.153h-.051c.051-.051.051-.102.051-.153h.051c.051.051.102,0,.153-.051v-.051c.051-.051,0-.102,0-.153h-.051c0-.051,0-.102.051-.153h.051c.051,0,.102,0,.102-.051v-.102c.051-.051,0-.102-.051-.102v-.153h.051c.051,0,.102-.051.102-.102l.051-.051c0-.051-.051-.153-.102-.153v-.153h.051c.051,0,.102-.051.102-.102v-.051c0-.051-.051-.102-.051-.102l-.051-.051v-.153h.051c.051,0,.051-.051.051-.102v-.051c0-.051,0-.102-.051-.102h-.051v-.153Z" fill="#a7a6a6"/><path d="M384.828,110.528c0-1.476-1.221-2.646-2.646-2.646-1.476,0-2.646,1.17-2.646,2.646,0,1.425,1.17,2.595,2.646,2.595,1.425,0,2.646-1.17,2.646-2.595Z" fill="#ddd" fill-rule="evenodd"/><path d="M383.607,111.494l-.611-.661c-.204-.204-.204-.458,0-.661l.611-.661-.458-.458-.661.661c-.153.153-.458.153-.661,0l-.611-.661-.509.458.661.661c.153.204.153.458,0,.661l-.661.661.509.458.611-.661c.204-.153.509-.153.661,0l.661.661.458-.458Z" fill="#a2a2a1"/><rect x="319.575" y="105.002" width="16.551" height="7.966" fill="#005cb9"/><rect x="345.579" y="105.002" width="16.551" height="7.966" fill="#1a1a1a"/><path d="M324.309,69.879c.12.116.292.174.516.174.161,0,.299-.041.415-.121.115-.081.187-.166.213-.255h.7c-.111.347-.283.596-.516.745-.231.149-.512.224-.84.224-.229,0-.434-.036-.617-.109-.183-.073-.338-.176-.465-.311-.127-.134-.226-.295-.294-.482-.069-.187-.104-.392-.104-.616,0-.217.036-.418.106-.605.071-.187.172-.348.303-.485.131-.136.287-.244.469-.322.181-.079.382-.118.603-.118.246,0,.461.048.645.143.183.095.333.223.451.384.117.161.202.344.255.549.052.206.07.42.056.645h-2.091c.012.258.077.445.196.561ZM325.209,68.355c-.095-.104-.24-.157-.434-.157-.128,0-.233.021-.317.064s-.151.096-.201.16c-.051.064-.086.131-.106.202-.021.071-.033.134-.037.19h1.295c-.037-.202-.104-.355-.199-.459Z" fill="#fff"/><path d="M327.925,68.237c.097-.008.188-.029.271-.064.084-.036.153-.087.207-.154.055-.067.082-.157.082-.269,0-.168-.057-.297-.169-.387-.111-.09-.24-.134-.387-.134-.201,0-.354.066-.456.199-.104.133-.152.3-.148.501h-.757c.007-.202.044-.386.109-.552.065-.167.156-.309.274-.429s.259-.212.423-.277c.165-.065.348-.098.55-.098.156,0,.313.023.471.07.156.047.298.117.423.21.125.093.228.207.306.342.078.134.117.29.117.465,0,.191-.046.359-.137.504-.092.146-.229.245-.412.297v.011c.217.048.387.153.51.313.123.161.186.354.186.578,0,.206-.041.389-.121.549s-.188.295-.322.403-.289.19-.465.247-.358.084-.55.084c-.22,0-.421-.032-.602-.095-.182-.063-.336-.156-.463-.277s-.226-.27-.294-.446c-.069-.175-.103-.377-.099-.605h.757c.004.104.021.205.051.3.029.095.072.177.129.247.056.069.126.124.21.166.084.041.184.062.3.062.18,0,.331-.055.454-.166.123-.11.185-.261.185-.451,0-.149-.028-.263-.087-.342-.058-.079-.132-.135-.221-.171-.09-.036-.188-.056-.295-.062-.106-.006-.208-.009-.306-.009v-.56c.086.007.178.007.275,0Z" fill="#fff"/><path d="M329.757,68.567c.012-.187.059-.342.141-.465.082-.123.187-.222.313-.297s.271-.128.429-.16c.159-.032.319-.048.479-.048.146,0,.293.01.442.031s.286.061.409.121c.124.06.225.143.303.25.079.106.118.248.118.423v1.508c0,.131.007.256.022.375.015.12.041.209.078.269h-.807c-.016-.045-.027-.09-.037-.137-.009-.047-.016-.094-.02-.143-.127.131-.276.222-.448.275-.172.052-.348.078-.526.078-.139,0-.268-.017-.387-.05-.12-.034-.225-.086-.314-.157-.089-.071-.159-.161-.21-.269s-.075-.237-.075-.387c0-.165.028-.3.087-.407.058-.106.132-.191.224-.255s.196-.111.314-.143c.117-.031.235-.057.355-.075.119-.019.237-.034.354-.045.115-.011.218-.028.308-.051s.161-.055.213-.098c.053-.043.077-.106.073-.188,0-.086-.014-.154-.042-.205s-.065-.09-.112-.118-.101-.047-.162-.056c-.062-.009-.128-.014-.199-.014-.157,0-.28.033-.37.101s-.142.179-.157.336h-.796ZM331.596,69.156c-.034.03-.076.053-.126.07-.051.017-.104.031-.163.042-.058.011-.118.021-.182.028s-.127.017-.19.028c-.061.011-.119.026-.177.045-.058.019-.108.044-.151.076s-.078.072-.104.121c-.026.048-.039.11-.039.185,0,.071.013.131.039.179.025.049.062.087.106.115.045.028.097.048.156.059.061.011.122.017.186.017.157,0,.278-.026.364-.078s.149-.115.19-.188.066-.146.076-.221c.009-.075.014-.135.014-.18v-.297Z" fill="#fff"/><path d="M324.309,86.047c.12.116.292.174.516.174.161,0,.299-.041.415-.121.115-.081.187-.166.213-.255h.7c-.111.347-.283.596-.516.745-.231.149-.512.224-.84.224-.229,0-.434-.036-.617-.109-.183-.073-.338-.176-.465-.311-.127-.134-.226-.295-.294-.482-.069-.187-.104-.392-.104-.616,0-.217.036-.418.106-.605.071-.187.172-.348.303-.485.131-.136.287-.244.469-.322.181-.079.382-.118.603-.118.246,0,.461.048.645.143.183.095.333.223.451.384.117.161.202.344.255.549.052.206.07.42.056.645h-2.091c.012.258.077.445.196.561ZM325.209,84.523c-.095-.104-.24-.157-.434-.157-.128,0-.233.021-.317.064s-.151.096-.201.16c-.051.064-.086.131-.106.202-.021.071-.033.134-.037.19h1.295c-.037-.202-.104-.355-.199-.459Z" fill="#fff"/><path d="M326.462,85.834v-.729l1.703-2.287h.712v2.36h.521v.656h-.521v.908h-.756v-.908h-1.659ZM328.103,83.816l-1.014,1.362h1.031v-1.362h-.018Z" fill="#fff"/><path d="M329.757,84.735c.012-.187.059-.342.141-.465.082-.123.187-.222.313-.297s.271-.128.429-.16c.159-.032.319-.048.479-.048.146,0,.293.01.442.031s.286.061.409.121c.124.06.225.143.303.25.079.106.118.248.118.423v1.508c0,.131.007.256.022.375.015.12.041.209.078.269h-.807c-.016-.045-.027-.09-.037-.137-.009-.047-.016-.094-.02-.143-.127.131-.276.222-.448.275-.172.052-.348.078-.526.078-.139,0-.268-.017-.387-.05-.12-.034-.225-.086-.314-.157-.089-.071-.159-.161-.21-.269s-.075-.237-.075-.387c0-.165.028-.3.087-.407.058-.106.132-.191.224-.255s.196-.111.314-.143c.117-.031.235-.057.355-.075.119-.019.237-.034.354-.045.115-.011.218-.028.308-.051s.161-.055.213-.098c.053-.043.077-.106.073-.188,0-.086-.014-.154-.042-.205s-.065-.09-.112-.118-.101-.047-.162-.056c-.062-.009-.128-.014-.199-.014-.157,0-.28.033-.37.101s-.142.179-.157.336h-.796ZM331.596,85.324c-.034.03-.076.053-.126.07-.051.017-.104.031-.163.042-.058.011-.118.021-.182.028s-.127.017-.19.028c-.061.011-.119.026-.177.045-.058.019-.108.044-.151.076s-.078.072-.104.121c-.026.048-.039.11-.039.185,0,.071.013.131.039.179.025.049.062.087.106.115.045.028.097.048.156.059.061.011.122.017.186.017.157,0,.278-.026.364-.078s.149-.115.19-.188.066-.146.076-.221c.009-.075.014-.135.014-.18v-.297Z" fill="#fff"/><path d="M324.309,110.131c.12.116.292.174.516.174.161,0,.299-.041.415-.121.115-.081.187-.166.213-.255h.7c-.111.347-.283.596-.516.745-.231.149-.512.224-.84.224-.229,0-.434-.036-.617-.109-.183-.073-.338-.176-.465-.311-.127-.134-.226-.295-.294-.482-.069-.187-.104-.392-.104-.616,0-.217.036-.418.106-.605.071-.187.172-.348.303-.485.131-.136.287-.244.469-.322.181-.079.382-.118.603-.118.246,0,.461.048.645.143.183.095.333.223.451.384.117.161.202.344.255.549.052.206.07.42.056.645h-2.091c.012.258.077.445.196.561ZM325.209,108.606c-.095-.104-.24-.157-.434-.157-.128,0-.233.021-.317.064s-.151.096-.201.16c-.051.064-.086.131-.106.202-.021.071-.033.134-.037.19h1.295c-.037-.202-.104-.355-.199-.459Z" fill="#fff"/><path d="M327.925,108.489c.097-.008.188-.029.271-.064.084-.036.153-.087.207-.154.055-.067.082-.157.082-.269,0-.168-.057-.297-.169-.387-.111-.09-.24-.134-.387-.134-.201,0-.354.066-.456.199-.104.133-.152.3-.148.501h-.757c.007-.202.044-.386.109-.552.065-.167.156-.309.274-.429s.259-.212.423-.277c.165-.065.348-.098.55-.098.156,0,.313.023.471.07.156.047.298.117.423.21.125.093.228.207.306.342.078.134.117.29.117.465,0,.191-.046.359-.137.504-.092.146-.229.245-.412.297v.011c.217.048.387.153.51.313.123.161.186.354.186.578,0,.206-.041.389-.121.549s-.188.295-.322.403-.289.19-.465.247-.358.084-.55.084c-.22,0-.421-.032-.602-.095-.182-.063-.336-.156-.463-.277s-.226-.27-.294-.446c-.069-.175-.103-.377-.099-.605h.757c.004.104.021.205.051.3.029.095.072.177.129.247.056.069.126.124.21.166.084.041.184.062.3.062.18,0,.331-.055.454-.166.123-.11.185-.261.185-.451,0-.149-.028-.263-.087-.342-.058-.079-.132-.135-.221-.171-.09-.036-.188-.056-.295-.062-.106-.006-.208-.009-.306-.009v-.56c.086.007.178.007.275,0Z" fill="#fff"/><path d="M329.757,108.819c.012-.187.059-.342.141-.465.082-.123.187-.222.313-.297s.271-.128.429-.16c.159-.032.319-.048.479-.048.146,0,.293.01.442.031s.286.061.409.121c.124.06.225.143.303.25.079.106.118.248.118.423v1.508c0,.131.007.256.022.375.015.12.041.209.078.269h-.807c-.016-.045-.027-.09-.037-.137-.009-.047-.016-.094-.02-.143-.127.131-.276.222-.448.275-.172.052-.348.078-.526.078-.139,0-.268-.017-.387-.05-.12-.034-.225-.086-.314-.157-.089-.071-.159-.161-.21-.269s-.075-.237-.075-.387c0-.165.028-.3.087-.407.058-.106.132-.191.224-.255s.196-.111.314-.143c.117-.031.235-.057.355-.075.119-.019.237-.034.354-.045.115-.011.218-.028.308-.051s.161-.055.213-.098c.053-.043.077-.106.073-.188,0-.086-.014-.154-.042-.205s-.065-.09-.112-.118-.101-.047-.162-.056c-.062-.009-.128-.014-.199-.014-.157,0-.28.033-.37.101s-.142.179-.157.336h-.796ZM331.596,109.408c-.034.03-.076.053-.126.07-.051.017-.104.031-.163.042-.058.011-.118.021-.182.028s-.127.017-.19.028c-.061.011-.119.026-.177.045-.058.019-.108.044-.151.076s-.078.072-.104.121c-.026.048-.039.11-.039.185,0,.071.013.131.039.179.025.049.062.087.106.115.045.028.097.048.156.059.061.011.122.017.186.017.157,0,.278-.026.364-.078s.149-.115.19-.188.066-.146.076-.221c.009-.075.014-.135.014-.18v-.297Z" fill="#fff"/><path d="M324.309,126.299c.12.116.292.174.516.174.161,0,.299-.041.415-.121.115-.081.187-.166.213-.255h.7c-.111.347-.283.596-.516.745-.231.149-.512.224-.84.224-.229,0-.434-.036-.617-.109-.183-.073-.338-.176-.465-.311-.127-.134-.226-.295-.294-.482-.069-.187-.104-.392-.104-.616,0-.217.036-.418.106-.605.071-.187.172-.348.303-.485.131-.136.287-.244.469-.322.181-.079.382-.118.603-.118.246,0,.461.048.645.143.183.095.333.223.451.384.117.161.202.344.255.549.052.206.07.42.056.645h-2.091c.012.258.077.445.196.561ZM325.209,124.774c-.095-.104-.24-.157-.434-.157-.128,0-.233.021-.317.064s-.151.096-.201.16c-.051.064-.086.131-.106.202-.021.071-.033.134-.037.19h1.295c-.037-.202-.104-.355-.199-.459Z" fill="#fff"/><path d="M326.462,126.086v-.729l1.703-2.287h.712v2.36h.521v.656h-.521v.908h-.756v-.908h-1.659ZM328.103,124.068l-1.014,1.362h1.031v-1.362h-.018Z" fill="#fff"/><path d="M329.757,124.987c.012-.187.059-.342.141-.465.082-.123.187-.222.313-.297s.271-.128.429-.16c.159-.032.319-.048.479-.048.146,0,.293.01.442.031s.286.061.409.121c.124.06.225.143.303.25.079.106.118.248.118.423v1.508c0,.131.007.256.022.375.015.12.041.209.078.269h-.807c-.016-.045-.027-.09-.037-.137-.009-.047-.016-.094-.02-.143-.127.131-.276.222-.448.275-.172.052-.348.078-.526.078-.139,0-.268-.017-.387-.05-.12-.034-.225-.086-.314-.157-.089-.071-.159-.161-.21-.269s-.075-.237-.075-.387c0-.165.028-.3.087-.407.058-.106.132-.191.224-.255s.196-.111.314-.143c.117-.031.235-.057.355-.075.119-.019.237-.034.354-.045.115-.011.218-.028.308-.051s.161-.055.213-.098c.053-.043.077-.106.073-.188,0-.086-.014-.154-.042-.205s-.065-.09-.112-.118-.101-.047-.162-.056c-.062-.009-.128-.014-.199-.014-.157,0-.28.033-.37.101s-.142.179-.157.336h-.796ZM331.596,125.576c-.034.03-.076.053-.126.07-.051.017-.104.031-.163.042-.058.011-.118.021-.182.028s-.127.017-.19.028c-.061.011-.119.026-.177.045-.058.019-.108.044-.151.076s-.078.072-.104.121c-.026.048-.039.11-.039.185,0,.071.013.131.039.179.025.049.062.087.106.115.045.028.097.048.156.059.061.011.122.017.186.017.157,0,.278-.026.364-.078s.149-.115.19-.188.066-.146.076-.221c.009-.075.014-.135.014-.18v-.297Z" fill="#fff"/><path d="M120.348,69.879c.12.116.292.174.516.174.161,0,.299-.041.415-.121.115-.081.187-.166.213-.255h.7c-.111.347-.283.596-.516.745-.231.149-.512.224-.84.224-.229,0-.434-.036-.617-.109-.183-.073-.338-.176-.465-.311-.127-.134-.226-.295-.294-.482-.069-.187-.104-.392-.104-.616,0-.217.036-.418.106-.605.071-.187.172-.348.303-.485.131-.136.287-.244.469-.322.181-.079.382-.118.603-.118.246,0,.461.048.645.143.183.095.333.223.451.384.117.161.202.344.255.549.052.206.07.42.056.645h-2.091c.012.258.077.445.196.561ZM121.248,68.355c-.095-.104-.24-.157-.434-.157-.128,0-.233.021-.317.064s-.151.096-.201.16c-.051.064-.086.131-.106.202-.021.071-.033.134-.037.19h1.295c-.037-.202-.104-.355-.199-.459Z" fill="#fff"/><path d="M123.812,70.574v-2.544h-.986v-.6c.138.004.271-.006.4-.031s.245-.067.348-.129c.103-.062.189-.143.261-.244.07-.101.117-.226.14-.375h.634v3.923h-.796Z" fill="#fff"/><path d="M125.796,68.567c.012-.187.059-.342.141-.465.082-.123.187-.222.313-.297s.271-.128.429-.16c.159-.032.319-.048.479-.048.146,0,.293.01.442.031s.286.061.409.121c.124.06.225.143.303.25.079.106.118.248.118.423v1.508c0,.131.007.256.022.375.015.12.041.209.078.269h-.807c-.016-.045-.027-.09-.037-.137-.009-.047-.016-.094-.02-.143-.127.131-.276.222-.448.275-.172.052-.348.078-.526.078-.139,0-.268-.017-.387-.05-.12-.034-.225-.086-.314-.157-.089-.071-.159-.161-.21-.269s-.075-.237-.075-.387c0-.165.028-.3.087-.407.058-.106.132-.191.224-.255s.196-.111.314-.143c.117-.031.235-.057.355-.075.119-.019.237-.034.354-.045.115-.011.218-.028.308-.051s.161-.055.213-.098c.053-.043.077-.106.073-.188,0-.086-.014-.154-.042-.205s-.065-.09-.112-.118-.101-.047-.162-.056c-.062-.009-.128-.014-.199-.014-.157,0-.28.033-.37.101s-.142.179-.157.336h-.796ZM127.635,69.156c-.034.03-.076.053-.126.07-.051.017-.104.031-.163.042-.058.011-.118.021-.182.028s-.127.017-.19.028c-.061.011-.119.026-.177.045-.058.019-.108.044-.151.076s-.078.072-.104.121c-.026.048-.039.11-.039.185,0,.071.013.131.039.179.025.049.062.087.106.115.045.028.097.048.156.059.061.011.122.017.186.017.157,0,.278-.026.364-.078s.149-.115.19-.188.066-.146.076-.221c.009-.075.014-.135.014-.18v-.297Z" fill="#fff"/><path d="M120.348,86.047c.12.116.292.174.516.174.161,0,.299-.041.415-.121.115-.081.187-.166.213-.255h.7c-.111.347-.283.596-.516.745-.231.149-.512.224-.84.224-.229,0-.434-.036-.617-.109-.183-.073-.338-.176-.465-.311-.127-.134-.226-.295-.294-.482-.069-.187-.104-.392-.104-.616,0-.217.036-.418.106-.605.071-.187.172-.348.303-.485.131-.136.287-.244.469-.322.181-.079.382-.118.603-.118.246,0,.461.048.645.143.183.095.333.223.451.384.117.161.202.344.255.549.052.206.07.42.056.645h-2.091c.012.258.077.445.196.561ZM121.248,84.523c-.095-.104-.24-.157-.434-.157-.128,0-.233.021-.317.064s-.151.096-.201.16c-.051.064-.086.131-.106.202-.021.071-.033.134-.037.19h1.295c-.037-.202-.104-.355-.199-.459Z" fill="#fff"/><path d="M122.697,83.701c.06-.192.149-.36.269-.504.12-.144.271-.256.451-.336.182-.08.39-.12.625-.12.18,0,.351.028.513.084.163.056.306.136.429.241.123.105.222.234.295.387.072.153.108.325.108.516,0,.198-.031.368-.095.51s-.147.268-.252.378c-.105.11-.224.21-.356.3-.133.089-.266.178-.4.266s-.266.182-.393.283c-.127.101-.239.218-.336.353h1.854v.684h-2.88c0-.228.032-.426.098-.594.065-.168.154-.318.267-.451.111-.132.243-.255.395-.367.151-.112.312-.226.479-.342.086-.06.178-.12.274-.182.098-.062.186-.129.267-.205.08-.075.147-.159.201-.252.055-.093.081-.2.081-.319,0-.191-.055-.339-.165-.446s-.251-.16-.423-.16c-.116,0-.214.027-.294.081-.081.054-.146.125-.193.213-.049.087-.084.185-.104.291-.021.107-.03.212-.03.317h-.763c-.007-.224.019-.433.079-.625Z" fill="#fff"/><path d="M125.796,84.735c.012-.187.059-.342.141-.465.082-.123.187-.222.313-.297s.271-.128.429-.16c.159-.032.319-.048.479-.048.146,0,.293.01.442.031s.286.061.409.121c.124.06.225.143.303.25.079.106.118.248.118.423v1.508c0,.131.007.256.022.375.015.12.041.209.078.269h-.807c-.016-.045-.027-.09-.037-.137-.009-.047-.016-.094-.02-.143-.127.131-.276.222-.448.275-.172.052-.348.078-.526.078-.139,0-.268-.017-.387-.05-.12-.034-.225-.086-.314-.157-.089-.071-.159-.161-.21-.269s-.075-.237-.075-.387c0-.165.028-.3.087-.407.058-.106.132-.191.224-.255s.196-.111.314-.143c.117-.031.235-.057.355-.075.119-.019.237-.034.354-.045.115-.011.218-.028.308-.051s.161-.055.213-.098c.053-.043.077-.106.073-.188,0-.086-.014-.154-.042-.205s-.065-.09-.112-.118-.101-.047-.162-.056c-.062-.009-.128-.014-.199-.014-.157,0-.28.033-.37.101s-.142.179-.157.336h-.796ZM127.635,85.324c-.034.03-.076.053-.126.07-.051.017-.104.031-.163.042-.058.011-.118.021-.182.028s-.127.017-.19.028c-.061.011-.119.026-.177.045-.058.019-.108.044-.151.076s-.078.072-.104.121c-.026.048-.039.11-.039.185,0,.071.013.131.039.179.025.049.062.087.106.115.045.028.097.048.156.059.061.011.122.017.186.017.157,0,.278-.026.364-.078s.149-.115.19-.188.066-.146.076-.221c.009-.075.014-.135.014-.18v-.297Z" fill="#fff"/><path d="M120.348,110.131c.12.116.292.174.516.174.161,0,.299-.041.415-.121.115-.081.187-.166.213-.255h.7c-.111.347-.283.596-.516.745-.231.149-.512.224-.84.224-.229,0-.434-.036-.617-.109-.183-.073-.338-.176-.465-.311-.127-.134-.226-.295-.294-.482-.069-.187-.104-.392-.104-.616,0-.217.036-.418.106-.605.071-.187.172-.348.303-.485.131-.136.287-.244.469-.322.181-.079.382-.118.603-.118.246,0,.461.048.645.143.183.095.333.223.451.384.117.161.202.344.255.549.052.206.07.42.056.645h-2.091c.012.258.077.445.196.561ZM121.248,108.606c-.095-.104-.24-.157-.434-.157-.128,0-.233.021-.317.064s-.151.096-.201.16c-.051.064-.086.131-.106.202-.021.071-.033.134-.037.19h1.295c-.037-.202-.104-.355-.199-.459Z" fill="#fff"/><path d="M123.812,110.826v-2.544h-.986v-.6c.138.004.271-.006.4-.031s.245-.067.348-.129c.103-.062.189-.143.261-.244.07-.101.117-.226.14-.375h.634v3.923h-.796Z" fill="#fff"/><path d="M125.796,108.819c.012-.187.059-.342.141-.465.082-.123.187-.222.313-.297s.271-.128.429-.16c.159-.032.319-.048.479-.048.146,0,.293.01.442.031s.286.061.409.121c.124.06.225.143.303.25.079.106.118.248.118.423v1.508c0,.131.007.256.022.375.015.12.041.209.078.269h-.807c-.016-.045-.027-.09-.037-.137-.009-.047-.016-.094-.02-.143-.127.131-.276.222-.448.275-.172.052-.348.078-.526.078-.139,0-.268-.017-.387-.05-.12-.034-.225-.086-.314-.157-.089-.071-.159-.161-.21-.269s-.075-.237-.075-.387c0-.165.028-.3.087-.407.058-.106.132-.191.224-.255s.196-.111.314-.143c.117-.031.235-.057.355-.075.119-.019.237-.034.354-.045.115-.011.218-.028.308-.051s.161-.055.213-.098c.053-.043.077-.106.073-.188,0-.086-.014-.154-.042-.205s-.065-.09-.112-.118-.101-.047-.162-.056c-.062-.009-.128-.014-.199-.014-.157,0-.28.033-.37.101s-.142.179-.157.336h-.796ZM127.635,109.408c-.034.03-.076.053-.126.07-.051.017-.104.031-.163.042-.058.011-.118.021-.182.028s-.127.017-.19.028c-.061.011-.119.026-.177.045-.058.019-.108.044-.151.076s-.078.072-.104.121c-.026.048-.039.11-.039.185,0,.071.013.131.039.179.025.049.062.087.106.115.045.028.097.048.156.059.061.011.122.017.186.017.157,0,.278-.026.364-.078s.149-.115.19-.188.066-.146.076-.221c.009-.075.014-.135.014-.18v-.297Z" fill="#fff"/><path d="M120.348,126.299c.12.116.292.174.516.174.161,0,.299-.041.415-.121.115-.081.187-.166.213-.255h.7c-.111.347-.283.596-.516.745-.231.149-.512.224-.84.224-.229,0-.434-.036-.617-.109-.183-.073-.338-.176-.465-.311-.127-.134-.226-.295-.294-.482-.069-.187-.104-.392-.104-.616,0-.217.036-.418.106-.605.071-.187.172-.348.303-.485.131-.136.287-.244.469-.322.181-.079.382-.118.603-.118.246,0,.461.048.645.143.183.095.333.223.451.384.117.161.202.344.255.549.052.206.07.42.056.645h-2.091c.012.258.077.445.196.561ZM121.248,124.774c-.095-.104-.24-.157-.434-.157-.128,0-.233.021-.317.064s-.151.096-.201.16c-.051.064-.086.131-.106.202-.021.071-.033.134-.037.19h1.295c-.037-.202-.104-.355-.199-.459Z" fill="#fff"/><path d="M122.697,123.953c.06-.192.149-.36.269-.504.12-.144.271-.256.451-.336.182-.08.39-.12.625-.12.18,0,.351.028.513.084.163.056.306.136.429.241.123.105.222.234.295.387.072.153.108.325.108.516,0,.198-.031.368-.095.51s-.147.268-.252.378c-.105.11-.224.21-.356.3-.133.089-.266.178-.4.266s-.266.182-.393.283c-.127.101-.239.218-.336.353h1.854v.684h-2.88c0-.228.032-.426.098-.594.065-.168.154-.318.267-.451.111-.132.243-.255.395-.367.151-.112.312-.226.479-.342.086-.06.178-.12.274-.182.098-.062.186-.129.267-.205.08-.075.147-.159.201-.252.055-.093.081-.2.081-.319,0-.191-.055-.339-.165-.446s-.251-.16-.423-.16c-.116,0-.214.027-.294.081-.081.054-.146.125-.193.213-.049.087-.084.185-.104.291-.021.107-.03.212-.03.317h-.763c-.007-.224.019-.433.079-.625Z" fill="#fff"/><path d="M125.796,124.987c.012-.187.059-.342.141-.465.082-.123.187-.222.313-.297s.271-.128.429-.16c.159-.032.319-.048.479-.048.146,0,.293.01.442.031s.286.061.409.121c.124.06.225.143.303.25.079.106.118.248.118.423v1.508c0,.131.007.256.022.375.015.12.041.209.078.269h-.807c-.016-.045-.027-.09-.037-.137-.009-.047-.016-.094-.02-.143-.127.131-.276.222-.448.275-.172.052-.348.078-.526.078-.139,0-.268-.017-.387-.05-.12-.034-.225-.086-.314-.157-.089-.071-.159-.161-.21-.269s-.075-.237-.075-.387c0-.165.028-.3.087-.407.058-.106.132-.191.224-.255s.196-.111.314-.143c.117-.031.235-.057.355-.075.119-.019.237-.034.354-.045.115-.011.218-.028.308-.051s.161-.055.213-.098c.053-.043.077-.106.073-.188,0-.086-.014-.154-.042-.205s-.065-.09-.112-.118-.101-.047-.162-.056c-.062-.009-.128-.014-.199-.014-.157,0-.28.033-.37.101s-.142.179-.157.336h-.796ZM127.635,125.576c-.034.03-.076.053-.126.07-.051.017-.104.031-.163.042-.058.011-.118.021-.182.028s-.127.017-.19.028c-.061.011-.119.026-.177.045-.058.019-.108.044-.151.076s-.078.072-.104.121c-.026.048-.039.11-.039.185,0,.071.013.131.039.179.025.049.062.087.106.115.045.028.097.048.156.059.061.011.122.017.186.017.157,0,.278-.026.364-.078s.149-.115.19-.188.066-.146.076-.221c.009-.075.014-.135.014-.18v-.297Z" fill="#fff"/><path d="M198.723,7.873v-1.268h5.616v1.268h-2.055v5.587h-1.507v-5.587h-2.055Z" fill="#005cb9"/><path d="M203.944,9.903c.122-.323.295-.599.519-.826.224-.227.493-.402.807-.527s.665-.188,1.056-.188.744.062,1.062.188c.316.125.587.301.811.527.225.228.396.503.519.826.121.323.183.683.183,1.08s-.062.755-.183,1.075c-.122.32-.294.594-.519.82-.224.228-.494.402-.811.523-.317.121-.671.183-1.062.183s-.742-.062-1.056-.183-.583-.296-.807-.523c-.224-.227-.396-.5-.519-.82-.121-.32-.182-.679-.182-1.075s.061-.757.182-1.08ZM205.182,11.564c.039.189.104.359.197.51s.216.27.369.359c.154.09.346.135.576.135s.424-.045.581-.135.281-.209.374-.359.159-.32.197-.51c.038-.188.058-.382.058-.58s-.02-.394-.058-.586-.104-.361-.197-.509-.217-.267-.374-.36c-.157-.092-.351-.139-.581-.139s-.422.047-.576.139c-.153.094-.276.213-.369.36s-.158.316-.197.509c-.038.192-.058.388-.058.586s.02.392.058.58Z" fill="#005cb9"/><path d="M213.598,12.227c.061.105.139.191.234.259.097.067.207.117.332.149.124.031.254.048.389.048.096,0,.196-.012.302-.034s.202-.058.288-.105c.087-.048.158-.111.216-.191s.087-.181.087-.303c0-.205-.136-.358-.408-.461-.271-.103-.651-.205-1.138-.308-.198-.044-.392-.097-.581-.158-.188-.061-.356-.141-.504-.239-.146-.1-.266-.225-.354-.375-.09-.15-.135-.334-.135-.552,0-.32.062-.582.188-.787s.289-.366.494-.485c.205-.118.436-.201.691-.249s.519-.072.787-.072.529.025.782.077c.253.051.479.138.677.259.198.122.363.283.494.485.132.201.21.456.235.763h-1.296c-.02-.263-.118-.439-.298-.533-.179-.092-.39-.139-.633-.139-.077,0-.16.005-.25.015s-.171.03-.245.062c-.073.031-.136.078-.187.139-.052.061-.077.143-.077.245,0,.121.045.221.135.298.089.076.206.139.35.187.145.048.31.092.495.13s.374.08.566.125c.198.045.392.099.58.163.189.063.357.148.504.254.147.106.266.237.355.394.09.157.135.351.135.581,0,.326-.065.601-.197.821-.131.221-.302.398-.514.532-.211.135-.452.229-.725.283-.271.055-.549.082-.83.082-.288,0-.57-.029-.845-.087-.275-.058-.521-.153-.734-.288-.215-.134-.391-.312-.528-.532s-.213-.498-.226-.831h1.296c0,.147.03.274.092.38Z" fill="#005cb9"/><path d="M221.877,13.46l-.883-3.331h-.02l-.845,3.331h-1.411l-1.574-4.963h1.44l.911,3.369h.02l.826-3.369h1.324l.845,3.359h.02l.912-3.359h1.401l-1.564,4.963h-1.402Z" fill="#005cb9"/><path d="M225.458,7.729v-1.123h1.363v1.123h-1.363ZM226.821,8.497v4.963h-1.363v-4.963h1.363Z" fill="#005cb9"/><path d="M230.623,8.497v.912h-.999v2.457c0,.23.039.384.115.461.077.077.23.115.461.115.077,0,.15-.003.221-.01.07-.006.138-.016.202-.028v1.056c-.115.02-.243.032-.385.038-.141.007-.278.01-.412.01-.212,0-.411-.015-.601-.043-.188-.029-.354-.085-.499-.168-.144-.083-.258-.202-.341-.355s-.125-.355-.125-.604v-2.928h-.825v-.912h.825v-1.488h1.363v1.488h.999Z" fill="#005cb9"/><path d="M233.646,9.39c-.218,0-.4.05-.547.148-.147.1-.268.228-.36.384-.093.157-.158.33-.197.519-.038.189-.058.376-.058.562,0,.18.02.362.058.548.039.186.102.354.188.504.087.15.203.273.351.369.147.097.326.145.537.145.327,0,.578-.092.754-.273.176-.183.286-.428.331-.734h1.315c-.09.659-.346,1.161-.768,1.507-.423.346-.964.519-1.623.519-.371,0-.712-.062-1.022-.188s-.574-.299-.792-.523c-.218-.224-.387-.491-.509-.801-.121-.311-.182-.651-.182-1.022,0-.385.056-.741.168-1.071.111-.329.276-.614.494-.854.218-.24.483-.428.797-.562.313-.134.672-.201,1.075-.201.294,0,.577.038.85.115.271.077.515.193.729.351.214.156.389.352.523.585.134.234.211.511.23.831h-1.335c-.09-.569-.426-.854-1.008-.854Z" fill="#005cb9"/><path d="M238.149,6.606v2.582h.028c.173-.287.394-.497.663-.628.269-.132.53-.197.787-.197.364,0,.663.05.897.148.233.1.417.237.552.413s.229.391.283.644.082.532.082.84v3.053h-1.363v-2.803c0-.41-.064-.716-.192-.917-.128-.202-.355-.303-.682-.303-.371,0-.64.11-.807.331-.166.221-.249.584-.249,1.09v2.602h-1.363v-6.854h1.363Z" fill="#005cb9"/><path d="M248.709,6.606l2.563,6.854h-1.565l-.519-1.526h-2.562l-.538,1.526h-1.517l2.592-6.854h1.546ZM248.795,10.811l-.863-2.516h-.02l-.893,2.516h1.775Z" fill="#005cb9"/><polyline points="327.673 64.536 327.673 46.492 253.798 46.492 253.798 21.23" fill="none" stroke="#fff" stroke-linejoin="round" stroke-width="4"/><polyline points="327.673 64.536 327.673 46.492 253.798 46.492 253.798 21.23" fill="none" stroke="#005cb9" stroke-linejoin="round" stroke-width="1.6"/><path d="M255.89,21.373c0-1.068-.866-1.934-1.935-1.934s-1.934.866-1.934,1.934.866,1.936,1.934,1.936,1.935-.866,1.935-1.936Z" fill="#005cb9"/><polyline points="327.673 80.95 327.673 76.627 245.877 76.681 245.877 22.545" fill="none" stroke="#fff" stroke-linejoin="round" stroke-width="4"/><polyline points="327.673 80.95 327.673 76.627 245.877 76.681 245.877 22.545" fill="none" stroke="#005cb9" stroke-linejoin="round" stroke-width="1.6"/><polyline points="327.673 104.882 327.673 96.53 237.865 96.53 237.865 22.35" fill="none" stroke="#fff" stroke-linejoin="round" stroke-width="4"/><polyline points="327.673 104.882 327.673 96.53 237.865 96.53 237.865 22.35" fill="none" stroke="#005cb9" stroke-linejoin="round" stroke-width="1.6"/><polyline points="327.673 121.296 327.673 116.972 229.423 117.026 229.423 22.801" fill="none" stroke="#fff" stroke-linejoin="round" stroke-width="4"/><polyline points="327.673 121.296 327.673 116.972 229.423 117.026 229.423 22.801" fill="none" stroke="#005cb9" stroke-linejoin="round" stroke-width="1.6"/><path d="M247.755,21.373c0-1.068-.866-1.934-1.935-1.934s-1.934.866-1.934,1.934c0,1.07.866,1.936,1.934,1.936s1.935-.866,1.935-1.936Z" fill="#005cb9"/><path d="M239.826,21.373c0-1.068-.866-1.934-1.935-1.934s-1.934.866-1.934,1.934c0,1.07.866,1.936,1.934,1.936s1.935-.866,1.935-1.936Z" fill="#005cb9"/><path d="M231.444,21.373c0-1.068-.866-1.934-1.935-1.934s-1.934.866-1.934,1.934c0,1.07.866,1.936,1.934,1.936s1.935-.866,1.935-1.936Z" fill="#005cb9"/><polyline points="124.558 64.536 124.558 46.492 196.479 46.492 196.479 21.23" fill="none" stroke="#fff" stroke-linejoin="round" stroke-width="4"/><polyline points="124.558 64.536 124.558 46.492 196.479 46.492 196.479 21.23" fill="none" stroke="#005cb9" stroke-linejoin="round" stroke-width="1.6"/><path d="M194.387,21.373c0-1.068.866-1.934,1.935-1.934s1.934.866,1.934,1.934c0,1.07-.866,1.936-1.934,1.936s-1.935-.866-1.935-1.936Z" fill="#005cb9"/><polyline points="124.558 80.95 124.558 76.627 204.4 76.681 204.4 22.545" fill="none" stroke="#fff" stroke-linejoin="round" stroke-width="4"/><polyline points="124.558 80.95 124.558 76.627 204.4 76.681 204.4 22.545" fill="none" stroke="#005cb9" stroke-linejoin="round" stroke-width="1.6"/><polyline points="124.558 104.882 124.558 96.53 212.412 96.53 212.412 22.35" fill="none" stroke="#fff" stroke-linejoin="round" stroke-width="4"/><polyline points="124.558 104.882 124.558 96.53 212.412 96.53 212.412 22.35" fill="none" stroke="#005cb9" stroke-linejoin="round" stroke-width="1.6"/><polyline points="124.558 121.296 124.558 116.972 220.854 117.026 220.854 22.801" fill="none" stroke="#fff" stroke-linejoin="round" stroke-width="4"/><polyline points="124.558 121.296 124.558 116.972 220.854 117.026 220.854 22.801" fill="none" stroke="#005cb9" stroke-linejoin="round" stroke-width="1.6"/><path d="M202.522,21.373c0-1.068.866-1.934,1.935-1.934s1.934.866,1.934,1.934-.866,1.936-1.934,1.936-1.935-.866-1.935-1.936Z" fill="#005cb9"/><path d="M210.451,21.373c0-1.068.866-1.934,1.935-1.934s1.934.866,1.934,1.934c0,1.07-.866,1.936-1.934,1.936s-1.935-.866-1.935-1.936Z" fill="#005cb9"/><path d="M218.832,21.373c0-1.068.866-1.934,1.935-1.934s1.934.866,1.934,1.934c0,1.07-.866,1.936-1.934,1.936s-1.935-.866-1.935-1.936Z" fill="#005cb9"/></svg>