<?xml version="1.0" encoding="UTF-8"?><svg xmlns="http://www.w3.org/2000/svg" width="5.82in" height="2.16in" xmlns:xlink="http://www.w3.org/1999/xlink" viewBox="0 0 419.16 155.63"><defs><clipPath id="b"><polygon points="115.58 81.24 116.97 143.24 145.44 139.56 143.43 79.57 115.58 81.24" fill="none" stroke-width="0"/></clipPath><clipPath id="d"><circle cx="376.91" cy="52.69" r="40.25" fill="none" stroke-width="0"/></clipPath></defs><g id="a"><path d="M314.67,115.35l18.33-9.7s3.02-1.72,6.15.22,3.23,3.67,3.23,3.67l4.2,13.15-1.08,1.29,1.51,4.53-5.07,2.8s1.4,1.19,2.16,1.4l.32,1.19s-2.37,1.4-4.1.65l-2.59-2.59-1.08.11v-1.51l.86-.22-.75-1.51-23.29,10.46s-2.37.54-3.45-.11l2.59-.43,2.05-23.39ZM341.06,120.37c.5-1.48.69-3.26.46-5.13-.57-4.68-3.64-8.72-6.6-7.8-2.66.83-4.01,4.49-3.44,9.17.57,4.68,3.95,7.36,5.68,7.32.55-.01.88.21,1.35-.07,0,0,.34-2.81,1.1-3.71l1.08-.18.36.4Z" fill="#d0cfce" stroke-width="0"/><path d="M266.26,71.1l16.11-.86,33.31,7.3.75.58-2.92,59.84-.45.97-14.81,1.88-1.1-.78-32.42-13.19-.06-12.54,2.27-.26s1.49.06,1.56-2.6-.13-7.34-.13-7.34l-.32-.65-2.66-2.6.06-6.3,3.12.97s1.69.65,1.88-1.3.06-11.05.06-11.05c0,0-.65-.97-1.36-1.17s-3.12-1.04-3.12-1.04l.25-9.88Z" fill="#d0cfce" stroke="#fff" stroke-miterlimit="10"/><path d="M350.38,69.33l.71.03.16-5.12L32.74,81.23s-1.12.05-1.03,1.31.23,5.54.23,5.54L9.57,48.63l-.1-3.51,182.07-4.95,159.66,24" fill="none" stroke="#231f20" stroke-linecap="round" stroke-linejoin="round" stroke-width=".5"/><polyline points="10.42 44.93 7.47 40.69 171.28 37.28 189.82 40.16" fill="none" stroke="#231f20" stroke-linecap="round" stroke-linejoin="round" stroke-width=".5"/><polyline points="7.47 40.69 7.47 43.62 9.31 46.4" fill="none" stroke="#231f20" stroke-linecap="round" stroke-linejoin="round" stroke-width=".5"/><line x1="31.77" y1="81.59" x2="9.46" y2="45.13" fill="none" stroke="#231f20" stroke-linecap="round" stroke-linejoin="round" stroke-width=".5"/><polyline points="350.04 72.63 350.47 65.41 44.86 82.53 33.98 83.14 37.98 155.12" fill="none" stroke="#231f20" stroke-linecap="round" stroke-linejoin="round" stroke-width=".5"/><line x1="347.16" y1="120.68" x2="349.85" y2="75.8" fill="none" stroke="#231f20" stroke-linecap="round" stroke-linejoin="round" stroke-width=".5"/><line x1="334.99" y1="122.04" x2="337.95" y2="121.71" fill="none" stroke="#231f20" stroke-linecap="round" stroke-linejoin="round" stroke-width=".5"/><line x1="182.54" y1="139.01" x2="270.51" y2="129.26" fill="none" stroke="#231f20" stroke-linecap="round" stroke-linejoin="round" stroke-width=".5"/><polyline points="175.16 139.95 37.39 155.38 9.39 72.64 7.47 43.62" fill="none" stroke="#231f20" stroke-linecap="round" stroke-linejoin="round" stroke-width=".5"/><line x1="182.5" y1="137.09" x2="267.69" y2="128.05" fill="none" stroke="#231f20" stroke-linecap="round" stroke-linejoin="round" stroke-width=".5"/><line x1="345.05" y1="113.35" x2="346.83" y2="77.79" fill="none" stroke="#231f20" stroke-linecap="round" stroke-linejoin="round" stroke-width=".5"/><line x1="342.95" y1="108.88" x2="344.7" y2="75.3" fill="none" stroke="#231f20" stroke-linecap="round" stroke-linejoin="round" stroke-width=".5"/><polygon points="345.91 77.37 345.96 74.9 343.99 74.81 344.03 73.2 343.16 72.52 343.3 69.49 344.26 69.54 344.4 67.62 347.01 67.98 346.78 74.35 348.75 72.93 348.75 74.67 346.65 76.51 346.55 77.42 345.91 77.37" fill="none" stroke="#231f20" stroke-linecap="round" stroke-linejoin="round" stroke-width=".5"/><polyline points="349 72.82 349.21 67.85 347.01 67.98" fill="none" stroke="#231f20" stroke-linecap="round" stroke-linejoin="round" stroke-width=".5"/><polyline points="348.75 72.93 351 72.93 351 74.59 348.79 74.59" fill="none" stroke="#231f20" stroke-linecap="round" stroke-linejoin="round" stroke-width=".5"/><polyline points="351 74.56 348.7 76.56 348.67 77.41 346.55 77.42" fill="none" stroke="#231f20" stroke-linecap="round" stroke-linejoin="round" stroke-width=".5"/><line x1="348.7" y1="76.56" x2="346.65" y2="76.51" fill="none" stroke="#231f20" stroke-linecap="round" stroke-linejoin="round" stroke-width=".5"/><polyline points="344.4 67.62 346.5 67.41 349.21 67.85" fill="none" stroke="#231f20" stroke-linecap="round" stroke-linejoin="round" stroke-width=".5"/><polygon points="347.49 69.04 348.63 68.96 348.16 70.15 347.49 69.04" fill="#231f20" stroke-width="0"/><line x1="332.29" y1="103.86" x2="333.7" y2="78.57" fill="none" stroke="#231f20" stroke-linecap="round" stroke-linejoin="round" stroke-width=".5"/><line x1="330.06" y1="105.16" x2="331.57" y2="76.09" fill="none" stroke="#231f20" stroke-linecap="round" stroke-linejoin="round" stroke-width=".5"/><polygon points="332.78 78.16 332.83 75.69 330.86 75.6 330.91 73.99 330.04 73.31 330.17 70.28 331.14 70.33 331.27 68.41 333.88 68.77 333.65 75.14 335.62 73.72 335.62 75.46 333.52 77.3 333.43 78.21 332.78 78.16" fill="none" stroke="#231f20" stroke-linecap="round" stroke-linejoin="round" stroke-width=".5"/><polyline points="335.88 73.61 336.08 68.63 333.88 68.77" fill="none" stroke="#231f20" stroke-linecap="round" stroke-linejoin="round" stroke-width=".5"/><polyline points="335.62 73.72 337.87 73.72 337.87 75.38 335.66 75.38" fill="none" stroke="#231f20" stroke-linecap="round" stroke-linejoin="round" stroke-width=".5"/><polyline points="337.88 75.35 335.57 77.35 335.54 78.2 333.43 78.21" fill="none" stroke="#231f20" stroke-linecap="round" stroke-linejoin="round" stroke-width=".5"/><line x1="335.57" y1="77.35" x2="333.52" y2="77.3" fill="none" stroke="#231f20" stroke-linecap="round" stroke-linejoin="round" stroke-width=".5"/><polyline points="331.27 68.41 333.37 68.2 336.08 68.63" fill="none" stroke="#231f20" stroke-linecap="round" stroke-linejoin="round" stroke-width=".5"/><polygon points="334.37 69.83 335.5 69.75 335.03 70.94 334.37 69.83" fill="#231f20" stroke-width="0"/><line x1="318.45" y1="111.11" x2="319.87" y2="79.47" fill="none" stroke="#231f20" stroke-linecap="round" stroke-linejoin="round" stroke-width=".5"/><line x1="315.91" y1="112.22" x2="317.74" y2="76.98" fill="none" stroke="#231f20" stroke-linecap="round" stroke-linejoin="round" stroke-width=".5"/><polygon points="318.96 79.05 319 76.58 317.03 76.49 317.08 74.88 316.21 74.2 316.35 71.17 317.31 71.22 317.45 69.3 320.06 69.66 319.83 76.03 321.8 74.61 321.8 76.35 319.7 78.19 319.6 79.1 318.96 79.05" fill="none" stroke="#231f20" stroke-linecap="round" stroke-linejoin="round" stroke-width=".5"/><polyline points="322.05 74.5 322.26 69.53 320.06 69.66" fill="none" stroke="#231f20" stroke-linecap="round" stroke-linejoin="round" stroke-width=".5"/><polyline points="321.8 74.61 324.04 74.61 324.04 76.27 321.83 76.27" fill="none" stroke="#231f20" stroke-linecap="round" stroke-linejoin="round" stroke-width=".5"/><polyline points="324.05 76.24 321.74 78.24 321.71 79.09 319.6 79.1" fill="none" stroke="#231f20" stroke-linecap="round" stroke-linejoin="round" stroke-width=".5"/><line x1="321.74" y1="78.24" x2="319.7" y2="78.19" fill="none" stroke="#231f20" stroke-linecap="round" stroke-linejoin="round" stroke-width=".5"/><polyline points="317.45 69.3 319.54 69.09 322.26 69.53" fill="none" stroke="#231f20" stroke-linecap="round" stroke-linejoin="round" stroke-width=".5"/><polygon points="320.54 70.72 321.68 70.64 321.2 71.83 320.54 70.72" fill="#231f20" stroke-width="0"/><polyline points="302.48 73.29 302.52 71.89 303.48 71.93 303.62 70.01 306.23 70.38 306.05 74.13" fill="none" stroke="#231f20" stroke-linecap="round" stroke-linejoin="round" stroke-width=".5"/><polyline points="308.23 74.89 308.43 70.24 306.23 70.38" fill="none" stroke="#231f20" stroke-linecap="round" stroke-linejoin="round" stroke-width=".5"/><polyline points="303.62 70.01 305.72 69.8 308.43 70.24" fill="none" stroke="#231f20" stroke-linecap="round" stroke-linejoin="round" stroke-width=".5"/><polygon points="306.72 71.43 307.85 71.35 307.38 72.54 306.72 71.43" fill="#231f20" stroke-width="0"/><polyline points="283.16 70.44 344.97 67.04 344.97 67.47" fill="none" stroke="#231f20" stroke-linecap="round" stroke-linejoin="round" stroke-width=".5"/><line x1="290.1" y1="71.86" x2="290.1" y2="70.22" fill="none" stroke="#231f20" stroke-linecap="round" stroke-linejoin="round" stroke-width=".5"/><polygon points="341.32 93.09 336.5 93.53 337.13 81.23 341.97 81.04 341.32 93.09" fill="none" stroke="#231f20" stroke-linecap="round" stroke-linejoin="round" stroke-width=".5"/><polyline points="336.5 93.47 335.61 92.98 336.24 80.67 341.07 80.48 341.97 81.02" fill="none" stroke="#231f20" stroke-linecap="round" stroke-linejoin="round" stroke-width=".5"/><line x1="337.13" y1="81.23" x2="336.24" y2="80.67" fill="none" stroke="#231f20" stroke-linecap="round" stroke-linejoin="round" stroke-width=".5"/><polyline points="336.24 103.8 336.46 95.7 341.28 95.28 340.88 106.17" fill="none" stroke="#231f20" stroke-linecap="round" stroke-linejoin="round" stroke-width=".5"/><polyline points="335.32 104.08 335.57 95.15 340.39 94.73 341.29 95.26" fill="none" stroke="#231f20" stroke-linecap="round" stroke-linejoin="round" stroke-width=".5"/><line x1="336.46" y1="95.7" x2="335.57" y2="95.15" fill="none" stroke="#231f20" stroke-linecap="round" stroke-linejoin="round" stroke-width=".5"/><line x1="282.32" y1="70.28" x2="315.88" y2="77.53" fill="none" stroke="#231f20" stroke-linecap="round" stroke-linejoin="round" stroke-width=".5"/><line x1="265.96" y1="80.6" x2="266.11" y2="71.28" fill="none" stroke="#231f20" stroke-linecap="round" stroke-linejoin="round" stroke-width=".5"/><path d="M314.5,115.29l19.03-9.83s4.45-1.81,7.81,4.09l4.39,13.27.96-.14-4.34-13.34s-2.97-4.96-7.16-4.24" fill="none" stroke="#231f20" stroke-linecap="round" stroke-linejoin="round" stroke-width=".5"/><path d="M337.55,130.36l-.62-1.6s-20.78,9.27-23.1,10.34-3.57.18-3.57.18" fill="none" stroke="#231f20" stroke-linecap="round" stroke-linejoin="round" stroke-width=".5"/><path d="M336.71,130.69l.07,1.38.87-.29,2.36,2.54s.91.69,1.6-.51l-.44-.94h-.83s-1.38-1.2-1.38-1.71l5.37-2.43-1.42-4.83-1.71.8-.69-2.5.8-.22s-1.63-1.42-1.63-1.92c0,0-1.23,1.16-1.05,5.77l-1.63.76.87,2,1.63-.65.69,1.38-3.48,1.38Z" fill="none" stroke="#231f20" stroke-linecap="round" stroke-linejoin="round" stroke-width=".5"/><path d="M342.03,124.22l-.71-2.24,1-.09c-.26,0-1.59-1.88-1.59-1.88l-1.05.04" fill="none" stroke="#231f20" stroke-linecap="round" stroke-linejoin="round" stroke-width=".5"/><polyline points="342.92 123.9 345.62 123.93 347.15 128.43 344.3 128.53" fill="none" stroke="#231f20" stroke-linecap="round" stroke-linejoin="round" stroke-width=".5"/><polyline points="338.96 131.16 341.87 131.05 347.15 128.43" fill="none" stroke="#231f20" stroke-linecap="round" stroke-linejoin="round" stroke-width=".5"/><path d="M342.13,131.31s.81,1.33,2.07,1.49l.19.94s-.68,1.29-3.63.91" fill="none" stroke="#231f20" stroke-linecap="round" stroke-linejoin="round" stroke-width=".5"/><path d="M338.51,123.87c-.47.28-.98.46-1.52.53-3.07.37-6.03-3.12-6.6-7.8-.57-4.68,1.46-8.78,4.53-9.15s6.03,3.12,6.6,7.8c.23,1.87.04,3.65-.46,5.13" fill="none" stroke="#231f20" stroke-linecap="round" stroke-linejoin="round" stroke-width=".5"/><path d="M338,123.95c-3.07.37-6.03-3.12-6.6-7.8-.46-3.74.75-7.11,2.82-8.5" fill="none" stroke="#231f20" stroke-linecap="round" stroke-linejoin="round" stroke-width=".5"/><line x1="344.12" y1="123.86" x2="345.73" y2="122.82" fill="none" stroke="#231f20" stroke-linecap="round" stroke-linejoin="round" stroke-width=".5"/><line x1="346.68" y1="122.68" x2="345.27" y2="123.74" fill="none" stroke="#231f20" stroke-linecap="round" stroke-linejoin="round" stroke-width=".5"/><polyline points="297.27 140.18 264.6 126.71 264.6 114.25" fill="none" stroke="#231f20" stroke-linecap="round" stroke-linejoin="round" stroke-width=".5"/><line x1="299.79" y1="78.89" x2="266.22" y2="71.24" fill="none" stroke="#231f20" stroke-linecap="round" stroke-linejoin="round" stroke-width=".5"/><polygon points="311.35 95.61 303.44 95.96 303.54 91.23 311.57 90.85 311.35 95.61" fill="none" stroke="#231f20" stroke-linecap="round" stroke-linejoin="round" stroke-width=".5"/><polygon points="310.37 120.64 302.16 121.4 302.66 108.62 310.88 108.2 310.37 120.64" fill="none" stroke="#231f20" stroke-linecap="round" stroke-linejoin="round" stroke-width=".5"/><polyline points="310.48 115.89 309.62 115.95 309.62 117.08 308.49 117.16 308.43 119.37 303.9 119.84 304.23 110.11 308.62 109.91 308.62 112.26 309.82 112.19 309.82 113.26 310.49 113.26" fill="none" stroke="#231f20" stroke-linecap="round" stroke-linejoin="round" stroke-width=".5"/><line x1="308.49" y1="117.16" x2="304.33" y2="116.08" fill="none" stroke="#231f20" stroke-linecap="round" stroke-linejoin="round" stroke-width=".5"/><line x1="309.57" y1="115.94" x2="304.19" y2="114.51" fill="none" stroke="#231f20" stroke-linecap="round" stroke-linejoin="round" stroke-width=".5"/><line x1="308.49" y1="119.1" x2="304.33" y2="118.03" fill="none" stroke="#231f20" stroke-linecap="round" stroke-linejoin="round" stroke-width=".5"/><polygon points="309.62 135.6 301.35 136.69 301.85 123.97 310.11 123.22 309.62 135.6" fill="none" stroke="#231f20" stroke-linecap="round" stroke-linejoin="round" stroke-width=".5"/><polyline points="309.72 130.87 308.86 130.97 308.86 132.09 307.72 132.22 307.66 134.41 303.1 135.07 303.42 125.38 307.85 125 307.85 127.34 309.05 127.23 309.06 128.28 309.73 128.26" fill="none" stroke="#231f20" stroke-linecap="round" stroke-linejoin="round" stroke-width=".5"/><line x1="307.72" y1="132.22" x2="303.53" y2="131.31" fill="none" stroke="#231f20" stroke-linecap="round" stroke-linejoin="round" stroke-width=".5"/><line x1="308.81" y1="130.96" x2="303.39" y2="129.76" fill="none" stroke="#231f20" stroke-linecap="round" stroke-linejoin="round" stroke-width=".5"/><line x1="307.72" y1="134.15" x2="303.54" y2="133.24" fill="none" stroke="#231f20" stroke-linecap="round" stroke-linejoin="round" stroke-width=".5"/><polyline points="303.67 91.37 310.01 93.19 310.01 94.47 303.62 94.81" fill="none" stroke="#231f20" stroke-linecap="round" stroke-linejoin="round" stroke-width=".5"/><line x1="303.57" y1="93.38" x2="310.01" y2="93.19" fill="none" stroke="#231f20" stroke-linecap="round" stroke-linejoin="round" stroke-width=".5"/><polygon points="224.13 105.02 228.92 107.11 266.63 103.93 264.44 101.78 224.13 105.02" fill="none" stroke="#231f20" stroke-linecap="round" stroke-linejoin="round" stroke-width=".5"/><line x1="264.29" y1="104.11" x2="264.29" y2="102.01" fill="none" stroke="#231f20" stroke-linecap="round" stroke-linejoin="round" stroke-width=".5"/><path d="M211.13,105.19l6.14,2.73,9.53-.83,1.88.86s35.85-3.21,38.26-3.21c2.1,0,1.11-1.14,1.11-1.14l-3.17-2.91-53.75,4.5v1.19" fill="none" stroke="#231f20" stroke-linecap="round" stroke-linejoin="round" stroke-width=".5"/><line x1="217.32" y1="108.17" x2="217.32" y2="117.73" fill="none" stroke="#231f20" stroke-linecap="round" stroke-linejoin="round" stroke-width=".5"/><path d="M217.99,118.07l.92.47c-.39-8.02.25-9.59.25-9.59l9.21-.83v9.5l-9.37.96" fill="none" stroke="#231f20" stroke-linecap="round" stroke-linejoin="round" stroke-width=".5"/><line x1="219.15" y1="108.95" x2="218.08" y2="108.52" fill="none" stroke="#231f20" stroke-linecap="round" stroke-linejoin="round" stroke-width=".5"/><path d="M228.84,117.59l38.17-3.65s1.26-.07,1.33-2.32l-.05-7.44" fill="none" stroke="#231f20" stroke-linecap="round" stroke-linejoin="round" stroke-width=".5"/><path d="M149.94,110.27l58.92-4.74,5.72,2.53-9.83.88,1.54.92-41.04,3.68s-3.55.18-5.02-.18-9.25-2.27-9.25-2.27l-1.04-.81Z" fill="none" stroke="#231f20" stroke-linecap="round" stroke-linejoin="round" stroke-width=".5"/><path d="M203.95,109.96l-5.87-2.64-44.38,3.49,8.42,2.01s2.78.55,5.13.5" fill="none" stroke="#231f20" stroke-linecap="round" stroke-linejoin="round" stroke-width=".5"/><line x1="197.99" y1="107.32" x2="198.06" y2="110.44" fill="none" stroke="#231f20" stroke-linecap="round" stroke-linejoin="round" stroke-width=".5"/><path d="M206.29,109.86v10.07l-41.07,3.89s-3.47.34-5.42-.34-9.06-2.79-9.06-2.79l-.59-.68-.21-9.74" fill="none" stroke="#231f20" stroke-linecap="round" stroke-linejoin="round" stroke-width=".5"/><path d="M206.1,109.6l9.86-.91s1.13,3.13.25,9.94l-9.76,1.06" fill="none" stroke="#231f20" stroke-linecap="round" stroke-linejoin="round" stroke-width=".5"/><line x1="214.76" y1="108.77" x2="213.71" y2="108.3" fill="none" stroke="#231f20" stroke-linecap="round" stroke-linejoin="round" stroke-width=".5"/><line x1="208.61" y1="134.23" x2="208.61" y2="119.58" fill="none" stroke="#231f20" stroke-linecap="round" stroke-linejoin="round" stroke-width=".5"/><line x1="210.61" y1="134.05" x2="210.61" y2="119.4" fill="none" stroke="#231f20" stroke-linecap="round" stroke-linejoin="round" stroke-width=".5"/><polyline points="252.03 118.79 251.7 125.79 240.08 126.9 240.08 119.94" fill="none" stroke="#231f20" stroke-linecap="round" stroke-linejoin="round" stroke-width=".5"/><polyline points="225.83 121.88 225.83 128.26 237.58 127 237.79 120.02" fill="none" stroke="#231f20" stroke-linecap="round" stroke-linejoin="round" stroke-width=".5"/><polyline points="240.08 126.9 238.91 126.6 238.93 119.71" fill="none" stroke="#231f20" stroke-linecap="round" stroke-linejoin="round" stroke-width=".5"/><polyline points="225.83 128.26 224.66 127.73 224.66 122.36" fill="none" stroke="#231f20" stroke-linecap="round" stroke-linejoin="round" stroke-width=".5"/><polyline points="207.26 119.7 207.16 131.22 153.09 136.9" fill="none" stroke="#231f20" stroke-linecap="round" stroke-linejoin="round" stroke-width=".5"/><polyline points="152.92 121.68 153.01 124.52 153.09 136.9 153.11 139.88" fill="none" stroke="#231f20" stroke-linecap="round" stroke-linejoin="round" stroke-width=".5"/><line x1="161.9" y1="123.95" x2="153.01" y2="124.52" fill="none" stroke="#231f20" stroke-linecap="round" stroke-linejoin="round" stroke-width=".5"/><polyline points="161.51 129.35 155.67 129.85 153.78 128.61 153.78 125.31 163.56 124.61 164.06 124.91 166.26 124.76 166.26 128.61 165.21 128.81" fill="none" stroke="#231f20" stroke-linecap="round" stroke-linejoin="round" stroke-width=".5"/><line x1="155.67" y1="129.85" x2="155.67" y2="126.56" fill="none" stroke="#231f20" stroke-linecap="round" stroke-linejoin="round" stroke-width=".5"/><polyline points="153.78 125.31 155.67 126.56 162.76 126.01 161.81 126.66 161.81 130.1 163.66 130.2 165.21 128.81 165.21 125.81 163.81 126.91 161.91 126.86" fill="none" stroke="#231f20" stroke-linecap="round" stroke-linejoin="round" stroke-width=".5"/><line x1="165.21" y1="125.81" x2="166.16" y2="125.66" fill="none" stroke="#231f20" stroke-linecap="round" stroke-linejoin="round" stroke-width=".5"/><path d="M174.84,134.76l6.75,1.77s.71.33-.01.73l-4.85.58c-.07,0-.15,0-.22-.02l-8.03-2.25" fill="none" stroke="#231f20" stroke-linecap="round" stroke-linejoin="round" stroke-width=".5"/><path d="M169.24,137.55l7.25,2.12c.07.02.15.03.22.02l4.85-.58.39-.29.02-1.75" fill="none" stroke="#231f20" stroke-linecap="round" stroke-linejoin="round" stroke-width=".5"/><path d="M168.86,136.66v2.1s-.41.64-.41.64l-2.23.02v-.82l-1.77-.53v-2.16l1.77.53v.82l2.23-.02.4-.64-2.72-.86" fill="none" stroke="#231f20" stroke-linecap="round" stroke-linejoin="round" stroke-width=".5"/><line x1="176.48" y1="137.81" x2="176.48" y2="139.7" fill="none" stroke="#231f20" stroke-linecap="round" stroke-linejoin="round" stroke-width=".5"/><line x1="167.97" y1="137.45" x2="167.97" y2="139.34" fill="none" stroke="#231f20" stroke-linecap="round" stroke-linejoin="round" stroke-width=".5"/><line x1="166.31" y1="137.3" x2="166.31" y2="139.2" fill="none" stroke="#231f20" stroke-linecap="round" stroke-linejoin="round" stroke-width=".5"/><line x1="202.66" y1="133.72" x2="265.05" y2="126.99" fill="none" stroke="#231f20" stroke-linecap="round" stroke-linejoin="round" stroke-width=".5"/><path d="M208.33,133.11l-2.44-1.71s-2.8,2.24-5.12,2.73l-19.91,2.03" fill="none" stroke="#231f20" stroke-linecap="round" stroke-linejoin="round" stroke-width=".5"/><path d="M146.72,138.46s2.34-.52,2.4-4.22" fill="none" stroke="#231f20" stroke-linecap="round" stroke-linejoin="round" stroke-width=".5"/><line x1="148.46" y1="91.43" x2="149.26" y2="140.27" fill="none" stroke="#231f20" stroke-linecap="round" stroke-linejoin="round" stroke-width=".5"/><path d="M144.9,89.73h-.81l.54,1.21.61,38.55,2.29,1.95s.47,4.92-.74,6.07" fill="none" stroke="#231f20" stroke-linecap="round" stroke-linejoin="round" stroke-width=".5"/><path d="M144.73,87.9l-.5-.4v-1.95l-.9-1.95v-2.46h.9c0,.15-.05-2.06-.05-2.06l.2.1,1.45.7v7.62l.9-1.71h3.2v2.04l-.87,2.12v1.06h-3.34v-.98l1.14-2.24-.06-1.99" fill="none" stroke="#231f20" stroke-linecap="round" stroke-linejoin="round" stroke-width=".5"/><polyline points="145.13 90.7 145.13 85.64 144.73 85.29" fill="none" stroke="#231f20" stroke-linecap="round" stroke-linejoin="round" stroke-width=".5"/><polyline points="144.38 78.92 146.78 78.92 148.59 79.72 148.59 85.49" fill="none" stroke="#231f20" stroke-linecap="round" stroke-linejoin="round" stroke-width=".5"/><line x1="145.83" y1="79.88" x2="148.59" y2="79.88" fill="none" stroke="#231f20" stroke-linecap="round" stroke-linejoin="round" stroke-width=".5"/><line x1="146.85" y1="87.78" x2="149.93" y2="87.78" fill="none" stroke="#231f20" stroke-linecap="round" stroke-linejoin="round" stroke-width=".5"/><line x1="145.71" y1="90.02" x2="149.05" y2="90.02" fill="none" stroke="#231f20" stroke-linecap="round" stroke-linejoin="round" stroke-width=".5"/><line x1="109.65" y1="93.93" x2="110.45" y2="144.62" fill="none" stroke="#231f20" stroke-linecap="round" stroke-linejoin="round" stroke-width=".5"/><path d="M106.09,92.24h-.81l.54,1.21,1.02,39.89,2.29,1.95s.59,4.96-.62,6.11" fill="none" stroke="#231f20" stroke-linecap="round" stroke-linejoin="round" stroke-width=".5"/><path d="M105.92,90.4l-.5-.4v-1.95l-.9-1.95v-2.46h.9c0,.15-.05-2.06-.05-2.06l.2.1,1.45.7v7.62l.9-1.71h3.2v2.04l-.87,2.12v1.06h-3.34v-.98l1.14-2.24-.06-1.99" fill="none" stroke="#231f20" stroke-linecap="round" stroke-linejoin="round" stroke-width=".5"/><polyline points="106.32 93.21 106.32 88.15 105.92 87.79" fill="none" stroke="#231f20" stroke-linecap="round" stroke-linejoin="round" stroke-width=".5"/><polyline points="105.57 81.43 107.97 81.43 109.78 82.22 109.78 87.99" fill="none" stroke="#231f20" stroke-linecap="round" stroke-linejoin="round" stroke-width=".5"/><line x1="107.02" y1="82.38" x2="109.78" y2="82.38" fill="none" stroke="#231f20" stroke-linecap="round" stroke-linejoin="round" stroke-width=".5"/><line x1="108.04" y1="90.28" x2="111.12" y2="90.28" fill="none" stroke="#231f20" stroke-linecap="round" stroke-linejoin="round" stroke-width=".5"/><line x1="106.9" y1="92.52" x2="110.24" y2="92.52" fill="none" stroke="#231f20" stroke-linecap="round" stroke-linejoin="round" stroke-width=".5"/><line x1="89" y1="95.6" x2="90.67" y2="146.85" fill="none" stroke="#231f20" stroke-linecap="round" stroke-linejoin="round" stroke-width=".5"/><path d="M85.49,93.97l-.79.02.55,1.23,1.29,39.41,2.28,1.93s.96,5.41-.2,6.61" fill="none" stroke="#231f20" stroke-linecap="round" stroke-linejoin="round" stroke-width=".5"/><path d="M85.29,92.09l-.5-.4-.04-2-.92-1.97-.04-2.51.88-.03c0,.15-.09-2.1-.09-2.1l.2.1,1.43.68.14,7.79.85-1.78,3.13-.09.04,2.08-.81,2.19.02,1.08-3.27.09-.02-1,1.08-2.33-.1-2.04" fill="none" stroke="#231f20" stroke-linecap="round" stroke-linejoin="round" stroke-width=".5"/><polyline points="85.73 94.95 85.64 89.78 85.24 89.43" fill="none" stroke="#231f20" stroke-linecap="round" stroke-linejoin="round" stroke-width=".5"/><polyline points="84.79 82.93 87.13 82.86 88.91 83.62 89.02 89.53" fill="none" stroke="#231f20" stroke-linecap="round" stroke-linejoin="round" stroke-width=".5"/><line x1="86.22" y1="83.86" x2="88.91" y2="83.79" fill="none" stroke="#231f20" stroke-linecap="round" stroke-linejoin="round" stroke-width=".5"/><line x1="87.36" y1="91.91" x2="90.37" y2="91.83" fill="none" stroke="#231f20" stroke-linecap="round" stroke-linejoin="round" stroke-width=".5"/><line x1="86.29" y1="94.24" x2="89.56" y2="94.14" fill="none" stroke="#231f20" stroke-linecap="round" stroke-linejoin="round" stroke-width=".5"/><polyline points="67.8 96.51 69.88 147.19 71.28 148.8" fill="none" stroke="#231f20" stroke-linecap="round" stroke-linejoin="round" stroke-width=".5"/><polyline points="64.29 94.87 63.5 94.9 64.06 96.12 65.67 137.3 67.95 139.24 67.95 149.2" fill="none" stroke="#231f20" stroke-linecap="round" stroke-linejoin="round" stroke-width=".5"/><path d="M64.08,92.99l-.5-.4-.05-2-.93-1.98-.06-2.52.88-.03c0,.15-.1-2.11-.1-2.11l.2.1,1.43.68.2,7.81.83-1.78,3.12-.09.05,2.09-.79,2.2.03,1.09-3.26.1-.03-1,1.05-2.33-.11-2.04" fill="none" stroke="#231f20" stroke-linecap="round" stroke-linejoin="round" stroke-width=".5"/><polyline points="64.54 95.86 64.41 90.67 64.01 90.32" fill="none" stroke="#231f20" stroke-linecap="round" stroke-linejoin="round" stroke-width=".5"/><polyline points="63.5 83.81 65.84 83.74 67.62 84.5 67.77 90.42" fill="none" stroke="#231f20" stroke-linecap="round" stroke-linejoin="round" stroke-width=".5"/><line x1="64.94" y1="84.74" x2="67.62" y2="84.66" fill="none" stroke="#231f20" stroke-linecap="round" stroke-linejoin="round" stroke-width=".5"/><line x1="66.14" y1="92.81" x2="69.14" y2="92.72" fill="none" stroke="#231f20" stroke-linecap="round" stroke-linejoin="round" stroke-width=".5"/><line x1="65.09" y1="95.14" x2="68.35" y2="95.05" fill="none" stroke="#231f20" stroke-linecap="round" stroke-linejoin="round" stroke-width=".5"/><polygon points="61.98 116.14 54.16 116.96 53.5 102.07 61.37 101.57 61.98 116.14" fill="none" stroke="#231f20" stroke-linecap="round" stroke-linejoin="round" stroke-width=".5"/><polyline points="54.16 116.88 52.94 116.26 52.29 101.37 59.85 100.89 61.38 101.54" fill="none" stroke="#231f20" stroke-linecap="round" stroke-linejoin="round" stroke-width=".5"/><line x1="53.5" y1="102.07" x2="52.29" y2="101.37" fill="none" stroke="#231f20" stroke-linecap="round" stroke-linejoin="round" stroke-width=".5"/><polygon points="62.64 133.69 55.02 134.5 54.35 119.28 62.02 118.6 62.64 133.69" fill="none" stroke="#231f20" stroke-linecap="round" stroke-linejoin="round" stroke-width=".5"/><polyline points="55.02 134.43 53.83 133.81 53.16 118.58 60.54 117.93 62.03 118.57" fill="none" stroke="#231f20" stroke-linecap="round" stroke-linejoin="round" stroke-width=".5"/><line x1="54.35" y1="119.28" x2="53.16" y2="118.58" fill="none" stroke="#231f20" stroke-linecap="round" stroke-linejoin="round" stroke-width=".5"/><line x1="108.42" y1="135.21" x2="108.59" y2="145.02" fill="none" stroke="#231f20" stroke-linecap="round" stroke-linejoin="round" stroke-width=".5"/><line x1="88.31" y1="136.33" x2="88.47" y2="147.14" fill="none" stroke="#231f20" stroke-linecap="round" stroke-linejoin="round" stroke-width=".5"/><polyline points="104.57 79.33 106.38 80.96 86.87 81.93 85.12 80.26" fill="none" stroke="#231f20" stroke-linecap="round" stroke-linejoin="round" stroke-width=".5"/><polyline points="143.38 77.15 145.15 78.51 107.6 80.59 105.9 79.2" fill="none" stroke="#231f20" stroke-linecap="round" stroke-linejoin="round" stroke-width=".5"/><polyline points="64.74 81.59 66.16 83.07 85.69 82.07 84.1 80.45" fill="none" stroke="#231f20" stroke-linecap="round" stroke-linejoin="round" stroke-width=".5"/><polyline points="63.42 81.71 64.9 83.19 45.68 84.23 44.87 82.54 48.69 150.21" fill="none" stroke="#231f20" stroke-linecap="round" stroke-linejoin="round" stroke-width=".5"/><line x1="146.56" y1="130.78" x2="146.56" y2="140.75" fill="none" stroke="#231f20" stroke-linecap="round" stroke-linejoin="round" stroke-width=".5"/><line x1="31.94" y1="88.08" x2="35.99" y2="151.38" fill="none" stroke="#231f20" stroke-linecap="round" stroke-linejoin="round" stroke-width=".5"/><line x1="214.19" y1="73.2" x2="214.19" y2="103.95" fill="none" stroke="#231f20" stroke-linecap="round" stroke-linejoin="round" stroke-width=".5"/><line x1="205.44" y1="100" x2="205.44" y2="104.77" fill="none" stroke="#231f20" stroke-linecap="round" stroke-linejoin="round" stroke-width=".5"/><line x1="205.44" y1="74.01" x2="205.44" y2="85.4" fill="none" stroke="#231f20" stroke-linecap="round" stroke-linejoin="round" stroke-width=".5"/><path d="M153.77,109.82c-2.82-.34-3.3-2.61-3.3-2.61l-.19-26.86s-.34-3.78,4.81-3.98" fill="none" stroke="#231f20" stroke-linecap="round" stroke-linejoin="round" stroke-width=".5"/><path d="M183.66,76.3s-.96-1.3-3.43-1.3" fill="none" stroke="#231f20" stroke-linecap="round" stroke-linejoin="round" stroke-width=".5"/><path d="M154.26,83.38l5.56-5.56,5.56-.55s1.03.82.96,2.4l-.48.55s-4.88.34-8.45,5.91l-2.2-.89s-1.17-1.1-.96-1.85Z" fill="none" stroke="#231f20" stroke-linecap="round" stroke-linejoin="round" stroke-width=".5"/><path d="M167.58,79.94s-.14-2.27-.62-2.68l5.91-.21,5.98,5.22s-1.58,2.47-2.47,2.54c0,0-2.95-4.74-8.79-4.88Z" fill="none" stroke="#231f20" stroke-linecap="round" stroke-linejoin="round" stroke-width=".5"/><path d="M184,101.51s14.01-.96,14.97-1.1.89-.89.89-.89l.21-22.6c0-1.1-1.1-1.1-1.1-1.1l-16.04.81s-.72-.19-.72.81v11.82" fill="none" stroke="#231f20" stroke-linecap="round" stroke-linejoin="round" stroke-width=".5"/><path d="M151.65,88.73s-.41-2.4,1.3-3.37l1.99,1.03,1.92.69,3.09,1.72s-1.37,3.91.27,7.07c0,0-3.91,3.09-5.15,3.09" fill="none" stroke="#231f20" stroke-linecap="round" stroke-linejoin="round" stroke-width=".5"/><path d="M158.45,86.54l2.4,1.24s1.58-3.02,5.29-3.78l.07-2.54s-3.78-.62-7.76,5.08Z" fill="none" stroke="#231f20" stroke-linecap="round" stroke-linejoin="round" stroke-width=".5"/><path d="M167.65,83.99s3.43,0,5.77,2.88l1.99-1.37s-3.09-4.19-7.76-4.26v2.75Z" fill="none" stroke="#231f20" stroke-linecap="round" stroke-linejoin="round" stroke-width=".5"/><path d="M160.85,97.11l-2.06,1.65s2.2,3.91,7.76,3.85l-.14-2.68s-2.68.14-5.56-2.82Z" fill="none" stroke="#231f20" stroke-linecap="round" stroke-linejoin="round" stroke-width=".5"/><path d="M167.65,99.93l.27,2.47s5.01-.27,7.62-5.22l-2.06-1.03s-2.13,3.3-5.84,3.78Z" fill="none" stroke="#231f20" stroke-linecap="round" stroke-linejoin="round" stroke-width=".5"/><path d="M180.13,97.22l-.11.41-.49.49-.92-.76-.92-.38c-.92-.43-3.46-2.11-3.46-2.11,1.78-3.35-.11-6.86-.11-6.86,0,0,3.08-1.08,4.21-3.51,0,0,1.24-.54,1.51-1.03,0,0,.97.05,1.03,1.13v2.27" fill="none" stroke="#231f20" stroke-linecap="round" stroke-linejoin="round" stroke-width=".5"/><path d="M185.26,83.86l3.84-4.43,6.43-.49s1.84.38,1.84,3.3-.11,12.8-.11,12.8c0,0-.11,2.38-1.84,2.7s-6.43.7-6.43.7l-3.84-3.67.11-10.91Z" fill="none" stroke="#231f20" stroke-linecap="round" stroke-linejoin="round" stroke-width=".5"/><path d="M186.61,96.07l3.4-.16s2.11-.65,2.22-2.76l.05-13.89" fill="none" stroke="#231f20" stroke-linecap="round" stroke-linejoin="round" stroke-width=".5"/><path d="M174.35,104.49c2.97-2.65,4.48-5.4,4.48-5.4-.7-.86-2.38-1.13-2.38-1.13-3.46,5.4-8.64,5.84-8.64,5.84,0,0,.49.59-.32,1.35" fill="none" stroke="#231f20" stroke-linecap="round" stroke-linejoin="round" stroke-width=".5"/><path d="M166.25,105.04c.65-.7-.05-1.24-.05-1.24-5.13.27-8.64-4.48-8.64-4.48l-2.38.92" fill="none" stroke="#231f20" stroke-linecap="round" stroke-linejoin="round" stroke-width=".5"/><path d="M153.71,100.93l2.32-.05.27,3.78s.27,1.4,1.73,1.3,23.12-1.95,23.12-1.95c0,0,.76.16.7-1.19s-.22-3.67-.22-3.67l1.95-.05.38,4.27s.54,2.32-1.51,3.03l-26.15,2.16s-2.16-.22-2.38-2.54l-.22-5.08Z" fill="none" stroke="#231f20" stroke-linecap="round" stroke-linejoin="round" stroke-width=".5"/><path d="M153.71,100.93l-1.62.65.05,4.27s.38,3.35,4.16,2.7" fill="none" stroke="#231f20" stroke-linecap="round" stroke-linejoin="round" stroke-width=".5"/><polyline points="179.92 103.85 179.7 99.63 181.64 99.15" fill="none" stroke="#231f20" stroke-linecap="round" stroke-linejoin="round" stroke-width=".5"/><path d="M151.82,89.26v7.46s2.05,1.08,2.27-2.59c0,0,.32-4.86-2.27-4.86Z" fill="none" stroke="#231f20" stroke-linecap="round" stroke-linejoin="round" stroke-width=".5"/><path d="M153.67,89.96c2.27-.26,1.78,5.06,1.78,5.06l-1.17.08v2.12l-.36.88v2.73" fill="none" stroke="#231f20" stroke-linecap="round" stroke-linejoin="round" stroke-width=".5"/><polyline points="155.24 95.3 155.24 97.22 154.88 98.11 154.88 100.83" fill="none" stroke="#231f20" stroke-linecap="round" stroke-linejoin="round" stroke-width=".5"/><polyline points="153.15 96.66 153.15 97.46 152.79 98.35 152.79 101.07" fill="none" stroke="#231f20" stroke-linecap="round" stroke-linejoin="round" stroke-width=".5"/><path d="M179.63,96.38l1.56-.17-.17-2.42.45-.53v-3.23s-.56-1.67-1.7-1.5c0,0-.97.11-1.06,1.92v2.76l.7.86.22,2.31Z" fill="none" stroke="#231f20" stroke-linecap="round" stroke-linejoin="round" stroke-width=".5"/><path d="M181.38,96.13l.14-.07.61-.29-.17-2.13.45-.53v-3.23s-.56-1.67-1.7-1.5l-.95.14" fill="none" stroke="#231f20" stroke-linecap="round" stroke-linejoin="round" stroke-width=".5"/><polyline points="180.24 96.38 180.24 97.94 180.74 98.57 180.74 99.17" fill="none" stroke="#231f20" stroke-linecap="round" stroke-linejoin="round" stroke-width=".5"/><polyline points="181.18 96.11 181.18 97.68 181.67 98.31 181.67 98.91" fill="none" stroke="#231f20" stroke-linecap="round" stroke-linejoin="round" stroke-width=".5"/><polyline points="182.07 95.85 182.07 97.41 182.57 98.04 182.57 98.64" fill="none" stroke="#231f20" stroke-linecap="round" stroke-linejoin="round" stroke-width=".5"/><ellipse cx="180.07" cy="91.43" rx=".51" ry="1.39" fill="none" stroke="#231f20" stroke-linecap="round" stroke-linejoin="round" stroke-width=".5"/><ellipse cx="152.83" cy="93.01" rx=".51" ry="1.39" fill="none" stroke="#231f20" stroke-linecap="round" stroke-linejoin="round" stroke-width=".5"/><ellipse cx="179.13" cy="78.37" rx="2.43" ry="2.35" transform="translate(30.61 205.54) rotate(-64.2)" fill="none" stroke="#231f20" stroke-linecap="round" stroke-linejoin="round" stroke-width=".5"/><line x1="179.26" y1="76.82" x2="179.26" y2="79.82" fill="none" stroke="#231f20" stroke-linecap="round" stroke-linejoin="round" stroke-width=".5"/><line x1="177.97" y1="78.49" x2="180.45" y2="78.3" fill="none" stroke="#231f20" stroke-linecap="round" stroke-linejoin="round" stroke-width=".5"/><ellipse cx="153.71" cy="79.82" rx="2.24" ry="2.12" transform="translate(36.97 207.77) rotate(-75.07)" fill="none" stroke="#231f20" stroke-linecap="round" stroke-linejoin="round" stroke-width=".5"/><line x1="153.82" y1="78.39" x2="153.82" y2="81.16" fill="none" stroke="#231f20" stroke-linecap="round" stroke-linejoin="round" stroke-width=".5"/><line x1="152.67" y1="79.93" x2="154.9" y2="79.75" fill="none" stroke="#231f20" stroke-linecap="round" stroke-linejoin="round" stroke-width=".5"/><path d="M179.92,88.28v-1.48s1.69.12,2.02,1.93" fill="none" stroke="#231f20" stroke-linecap="round" stroke-linejoin="round" stroke-width=".5"/><path d="M185.27,86.75l2.61,1.25s1.46.86-.31,1.44l-2.25-1.01" fill="none" stroke="#231f20" stroke-linecap="round" stroke-linejoin="round" stroke-width=".5"/><path d="M185.31,85.6l4.33,2.07s1.46.86-.31,1.44l-1.63.34" fill="none" stroke="#231f20" stroke-linecap="round" stroke-linejoin="round" stroke-width=".5"/><path d="M189.6,94.21l1.63-.34c1.77-.58.31-1.44.31-1.44l-2.61-1.27-2.43.18,3.27,1.43s1.46.86-.31,1.44l-3-1.37v-1.06" fill="none" stroke="#231f20" stroke-linecap="round" stroke-linejoin="round" stroke-width=".5"/><path d="M187.85,80.92l1.88.9s1.46.86-.31,1.44l-2.25-1.01" fill="none" stroke="#231f20" stroke-linecap="round" stroke-linejoin="round" stroke-width=".5"/><path d="M188.54,80.07l2.96,1.41s1.46.86-.31,1.44l-1.63.34" fill="none" stroke="#231f20" stroke-linecap="round" stroke-linejoin="round" stroke-width=".5"/><path d="M203.44,83.53l.18-8.08s-.28-.92-2.13-.85l-18.78.99" fill="none" stroke="#231f20" stroke-linecap="round" stroke-linejoin="round" stroke-width=".5"/><polyline points="183.79 105.56 202.99 104.07 203.1 99.63" fill="none" stroke="#231f20" stroke-linecap="round" stroke-linejoin="round" stroke-width=".5"/><path d="M200.05,97.55l6.07,2.76s1.96.8,2.58-.8v-11.59s.37-1.29-1.47-1.84l-5.4-1.9s-1.47-.18-1.72.61" fill="none" stroke="#231f20" stroke-linecap="round" stroke-linejoin="round" stroke-width=".5"/><path d="M200.78,85.83l4.35,1.72s.98-.06.98,1.41v10.12" fill="none" stroke="#231f20" stroke-linecap="round" stroke-linejoin="round" stroke-width=".5"/><line x1="201.15" y1="88.78" x2="201.15" y2="94.36" fill="none" stroke="#231f20" stroke-linecap="round" stroke-linejoin="round" stroke-width=".5"/><line x1="202.07" y1="89.21" x2="202.07" y2="94.79" fill="none" stroke="#231f20" stroke-linecap="round" stroke-linejoin="round" stroke-width=".5"/><line x1="202.99" y1="89.64" x2="202.99" y2="95.22" fill="none" stroke="#231f20" stroke-linecap="round" stroke-linejoin="round" stroke-width=".5"/><ellipse cx="201.69" cy="81.07" rx="1" ry=".77" transform="translate(103.58 275.04) rotate(-85.07)" fill="none" stroke="#231f20" stroke-linecap="round" stroke-linejoin="round" stroke-width=".5"/><path d="M166.26,124.76l35.51-3.25s1.99-.14,3.05-1.49v1.28c-.82,1.56-5.04,1.65-5.04,1.65l-1.74,1.92-31.31,3.02" fill="none" stroke="#231f20" stroke-linecap="round" stroke-linejoin="round" stroke-width=".5"/><polyline points="226.15 117.86 226.09 121.6 225.04 121.8" fill="none" stroke="#231f20" stroke-linecap="round" stroke-linejoin="round" stroke-width=".5"/><polyline points="221.35 122.35 215.51 122.85 213.62 121.6 213.68 118.88" fill="none" stroke="#231f20" stroke-linecap="round" stroke-linejoin="round" stroke-width=".5"/><line x1="215.51" y1="122.85" x2="215.51" y2="119.56" fill="none" stroke="#231f20" stroke-linecap="round" stroke-linejoin="round" stroke-width=".5"/><polyline points="213.68 118.88 215.51 119.56 222.6 119.01 221.65 119.66 221.65 123.1 223.5 123.2 225.04 121.8 225.04 118.81 223.65 119.91 221.75 119.86" fill="none" stroke="#231f20" stroke-linecap="round" stroke-linejoin="round" stroke-width=".5"/><path d="M264.65,114.3c-.82,1.56-5.04,1.65-5.04,1.65l-1.74,1.92-31.31,3.02" fill="none" stroke="#231f20" stroke-linecap="round" stroke-linejoin="round" stroke-width=".5"/><path d="M218.32,102.92c-2.55-.33-2.85-2.38-2.85-2.38l.2-24.16s-.28-3.41,4.4-3.56" fill="none" stroke="#231f20" stroke-linecap="round" stroke-linejoin="round" stroke-width=".5"/><path d="M219.26,79.68l5.09-4.98,5.06-.45s.93.75.86,2.18l-.44.49s-4.43.27-7.72,5.27l-1.99-.82s-1.05-1-.86-1.68Z" fill="none" stroke="#231f20" stroke-linecap="round" stroke-linejoin="round" stroke-width=".5"/><path d="M231.39,76.68s-.11-2.05-.54-2.42l5.37-.14,5.39,4.76s-1.45,2.22-2.26,2.28c0,0-2.65-4.3-7.95-4.47Z" fill="none" stroke="#231f20" stroke-linecap="round" stroke-linejoin="round" stroke-width=".5"/><path d="M246.14,96.27s12.73-.76,13.61-.88.82-.8.82-.8l.36-20.39c0-.99-.99-1-.99-1l-14.57.61s-.65-.18-.66.73-.09,10.67-.09,10.67" fill="none" stroke="#231f20" stroke-linecap="round" stroke-linejoin="round" stroke-width=".5"/><path d="M216.85,84.49s-.36-2.17,1.21-3.03l1.8.94,1.74.63,2.79,1.57s-1.28,3.52.2,6.39c0,0-3.58,2.76-4.7,2.75" fill="none" stroke="#231f20" stroke-linecap="round" stroke-linejoin="round" stroke-width=".5"/><path d="M223.04,82.56l2.17,1.13s1.46-2.72,4.83-3.37l.08-2.29s-3.43-.59-7.09,4.53Z" fill="none" stroke="#231f20" stroke-linecap="round" stroke-linejoin="round" stroke-width=".5"/><path d="M231.42,80.34s3.12.03,5.22,2.65l1.82-1.22s-2.78-3.8-7.02-3.9l-.02,2.48Z" fill="none" stroke="#231f20" stroke-linecap="round" stroke-linejoin="round" stroke-width=".5"/><path d="M225.15,92.13l-1.88,1.47s1.97,3.55,7.02,3.53l-.1-2.42s-2.43.1-5.03-2.58Z" fill="none" stroke="#231f20" stroke-linecap="round" stroke-linejoin="round" stroke-width=".5"/><path d="M231.3,94.72l.23,2.23s4.56-.21,6.96-4.65l-1.86-.95s-1.96,2.96-5.33,3.37Z" fill="none" stroke="#231f20" stroke-linecap="round" stroke-linejoin="round" stroke-width=".5"/><path d="M242.66,92.37l-.1.37-.45.44-.83-.69-.83-.35c-.83-.4-3.12-1.93-3.12-1.93,1.64-3.01-.05-6.19-.05-6.19,0,0,2.81-.95,3.85-3.14,0,0,1.13-.48,1.38-.92,0,0,.88.06.92,1.03l-.02,2.05" fill="none" stroke="#231f20" stroke-linecap="round" stroke-linejoin="round" stroke-width=".5"/><path d="M247.42,80.34l3.52-3.97,5.84-.39s1.67.36,1.64,2.99c-.02,2.63-.2,11.56-.2,11.56,0,0-.12,2.14-1.69,2.42s-5.84.59-5.84.59l-3.46-3.35.18-9.85Z" fill="none" stroke="#231f20" stroke-linecap="round" stroke-linejoin="round" stroke-width=".5"/><path d="M248.55,91.38l3.09-.12s1.92-.57,2.03-2.47l.15-12.53" fill="none" stroke="#231f20" stroke-linecap="round" stroke-linejoin="round" stroke-width=".5"/><path d="M237.35,98.89c2.72-2.37,4.11-4.84,4.11-4.84-.63-.79-2.15-1.04-2.15-1.04-3.18,4.85-7.9,5.2-7.9,5.2,0,0,.44.54-.3,1.22" fill="none" stroke="#231f20" stroke-linecap="round" stroke-linejoin="round" stroke-width=".5"/><path d="M229.99,99.32c.59-.63-.04-1.12-.04-1.12-4.66.21-7.82-4.11-7.82-4.11l-2.17.81" fill="none" stroke="#231f20" stroke-linecap="round" stroke-linejoin="round" stroke-width=".5"/><path d="M218.63,95.52l2.11-.03.22,3.42s.23,1.27,1.56,1.18,21.02-1.58,21.02-1.58c0,0,.69.15.65-1.07s-.17-3.32-.17-3.32l1.77-.03.31,3.86s.47,2.1-1.4,2.72l-23.77,1.75s-1.96-.21-2.14-2.31l-.16-4.59Z" fill="none" stroke="#231f20" stroke-linecap="round" stroke-linejoin="round" stroke-width=".5"/><path d="M218.63,95.52l-1.48.57.02,3.85s.32,3.03,3.76,2.47" fill="none" stroke="#231f20" stroke-linecap="round" stroke-linejoin="round" stroke-width=".5"/><polyline points="242.41 98.35 242.24 94.54 244.01 94.12" fill="none" stroke="#231f20" stroke-linecap="round" stroke-linejoin="round" stroke-width=".5"/><path d="M217,84.97l-.06,6.73s1.86.99,2.08-2.32c0,0,.33-4.39-2.02-4.41Z" fill="none" stroke="#231f20" stroke-linecap="round" stroke-linejoin="round" stroke-width=".5"/><path d="M218.67,85.62c2.06-.22,1.57,4.58,1.57,4.58l-1.06.06-.02,1.92-.33.79-.02,2.46" fill="none" stroke="#231f20" stroke-linecap="round" stroke-linejoin="round" stroke-width=".5"/><polyline points="220.06 90.45 220.05 92.19 219.71 92.98 219.69 95.44" fill="none" stroke="#231f20" stroke-linecap="round" stroke-linejoin="round" stroke-width=".5"/><polyline points="218.16 91.66 218.15 92.39 217.82 93.18 217.8 95.64" fill="none" stroke="#231f20" stroke-linecap="round" stroke-linejoin="round" stroke-width=".5"/><path d="M242.21,91.61l1.42-.14-.13-2.19.41-.47.02-2.92s-.49-1.51-1.53-1.37c0,0-.89.09-.98,1.73l-.02,2.49.63.78.18,2.09Z" fill="none" stroke="#231f20" stroke-linecap="round" stroke-linejoin="round" stroke-width=".5"/><path d="M243.8,91.4l.13-.06.56-.25-.14-1.92.41-.47.02-2.92s-.49-1.51-1.53-1.37l-.86.12" fill="none" stroke="#231f20" stroke-linecap="round" stroke-linejoin="round" stroke-width=".5"/><polyline points="242.76 91.61 242.75 93.02 243.2 93.6 243.2 94.14" fill="none" stroke="#231f20" stroke-linecap="round" stroke-linejoin="round" stroke-width=".5"/><polyline points="243.61 91.38 243.6 92.79 244.05 93.36 244.04 93.9" fill="none" stroke="#231f20" stroke-linecap="round" stroke-linejoin="round" stroke-width=".5"/><polyline points="244.43 91.14 244.42 92.56 244.87 93.13 244.86 93.67" fill="none" stroke="#231f20" stroke-linecap="round" stroke-linejoin="round" stroke-width=".5"/><ellipse cx="242.64" cy="87.14" rx="1.26" ry=".46" transform="translate(153.46 329.04) rotate(-89.52)" fill="none" stroke="#231f20" stroke-linecap="round" stroke-linejoin="round" stroke-width=".5"/><ellipse cx="217.89" cy="88.36" rx="1.26" ry=".46" transform="translate(127.69 305.5) rotate(-89.52)" fill="none" stroke="#231f20" stroke-linecap="round" stroke-linejoin="round" stroke-width=".5"/><ellipse cx="241.5" cy="74.71" rx="2.2" ry="2.13" transform="translate(54.82 245.16) rotate(-59.59)" fill="none" stroke="#231f20" stroke-linecap="round" stroke-linejoin="round" stroke-width=".5"/><line x1="241.63" y1="73.31" x2="241.6" y2="76.02" fill="none" stroke="#231f20" stroke-linecap="round" stroke-linejoin="round" stroke-width=".5"/><ellipse cx="219.04" cy="75.92" rx="2.03" ry="1.92" transform="translate(82.07 262.96) rotate(-72.9)" fill="none" stroke="#231f20" stroke-linecap="round" stroke-linejoin="round" stroke-width=".5"/><line x1="219.15" y1="74.63" x2="219.13" y2="77.14" fill="none" stroke="#231f20" stroke-linecap="round" stroke-linejoin="round" stroke-width=".5"/><line x1="218.09" y1="76.01" x2="220.11" y2="75.87" fill="none" stroke="#231f20" stroke-linecap="round" stroke-linejoin="round" stroke-width=".5"/><path d="M242.53,84.3v-1.34s1.54.12,1.83,1.76" fill="none" stroke="#231f20" stroke-linecap="round" stroke-linejoin="round" stroke-width=".5"/><path d="M247.4,82.96l2.36,1.15s1.32.79-.29,1.3l-2.04-.93" fill="none" stroke="#231f20" stroke-linecap="round" stroke-linejoin="round" stroke-width=".5"/><path d="M247.45,81.92l3.92,1.9s1.32.79-.29,1.3l-1.49.29" fill="none" stroke="#231f20" stroke-linecap="round" stroke-linejoin="round" stroke-width=".5"/><path d="M251.28,89.73l1.49-.29c1.61-.51.29-1.3.29-1.3l-2.36-1.17-2.21.14,2.96,1.32s1.32.79-.29,1.3l-2.72-1.26v-.96" fill="none" stroke="#231f20" stroke-linecap="round" stroke-linejoin="round" stroke-width=".5"/><path d="M249.79,77.71l1.7.83s1.32.79-.29,1.3l-2.04-.93" fill="none" stroke="#231f20" stroke-linecap="round" stroke-linejoin="round" stroke-width=".5"/><path d="M250.42,76.95l2.67,1.3s1.32.79-.29,1.3l-1.49.29" fill="none" stroke="#231f20" stroke-linecap="round" stroke-linejoin="round" stroke-width=".5"/><path d="M263.93,80.18l.22-7.29s-.25-.83-1.92-.78l-17.06.75" fill="none" stroke="#231f20" stroke-linecap="round" stroke-linejoin="round" stroke-width=".5"/><polyline points="245.91 99.92 263.36 98.73 263.49 94.72" fill="none" stroke="#231f20" stroke-linecap="round" stroke-linejoin="round" stroke-width=".5"/><path d="M260.74,92.81l7.31,2.56s1.78.73,2.35-.7l.09-11.03s.34-1.16-1.32-1.67l-6.7-1.78s-1.34-.18-1.56.54" fill="none" stroke="#231f20" stroke-linecap="round" stroke-linejoin="round" stroke-width=".5"/><path d="M261.95,81.96l5.23,1.48s.89-.05.88,1.28l-.08,9.13" fill="none" stroke="#231f20" stroke-linecap="round" stroke-linejoin="round" stroke-width=".5"/><line x1="262.4" y1="84.65" x2="262.35" y2="90.11" fill="none" stroke="#231f20" stroke-linecap="round" stroke-linejoin="round" stroke-width=".5"/><line x1="263.23" y1="84.96" x2="263.18" y2="90.42" fill="none" stroke="#231f20" stroke-linecap="round" stroke-linejoin="round" stroke-width=".5"/><line x1="264.06" y1="85.27" x2="264.02" y2="90.73" fill="none" stroke="#231f20" stroke-linecap="round" stroke-linejoin="round" stroke-width=".5"/><ellipse cx="262.36" cy="77.95" rx=".91" ry=".7" transform="translate(159.44 331.55) rotate(-84.46)" fill="none" stroke="#231f20" stroke-linecap="round" stroke-linejoin="round" stroke-width=".5"/><path d="M241.39,71.6s3.55-.18,3.97,2.2" fill="none" stroke="#231f20" stroke-linecap="round" stroke-linejoin="round" stroke-width=".5"/><line x1="240.4" y1="74.76" x2="242.86" y2="74.66" fill="none" stroke="#231f20" stroke-linecap="round" stroke-linejoin="round" stroke-width=".5"/><line x1="265.4" y1="94.85" x2="265.4" y2="100.83" fill="none" stroke="#231f20" stroke-linecap="round" stroke-linejoin="round" stroke-width=".5"/><polygon points="82.16 114.68 74.51 115.57 74.23 103.79 81.92 102.97 82.16 114.68" fill="none" stroke="#231f20" stroke-linecap="round" stroke-linejoin="round" stroke-width=".5"/><polyline points="74.51 115.57 73.34 114.9 73.06 103.12 80.45 102.33 81.92 102.94" fill="none" stroke="#231f20" stroke-linecap="round" stroke-linejoin="round" stroke-width=".5"/><line x1="74.17" y1="103.73" x2="73.13" y2="103.13" fill="none" stroke="#231f20" stroke-linecap="round" stroke-linejoin="round" stroke-width=".5"/><polygon points="82.83 141.32 75.38 142.19 75.09 130.54 82.58 129.74 82.83 141.32" fill="none" stroke="#231f20" stroke-linecap="round" stroke-linejoin="round" stroke-width=".5"/><polyline points="75.36 142.18 74.23 141.53 73.95 129.88 81.15 129.1 82.59 129.71" fill="none" stroke="#231f20" stroke-linecap="round" stroke-linejoin="round" stroke-width=".5"/><line x1="75.09" y1="130.54" x2="73.95" y2="129.88" fill="none" stroke="#231f20" stroke-linecap="round" stroke-linejoin="round" stroke-width=".5"/><polygon points="82.43 127.99 74.97 128.87 74.68 117.22 81.99 116.46 82.43 127.99" fill="none" stroke="#231f20" stroke-linecap="round" stroke-linejoin="round" stroke-width=".5"/><polyline points="74.97 128.87 73.83 128.21 73.54 116.56 80.56 115.83 82 116.44" fill="none" stroke="#231f20" stroke-linecap="round" stroke-linejoin="round" stroke-width=".5"/><line x1="74.68" y1="117.22" x2="73.54" y2="116.56" fill="none" stroke="#231f20" stroke-linecap="round" stroke-linejoin="round" stroke-width=".5"/><polygon points="81.78 101.19 74.13 102.09 73.85 90.3 81.53 89.72 81.78 101.19" fill="none" stroke="#231f20" stroke-linecap="round" stroke-linejoin="round" stroke-width=".5"/><polyline points="74.13 102.1 72.96 101.42 72.67 89.63 80.07 89.08 81.54 89.69" fill="none" stroke="#231f20" stroke-linecap="round" stroke-linejoin="round" stroke-width=".5"/><line x1="73.79" y1="90.24" x2="72.61" y2="89.57" fill="none" stroke="#231f20" stroke-linecap="round" stroke-linejoin="round" stroke-width=".5"/><ellipse cx="230.44" cy="129.23" rx=".86" ry=".71" transform="translate(-20.98 48.04) rotate(-11.39)" fill="#231f20" stroke-width="0"/><ellipse cx="233.09" cy="128.95" rx=".86" ry=".71" transform="translate(-20.87 48.55) rotate(-11.39)" fill="#231f20" stroke-width="0"/><ellipse cx="244.31" cy="127.82" rx=".86" ry=".71" transform="translate(-20.43 50.75) rotate(-11.39)" fill="#231f20" stroke-width="0"/><ellipse cx="246.96" cy="127.55" rx=".86" ry=".71" transform="translate(-20.32 51.26) rotate(-11.39)" fill="#231f20" stroke-width="0"/><ellipse cx="303.35" cy="88.11" rx=".75" ry=".92" fill="#231f20" stroke-width="0"/><ellipse cx="303.35" cy="85.27" rx=".75" ry=".92" fill="#231f20" stroke-width="0"/><ellipse cx="303.35" cy="82.42" rx=".75" ry=".92" fill="#231f20" stroke-width="0"/><path d="M304.47,105.98h0c-.64-.06-1.15-.66-1.13-1.33l.16-5.1c.02-.68.56-1.18,1.21-1.12h0c.64.06,1.15.66,1.13,1.33l-.16,5.1c-.02.68-.56,1.18-1.21,1.12Z" fill="none" stroke="#231f20" stroke-miterlimit="10" stroke-width=".5"/><ellipse cx="112.77" cy="92.48" rx=".89" ry=".96" fill="#231f20" stroke-width="0"/><ellipse cx="71.13" cy="111.37" rx=".89" ry=".96" fill="#231f20" stroke-width="0"/><ellipse cx="71.13" cy="108.05" rx=".89" ry=".96" fill="#231f20" stroke-width="0"/><ellipse cx="70.71" cy="98.34" rx=".89" ry=".96" fill="#231f20" stroke-width="0"/><ellipse cx="70.71" cy="95.03" rx=".89" ry=".96" fill="#231f20" stroke-width="0"/><ellipse cx="71.54" cy="124.78" rx=".89" ry=".96" fill="#231f20" stroke-width="0"/><ellipse cx="71.54" cy="121.47" rx=".89" ry=".96" fill="#231f20" stroke-width="0"/><ellipse cx="71.95" cy="137.54" rx=".89" ry=".96" fill="#231f20" stroke-width="0"/><ellipse cx="71.95" cy="134.23" rx=".89" ry=".96" fill="#231f20" stroke-width="0"/><polygon points="103.17 112.89 95.61 113.77 95.32 102.11 102.93 101.31 103.17 112.89" fill="none" stroke="#231f20" stroke-linecap="round" stroke-linejoin="round" stroke-width=".49"/><polyline points="95.61 113.77 94.45 113.11 94.17 101.45 101.48 100.67 102.94 101.28" fill="none" stroke="#231f20" stroke-linecap="round" stroke-linejoin="round" stroke-width=".49"/><line x1="95.26" y1="102.06" x2="94.24" y2="101.46" fill="none" stroke="#231f20" stroke-linecap="round" stroke-linejoin="round" stroke-width=".49"/><polygon points="103.83 139.24 96.46 140.1 96.18 128.58 103.59 127.78 103.83 139.24" fill="none" stroke="#231f20" stroke-linecap="round" stroke-linejoin="round" stroke-width=".49"/><polyline points="96.44 140.09 95.33 139.45 95.05 127.92 102.17 127.16 103.6 127.76" fill="none" stroke="#231f20" stroke-linecap="round" stroke-linejoin="round" stroke-width=".49"/><line x1="96.18" y1="128.58" x2="95.05" y2="127.92" fill="none" stroke="#231f20" stroke-linecap="round" stroke-linejoin="round" stroke-width=".49"/><polygon points="103.44 126.06 96.06 126.93 95.78 115.4 103.01 114.65 103.44 126.06" fill="none" stroke="#231f20" stroke-linecap="round" stroke-linejoin="round" stroke-width=".49"/><polyline points="96.06 126.92 94.93 126.27 94.65 114.75 101.59 114.03 103.01 114.63" fill="none" stroke="#231f20" stroke-linecap="round" stroke-linejoin="round" stroke-width=".49"/><line x1="95.78" y1="115.4" x2="94.65" y2="114.75" fill="none" stroke="#231f20" stroke-linecap="round" stroke-linejoin="round" stroke-width=".49"/><polygon points="102.79 99.55 95.23 100.43 94.95 88.78 102.55 88.2 102.79 99.55" fill="none" stroke="#231f20" stroke-linecap="round" stroke-linejoin="round" stroke-width=".49"/><polyline points="95.23 100.44 94.07 99.77 93.79 88.12 101.1 87.57 102.56 88.17" fill="none" stroke="#231f20" stroke-linecap="round" stroke-linejoin="round" stroke-width=".49"/><line x1="94.89" y1="88.72" x2="93.73" y2="88.06" fill="none" stroke="#231f20" stroke-linecap="round" stroke-linejoin="round" stroke-width=".49"/><ellipse cx="92.26" cy="109.61" rx=".88" ry=".95" fill="#231f20" stroke-width="0"/><ellipse cx="92.26" cy="106.34" rx=".88" ry=".95" fill="#231f20" stroke-width="0"/><ellipse cx="91.85" cy="96.72" rx=".88" ry=".95" fill="#231f20" stroke-width="0"/><ellipse cx="91.85" cy="93.45" rx=".88" ry=".95" fill="#231f20" stroke-width="0"/><ellipse cx="92.66" cy="122.88" rx=".88" ry=".95" fill="#231f20" stroke-width="0"/><ellipse cx="92.66" cy="119.61" rx=".88" ry=".95" fill="#231f20" stroke-width="0"/><ellipse cx="93.07" cy="135.5" rx=".88" ry=".95" fill="#231f20" stroke-width="0"/><ellipse cx="93.07" cy="132.23" rx=".88" ry=".95" fill="#231f20" stroke-width="0"/><ellipse cx="50.29" cy="111.22" rx=".88" ry=".97" transform="translate(-25.62 15.63) rotate(-14.12)" fill="#231f20" stroke-width="0"/><ellipse cx="50.1" cy="107.31" rx=".88" ry=".97" transform="translate(-24.67 15.47) rotate(-14.12)" fill="#231f20" stroke-width="0"/><ellipse cx="51.04" cy="128.67" rx=".88" ry=".97" transform="translate(-29.85 16.34) rotate(-14.12)" fill="#231f20" stroke-width="0"/><ellipse cx="50.85" cy="124.75" rx=".88" ry=".97" transform="translate(-28.9 16.18) rotate(-14.12)" fill="#231f20" stroke-width="0"/><polygon points="146.6 80.92 147.74 80.88 147.22 82.05 146.6 80.92" fill="#231f20" stroke-width="0"/><polygon points="107.87 83.73 109.01 83.69 108.49 84.86 107.87 83.73" fill="#231f20" stroke-width="0"/><polygon points="87.11 84.99 88.25 84.95 87.73 86.12 87.11 84.99" fill="#231f20" stroke-width="0"/><polygon points="65.79 85.79 66.93 85.75 66.41 86.93 65.79 85.79" fill="#231f20" stroke-width="0"/><polyline points="165.94 138.87 44.55 152 42.11 114.33 36.01 114.69" fill="none" stroke="#231f20" stroke-linecap="round" stroke-linejoin="round" stroke-width=".5"/><polyline points="201.81 122.78 205.78 126.83 202.31 130.58 159.01 134.98 158 134.16 157.98 133.45 157.9 129.81" fill="none" stroke-width="0"/><g clip-path="url(#b)"><path d="M144.18,116.63c-7.19-6.46-14.94-13.9-21.89-20.7-2.4-2.33-4.87-4.59-7.31-6.88-.05-.05-.05-.13,0-.18l8.14-9.18c.09-.1.25-.11.35-.01,7.02,6.64,14.34,13.56,21.11,20.38-7.15-6.41-14.46-13.37-21.44-20.03,0,0,.35-.01.35-.01l-8.3,9.03v-.18c2.41,2.31,4.79,4.67,7.24,6.95,7.09,6.59,15.17,14.01,21.76,20.83h0Z" fill="#231f20" stroke-width="0"/><path d="M144.06,122.22c-9.83-8.76-19.54-18.62-29.2-27.58,4.28-5.2,9.39-10.22,14-15.3.1-.1.26-.11.37-.01,2.57,2.44,5.12,4.9,7.65,7.37,2.47,2.47,5.3,5,7.56,7.47-5.24-4.77-10.43-9.59-15.57-14.47,0,0,.37-.01.37-.01-4.69,5.02-9.44,9.98-14.2,14.94v-.18c2.41,2.31,4.79,4.67,7.25,6.94,7.09,6.59,15.17,14.01,21.76,20.83h0Z" fill="#231f20" stroke-width="0"/><path d="M144.12,127.62c-7.53-6.47-14.61-13.44-21.9-20.17,0,0-7.36-6.66-7.36-6.66-.09-.08-.09-.21,0-.29,3.29-3.54,6.6-7.05,9.94-10.54,2.99-2.95,7.22-7.62,10.18-10.32-2.79,3.1-6.93,7.56-9.81,10.66-3.31,3.52-6.65,7.01-10.01,10.47v-.29s7.2,6.82,7.2,6.82c7.2,6.75,14.98,13.33,21.77,20.31h0Z" fill="#231f20" stroke-width="0"/><path d="M144.51,133.83c-7.48-6.52-14.69-13.35-21.89-20.18,0,0-7.33-6.69-7.33-6.69-.06-.06-.06-.15,0-.21,8.19-9.2,16.59-18.63,25.08-27.36-8.11,9.35-16.42,18.52-24.86,27.56,0,0,0-.21,0-.21l7.24,6.79c7.29,6.65,14.94,13.37,21.78,20.3h0Z" fill="#231f20" stroke-width="0"/><path d="M145,140.03c-7.28-6.43-15.18-13.78-22.26-20.51-2.43-2.33-4.92-4.59-7.4-6.85-.05-.04-.05-.12,0-.17,6.86-7.8,13.7-15.6,20.72-23.26l7.02-7.65v.14s-2.75-2.68-2.7-2.71c.04-.05,2.81,2.57,2.85,2.57.04.04.04.1,0,.14l-6.84,7.81c-6.78,7.55-14.13,16.1-20.87,22.96,9.58,9.07,20.3,18.3,29.5,27.54h0Z" fill="#231f20" stroke-width="0"/><path d="M141.02,141.79c-8.77-7.57-16.99-15.71-25.54-23.51,4.24-5.3,9.15-10.48,13.67-15.68,4.6-5.07,9.32-10.44,14.01-15.23-4.48,5.24-9.02,10.44-13.62,15.58-4.53,4.92-9.51,10.81-13.91,15.17,8.37,7.92,17.42,15.56,25.39,23.68h0Z" fill="#231f20" stroke-width="0"/><path d="M144.27,91.79c-8.97,10.92-19.01,21.71-28.19,32.5,0,0-.01-.2-.01-.2,3.22,2.93,11.45,10.42,14.53,13.29,0,0,4.8,4.48,4.8,4.48l-.33.02c3.28-3.69,6.48-7.52,9.82-11.12-3.05,3.85-6.33,7.61-9.48,11.41-.08.1-.22.11-.32.03,0,0-4.84-4.45-4.85-4.45-3.07-2.81-11.25-10.5-14.38-13.46-.06-.05-.06-.15-.01-.2,9.45-10.49,18.82-22.18,28.41-32.31h0Z" fill="#231f20" stroke-width="0"/><path d="M131.68,140.13c1.75-2.6,4.2-4.56,6.13-6.99,1.96-2.4,4.01-4.82,6.33-6.84-1.79,2.53-3.95,4.82-6.13,7.03-2.21,2.12-3.97,5.03-6.34,6.81h0Z" fill="#231f20" stroke-width="0"/><path d="M144.32,97.67c-4.59,5.54-9.47,10.81-14.36,16.07-4.8,5.35-9.43,10.84-14.28,16.14,0,0-.02-.36-.02-.36,3.32,3.1,6.61,6.24,9.85,9.42.02.02-.01.06-.03.04-3.43-2.98-6.81-6.02-10.16-9.08-.1-.1-.11-.26-.02-.36,4.76-5.38,9.73-10.57,14.54-15.91,4.71-5.36,9.5-11.05,14.49-15.96h0Z" fill="#231f20" stroke-width="0"/><path d="M124.7,143.71c-3.14-2.69-6.2-5.46-9.23-8.28-.09-.08-.09-.22-.01-.3,2.41-2.65,4.92-5.2,7.3-7.89,6.86-7.77,14.5-16.65,21.68-23.85-6.66,7.91-14.46,16.36-21.55,23.97-2.43,2.63-4.71,5.39-7.1,8.06v-.3c2.96,2.8,6.24,5.71,8.92,8.6h0Z" fill="#231f20" stroke-width="0"/><path d="M119,144.06c-1.19-1.01-2.37-2.03-3.53-3.07-.07-.06-.07-.16-.02-.23,2.34-2.71,4.72-5.38,7.2-7.97,7.24-7.92,14.02-16.25,21.55-23.91-2.05,2.71-4.67,5.49-6.95,8.18-4.7,5.4-9.76,10.47-14.41,15.9-2.3,2.75-4.69,5.4-7.13,8.02v-.24c1.04,1.08,2.43,2.24,3.29,3.32h0Z" fill="#231f20" stroke-width="0"/><path d="M144.29,111.22c-5.17-4.34-9.81-9.25-14.74-13.85-5.01-4.52-9.97-9.08-14.74-13.85-.07-.06-.07-.17,0-.23,1.01-.91,2.01-1.91,3.05-2.75-.87,1.02-1.89,1.99-2.83,2.98,0,0,0-.23,0-.23,5.02,4.5,9.86,9.2,14.65,13.95,4.79,4.67,10.23,9.1,14.61,13.98h0Z" fill="#231f20" stroke-width="0"/><path d="M117.69,80.22c4.76,3.92,8.87,8.52,13.46,12.63,4.58,4.11,9.05,8.33,13.3,12.79.02.02-.01.06-.03.04-4.67-4.02-9.11-8.27-13.46-12.63-4.26-4.37-9.35-8.31-13.27-12.82h0Z" fill="#231f20" stroke-width="0"/><path d="M144.2,115.09c-3.99,5.01-8.68,9.38-12.86,14.23-4.19,4.83-8.49,9.56-13.02,14.08-.02.02-.06-.01-.04-.03,4.09-4.92,8.42-9.63,12.86-14.23,4.45-4.52,8.45-9.86,13.06-14.04h0Z" fill="#231f20" stroke-width="0"/><path d="M127.32,138.65c2.49-3.33,5.66-6,8.33-9.16,2.69-3.12,5.47-6.26,8.53-9.01-2.52,3.26-5.42,6.27-8.33,9.19-2.94,2.83-5.44,6.48-8.53,8.97h0Z" fill="#231f20" stroke-width="0"/><path d="M123.55,142.72c.03-.45.32-.64.66-.8.35-.49.49-1.1,1.22-1.23.02,0,.04.01.04.03-.07.73-.67.92-1.13,1.31-.13.36-.3.65-.75.72-.02,0-.04-.01-.04-.03h0Z" fill="#231f20" stroke-width="0"/><path d="M140.09,141.75c.44-.89,1.13-1.52,1.88-2.12,1.03-1.19,1.86-2.65,3.28-3.42-.7,1.48-2.05,2.41-3.16,3.53-.53.73-1.19,1.72-2,2.01h0Z" fill="#231f20" stroke-width="0"/></g><polygon points="301.81 144.11 313.44 148.65 308.56 149.27 329.64 152.28 329.64 146.8 324.47 147.43 312.6 142.79 301.81 144.11" fill="#221f20" stroke-width="0"/><polygon points="329.64 146.8 329.64 152.28 308.56 149.27 313.44 148.65 301.81 144.11 312.6 142.79 324.47 147.43 329.64 146.8" fill="none" stroke="#fff" stroke-linecap="round" stroke-linejoin="round" stroke-width="4"/><polygon points="301.81 144.11 313.44 148.65 308.56 149.27 329.64 152.28 329.64 146.8 324.47 147.43 312.6 142.79 301.81 144.11" fill="#221f20" stroke-width="0"/><polygon points="313.45 137.97 316.39 77.97 315.88 77.53 300.15 78.61 299.63 79.15 297.27 140.18 297.93 140.62 313.01 138.71 313.45 137.97" fill="none" stroke="#231f20" stroke-linecap="round" stroke-linejoin="round" stroke-width=".5"/><polyline points="310.63 76.44 294.9 77.24 294.38 78.05 292.03 137.91" fill="none" stroke="#231f20" stroke-linecap="round" stroke-linejoin="round" stroke-width=".5"/><polyline points="9.11 70.83 8.86 72.1 5.51 72.15 5.02 72.94 2.31 72.99 .25 41.06 .89 40.51 3.13 40.46 3.22 41.14 6.53 41.08 6.58 40.42 7.01 40.38 7.43 41.06" fill="none" stroke="#231f20" stroke-linecap="round" stroke-linejoin="round" stroke-width=".5"/><ellipse cx="4.26" cy="48.54" rx="1.55" ry="1.92" transform="translate(-44.33 52.28) rotate(-89.39)" fill="none" stroke="#231f20" stroke-linecap="round" stroke-linejoin="round" stroke-width=".5"/><ellipse cx="5.44" cy="65.23" rx="2.03" ry="2.27" transform="translate(-59.84 69.98) rotate(-89.39)" fill="none" stroke="#231f20" stroke-linecap="round" stroke-linejoin="round" stroke-width=".5"/><path d="M99.2,144.97l-.89.07c-.17.01-.3-.11-.3-.28v-.9c0-.17.14-.32.3-.33l.89-.07c.17-.01.3.11.3.28v.9c0,.17-.14.32-.3.33Z" fill="#231f20" stroke-width="0"/><path d="M79.63,147.04l-.89.07c-.17.01-.3-.11-.3-.28v-.9c0-.17.14-.32.3-.33l.89-.07c.17-.01.3.11.3.28v.9c0,.17-.14.32-.3.33Z" fill="#231f20" stroke-width="0"/><path d="M57.93,149.34l-.89.07c-.17.01-.3-.11-.3-.28v-.9c0-.17.14-.32.3-.33l.89-.07c.17-.01.3.11.3.28v.9c0,.17-.14.32-.3.33Z" fill="#231f20" stroke-width="0"/><path d="M263.38,121.32l-.89.07c-.17.01-.3-.11-.3-.28v-.9c0-.17.14-.32.3-.33l.89-.07c.17-.01.3.11.3.28v.9c0,.17-.14.32-.3.33Z" fill="#231f20" stroke-width="0"/><path d="M205.87,126.2l-.89.07c-.17.01-.3-.11-.3-.28v-.9c0-.17.14-.32.3-.33l.89-.07c.17-.01.3.11.3.28v.9c0,.17-.14.32-.3.33Z" fill="#231f20" stroke-width="0"/><path d="M336.92,119.87l-.89.07c-.17.01-.3-.11-.3-.28v-.9c0-.17.14-.32.3-.33l.89-.07c.17-.01.3.11.3.28v.9c0,.17-.14.32-.3.33Z" fill="#231f20" stroke-width="0"/><path d="M111.55,90.74l.12,3.46,3.71-.2-.22-6.53-3.71.2v.26s.25,0,.25.26v2.19s-.15.36-.15.36Z" fill="#231f20" stroke-width="0"/><ellipse cx="113.48" cy="92.62" rx=".85" ry=".83" transform="translate(-21.32 149.95) rotate(-62.26)" fill="#fff" stroke-width="0"/><path d="M114.51,88.78v-.19s-.25.01-.25.01c-.03-.07-.1-.13-.17-.16v-.26s-.2,0-.2,0v.22s-.26.01-.26.01v-.22s-.19,0-.19,0v.22s-.26.01-.26.01v-.22s-.19,0-.19,0v.22s-.25.01-.25.01v-.22s-.19,0-.19,0v.25c-.07.04-.13.1-.16.18h-.25s0,.2,0,.2h.22s0,.26,0,.26h-.22s0,.2,0,.2h.22s0,.26,0,.26h-.22s0,.2,0,.2h.22s0,.26,0,.26h-.22s0,.2,0,.2h.25c.04.06.1.12.17.14v.25s.2,0,.2,0v-.22s.26-.01.26-.01v.22s.19,0,.19,0v-.22s.26-.01.26-.01v.22s.19,0,.19,0v-.22s.25-.01.25-.01v.22s.19,0,.19,0v-.25c.07-.04.12-.1.15-.18h.25s0-.2,0-.2h-.22s0-.26,0-.26h.22s0-.2,0-.2h-.22s0-.26,0-.26h.22s0-.2,0-.2h-.22s0-.26,0-.26h.22ZM113.3,89.85h-.15s-.4-.58-.4-.58l.02.61h-.14s-.03-.82-.03-.82h.15s.39.58.39.58l-.02-.61h.14s.03.82.03.82ZM113.81,89.82h-.16s-.3-.8-.3-.8h.15s.23.64.23.64l.19-.67h.15s-.25.83-.25.83Z" fill="#fff" stroke="#231f20" stroke-miterlimit="10" stroke-width=".02"/><polygon points="131.04 141.44 126.27 142.03 126.26 139.54 131.03 139.08 131.04 141.44" fill="#231f20" stroke-width="0"/><path d="M127.57,141.4s-.08,0-.1-.03c-.03-.02-.04-.06-.04-.1s.01-.08.04-.11c.03-.03.06-.05.1-.05s.08,0,.1.03c.03.03.04.06.04.1s-.01.08-.04.11c-.03.03-.06.05-.1.05ZM127.53,140.89s0-.06,0-.11c0-.05-.01-.11-.02-.17,0-.06-.01-.12-.02-.18s0-.1-.01-.13c0-.06,0-.12-.01-.17s0-.09,0-.12c0-.05.01-.09.03-.12.02-.02.05-.04.08-.04s.06,0,.08.03c.02.02.03.06.03.11,0,.03,0,.07,0,.12,0,.05,0,.11-.01.18,0,.03,0,.08,0,.14s-.01.12-.02.18c0,.06-.01.12-.02.18,0,.05,0,.09,0,.12h-.07Z" fill="#fff" stroke="#fff" stroke-miterlimit="10" stroke-width=".05"/><path d="M130.06,141.08l-.85.09c-.16.02-.29-.1-.29-.26v-.86c0-.16.13-.3.29-.32l.85-.09c.16-.02.29.1.29.26v.86c0,.16-.13.3-.29.32Z" fill="#fff" stroke-width="0"/><polyline points="181.91 126.48 182.05 130.81 173.17 131.73 173.1 127.3" fill="none" stroke="#231f20" stroke-linecap="round" stroke-linejoin="round" stroke-width=".39"/><line x1="172.59" y1="130.95" x2="172.51" y2="127.34" fill="none" stroke="#231f20" stroke-linecap="round" stroke-linejoin="round" stroke-width=".39"/><line x1="173.12" y1="131.69" x2="172.6" y2="130.97" fill="none" stroke="#231f20" stroke-linecap="round" stroke-linejoin="round" stroke-width=".39"/><polyline points="201.97 122.79 202.1 128.56 193.33 129.47 193.32 125.38" fill="none" stroke="#231f20" stroke-linecap="round" stroke-linejoin="round" stroke-width=".39"/><line x1="192.76" y1="128.82" x2="192.75" y2="125.38" fill="none" stroke="#231f20" stroke-linecap="round" stroke-linejoin="round" stroke-width=".39"/><line x1="193.33" y1="129.44" x2="192.76" y2="128.75" fill="none" stroke="#231f20" stroke-linecap="round" stroke-linejoin="round" stroke-width=".39"/><polyline points="191.93 125.42 192.07 129.66 183.3 130.58 183.24 126.32" fill="none" stroke="#231f20" stroke-linecap="round" stroke-linejoin="round" stroke-width=".39"/><line x1="182.72" y1="129.93" x2="182.66" y2="126.36" fill="none" stroke="#231f20" stroke-linecap="round" stroke-linejoin="round" stroke-width=".39"/><line x1="183.3" y1="130.46" x2="182.72" y2="129.85" fill="none" stroke="#231f20" stroke-linecap="round" stroke-linejoin="round" stroke-width=".39"/><polyline points="171.8 127.38 171.89 131.91 163.02 132.83 163.05 130.22" fill="none" stroke="#231f20" stroke-linecap="round" stroke-linejoin="round" stroke-width=".39"/><line x1="162.43" y1="132.23" x2="162.52" y2="130.13" fill="none" stroke="#231f20" stroke-linecap="round" stroke-linejoin="round" stroke-width=".39"/><line x1="162.97" y1="132.72" x2="162.38" y2="132.19" fill="none" stroke="#231f20" stroke-linecap="round" stroke-linejoin="round" stroke-width=".39"/><ellipse cx="178.65" cy="133.07" rx=".79" ry=".67" transform="translate(-40.49 173.12) rotate(-47.04)" fill="#231f20" stroke-width="0"/><ellipse cx="176.16" cy="133.27" rx=".79" ry=".67" transform="translate(-41.42 171.36) rotate(-47.04)" fill="#231f20" stroke-width="0"/><ellipse cx="168.83" cy="134.17" rx=".79" ry=".67" transform="translate(-44.41 166.29) rotate(-47.04)" fill="#231f20" stroke-width="0"/><ellipse cx="166.35" cy="134.36" rx=".79" ry=".67" transform="translate(-45.35 164.53) rotate(-47.04)" fill="#231f20" stroke-width="0"/><ellipse cx="188.76" cy="131.96" rx=".79" ry=".67" transform="translate(-36.45 180.17) rotate(-47.04)" fill="#231f20" stroke-width="0"/><ellipse cx="186.27" cy="132.15" rx=".79" ry=".67" transform="translate(-37.38 178.41) rotate(-47.04)" fill="#231f20" stroke-width="0"/><ellipse cx="198.37" cy="130.88" rx=".79" ry=".67" transform="translate(-32.6 186.85) rotate(-47.04)" fill="#231f20" stroke-width="0"/><ellipse cx="195.88" cy="131.07" rx=".79" ry=".67" transform="translate(-33.53 185.1) rotate(-47.04)" fill="#231f20" stroke-width="0"/><polyline points="324.79 75.37 329.46 75.26 329 84.28 324.18 84.64 324.54 76.76" fill="none" stroke="#231f20" stroke-linecap="round" stroke-linejoin="round" stroke-width=".5"/><polyline points="324.7 74.71 328.55 74.63 329.47 75.24" fill="none" stroke="#231f20" stroke-linecap="round" stroke-linejoin="round" stroke-width=".5"/><polyline points="324.14 84.63 323.29 84.08 323.59 77.8" fill="none" stroke="#231f20" stroke-linecap="round" stroke-linejoin="round" stroke-width=".5"/><polygon points="328.62 95.01 323.79 95.37 324.24 86.1 329.08 85.8 328.62 95.01" fill="none" stroke="#231f20" stroke-linecap="round" stroke-linejoin="round" stroke-width=".5"/><polyline points="323.8 95.31 322.91 94.8 323.35 85.53 328.2 85.23 329.09 85.78" fill="none" stroke="#231f20" stroke-linecap="round" stroke-linejoin="round" stroke-width=".5"/><line x1="324.24" y1="86.1" x2="323.35" y2="85.53" fill="none" stroke="#231f20" stroke-linecap="round" stroke-linejoin="round" stroke-width=".5"/><polygon points="328.27 105.77 323.44 106.13 323.89 96.86 328.73 96.56 328.27 105.77" fill="none" stroke="#231f20" stroke-linecap="round" stroke-linejoin="round" stroke-width=".5"/><polyline points="323.44 106.07 322.56 105.56 323 96.29 327.84 95.99 328.73 96.54" fill="none" stroke="#231f20" stroke-linecap="round" stroke-linejoin="round" stroke-width=".5"/><line x1="323.89" y1="96.86" x2="323" y2="96.29" fill="none" stroke="#231f20" stroke-linecap="round" stroke-linejoin="round" stroke-width=".5"/><polyline points="323.42 109.72 323.52 107.64 328.37 107.34" fill="none" stroke="#231f20" stroke-linecap="round" stroke-linejoin="round" stroke-width=".5"/><polyline points="322.49 110.08 322.64 107.07 327.48 106.77 328.37 107.32" fill="none" stroke="#231f20" stroke-linecap="round" stroke-linejoin="round" stroke-width=".5"/><line x1="323.52" y1="107.64" x2="322.64" y2="107.07" fill="none" stroke="#231f20" stroke-linecap="round" stroke-linejoin="round" stroke-width=".5"/><ellipse cx="321.23" cy="92.05" rx=".8" ry=".74" transform="translate(212.98 408.2) rotate(-87.09)" fill="#231f20" stroke-width="0"/><ellipse cx="321.37" cy="89.32" rx=".8" ry=".74" transform="translate(215.84 405.73) rotate(-87.09)" fill="#231f20" stroke-width="0"/><path d="M338.15,100.29s1.64-14.32-16.15-19.76" fill="none" stroke="#fff" stroke-linecap="round" stroke-linejoin="round" stroke-width="9"/><path d="M338.33,97.47c-1.01-5.23-4.65-13.64-17.37-17.47" fill="none" stroke="#000" stroke-dasharray="0 0 2 3" stroke-linecap="round" stroke-linejoin="round" stroke-width="1.25"/><polygon points="341.25 96.26 338.68 101.94 335.05 96.87 341.25 96.26" stroke-width="0"/></g><g id="c"><g clip-path="url(#d)"><circle cx="376.91" cy="52.69" r="40.25" fill="#fff" stroke="#231f20" stroke-miterlimit="10"/><path d="M373.07,91.51l.92-24.55-2-.31v-2.46l3.08.46v-6.31h-2.62v-6.31l-2.46-4.46.15-10h2l.46-7.69,6.77.15,10.16.31-.46,18.31,4.62.15.92,1.23.31,5.85-5.85,8.46-.15,3.08-5.08.77-.77,21.94s-7.39,1.23-10,1.38Z" fill="#d0cfce" stroke-width="0"/><polyline points="389.07 48.76 389.46 30.21 379.66 30.21 372.64 29.81 372.64 37.89 370.25 37.76 369.99 47.56 372.51 52.2 372.37 58.3 375.16 58.56 375.29 49.95 377.28 50.21 377.18 67.53 379 67.83 379 64.13 384.83 56.44 384.96 50.48 383.9 49.02 381.91 54.72 379 56.71 379.66 30.21" fill="none" stroke="#231f20" stroke-linecap="round" stroke-linejoin="round" stroke-width=".5"/><polyline points="383.9 49.02 393.84 48.89 394.9 50.35 395.03 55.38 388.93 63.86 388.93 67.7 379.07 67.83" fill="none" stroke="#231f20" stroke-linecap="round" stroke-linejoin="round" stroke-width=".5"/><line x1="379" y1="64.13" x2="388.71" y2="64.03" fill="none" stroke="#231f20" stroke-linecap="round" stroke-linejoin="round" stroke-width=".5"/><line x1="377.24" y1="55.62" x2="375.41" y2="55.42" fill="none" stroke="#231f20" stroke-linecap="round" stroke-linejoin="round" stroke-width=".5"/><polyline points="375.16 58.56 375.16 64.48 372.11 64.07 372.11 66.49 372.93 66.62" fill="none" stroke="#231f20" stroke-linecap="round" stroke-linejoin="round" stroke-width=".5"/><line x1="383.06" y1="101.69" x2="384.03" y2="67.77" fill="none" stroke="#231f20" stroke-linecap="round" stroke-linejoin="round" stroke-width=".5"/><polyline points="376.98 67.46 374.28 66.91 373.42 102.99" fill="none" stroke="#231f20" stroke-linecap="round" stroke-linejoin="round" stroke-width=".5"/><polygon points="380.98 34.05 388.35 34.05 384.66 41.82 380.98 34.05" fill="#231f20" stroke-width="0"/><path d="M377.02,29.67s.09-1.37-4.65-1.28c-3.28.06-27,.13-41.26.16" fill="none" stroke="#231f20" stroke-miterlimit="10" stroke-width=".5"/><path d="M349.04,31.12c2.81,2.2,5.08,4.88,7.27,7.66,3.98,4.22,8.87,8.15,11.82,13.04-4.64-3.69-8.16-8.42-12.06-12.82-2.5-2.39-5.43-4.92-7.03-7.88h0Z" fill="#231f20" stroke-width="0"/><path d="M338.3,38.44c3.59,3.07,6.65,6.62,9.6,10.27,5.28,5.66,11.46,11.05,15.71,17.38-5.94-5.14-10.76-11.31-15.95-17.16-3.28-3.26-6.98-6.67-9.36-10.49h0Z" fill="#231f20" stroke-width="0"/><path d="M346.85,30.69c-.61,1.62-1.76,2.76-3.03,3.82-1.05,1.24-1.72,2.79-2.83,3.99-.73.8-1.51,1.56-2.45,2.19l-.08-.06c1.04-2.64,3.25-4.32,5.1-6.33.81-1.44,1.72-2.78,3.2-3.68,0,0,.08.06.08.06h0Z" fill="#231f20" stroke-width="0"/><path d="M363.2,30.94c-3.66,4.9-7.89,9.29-12.18,13.62-4.08,4.52-7.83,9.34-11.99,13.79,0,0,0-.71,0-.71,2.61,2.89,5.17,5.81,7.58,8.87,0,0-.07.07-.07.07-2.98-2.75-5.82-5.63-8.61-8.57,2.13-2.4,4.33-4.73,6.55-7.06,2.12-2.19,4.3-4.32,6.31-6.61,3.9-4.59,7.88-9.66,12.42-13.41h0Z" fill="#231f20" stroke-width="0"/><path d="M347.75,66.39c2.23-3.25,4.98-6.01,7.84-8.68,4.32-4.76,8.28-10.41,13.35-14.2-3.74,5.38-8.61,9.73-13.11,14.42-2.44,2.95-5,6.35-8.07,8.46h0Z" fill="#231f20" stroke-width="0"/><polygon points="331.84 73.1 331.84 84.39 331.84 88.74 362.81 87.52 362.81 71.89 331.84 73.1" fill="none" stroke="#231f20" stroke-miterlimit="10" stroke-width=".5"/><polygon points="358.5 83.4 334.3 84.21 334.3 80.59 358.5 80.04 358.5 83.4" fill="none" stroke="#231f20" stroke-miterlimit="10" stroke-width=".5"/><line x1="334.12" y1="80.5" x2="332.04" y2="79.23" fill="none" stroke="#231f20" stroke-miterlimit="10" stroke-width=".5"/><line x1="334.12" y1="84.12" x2="332.04" y2="82.85" fill="none" stroke="#231f20" stroke-miterlimit="10" stroke-width=".5"/><line x1="358.23" y1="79.77" x2="343.98" y2="72.72" fill="none" stroke="#231f20" stroke-miterlimit="10" stroke-width=".5"/><line x1="337.15" y1="22.96" x2="407.43" y2="23.45" fill="none" stroke="#231f20" stroke-miterlimit="10" stroke-width=".5"/><line x1="338.44" y1="17.17" x2="399.72" y2="17.6" fill="none" stroke="#231f20" stroke-miterlimit="10" stroke-width=".5"/><line x1="400.22" y1="93.88" x2="402.53" y2="27.76" fill="none" stroke="#231f20" stroke-miterlimit="10" stroke-width=".5"/><line x1="410.47" y1="26.51" x2="337.14" y2="26.41" fill="none" stroke="#231f20" stroke-miterlimit="10" stroke-width=".5"/><polyline points="365.9 30.83 338.56 31.05 338.56 67 366.02 66.1" fill="none" stroke-width="0"/></g><circle cx="376.91" cy="52.69" r="40.25" fill="none" stroke="#fff" stroke-miterlimit="10" stroke-width="4"/><circle cx="376.91" cy="52.69" r="40.25" fill="none" stroke="#231f20" stroke-miterlimit="10"/><polygon points="381.54 27.29 371.7 17.94 376.71 17.97 376.92 .5 386.8 .58 386.59 18.06 391.6 18.1 381.54 27.29" fill="#2c2a26" stroke="#fff" stroke-linecap="round" stroke-linejoin="round"/><path d="M364.99,16.62c0,7.59-6.25,13.75-13.95,13.75s-13.95-6.15-13.95-13.75,6.25-13.75,13.95-13.75,13.95,6.16,13.95,13.75" fill="#211f1f" stroke="#fff" stroke-miterlimit="10" stroke-width="1.5"/><path d="M352.64,23.66h-1.85v-11.76c-.44.42-1.03.85-1.75,1.27-.72.42-1.37.74-1.94.95v-1.78c1.03-.49,1.93-1.07,2.71-1.76s1.32-1.36,1.64-2.01h1.19v15.09Z" fill="#fff" stroke-width="0"/></g></svg>