<?xml version="1.0" encoding="UTF-8" standalone="no"?>
<!DOCTYPE svg PUBLIC "-//W3C//DTD SVG 1.1//EN" "http://www.w3.org/Graphics/SVG/1.1/DTD/svg11.dtd">
<!-- Generated by Microsoft Visio, SVG Export drw_afx_cable_overview_half_node_ieops_temp.svg Page-1 -->
<svg xmlns="http://www.w3.org/2000/svg" xmlns:xlink="http://www.w3.org/1999/xlink" xmlns:ev="http://www.w3.org/2001/xml-events"
		xmlns:v="http://schemas.microsoft.com/visio/2003/SVGExtensions/" width="11in" height="8.5in" viewBox="0 0 792 612"
		xml:space="preserve" color-interpolation-filters="sRGB" class="st14">
	<v:documentProperties v:langID="1033" v:viewMarkup="false">
		<v:userDefs>
			<v:ud v:nameU="msvSubprocessMaster" v:prompt="" v:val="VT4(Rectangle)"/>
			<v:ud v:nameU="msvNoAutoConnect" v:val="VT0(1):26"/>
		</v:userDefs>
	</v:documentProperties>

	<style type="text/css">
	<![CDATA[
		.st1 {fill:#156082;stroke:#0d4964;stroke-width:0.25}
		.st2 {fill:#feffff;font-family:Calibri;font-size:0.833336em}
		.st3 {font-size:1em}
		.st4 {fill:url(#grad0-9);stroke:#115371;stroke-width:0.75}
		.st5 {fill:#115371;font-family:Calibri;font-size:0.833336em}
		.st6 {fill:#115371;stroke:#0c445d;stroke-width:0.75}
		.st7 {fill:none;stroke:none;stroke-width:0.25}
		.st8 {fill:#0d4964;font-family:Calibri;font-size:1.00001em}
		.st9 {stroke:#156082;stroke-linecap:round;stroke-linejoin:round;stroke-width:1}
		.st10 {stroke:#156082;stroke-dasharray:3,3;stroke-linecap:round;stroke-linejoin:round;stroke-width:1}
		.st11 {fill:#ffffff;stroke:none;stroke-linecap:butt;stroke-width:7.2}
		.st12 {fill:#115371;font-family:Calibri;font-size:1.00001em}
		.st13 {fill:#115371;font-family:Calibri;font-size:0.666664em}
		.st14 {fill:none;fill-rule:evenodd;font-size:12px;overflow:visible;stroke-linecap:square;stroke-miterlimit:3}
	]]>
	</style>

	<defs id="Patterns_And_Gradients">
		<linearGradient id="grad0-9" x1="0" y1="0" x2="1" y2="0" gradientTransform="rotate(60 0.5 0.5)">
			<stop offset="0" stop-color="#e7eaec" stop-opacity="1"/>
			<stop offset="0.24" stop-color="#f3f4f6" stop-opacity="1"/>
			<stop offset="0.54" stop-color="#feffff" stop-opacity="1"/>
		</linearGradient>
	</defs>
	<g v:mID="0" v:index="1" v:groupContext="foregroundPage">
		<v:userDefs>
			<v:ud v:nameU="msvThemeOrder" v:val="VT0(0):26"/>
		</v:userDefs>
		<title>Page-1</title>
		<v:pageProperties v:drawingScale="1" v:pageScale="1" v:drawingUnits="0" v:shadowOffsetX="9" v:shadowOffsetY="-9"/>
		<v:layer v:name="Connector" v:index="0"/>
		<g id="shape1028-1" v:mID="1028" v:groupContext="shape" transform="translate(361.12,-546.746)">
			<title>Ellipse.1040</title>
			<desc>Client Domain A</desc>
			<v:userDefs>
				<v:ud v:nameU="visVersion" v:val="VT0(15):26"/>
			</v:userDefs>
			<v:textBlock v:margins="rect(4,4,4,4)"/>
			<v:textRect cx="35.4401" cy="588.373" width="62.03" height="41.3468"/>
			<path d="M0 588.37 A35.4401 23.6268 0 0 1 70.88 588.37 A35.4401 23.6268 0 0 1 0 588.37 Z" class="st1"/>
			<text x="23.69" y="579.37" class="st2" v:langID="1033"><v:paragraph v:horizAlign="1"/><v:tabList/>Client <tspan
						x="19.56" dy="1.2em" class="st3">Domain<v:newlineChar/></tspan><tspan x="32.55" dy="1.2em" class="st3">A </tspan> </text>		</g>
		<g id="shape1029-6" v:mID="1029" v:groupContext="shape" transform="translate(361.12,-486)">
			<title>Ellipse.1041</title>
			<desc>Client Domain B</desc>
			<v:userDefs>
				<v:ud v:nameU="visVersion" v:val="VT0(15):26"/>
			</v:userDefs>
			<v:textBlock v:margins="rect(4,4,4,4)"/>
			<v:textRect cx="35.4401" cy="588.373" width="62.03" height="41.3468"/>
			<path d="M0 588.37 A35.4401 23.6268 0 0 1 70.88 588.37 A35.4401 23.6268 0 0 1 0 588.37 Z" class="st4"/>
			<text x="23.69" y="579.37" class="st5" v:langID="1033"><v:paragraph v:horizAlign="1"/><v:tabList/>Client <tspan
						x="19.56" dy="1.2em" class="st3">Domain <v:newlineChar/></tspan><tspan x="32.72" dy="1.2em" class="st3">B</tspan></text>		</g>
		<g id="shape1325-13" v:mID="1325" v:groupContext="shape" transform="translate(36,-405)">
			<title>Rectangle.1325</title>
			<desc>Node 1</desc>
			<v:userDefs>
				<v:ud v:nameU="visVersion" v:val="VT0(15):26"/>
			</v:userDefs>
			<v:textBlock v:margins="rect(4,4,4,4)"/>
			<v:textRect cx="93.2587" cy="576" width="186.52" height="72"/>
			<rect x="0" y="540" width="186.517" height="72" class="st1"/>
			<text x="78.62" y="579" class="st2" v:langID="1033"><v:paragraph v:horizAlign="1"/><v:tabList/>Node 1</text>		</g>
		<g id="shape1207-16" v:mID="1207" v:groupContext="shape" transform="translate(170.4,-396)">
			<title>Rectangle.1207</title>
			<desc>I/O card (HA)</desc>
			<v:userDefs>
				<v:ud v:nameU="visVersion" v:val="VT0(15):26"/>
			</v:userDefs>
			<v:textBlock v:margins="rect(4,4,4,4)"/>
			<v:textRect cx="25.9808" cy="599.786" width="51.97" height="24.4289"/>
			<rect x="0" y="587.571" width="51.9617" height="24.4289" class="st4"/>
			<text x="9.47" y="596.79" class="st5" v:langID="1033"><v:paragraph v:horizAlign="1"/><v:tabList/>I/O card <tspan
						x="16.94" dy="1.2em" class="st3">(HA)</tspan></text>		</g>
		<g id="shape1208-21" v:mID="1208" v:groupContext="shape" transform="translate(127.148,-396)">
			<title>Rectangle.1208</title>
			<desc>I/O card (Cluster)</desc>
			<v:userDefs>
				<v:ud v:nameU="visVersion" v:val="VT0(15):26"/>
			</v:userDefs>
			<v:textBlock v:margins="rect(4,4,4,4)"/>
			<v:textRect cx="23.3689" cy="599.786" width="46.74" height="24.4289"/>
			<rect x="0" y="587.571" width="46.7379" height="24.4289" class="st4"/>
			<text x="6.86" y="596.79" class="st5" v:langID="1033"><v:paragraph v:horizAlign="1"/><v:tabList/>I/O card <tspan
						x="6.03" dy="1.2em" class="st3">(Cluster)</tspan></text>		</g>
		<g id="shape1209-26" v:mID="1209" v:groupContext="shape" transform="translate(82.1485,-396)">
			<title>Rectangle.1209</title>
			<desc>I/O card (Storage)</desc>
			<v:userDefs>
				<v:ud v:nameU="visVersion" v:val="VT0(15):26"/>
			</v:userDefs>
			<v:textBlock v:margins="rect(4,4,4,4)"/>
			<v:textRect cx="23.3689" cy="599.786" width="46.74" height="24.4289"/>
			<rect x="0" y="587.571" width="46.7379" height="24.4289" class="st4"/>
			<text x="6.86" y="596.79" class="st5" v:langID="1033"><v:paragraph v:horizAlign="1"/><v:tabList/>I/O card<v:newlineChar/><tspan
						x="4.75" dy="1.2em" class="st3">(Storage)</tspan></text>		</g>
		<g id="shape1210-31" v:mID="1210" v:groupContext="shape" transform="translate(36,-396)">
			<title>Rectangle.1210</title>
			<desc>I/O card (Storage)</desc>
			<v:userDefs>
				<v:ud v:nameU="visVersion" v:val="VT0(15):26"/>
			</v:userDefs>
			<v:textBlock v:margins="rect(4,4,4,4)"/>
			<v:textRect cx="23.3689" cy="599.786" width="46.74" height="24.4289"/>
			<rect x="0" y="587.571" width="46.7379" height="24.4289" class="st4"/>
			<text x="6.86" y="596.79" class="st5" v:langID="1033"><v:paragraph v:horizAlign="1"/><v:tabList/>I/O card<v:newlineChar/><tspan
						x="4.75" dy="1.2em" class="st3">(Storage)</tspan></text>		</g>
		<g id="shape1193-36" v:mID="1193" v:groupContext="shape" transform="translate(36,-461.218)">
			<title>Rectangle.1193</title>
			<desc>I/O card</desc>
			<v:userDefs>
				<v:ud v:nameU="visVersion" v:val="VT0(15):26"/>
			</v:userDefs>
			<v:textBlock v:margins="rect(4,4,4,4)"/>
			<v:textRect cx="23.3689" cy="604.109" width="46.74" height="15.7816"/>
			<rect x="0" y="596.218" width="46.7379" height="15.7816" class="st4"/>
			<text x="6.86" y="607.11" class="st5" v:langID="1033"><v:paragraph v:horizAlign="1"/><v:tabList/>I/O card</text>		</g>
		<g id="shape1192-40" v:mID="1192" v:groupContext="shape" transform="translate(175.78,-461.218)">
			<title>Rectangle.1192</title>
			<desc>I/O card</desc>
			<v:userDefs>
				<v:ud v:nameU="visVersion" v:val="VT0(15):26"/>
			</v:userDefs>
			<v:textBlock v:margins="rect(4,4,4,4)"/>
			<v:textRect cx="23.3689" cy="604.109" width="46.74" height="15.7816"/>
			<rect x="0" y="596.218" width="46.7379" height="15.7816" class="st4"/>
			<text x="6.86" y="607.11" class="st5" v:langID="1033"><v:paragraph v:horizAlign="1"/><v:tabList/>I/O card</text>		</g>
		<g id="shape1326-44" v:mID="1326" v:groupContext="shape" transform="translate(567,-405)">
			<title>Rectangle.1326</title>
			<desc>Node N</desc>
			<v:userDefs>
				<v:ud v:nameU="visVersion" v:val="VT0(15):26"/>
			</v:userDefs>
			<v:textBlock v:margins="rect(4,4,4,4)"/>
			<v:textRect cx="93.2587" cy="576" width="186.52" height="72"/>
			<rect x="0" y="540" width="186.517" height="72" class="st1"/>
			<text x="77.92" y="579" class="st2" v:langID="1033"><v:paragraph v:horizAlign="1"/><v:tabList/>Node N</text>		</g>
		<g id="shape1327-47" v:mID="1327" v:groupContext="shape" transform="translate(701.4,-399.405)">
			<title>Rectangle.1327</title>
			<desc>I/O card (HA)</desc>
			<v:userDefs>
				<v:ud v:nameU="visVersion" v:val="VT0(15):26"/>
			</v:userDefs>
			<v:textBlock v:margins="rect(4,4,4,4)"/>
			<v:textRect cx="25.9808" cy="599.786" width="51.97" height="24.4289"/>
			<rect x="0" y="587.571" width="51.9617" height="24.4289" class="st4"/>
			<text x="9.47" y="596.79" class="st5" v:langID="1033"><v:paragraph v:horizAlign="1"/><v:tabList/>I/O card <tspan
						x="16.94" dy="1.2em" class="st3">(HA)</tspan></text>		</g>
		<g id="shape1328-52" v:mID="1328" v:groupContext="shape" transform="translate(658.148,-399.405)">
			<title>Rectangle.1328</title>
			<desc>I/O card (Cluster)</desc>
			<v:userDefs>
				<v:ud v:nameU="visVersion" v:val="VT0(15):26"/>
			</v:userDefs>
			<v:textBlock v:margins="rect(4,4,4,4)"/>
			<v:textRect cx="23.3689" cy="599.786" width="46.74" height="24.4289"/>
			<rect x="0" y="587.571" width="46.7379" height="24.4289" class="st4"/>
			<text x="6.86" y="596.79" class="st5" v:langID="1033"><v:paragraph v:horizAlign="1"/><v:tabList/>I/O card <tspan
						x="6.03" dy="1.2em" class="st3">(Cluster)</tspan></text>		</g>
		<g id="shape1329-57" v:mID="1329" v:groupContext="shape" transform="translate(613.148,-399.405)">
			<title>Rectangle.1329</title>
			<desc>I/O card (Storage)</desc>
			<v:userDefs>
				<v:ud v:nameU="visVersion" v:val="VT0(15):26"/>
			</v:userDefs>
			<v:textBlock v:margins="rect(4,4,4,4)"/>
			<v:textRect cx="23.3689" cy="599.786" width="46.74" height="24.4289"/>
			<rect x="0" y="587.571" width="46.7379" height="24.4289" class="st4"/>
			<text x="6.86" y="596.79" class="st5" v:langID="1033"><v:paragraph v:horizAlign="1"/><v:tabList/>I/O card<v:newlineChar/><tspan
						x="4.75" dy="1.2em" class="st3">(Storage)</tspan></text>		</g>
		<g id="shape1330-62" v:mID="1330" v:groupContext="shape" transform="translate(567,-399.405)">
			<title>Rectangle.1330</title>
			<desc>I/O card (Storage)</desc>
			<v:userDefs>
				<v:ud v:nameU="visVersion" v:val="VT0(15):26"/>
			</v:userDefs>
			<v:textBlock v:margins="rect(4,4,4,4)"/>
			<v:textRect cx="23.3689" cy="599.786" width="46.74" height="24.4289"/>
			<rect x="0" y="587.571" width="46.7379" height="24.4289" class="st4"/>
			<text x="6.86" y="596.79" class="st5" v:langID="1033"><v:paragraph v:horizAlign="1"/><v:tabList/>I/O card<v:newlineChar/><tspan
						x="4.75" dy="1.2em" class="st3">(Storage)</tspan></text>		</g>
		<g id="shape1331-67" v:mID="1331" v:groupContext="shape" transform="translate(567,-461.218)">
			<title>Rectangle.1331</title>
			<desc>I/O card</desc>
			<v:userDefs>
				<v:ud v:nameU="visVersion" v:val="VT0(15):26"/>
			</v:userDefs>
			<v:textBlock v:margins="rect(4,4,4,4)"/>
			<v:textRect cx="23.3689" cy="604.109" width="46.74" height="15.7816"/>
			<rect x="0" y="596.218" width="46.7379" height="15.7816" class="st4"/>
			<text x="6.86" y="607.11" class="st5" v:langID="1033"><v:paragraph v:horizAlign="1"/><v:tabList/>I/O card</text>		</g>
		<g id="shape1332-71" v:mID="1332" v:groupContext="shape" transform="translate(706.78,-461.218)">
			<title>Rectangle.1332</title>
			<desc>I/O card</desc>
			<v:userDefs>
				<v:ud v:nameU="visVersion" v:val="VT0(15):26"/>
			</v:userDefs>
			<v:textBlock v:margins="rect(4,4,4,4)"/>
			<v:textRect cx="23.3689" cy="604.109" width="46.74" height="15.7816"/>
			<rect x="0" y="596.218" width="46.7379" height="15.7816" class="st4"/>
			<text x="6.86" y="607.11" class="st5" v:langID="1033"><v:paragraph v:horizAlign="1"/><v:tabList/>I/O card</text>		</g>
		<g id="shape1333-75" v:mID="1333" v:groupContext="shape" transform="translate(567,783) rotate(-180)">
			<title>Simple Arrow.1333</title>
			<v:userDefs>
				<v:ud v:nameU="visVersion" v:val="VT0(15):26"/>
				<v:ud v:nameU="ArrowType" v:prompt="" v:val="VT0(2):26"/>
			</v:userDefs>
			<path d="M0 612 L12 589.5 L12 600.75 L344.48 600.75 L344.48 612 L344.48 623.25 L12 623.25 L12 634.5 L0 612 Z"
					class="st6"/>
		</g>
		<g id="shape1334-77" v:mID="1334" v:groupContext="shape" transform="translate(19.6901,-258)">
			<title>Rectangle.1334</title>
			<desc>Switch A</desc>
			<v:userDefs>
				<v:ud v:nameU="visVersion" v:val="VT0(15):26"/>
			</v:userDefs>
			<v:textBlock v:margins="rect(4,4,4,4)"/>
			<v:textRect cx="151.31" cy="582" width="302.62" height="60"/>
			<rect x="0" y="552" width="302.62" height="60" class="st1"/>
			<text x="133.85" y="585" class="st2" v:langID="1033"><v:paragraph v:horizAlign="1"/><v:tabList/>Switch A  </text>		</g>
		<g id="shape1335-80" v:mID="1335" v:groupContext="shape" transform="translate(469.69,-258)">
			<title>Rectangle.1335</title>
			<desc>Switch B</desc>
			<v:userDefs>
				<v:ud v:nameU="visVersion" v:val="VT0(15):26"/>
			</v:userDefs>
			<v:textBlock v:margins="rect(4,4,4,4)"/>
			<v:textRect cx="151.31" cy="582" width="302.62" height="60"/>
			<rect x="0" y="552" width="302.62" height="60" class="st4"/>
			<text x="134.02" y="585" class="st5" v:langID="1033"><v:paragraph v:horizAlign="1"/><v:tabList/>Switch B  </text>		</g>
		<g id="shape1336-84" v:mID="1336" v:groupContext="shape" transform="translate(18,-18)">
			<title>Rectangle.1336</title>
			<v:userDefs>
				<v:ud v:nameU="visVersion" v:val="VT0(15):26"/>
			</v:userDefs>
			<rect x="0" y="518.971" width="351" height="93.0288" class="st4"/>
		</g>
		<g id="shape1342-87" v:mID="1342" v:groupContext="shape" transform="translate(18,-45.0399)">
			<title>Rectangle.1342</title>
			<desc>Node 1</desc>
			<v:userDefs>
				<v:ud v:nameU="visVersion" v:val="VT0(15):26"/>
			</v:userDefs>
			<v:textBlock v:margins="rect(4,4,4,4)"/>
			<v:textRect cx="78.2287" cy="579.062" width="156.46" height="65.8768"/>
			<rect x="0" y="546.123" width="156.457" height="65.8768" class="st1"/>
			<text x="63.59" y="582.06" class="st2" v:langID="1033"><v:paragraph v:horizAlign="1"/><v:tabList/>Node 1</text>		</g>
		<g id="shape1341-90" v:mID="1341" v:groupContext="shape" transform="translate(16.9704,-88.7739) rotate(-0.1)">
			<title>Rectangle.1296</title>
			<desc>I/O card</desc>
			<v:userDefs>
				<v:ud v:nameU="visVersion" v:val="VT0(15):26"/>
			</v:userDefs>
			<v:textBlock v:margins="rect(4,4,4,4)"/>
			<v:textRect cx="19.9916" cy="600.964" width="39.99" height="22.0721"/>
			<rect x="0" y="589.928" width="39.9831" height="22.0721" class="st4"/>
			<text x="13.49" y="597.96" class="st5" v:langID="1033"><v:paragraph v:horizAlign="1"/><v:tabList/>I/O <tspan x="11.11"
						dy="1.2em" class="st3">card</tspan></text>		</g>
		<g id="shape1340-95" v:mID="1340" v:groupContext="shape" transform="translate(54.6094,-88.7322) rotate(-0.1)">
			<title>Rectangle.1295</title>
			<desc>I/O card</desc>
			<v:userDefs>
				<v:ud v:nameU="visVersion" v:val="VT0(15):26"/>
			</v:userDefs>
			<v:textBlock v:margins="rect(4,4,4,4)"/>
			<v:textRect cx="19.9916" cy="600.964" width="39.99" height="22.0721"/>
			<rect x="0" y="589.928" width="39.9831" height="22.0721" class="st4"/>
			<text x="13.49" y="597.96" class="st5" v:langID="1033"><v:paragraph v:horizAlign="1"/><v:tabList/>I/O <tspan x="11.11"
						dy="1.2em" class="st3">card</tspan></text>		</g>
		<g id="shape1339-100" v:mID="1339" v:groupContext="shape" transform="translate(92.2484,-88.6905) rotate(-0.1)">
			<title>Rectangle.1294</title>
			<desc>I/O card</desc>
			<v:userDefs>
				<v:ud v:nameU="visVersion" v:val="VT0(15):26"/>
			</v:userDefs>
			<v:textBlock v:margins="rect(4,4,4,4)"/>
			<v:textRect cx="19.9916" cy="600.964" width="39.99" height="22.0721"/>
			<rect x="0" y="589.928" width="39.9831" height="22.0721" class="st4"/>
			<text x="13.49" y="597.96" class="st5" v:langID="1033"><v:paragraph v:horizAlign="1"/><v:tabList/>I/O <tspan x="11.11"
						dy="1.2em" class="st3">card</tspan></text>		</g>
		<g id="shape1338-105" v:mID="1338" v:groupContext="shape" transform="translate(132.255,-88.6462) rotate(-0.1)">
			<title>Rectangle.1293</title>
			<desc>I/O card</desc>
			<v:userDefs>
				<v:ud v:nameU="visVersion" v:val="VT0(15):26"/>
			</v:userDefs>
			<v:textBlock v:margins="rect(4,4,4,4)"/>
			<v:textRect cx="19.9916" cy="600.964" width="39.99" height="22.0721"/>
			<rect x="0" y="589.928" width="39.9831" height="22.0721" class="st4"/>
			<text x="13.49" y="597.96" class="st5" v:langID="1033"><v:paragraph v:horizAlign="1"/><v:tabList/>I/O <tspan x="11.11"
						dy="1.2em" class="st3">card</tspan></text>		</g>
		<g id="shape1343-110" v:mID="1343" v:groupContext="shape" transform="translate(211.513,-45.0399)">
			<title>Rectangle.1343</title>
			<desc>Node 1</desc>
			<v:userDefs>
				<v:ud v:nameU="visVersion" v:val="VT0(15):26"/>
			</v:userDefs>
			<v:textBlock v:margins="rect(4,4,4,4)"/>
			<v:textRect cx="78.2287" cy="579.062" width="156.46" height="65.8768"/>
			<rect x="0" y="546.123" width="156.457" height="65.8768" class="st1"/>
			<text x="63.59" y="582.06" class="st2" v:langID="1033"><v:paragraph v:horizAlign="1"/><v:tabList/>Node 1</text>		</g>
		<g id="shape1344-113" v:mID="1344" v:groupContext="shape" transform="translate(210.484,-88.5595) rotate(-0.1)">
			<title>Rectangle.1344</title>
			<desc>I/O card</desc>
			<v:userDefs>
				<v:ud v:nameU="visVersion" v:val="VT0(15):26"/>
			</v:userDefs>
			<v:textBlock v:margins="rect(4,4,4,4)"/>
			<v:textRect cx="19.9916" cy="600.964" width="39.99" height="22.0721"/>
			<rect x="0" y="589.928" width="39.9831" height="22.0721" class="st4"/>
			<text x="13.49" y="597.96" class="st5" v:langID="1033"><v:paragraph v:horizAlign="1"/><v:tabList/>I/O <tspan x="11.11"
						dy="1.2em" class="st3">card</tspan></text>		</g>
		<g id="shape1345-118" v:mID="1345" v:groupContext="shape" transform="translate(248.123,-88.5178) rotate(-0.1)">
			<title>Rectangle.1345</title>
			<desc>I/O card</desc>
			<v:userDefs>
				<v:ud v:nameU="visVersion" v:val="VT0(15):26"/>
			</v:userDefs>
			<v:textBlock v:margins="rect(4,4,4,4)"/>
			<v:textRect cx="19.9916" cy="600.964" width="39.99" height="22.0721"/>
			<rect x="0" y="589.928" width="39.9831" height="22.0721" class="st4"/>
			<text x="13.49" y="597.96" class="st5" v:langID="1033"><v:paragraph v:horizAlign="1"/><v:tabList/>I/O <tspan x="11.11"
						dy="1.2em" class="st3">card</tspan></text>		</g>
		<g id="shape1346-123" v:mID="1346" v:groupContext="shape" transform="translate(285.762,-88.4761) rotate(-0.1)">
			<title>Rectangle.1346</title>
			<desc>I/O card</desc>
			<v:userDefs>
				<v:ud v:nameU="visVersion" v:val="VT0(15):26"/>
			</v:userDefs>
			<v:textBlock v:margins="rect(4,4,4,4)"/>
			<v:textRect cx="19.9916" cy="600.964" width="39.99" height="22.0721"/>
			<rect x="0" y="589.928" width="39.9831" height="22.0721" class="st4"/>
			<text x="13.49" y="597.96" class="st5" v:langID="1033"><v:paragraph v:horizAlign="1"/><v:tabList/>I/O <tspan x="11.11"
						dy="1.2em" class="st3">card</tspan></text>		</g>
		<g id="shape1347-128" v:mID="1347" v:groupContext="shape" transform="translate(325.769,-88.4318) rotate(-0.1)">
			<title>Rectangle.1347</title>
			<desc>I/O card</desc>
			<v:userDefs>
				<v:ud v:nameU="visVersion" v:val="VT0(15):26"/>
			</v:userDefs>
			<v:textBlock v:margins="rect(4,4,4,4)"/>
			<v:textRect cx="19.9916" cy="600.964" width="39.99" height="22.0721"/>
			<rect x="0" y="589.928" width="39.9831" height="22.0721" class="st4"/>
			<text x="13.49" y="597.96" class="st5" v:langID="1033"><v:paragraph v:horizAlign="1"/><v:tabList/>I/O <tspan x="11.11"
						dy="1.2em" class="st3">card</tspan></text>		</g>
		<g id="shape1348-133" v:mID="1348" v:groupContext="shape" transform="translate(92.6261,-18)">
			<title>Sheet.1348</title>
			<desc>Disk Shelf 1</desc>
			<v:textBlock v:margins="rect(4,4,4,4)"/>
			<v:textRect cx="100.874" cy="599.648" width="201.75" height="24.7038"/>
			<rect x="0" y="587.296" width="201.748" height="24.7038" class="st7"/>
			<text x="72.87" y="603.25" class="st8" v:langID="1033"><v:paragraph v:horizAlign="1"/><v:tabList/>Disk Shelf 1</text>		</g>
		<g id="shape1349-136" v:mID="1349" v:groupContext="shape" transform="translate(423,-18)">
			<title>Rectangle.1349</title>
			<v:userDefs>
				<v:ud v:nameU="visVersion" v:val="VT0(15):26"/>
			</v:userDefs>
			<rect x="0" y="518.971" width="351" height="93.0288" class="st4"/>
		</g>
		<g id="shape1350-139" v:mID="1350" v:groupContext="shape" transform="translate(423,-45.0399)">
			<title>Rectangle.1350</title>
			<desc>Node 1</desc>
			<v:userDefs>
				<v:ud v:nameU="visVersion" v:val="VT0(15):26"/>
			</v:userDefs>
			<v:textBlock v:margins="rect(4,4,4,4)"/>
			<v:textRect cx="78.2287" cy="579.062" width="156.46" height="65.8768"/>
			<rect x="0" y="546.123" width="156.457" height="65.8768" class="st1"/>
			<text x="63.59" y="582.06" class="st2" v:langID="1033"><v:paragraph v:horizAlign="1"/><v:tabList/>Node 1</text>		</g>
		<g id="shape1351-142" v:mID="1351" v:groupContext="shape" transform="translate(421.97,-88.7739) rotate(-0.1)">
			<title>Rectangle.1351</title>
			<desc>I/O card</desc>
			<v:userDefs>
				<v:ud v:nameU="visVersion" v:val="VT0(15):26"/>
			</v:userDefs>
			<v:textBlock v:margins="rect(4,4,4,4)"/>
			<v:textRect cx="19.9916" cy="600.964" width="39.99" height="22.0721"/>
			<rect x="0" y="589.928" width="39.9831" height="22.0721" class="st4"/>
			<text x="13.49" y="597.96" class="st5" v:langID="1033"><v:paragraph v:horizAlign="1"/><v:tabList/>I/O <tspan x="11.11"
						dy="1.2em" class="st3">card</tspan></text>		</g>
		<g id="shape1352-147" v:mID="1352" v:groupContext="shape" transform="translate(459.609,-88.7322) rotate(-0.1)">
			<title>Rectangle.1352</title>
			<desc>I/O card</desc>
			<v:userDefs>
				<v:ud v:nameU="visVersion" v:val="VT0(15):26"/>
			</v:userDefs>
			<v:textBlock v:margins="rect(4,4,4,4)"/>
			<v:textRect cx="19.9916" cy="600.964" width="39.99" height="22.0721"/>
			<rect x="0" y="589.928" width="39.9831" height="22.0721" class="st4"/>
			<text x="13.49" y="597.96" class="st5" v:langID="1033"><v:paragraph v:horizAlign="1"/><v:tabList/>I/O <tspan x="11.11"
						dy="1.2em" class="st3">card</tspan></text>		</g>
		<g id="shape1353-152" v:mID="1353" v:groupContext="shape" transform="translate(497.248,-88.6905) rotate(-0.1)">
			<title>Rectangle.1353</title>
			<desc>I/O card</desc>
			<v:userDefs>
				<v:ud v:nameU="visVersion" v:val="VT0(15):26"/>
			</v:userDefs>
			<v:textBlock v:margins="rect(4,4,4,4)"/>
			<v:textRect cx="19.9916" cy="600.964" width="39.99" height="22.0721"/>
			<rect x="0" y="589.928" width="39.9831" height="22.0721" class="st4"/>
			<text x="13.49" y="597.96" class="st5" v:langID="1033"><v:paragraph v:horizAlign="1"/><v:tabList/>I/O <tspan x="11.11"
						dy="1.2em" class="st3">card</tspan></text>		</g>
		<g id="shape1354-157" v:mID="1354" v:groupContext="shape" transform="translate(537.255,-88.6462) rotate(-0.1)">
			<title>Rectangle.1354</title>
			<desc>I/O card</desc>
			<v:userDefs>
				<v:ud v:nameU="visVersion" v:val="VT0(15):26"/>
			</v:userDefs>
			<v:textBlock v:margins="rect(4,4,4,4)"/>
			<v:textRect cx="19.9916" cy="600.964" width="39.99" height="22.0721"/>
			<rect x="0" y="589.928" width="39.9831" height="22.0721" class="st4"/>
			<text x="13.49" y="597.96" class="st5" v:langID="1033"><v:paragraph v:horizAlign="1"/><v:tabList/>I/O <tspan x="11.11"
						dy="1.2em" class="st3">card</tspan></text>		</g>
		<g id="shape1355-162" v:mID="1355" v:groupContext="shape" transform="translate(616.513,-45.0399)">
			<title>Rectangle.1355</title>
			<desc>Node 1</desc>
			<v:userDefs>
				<v:ud v:nameU="visVersion" v:val="VT0(15):26"/>
			</v:userDefs>
			<v:textBlock v:margins="rect(4,4,4,4)"/>
			<v:textRect cx="78.2287" cy="579.062" width="156.46" height="65.8768"/>
			<rect x="0" y="546.123" width="156.457" height="65.8768" class="st1"/>
			<text x="63.59" y="582.06" class="st2" v:langID="1033"><v:paragraph v:horizAlign="1"/><v:tabList/>Node 1</text>		</g>
		<g id="shape1356-165" v:mID="1356" v:groupContext="shape" transform="translate(615.484,-88.5595) rotate(-0.1)">
			<title>Rectangle.1356</title>
			<desc>I/O card</desc>
			<v:userDefs>
				<v:ud v:nameU="visVersion" v:val="VT0(15):26"/>
			</v:userDefs>
			<v:textBlock v:margins="rect(4,4,4,4)"/>
			<v:textRect cx="19.9916" cy="600.964" width="39.99" height="22.0721"/>
			<rect x="0" y="589.928" width="39.9831" height="22.0721" class="st4"/>
			<text x="13.49" y="597.96" class="st5" v:langID="1033"><v:paragraph v:horizAlign="1"/><v:tabList/>I/O <tspan x="11.11"
						dy="1.2em" class="st3">card</tspan></text>		</g>
		<g id="shape1357-170" v:mID="1357" v:groupContext="shape" transform="translate(653.123,-88.5178) rotate(-0.1)">
			<title>Rectangle.1357</title>
			<desc>I/O card</desc>
			<v:userDefs>
				<v:ud v:nameU="visVersion" v:val="VT0(15):26"/>
			</v:userDefs>
			<v:textBlock v:margins="rect(4,4,4,4)"/>
			<v:textRect cx="19.9916" cy="600.964" width="39.99" height="22.0721"/>
			<rect x="0" y="589.928" width="39.9831" height="22.0721" class="st4"/>
			<text x="13.49" y="597.96" class="st5" v:langID="1033"><v:paragraph v:horizAlign="1"/><v:tabList/>I/O <tspan x="11.11"
						dy="1.2em" class="st3">card</tspan></text>		</g>
		<g id="shape1358-175" v:mID="1358" v:groupContext="shape" transform="translate(690.762,-88.4761) rotate(-0.1)">
			<title>Rectangle.1358</title>
			<desc>I/O card</desc>
			<v:userDefs>
				<v:ud v:nameU="visVersion" v:val="VT0(15):26"/>
			</v:userDefs>
			<v:textBlock v:margins="rect(4,4,4,4)"/>
			<v:textRect cx="19.9916" cy="600.964" width="39.99" height="22.0721"/>
			<rect x="0" y="589.928" width="39.9831" height="22.0721" class="st4"/>
			<text x="13.49" y="597.96" class="st5" v:langID="1033"><v:paragraph v:horizAlign="1"/><v:tabList/>I/O <tspan x="11.11"
						dy="1.2em" class="st3">card</tspan></text>		</g>
		<g id="shape1359-180" v:mID="1359" v:groupContext="shape" transform="translate(730.769,-88.4318) rotate(-0.1)">
			<title>Rectangle.1359</title>
			<desc>I/O card</desc>
			<v:userDefs>
				<v:ud v:nameU="visVersion" v:val="VT0(15):26"/>
			</v:userDefs>
			<v:textBlock v:margins="rect(4,4,4,4)"/>
			<v:textRect cx="19.9916" cy="600.964" width="39.99" height="22.0721"/>
			<rect x="0" y="589.928" width="39.9831" height="22.0721" class="st4"/>
			<text x="13.49" y="597.96" class="st5" v:langID="1033"><v:paragraph v:horizAlign="1"/><v:tabList/>I/O <tspan x="11.11"
						dy="1.2em" class="st3">card</tspan></text>		</g>
		<g id="shape1360-185" v:mID="1360" v:groupContext="shape" transform="translate(497.626,-18)">
			<title>Sheet.1360</title>
			<desc>Disk Shelf K</desc>
			<v:textBlock v:margins="rect(4,4,4,4)"/>
			<v:textRect cx="100.874" cy="599.648" width="201.75" height="24.7038"/>
			<rect x="0" y="587.296" width="201.748" height="24.7038" class="st7"/>
			<text x="72.8" y="603.25" class="st8" v:langID="1033"><v:paragraph v:horizAlign="1"/><v:tabList/>Disk Shelf K</text>		</g>
		<g id="shape1361-188" v:mID="1361" v:groupContext="shape" transform="translate(423,1159.49) rotate(180)">
			<title>Simple Arrow.1361</title>
			<v:userDefs>
				<v:ud v:nameU="visVersion" v:val="VT0(15):26"/>
				<v:ud v:nameU="ArrowType" v:prompt="" v:val="VT0(2):26"/>
			</v:userDefs>
			<path d="M0 612 L12 589.5 L12 600.75 L54 600.75 L54 612 L54 623.25 L12 623.25 L12 634.5 L0 612 Z" class="st6"/>
		</g>
		<g id="shape1362-190" v:mID="1362" v:groupContext="shape" v:layerMember="0" transform="translate(361.12,-570.373)">
			<title>Dynamic connector.1362</title>
			<path d="M0 612 L-301.75 612 L-301.75 705.37" class="st9"/>
		</g>
		<g id="shape1363-193" v:mID="1363" v:groupContext="shape" v:layerMember="0" transform="translate(361.12,-570.373)">
			<title>Dynamic connector.1363</title>
			<path d="M0 612 L-161.97 612 L-161.97 705.37" class="st9"/>
		</g>
		<g id="shape1364-196" v:mID="1364" v:groupContext="shape" v:layerMember="0" transform="translate(432,-570.373)">
			<title>Dynamic connector.1364</title>
			<path d="M0 612 L298.15 612 L298.15 705.37" class="st9"/>
		</g>
		<g id="shape1365-199" v:mID="1365" v:groupContext="shape" v:layerMember="0" transform="translate(432,-570.373)">
			<title>Dynamic connector.1365</title>
			<path d="M0 612 L158.37 612 L158.37 705.37" class="st9"/>
		</g>
		<g id="shape1366-202" v:mID="1366" v:groupContext="shape" v:layerMember="0" transform="translate(361.12,-509.627)">
			<title>Dynamic connector.1366</title>
			<path d="M0 612 L-289.12 612 L-289.12 644.63" class="st10"/>
		</g>
		<g id="shape1367-205" v:mID="1367" v:groupContext="shape" v:layerMember="0" transform="translate(361.12,-509.627)">
			<title>Dynamic connector.1367</title>
			<path d="M0 612 L-145.12 612 L-145.12 644.63 L-149.62 644.63" class="st10"/>
		</g>
		<g id="shape1368-208" v:mID="1368" v:groupContext="shape" v:layerMember="0" transform="translate(432,-509.627)">
			<title>Dynamic connector.1368</title>
			<path d="M0 612 L144 612 L144 644.63" class="st10"/>
		</g>
		<g id="shape1369-211" v:mID="1369" v:groupContext="shape" v:layerMember="0" transform="translate(432,-509.627)">
			<title>Dynamic connector.1369</title>
			<path d="M0 612 L283.5 612 L283.5 642.38" class="st10"/>
		</g>
		<g id="shape1370-214" v:mID="1370" v:groupContext="shape" v:layerMember="0" transform="translate(162.281,-318)">
			<title>Dynamic connector.1370</title>
			<path d="M8.72 612 L8.72 565.5 L9.28 565.5" class="st9"/>
		</g>
		<g id="shape1371-217" v:mID="1371" v:groupContext="shape" v:layerMember="0" transform="translate(630,-318)">
			<title>Dynamic connector.1371</title>
			<path d="M-9 612 L-9 579" class="st10"/>
		</g>
		<g id="shape1372-220" v:mID="1372" v:groupContext="shape" v:layerMember="0" transform="translate(171,-364.5)">
			<title>Dynamic connector.1372</title>
			<path d="M0 612 L25.38 612 L25.38 580.5" class="st9"/>
		</g>
		<g id="shape1373-223" v:mID="1373" v:groupContext="shape" v:layerMember="0" transform="translate(171,-364.5)">
			<title>Dynamic connector.1373</title>
			<path d="M0 612 L-20.48 612 L-20.48 580.5" class="st9"/>
		</g>
		<g id="shape1374-226" v:mID="1374" v:groupContext="shape" v:layerMember="0" transform="translate(171,-364.5)">
			<title>Dynamic connector.1374</title>
			<path d="M0 612 L-65.48 612 L-65.48 580.5" class="st9"/>
		</g>
		<g id="shape1375-229" v:mID="1375" v:groupContext="shape" v:layerMember="0" transform="translate(171,-364.5)">
			<title>Dynamic connector.1375</title>
			<path d="M0 612 L-111.63 612 L-111.63 580.5" class="st9"/>
		</g>
		<g id="shape1376-232" v:mID="1376" v:groupContext="shape" v:layerMember="0" transform="translate(621,-351)">
			<title>Dynamic connector.1376</title>
			<path d="M0 612 L-30.63 612 L-30.63 563.59" class="st10"/>
		</g>
		<g id="shape1377-235" v:mID="1377" v:groupContext="shape" v:layerMember="0" transform="translate(619.759,-351)">
			<title>Dynamic connector.1377</title>
			<path d="M1.24 612 L16.76 612 L16.76 563.59" class="st10"/>
		</g>
		<g id="shape1378-238" v:mID="1378" v:groupContext="shape" v:layerMember="0" transform="translate(621,-351)">
			<title>Dynamic connector.1378</title>
			<path d="M0 612 L60.52 612 L60.52 563.59" class="st10"/>
		</g>
		<g id="shape1379-241" v:mID="1379" v:groupContext="shape" v:layerMember="0" transform="translate(621,-351)">
			<title>Dynamic connector.1379</title>
			<path d="M0 612 L106.38 612 L106.38 563.59" class="st10"/>
		</g>
		<g id="shape1380-244" v:mID="1380" v:groupContext="shape" v:layerMember="0" transform="translate(63,-258)">
			<title>Dynamic connector.1380</title>
			<path d="M-9 612 L-9 739.5" class="st9"/>
		</g>
		<g id="shape1385-247" v:mID="1385" v:groupContext="shape" v:layerMember="0" transform="translate(85.5,-258)">
			<title>Dynamic connector.1385</title>
			<path d="M0 612 L0 708 L139.5 708" class="st9"/>
		</g>
		<g id="shape1386-250" v:mID="1386" v:groupContext="shape" v:layerMember="0" transform="translate(230.905,-162)">
			<title>Dynamic connector.1386</title>
			<path d="M-5.91 612 L-5.91 663.35 L-12.09 663.35" class="st9"/>
		</g>
		<g id="shape1387-253" v:mID="1387" v:groupContext="shape" v:layerMember="0" transform="translate(225,-162)">
			<title>Dynamic connector.1387</title>
			<path d="M0 612 L0 643.5 L31.5 643.5" class="st9"/>
		</g>
		<g id="shape1388-256" v:mID="1388" v:groupContext="shape" v:layerMember="0" transform="translate(264.937,-130.5)">
			<title>Dynamic connector.1388</title>
			<path d="M-8.44 612 L-8.44 631.9 L-9.56 631.9" class="st9"/>
		</g>
		<g id="shape1389-259" v:mID="1389" v:groupContext="shape" v:layerMember="0" transform="translate(256.5,-121.5)">
			<title>Dynamic connector.1389</title>
			<path d="M0 603 L38.25 603" class="st9"/>
		</g>
		<g id="shape1390-262" v:mID="1390" v:groupContext="shape" v:layerMember="0" transform="translate(285.75,-130.5)">
			<title>Dynamic connector.1390</title>
			<path d="M9 612 L9 630" class="st9"/>
		</g>
		<g id="shape1391-265" v:mID="1391" v:groupContext="shape" v:layerMember="0" transform="translate(294.75,-130.5)">
			<title>Dynamic connector.1391</title>
			<path d="M0 612 L33.75 612 L33.75 631.98 L38.25 631.98" class="st9"/>
		</g>
		<g id="shape1392-268" v:mID="1392" v:groupContext="shape" v:layerMember="0" transform="translate(322.31,-279)">
			<title>Dynamic connector.1392</title>
			<desc>ISL</desc>
			<v:textBlock v:margins="rect(4,4,4,4)"/>
			<v:textRect cx="73.6901" cy="603" width="60.01" height="22.4037"/>
			<path d="M0 603 L147.38 603" class="st9"/>
			<rect v:rectContext="textBkgnd" x="66.899" y="595.8" width="13.5821" height="14.4001" class="st11"/>
			<text x="66.9" y="606.6" class="st12" v:langID="1033"><v:paragraph v:horizAlign="1"/><v:tabList/>ISL</text>		</g>
		<g id="shape1393-273" v:mID="1393" v:groupContext="shape" v:layerMember="0" transform="translate(225,-258)">
			<title>Dynamic connector.1393</title>
			<path d="M0 612 L0 699 L216 699" class="st9"/>
		</g>
		<g id="shape1394-276" v:mID="1394" v:groupContext="shape" v:layerMember="0" transform="translate(450,-171)">
			<title>Dynamic connector.1394</title>
			<path d="M-9 612 L-9 650.25" class="st9"/>
		</g>
		<g id="shape1395-279" v:mID="1395" v:groupContext="shape" transform="translate(429.75,-111.029)">
			<title>Sheet.1395</title>
			<rect x="0" y="592.529" width="11.25" height="19.4712" class="st7"/>
		</g>
		<g id="shape1396-281" v:mID="1396" v:groupContext="shape" v:layerMember="0" transform="translate(444.375,-130.5)">
			<title>Dynamic connector.1396</title>
			<path d="M-3.38 612 L-14.62 612 L-14.62 631.47" class="st9"/>
		</g>
		<g id="shape1397-284" v:mID="1397" v:groupContext="shape" v:layerMember="0" transform="translate(441,-130.5)">
			<title>Dynamic connector.1397</title>
			<path d="M0 612 L27 612 L27 631.68" class="st9"/>
		</g>
		<g id="shape1398-287" v:mID="1398" v:groupContext="shape" v:layerMember="0" transform="translate(441,-130.5)">
			<title>Dynamic connector.1398</title>
			<path d="M0 612 L64.16 612 L64.16 631.72" class="st9"/>
		</g>
		<g id="shape1399-290" v:mID="1399" v:groupContext="shape" v:layerMember="0" transform="translate(441,-130.5)">
			<title>Dynamic connector.1399</title>
			<path d="M0 612 L103.5 612 L103.5 630" class="st9"/>
		</g>
		<g id="shape1400-293" v:mID="1400" v:groupContext="shape" v:layerMember="0" transform="translate(279,-258)">
			<title>Dynamic connector.1400</title>
			<path d="M0 612 L0 685.5 L414 685.5" class="st9"/>
		</g>
		<g id="shape1401-296" v:mID="1401" v:groupContext="shape" v:layerMember="0" transform="translate(702,-184.5)">
			<title>Dynamic connector.1401</title>
			<path d="M-9 612 L-9 661.5" class="st9"/>
		</g>
		<g id="shape1402-299" v:mID="1402" v:groupContext="shape" v:layerMember="0" transform="translate(693,-135)">
			<title>Dynamic connector.1402</title>
			<path d="M0 612 L-68.62 612 L-68.62 634.5" class="st9"/>
		</g>
		<g id="shape1403-302" v:mID="1403" v:groupContext="shape" v:layerMember="0" transform="translate(693,-135)">
			<title>Dynamic connector.1403</title>
			<path d="M0 612 L-31.5 612 L-31.5 634.5" class="st9"/>
		</g>
		<g id="shape1404-305" v:mID="1404" v:groupContext="shape" v:layerMember="0" transform="translate(687.094,-135)">
			<title>Dynamic connector.1404</title>
			<path d="M5.91 612 L12.09 612 L12.09 634.5" class="st9"/>
		</g>
		<g id="shape1405-308" v:mID="1405" v:groupContext="shape" v:layerMember="0" transform="translate(693,-135)">
			<title>Dynamic connector.1405</title>
			<path d="M0 612 L45 612 L45 634.5" class="st9"/>
		</g>
		<g id="shape1406-311" v:mID="1406" v:groupContext="shape" v:layerMember="0" transform="translate(738,-256.5)">
			<title>Dynamic connector.1406</title>
			<desc>4:1 breakout cable</desc>
			<v:textBlock v:margins="rect(4,4,4,4)"/>
			<v:textRect cx="9" cy="668.25" width="58.4" height="27.2035"/>
			<path d="M9 612 L9 724.5" class="st10"/>
			<rect v:rectContext="textBkgnd" x="-15.2926" y="658.65" width="48.5854" height="19.1997" class="st11"/>
			<text x="3.87" y="665.85" class="st13" v:langID="1033"><v:paragraph v:horizAlign="1"/><v:tabList/>4:1 <v:newlineChar/><tspan
						x="-15.29" dy="1.2em" class="st3">breakout cable</tspan></text>		</g>
		<g id="shape1411-317" v:mID="1411" v:groupContext="shape" v:layerMember="0" transform="translate(657,-258)">
			<title>Dynamic connector.1411</title>
			<path d="M9 612 L9 699" class="st10"/>
		</g>
		<g id="shape1412-320" v:mID="1412" v:groupContext="shape" v:layerMember="0" transform="translate(666,-180)">
			<title>Dynamic connector.1412</title>
			<path d="M0 621 L-126 621" class="st10"/>
		</g>
		<g id="shape1413-323" v:mID="1413" v:groupContext="shape" v:layerMember="0" transform="translate(549,-171)">
			<title>Dynamic connector.1413</title>
			<path d="M-9 612 L-9 636.19" class="st10"/>
		</g>
		<g id="shape1414-326" v:mID="1414" v:groupContext="shape" v:layerMember="0" transform="translate(540,-146.812)">
			<title>Dynamic connector.1414</title>
			<path d="M0 612 L-90 612 L-90 644.06" class="st10"/>
		</g>
		<g id="shape1415-329" v:mID="1415" v:groupContext="shape" v:layerMember="0" transform="translate(540,-146.813)">
			<title>Dynamic connector.1415</title>
			<path d="M0 612 L-59.37 612 L-59.37 647.97" class="st10"/>
		</g>
		<g id="shape1416-332" v:mID="1416" v:groupContext="shape" v:layerMember="0" transform="translate(540,-146.813)">
			<title>Dynamic connector.1416</title>
			<path d="M0 612 L-21.73 612 L-21.73 648.01" class="st10"/>
		</g>
		<g id="shape1417-335" v:mID="1417" v:groupContext="shape" v:layerMember="0" transform="translate(540,-146.813)">
			<title>Dynamic connector.1417</title>
			<path d="M0 612 L18.28 612 L18.28 648.06" class="st10"/>
		</g>
		<g id="shape1418-338" v:mID="1418" v:groupContext="shape" v:layerMember="0" transform="translate(558,-258)">
			<title>Dynamic connector.1418</title>
			<path d="M0 612 L0 672 L-297 672 L-297 712.5" class="st10"/>
		</g>
		<g id="shape1419-341" v:mID="1419" v:groupContext="shape" v:layerMember="0" transform="translate(252,-159.75)">
			<title>Dynamic connector.1419</title>
			<path d="M9 614.25 L9 627.75" class="st10"/>
		</g>
		<g id="shape1424-344" v:mID="1424" v:groupContext="shape" v:layerMember="0" transform="translate(504,-258)">
			<title>Dynamic connector.1424</title>
			<path d="M0 612 L0 654 L-436.5 654" class="st10"/>
		</g>
		<g id="shape1425-347" v:mID="1425" v:groupContext="shape" v:layerMember="0" transform="translate(77.625,-216)">
			<title>Dynamic connector.1425</title>
			<path d="M-9 612 L-9 684" class="st10"/>
		</g>
		<g id="shape1430-350" v:mID="1430" v:groupContext="shape" v:layerMember="0" transform="translate(54,-130.5)">
			<title>Dynamic connector.1430</title>
			<path d="M0 612 L-27.28 612 L-27.28 631.64" class="st9"/>
		</g>
		<g id="shape1431-353" v:mID="1431" v:groupContext="shape" v:layerMember="0" transform="translate(49.3584,-130.5)">
			<title>Dynamic connector.1431</title>
			<path d="M4.64 612 L13.36 612 L13.36 631.68" class="st9"/>
		</g>
		<g id="shape1432-356" v:mID="1432" v:groupContext="shape" v:layerMember="0" transform="translate(54,-130.5)">
			<title>Dynamic connector.1432</title>
			<path d="M0 612 L42.23 612 L42.23 631.58" class="st9"/>
		</g>
		<g id="shape1433-359" v:mID="1433" v:groupContext="shape" v:layerMember="0" transform="translate(54,-130.5)">
			<title>Dynamic connector.1433</title>
			<path d="M0 612 L87.75 612 L87.75 630" class="st9"/>
		</g>
		<g id="shape1434-362" v:mID="1434" v:groupContext="shape" v:layerMember="0" transform="translate(63.1278,-144.663)">
			<title>Dynamic connector.1434</title>
			<path d="M5.5 612 L12.5 612 L12.5 645.82" class="st10"/>
		</g>
		<g id="shape1435-365" v:mID="1435" v:groupContext="shape" v:layerMember="0" transform="translate(68.625,-144.663)">
			<title>Dynamic connector.1435</title>
			<path d="M0 612 L-30.63 612 L-30.63 645.78" class="st10"/>
		</g>
		<g id="shape1436-368" v:mID="1436" v:groupContext="shape" v:layerMember="0" transform="translate(68.625,-144.663)">
			<title>Dynamic connector.1436</title>
			<path d="M0 612 L44.64 612 L44.64 645.86" class="st10"/>
		</g>
		<g id="shape1437-371" v:mID="1437" v:groupContext="shape" v:layerMember="0" transform="translate(68.625,-144.663)">
			<title>Dynamic connector.1437</title>
			<path d="M0 612 L84.37 612 L84.37 644.16" class="st10"/>
		</g>
		<g id="shape1438-374" v:mID="1438" v:groupContext="shape" v:layerMember="0" transform="translate(261,-144)">
			<title>Dynamic connector.1438</title>
			<path d="M0 612 L-29.49 612 L-29.49 645.33" class="st10"/>
		</g>
		<g id="shape1439-377" v:mID="1439" v:groupContext="shape" v:layerMember="0" transform="translate(256.072,-144)">
			<title>Dynamic connector.1439</title>
			<path d="M4.93 612 L13.07 612 L13.07 645.37" class="st10"/>
		</g>
		<g id="shape1440-380" v:mID="1440" v:groupContext="shape" v:layerMember="0" transform="translate(261,-144)">
			<title>Dynamic connector.1440</title>
			<path d="M0 612 L45.78 612 L45.78 645.42" class="st10"/>
		</g>
		<g id="shape1441-383" v:mID="1441" v:groupContext="shape" v:layerMember="0" transform="translate(261,-144)">
			<title>Dynamic connector.1441</title>
			<path d="M0 612 L85.79 612 L85.79 645.46" class="st10"/>
		</g>
		<g id="shape1442-386" v:mID="1442" v:groupContext="shape" v:layerMember="0" transform="translate(272.25,-318)">
			<title>Dynamic connector.1442</title>
			<desc>4:1 breakout cable</desc>
			<v:textBlock v:margins="rect(4,4,4,4)"/>
			<v:textRect cx="150.75" cy="561" width="70.46" height="17.6036"/>
			<path d="M0 612 L-0 561 L441 561" class="st9"/>
			<rect v:rectContext="textBkgnd" x="120.428" y="556.2" width="60.6443" height="9.59985" class="st11"/>
			<text x="120.43" y="563.4" class="st13" v:langID="1033"><v:paragraph v:horizAlign="1"/><v:tabList/>4:1 breakout cable</text>		</g>
		<g id="shape1443-391" v:mID="1443" v:groupContext="shape" v:layerMember="0" transform="translate(567,-399.405)">
			<title>Dynamic connector.1443</title>
			<path d="M9 612 L9 642.41" class="st9"/>
		</g>
		<g id="shape1444-394" v:mID="1444" v:groupContext="shape" v:layerMember="0" transform="translate(612,-399.405)">
			<title>Dynamic connector.1444</title>
			<path d="M9 612 L9 642.41" class="st9"/>
		</g>
		<g id="shape1445-397" v:mID="1445" v:groupContext="shape" v:layerMember="0" transform="translate(661.5,-399.405)">
			<title>Dynamic connector.1445</title>
			<path d="M9 612 L9 642.41" class="st9"/>
		</g>
		<g id="shape1446-400" v:mID="1446" v:groupContext="shape" v:layerMember="0" transform="translate(704.25,-399.405)">
			<title>Dynamic connector.1446</title>
			<path d="M9 612 L9 642.41" class="st9"/>
		</g>
		<g id="shape1447-403" v:mID="1447" v:groupContext="shape" v:layerMember="0" transform="translate(522,-318)">
			<title>Dynamic connector.1447</title>
			<path d="M0 612 L0 579 L-297 579" class="st10"/>
		</g>
		<g id="shape1448-406" v:mID="1448" v:groupContext="shape" v:layerMember="0" transform="translate(216,-342)">
			<title>Dynamic connector.1448</title>
		</g>
		<g id="shape1449-407" v:mID="1449" v:groupContext="shape" v:layerMember="0" transform="translate(225,-351)">
			<title>Dynamic connector.1449</title>
			<path d="M0 612 L-153 612 L-153 569.25" class="st10"/>
		</g>
		<g id="shape1450-410" v:mID="1450" v:groupContext="shape" v:layerMember="0" transform="translate(225,-351)">
			<title>Dynamic connector.1450</title>
			<path d="M0 612 L-109.13 612 L-109.13 569.25" class="st10"/>
		</g>
		<g id="shape1451-413" v:mID="1451" v:groupContext="shape" v:layerMember="0" transform="translate(225,-351)">
			<title>Dynamic connector.1451</title>
			<path d="M0 612 L-68.1 612 L-68.1 567 L-64.13 567" class="st10"/>
		</g>
		<g id="shape1452-416" v:mID="1452" v:groupContext="shape" v:layerMember="0" transform="translate(225.563,-351)">
			<title>Dynamic connector.1452</title>
			<path d="M-0.56 612 L-17.44 612 L-17.44 567" class="st10"/>
		</g>
		<g id="shape1453-419" v:mID="1453" v:groupContext="shape" v:layerMember="0" transform="translate(747,-144)">
			<title>Dynamic connector.1453</title>
			<path d="M0 612 L-110.49 612 L-110.49 645.33" class="st10"/>
		</g>
		<g id="shape1454-422" v:mID="1454" v:groupContext="shape" v:layerMember="0" transform="translate(747,-144)">
			<title>Dynamic connector.1454</title>
			<path d="M0 612 L-72.86 612 L-72.86 645.37" class="st10"/>
		</g>
		<g id="shape1455-425" v:mID="1455" v:groupContext="shape" v:layerMember="0" transform="translate(747,-144)">
			<title>Dynamic connector.1455</title>
			<path d="M0 612 L-35.22 612 L-35.22 645.42" class="st10"/>
		</g>
		<g id="shape1456-428" v:mID="1456" v:groupContext="shape" v:layerMember="0" transform="translate(740.395,-144)">
			<title>Dynamic connector.1456</title>
			<path d="M6.61 612 L11.39 612 L11.39 645.46" class="st10"/>
		</g>
	</g>
</svg>
