<?xml version="1.0" encoding="UTF-8"?><svg xmlns="http://www.w3.org/2000/svg" width="5.95in" height="2.75in" xmlns:xlink="http://www.w3.org/1999/xlink" viewBox="0 0 428.4 198"><defs><clipPath id="b"><polygon points="118.71 111.22 120.1 172.53 148.57 169.54 146.55 109.55 118.71 111.22" fill="none" stroke-width="0"/></clipPath><clipPath id="g"><circle cx="385.58" cy="54.97" r="40.25" fill="none" stroke-width="0"/></clipPath></defs><g id="a"><path d="M153.01,140.3l58.92-4.74,5.72,2.53-9.83.88,1.54.92-41.04,3.68s-3.55.18-5.02-.18-9.25-2.27-9.25-2.27l-1.04-.81Z" fill="none" stroke="#231f20" stroke-linecap="round" stroke-linejoin="round" stroke-width=".5"/><path d="M207.03,139.99l-5.87-2.64-44.38,3.49,8.42,2.01s2.78.55,5.13.5" fill="none" stroke="#231f20" stroke-linecap="round" stroke-linejoin="round" stroke-width=".5"/><line x1="201.07" y1="137.35" x2="201.14" y2="140.47" fill="none" stroke="#231f20" stroke-linecap="round" stroke-linejoin="round" stroke-width=".5"/><path d="M209.36,139.89v10.07l-41.07,3.89s-3.47.34-5.42-.34-9.06-2.79-9.06-2.79l-.59-.68-.21-9.74" fill="none" stroke="#231f20" stroke-linecap="round" stroke-linejoin="round" stroke-width=".5"/><path d="M209.18,139.63l9.86-.91s1.13,3.13.25,9.94l-9.76,1.06" fill="none" stroke="#231f20" stroke-linecap="round" stroke-linejoin="round" stroke-width=".5"/><line x1="217.84" y1="138.8" x2="216.78" y2="138.33" fill="none" stroke="#231f20" stroke-linecap="round" stroke-linejoin="round" stroke-width=".5"/><line x1="211.69" y1="164.26" x2="211.69" y2="149.61" fill="none" stroke="#231f20" stroke-linecap="round" stroke-linejoin="round" stroke-width=".5"/><line x1="213.69" y1="164.08" x2="213.69" y2="149.43" fill="none" stroke="#e90089" stroke-linecap="round" stroke-linejoin="round" stroke-width=".5"/><polyline points="210.34 149.73 210.24 161.25 156.17 166.93" fill="none" stroke="#231f20" stroke-linecap="round" stroke-linejoin="round" stroke-width=".5"/><polyline points="156 151.71 156.09 154.55 156.17 166.93 156.19 169.91" fill="none" stroke="#231f20" stroke-linecap="round" stroke-linejoin="round" stroke-width=".5"/><line x1="164.98" y1="153.98" x2="156.09" y2="154.55" fill="none" stroke="#231f20" stroke-linecap="round" stroke-linejoin="round" stroke-width=".5"/><polyline points="164.59 159.38 158.75 159.88 156.86 158.64 156.86 155.34 166.64 154.64 167.14 154.94 169.33 154.79 169.33 158.64 168.28 158.84" fill="none" stroke="#231f20" stroke-linecap="round" stroke-linejoin="round" stroke-width=".5"/><line x1="158.75" y1="159.88" x2="158.75" y2="156.59" fill="none" stroke="#231f20" stroke-linecap="round" stroke-linejoin="round" stroke-width=".5"/><polyline points="156.86 155.34 158.75 156.59 165.84 156.04 164.89 156.69 164.89 160.13 166.74 160.23 168.28 158.84 168.28 155.84 166.89 156.94 164.99 156.89" fill="none" stroke="#231f20" stroke-linecap="round" stroke-linejoin="round" stroke-width=".5"/><line x1="168.28" y1="155.84" x2="169.23" y2="155.69" fill="none" stroke="#231f20" stroke-linecap="round" stroke-linejoin="round" stroke-width=".5"/><path d="M177.91,164.79l6.75,1.77s.71.33-.01.73l-4.85.58c-.07,0-.15,0-.22-.02l-8.03-2.25" fill="none" stroke="#231f20" stroke-linecap="round" stroke-linejoin="round" stroke-width=".5"/><path d="M172.32,167.58l7.25,2.12c.07.02.15.03.22.02l4.85-.58.39-.29.02-1.75" fill="none" stroke="#231f20" stroke-linecap="round" stroke-linejoin="round" stroke-width=".5"/><path d="M171.94,166.69v2.1s-.41.64-.41.64l-2.23.02v-.82l-1.77-.53v-2.16l1.77.53v.82l2.23-.02.4-.64-2.72-.86" fill="none" stroke="#231f20" stroke-linecap="round" stroke-linejoin="round" stroke-width=".5"/><line x1="179.56" y1="167.84" x2="179.56" y2="169.73" fill="none" stroke="#231f20" stroke-linecap="round" stroke-linejoin="round" stroke-width=".5"/><line x1="171.05" y1="167.48" x2="171.05" y2="169.37" fill="none" stroke="#231f20" stroke-linecap="round" stroke-linejoin="round" stroke-width=".5"/><line x1="169.39" y1="167.33" x2="169.39" y2="169.23" fill="none" stroke="#231f20" stroke-linecap="round" stroke-linejoin="round" stroke-width=".5"/><path d="M211.41,163.14l-2.44-1.71s-2.8,2.24-5.12,2.73l-19.91,2.03" fill="none" stroke="#231f20" stroke-linecap="round" stroke-linejoin="round" stroke-width=".5"/><path d="M149.79,168.5s2.34-.52,2.4-4.22" fill="none" stroke="#231f20" stroke-linecap="round" stroke-linejoin="round" stroke-width=".5"/><line x1="151.54" y1="121.46" x2="152.34" y2="170.3" fill="none" stroke="#231f20" stroke-linecap="round" stroke-linejoin="round" stroke-width=".5"/><path d="M147.97,119.76h-.81l.54,1.21.61,38.55,2.29,1.95s.47,4.92-.74,6.07" fill="none" stroke="#231f20" stroke-linecap="round" stroke-linejoin="round" stroke-width=".5"/><path d="M147.8,117.93l-.5-.4v-1.95l-.9-1.95v-2.46h.9c0,.15-.05-2.06-.05-2.06l.2.1,1.45.7v7.62l.9-1.71h3.2v2.04l-.87,2.12v1.06h-3.34v-.98l1.14-2.24-.06-1.99" fill="none" stroke="#231f20" stroke-linecap="round" stroke-linejoin="round" stroke-width=".5"/><polyline points="148.21 120.73 148.21 115.67 147.8 115.32" fill="none" stroke="#231f20" stroke-linecap="round" stroke-linejoin="round" stroke-width=".5"/><polyline points="147.46 108.96 149.86 108.96 151.66 109.75 151.66 115.52" fill="none" stroke="#231f20" stroke-linecap="round" stroke-linejoin="round" stroke-width=".5"/><line x1="148.91" y1="109.91" x2="151.66" y2="109.91" fill="none" stroke="#231f20" stroke-linecap="round" stroke-linejoin="round" stroke-width=".5"/><line x1="149.93" y1="117.81" x2="153" y2="117.81" fill="none" stroke="#231f20" stroke-linecap="round" stroke-linejoin="round" stroke-width=".5"/><line x1="148.79" y1="120.05" x2="152.13" y2="120.05" fill="none" stroke="#231f20" stroke-linecap="round" stroke-linejoin="round" stroke-width=".5"/><line x1="149.64" y1="160.81" x2="149.64" y2="170.78" fill="none" stroke="#231f20" stroke-linecap="round" stroke-linejoin="round" stroke-width=".5"/><line x1="208.52" y1="130.03" x2="208.52" y2="134.8" fill="none" stroke="#231f20" stroke-linecap="round" stroke-linejoin="round" stroke-width=".5"/><line x1="208.52" y1="104.04" x2="208.52" y2="115.43" fill="none" stroke="#231f20" stroke-linecap="round" stroke-linejoin="round" stroke-width=".5"/><path d="M156.85,139.85c-2.82-.34-3.3-2.61-3.3-2.61l-.19-26.86s-.34-3.78,4.81-3.98" fill="none" stroke="#231f20" stroke-linecap="round" stroke-linejoin="round" stroke-width=".5"/><path d="M186.73,106.33s-.96-1.3-3.43-1.3" fill="none" stroke="#231f20" stroke-linecap="round" stroke-linejoin="round" stroke-width=".5"/><path d="M157.34,113.41l5.56-5.56,5.56-.55s1.03.82.96,2.4l-.48.55s-4.88.34-8.45,5.91l-2.2-.89s-1.17-1.1-.96-1.85Z" fill="none" stroke="#231f20" stroke-linecap="round" stroke-linejoin="round" stroke-width=".5"/><path d="M170.66,109.97s-.14-2.27-.62-2.68l5.91-.21,5.98,5.22s-1.58,2.47-2.47,2.54c0,0-2.95-4.74-8.79-4.88Z" fill="none" stroke="#231f20" stroke-linecap="round" stroke-linejoin="round" stroke-width=".5"/><path d="M187.08,131.54s14.01-.96,14.97-1.1.89-.89.89-.89l.21-22.6c0-1.1-1.1-1.1-1.1-1.1l-16.04.81s-.72-.19-.72.81v11.82" fill="none" stroke="#231f20" stroke-linecap="round" stroke-linejoin="round" stroke-width=".5"/><path d="M154.73,118.76s-.41-2.4,1.3-3.37l1.99,1.03,1.92.69,3.09,1.72s-1.37,3.91.27,7.07c0,0-3.91,3.09-5.15,3.09" fill="none" stroke="#231f20" stroke-linecap="round" stroke-linejoin="round" stroke-width=".5"/><path d="M161.53,116.57l2.4,1.24s1.58-3.02,5.29-3.78l.07-2.54s-3.78-.62-7.76,5.08Z" fill="none" stroke="#231f20" stroke-linecap="round" stroke-linejoin="round" stroke-width=".5"/><path d="M170.73,114.02s3.43,0,5.77,2.88l1.99-1.37s-3.09-4.19-7.76-4.26v2.75Z" fill="none" stroke="#231f20" stroke-linecap="round" stroke-linejoin="round" stroke-width=".5"/><path d="M163.93,127.14l-2.06,1.65s2.2,3.91,7.76,3.85l-.14-2.68s-2.68.14-5.56-2.82Z" fill="none" stroke="#231f20" stroke-linecap="round" stroke-linejoin="round" stroke-width=".5"/><path d="M170.73,129.96l.27,2.47s5.01-.27,7.62-5.22l-2.06-1.03s-2.13,3.3-5.84,3.78Z" fill="none" stroke="#231f20" stroke-linecap="round" stroke-linejoin="round" stroke-width=".5"/><path d="M183.21,127.25l-.11.41-.49.49-.92-.76-.92-.38c-.92-.43-3.46-2.11-3.46-2.11,1.78-3.35-.11-6.86-.11-6.86,0,0,3.08-1.08,4.21-3.51,0,0,1.24-.54,1.51-1.03,0,0,.97.05,1.03,1.13v2.27" fill="none" stroke="#231f20" stroke-linecap="round" stroke-linejoin="round" stroke-width=".5"/><path d="M188.34,113.89l3.84-4.43,6.43-.49s1.84.38,1.84,3.3-.11,12.8-.11,12.8c0,0-.11,2.38-1.84,2.7s-6.43.7-6.43.7l-3.84-3.67.11-10.91Z" fill="none" stroke="#231f20" stroke-linecap="round" stroke-linejoin="round" stroke-width=".5"/><path d="M189.69,126.1l3.4-.16s2.11-.65,2.22-2.76l.05-13.89" fill="none" stroke="#231f20" stroke-linecap="round" stroke-linejoin="round" stroke-width=".5"/><path d="M177.43,134.53c2.97-2.65,4.48-5.4,4.48-5.4-.7-.86-2.38-1.13-2.38-1.13-3.46,5.4-8.64,5.84-8.64,5.84,0,0,.49.59-.32,1.35" fill="none" stroke="#231f20" stroke-linecap="round" stroke-linejoin="round" stroke-width=".5"/><path d="M169.32,135.07c.65-.7-.05-1.24-.05-1.24-5.13.27-8.64-4.48-8.64-4.48l-2.38.92" fill="none" stroke="#231f20" stroke-linecap="round" stroke-linejoin="round" stroke-width=".5"/><path d="M156.79,130.96l2.32-.05.27,3.78s.27,1.4,1.73,1.3,23.12-1.95,23.12-1.95c0,0,.76.16.7-1.19s-.22-3.67-.22-3.67l1.95-.05.38,4.27s.54,2.32-1.51,3.03l-26.15,2.16s-2.16-.22-2.38-2.54l-.22-5.08Z" fill="none" stroke="#231f20" stroke-linecap="round" stroke-linejoin="round" stroke-width=".5"/><path d="M156.79,130.96l-1.62.65.05,4.27s.38,3.35,4.16,2.7" fill="none" stroke="#231f20" stroke-linecap="round" stroke-linejoin="round" stroke-width=".5"/><polyline points="182.99 133.88 182.78 129.66 184.72 129.18" fill="none" stroke="#231f20" stroke-linecap="round" stroke-linejoin="round" stroke-width=".5"/><path d="M154.9,119.29v7.46s2.05,1.08,2.27-2.59c0,0,.32-4.86-2.27-4.86Z" fill="none" stroke="#231f20" stroke-linecap="round" stroke-linejoin="round" stroke-width=".5"/><path d="M156.74,119.99c2.27-.26,1.78,5.06,1.78,5.06l-1.17.08v2.12l-.36.88v2.73" fill="none" stroke="#231f20" stroke-linecap="round" stroke-linejoin="round" stroke-width=".5"/><polyline points="158.32 125.33 158.32 127.25 157.95 128.14 157.95 130.86" fill="none" stroke="#231f20" stroke-linecap="round" stroke-linejoin="round" stroke-width=".5"/><polyline points="156.23 126.69 156.23 127.5 155.87 128.38 155.87 131.1" fill="none" stroke="#231f20" stroke-linecap="round" stroke-linejoin="round" stroke-width=".5"/><path d="M182.71,126.41l1.56-.17-.17-2.42.45-.53v-3.23s-.56-1.67-1.7-1.5c0,0-.97.11-1.06,1.92v2.76l.7.86.22,2.31Z" fill="none" stroke="#231f20" stroke-linecap="round" stroke-linejoin="round" stroke-width=".5"/><path d="M184.46,126.16l.14-.07.61-.29-.17-2.13.45-.53v-3.23s-.56-1.67-1.7-1.5l-.95.14" fill="none" stroke="#231f20" stroke-linecap="round" stroke-linejoin="round" stroke-width=".5"/><polyline points="183.32 126.41 183.32 127.97 183.82 128.6 183.82 129.2" fill="none" stroke="#231f20" stroke-linecap="round" stroke-linejoin="round" stroke-width=".5"/><polyline points="184.25 126.14 184.25 127.71 184.75 128.34 184.75 128.94" fill="none" stroke="#231f20" stroke-linecap="round" stroke-linejoin="round" stroke-width=".5"/><polyline points="185.15 125.88 185.15 127.44 185.65 128.07 185.65 128.67" fill="none" stroke="#231f20" stroke-linecap="round" stroke-linejoin="round" stroke-width=".5"/><ellipse cx="183.14" cy="121.46" rx=".51" ry="1.39" fill="none" stroke="#231f20" stroke-linecap="round" stroke-linejoin="round" stroke-width=".5"/><ellipse cx="155.9" cy="123.04" rx=".51" ry="1.39" fill="none" stroke="#231f20" stroke-linecap="round" stroke-linejoin="round" stroke-width=".5"/><ellipse cx="182.21" cy="108.4" rx="2.43" ry="2.35" transform="translate(5.31 225.27) rotate(-64.2)" fill="none" stroke="#231f20" stroke-linecap="round" stroke-linejoin="round" stroke-width=".5"/><line x1="182.34" y1="106.85" x2="182.34" y2="109.85" fill="none" stroke="#231f20" stroke-linecap="round" stroke-linejoin="round" stroke-width=".5"/><line x1="181.05" y1="108.52" x2="183.53" y2="108.33" fill="none" stroke="#231f20" stroke-linecap="round" stroke-linejoin="round" stroke-width=".5"/><ellipse cx="156.79" cy="109.85" rx="2.24" ry="2.12" transform="translate(10.24 233.04) rotate(-75.07)" fill="none" stroke="#231f20" stroke-linecap="round" stroke-linejoin="round" stroke-width=".5"/><line x1="156.9" y1="108.42" x2="156.9" y2="111.2" fill="none" stroke="#231f20" stroke-linecap="round" stroke-linejoin="round" stroke-width=".5"/><line x1="155.74" y1="109.96" x2="157.97" y2="109.78" fill="none" stroke="#231f20" stroke-linecap="round" stroke-linejoin="round" stroke-width=".5"/><path d="M183,118.31v-1.48s1.69.12,2.02,1.93" fill="none" stroke="#231f20" stroke-linecap="round" stroke-linejoin="round" stroke-width=".5"/><path d="M188.35,116.78l2.61,1.25s1.46.86-.31,1.44l-2.25-1.01" fill="none" stroke="#231f20" stroke-linecap="round" stroke-linejoin="round" stroke-width=".5"/><path d="M188.39,115.63l4.33,2.07s1.46.86-.31,1.44l-1.63.34" fill="none" stroke="#231f20" stroke-linecap="round" stroke-linejoin="round" stroke-width=".5"/><path d="M192.68,124.24l1.63-.34c1.77-.58.31-1.44.31-1.44l-2.61-1.27-2.43.18,3.27,1.43s1.46.86-.31,1.44l-3-1.37v-1.06" fill="none" stroke="#231f20" stroke-linecap="round" stroke-linejoin="round" stroke-width=".5"/><path d="M190.93,110.95l1.88.9s1.46.86-.31,1.44l-2.25-1.01" fill="none" stroke="#231f20" stroke-linecap="round" stroke-linejoin="round" stroke-width=".5"/><path d="M191.62,110.1l2.96,1.41s1.46.86-.31,1.44l-1.63.34" fill="none" stroke="#231f20" stroke-linecap="round" stroke-linejoin="round" stroke-width=".5"/><path d="M206.52,113.56l.18-8.08s-.28-.92-2.13-.85l-18.78.99" fill="none" stroke="#231f20" stroke-linecap="round" stroke-linejoin="round" stroke-width=".5"/><polyline points="186.86 135.59 206.06 134.1 206.17 129.66" fill="none" stroke="#231f20" stroke-linecap="round" stroke-linejoin="round" stroke-width=".5"/><path d="M203.12,127.58l6.07,2.76s1.96.8,2.58-.8v-11.59s.37-1.29-1.47-1.84l-5.4-1.9s-1.47-.18-1.72.61" fill="none" stroke="#231f20" stroke-linecap="round" stroke-linejoin="round" stroke-width=".5"/><path d="M203.86,115.86l4.35,1.72s.98-.06.98,1.41v10.12" fill="none" stroke="#231f20" stroke-linecap="round" stroke-linejoin="round" stroke-width=".5"/><line x1="204.23" y1="118.81" x2="204.23" y2="124.39" fill="none" stroke="#231f20" stroke-linecap="round" stroke-linejoin="round" stroke-width=".5"/><line x1="205.15" y1="119.24" x2="205.15" y2="124.82" fill="none" stroke="#231f20" stroke-linecap="round" stroke-linejoin="round" stroke-width=".5"/><line x1="206.07" y1="119.67" x2="206.07" y2="125.25" fill="none" stroke="#231f20" stroke-linecap="round" stroke-linejoin="round" stroke-width=".5"/><ellipse cx="204.77" cy="111.1" rx="1" ry=".77" transform="translate(76.48 305.55) rotate(-85.07)" fill="none" stroke="#231f20" stroke-linecap="round" stroke-linejoin="round" stroke-width=".5"/><path d="M169.33,154.79l35.51-3.25s1.99-.14,3.05-1.49v1.28c-.82,1.56-5.04,1.65-5.04,1.65l-1.74,1.92-31.31,3.02" fill="none" stroke="#231f20" stroke-linecap="round" stroke-linejoin="round" stroke-width=".5"/><polygon points="149.68 110.95 150.82 110.91 150.3 112.08 149.68 110.95" fill="#231f20" stroke-width="0"/><path d="M208.95,156.23l-.89.07c-.17.01-.3-.11-.3-.28v-.9c0-.17.14-.32.3-.33l.89-.07c.17-.01.3.11.3.28v.9c0,.17-.14.32-.3.33Z" fill="#231f20" stroke-width="0"/><polyline points="184.99 156.51 185.12 160.84 176.25 161.76 176.18 157.33" fill="none" stroke="#231f20" stroke-linecap="round" stroke-linejoin="round" stroke-width=".39"/><line x1="175.67" y1="160.99" x2="175.59" y2="157.37" fill="none" stroke="#231f20" stroke-linecap="round" stroke-linejoin="round" stroke-width=".39"/><line x1="176.2" y1="161.72" x2="175.68" y2="161" fill="none" stroke="#231f20" stroke-linecap="round" stroke-linejoin="round" stroke-width=".39"/><polyline points="205.05 152.82 205.18 158.59 196.41 159.5 196.4 155.41" fill="none" stroke="#231f20" stroke-linecap="round" stroke-linejoin="round" stroke-width=".39"/><line x1="195.83" y1="158.85" x2="195.83" y2="155.41" fill="none" stroke="#231f20" stroke-linecap="round" stroke-linejoin="round" stroke-width=".39"/><line x1="196.41" y1="159.47" x2="195.83" y2="158.78" fill="none" stroke="#231f20" stroke-linecap="round" stroke-linejoin="round" stroke-width=".39"/><polyline points="195.01 155.45 195.15 159.69 186.37 160.61 186.32 156.35" fill="none" stroke="#231f20" stroke-linecap="round" stroke-linejoin="round" stroke-width=".39"/><line x1="185.8" y1="159.96" x2="185.74" y2="156.39" fill="none" stroke="#231f20" stroke-linecap="round" stroke-linejoin="round" stroke-width=".39"/><line x1="186.37" y1="160.49" x2="185.8" y2="159.88" fill="none" stroke="#231f20" stroke-linecap="round" stroke-linejoin="round" stroke-width=".39"/><polyline points="174.88 157.41 174.97 161.94 166.09 162.86 166.13 160.25" fill="none" stroke="#231f20" stroke-linecap="round" stroke-linejoin="round" stroke-width=".39"/><line x1="165.51" y1="162.26" x2="165.59" y2="160.16" fill="none" stroke="#231f20" stroke-linecap="round" stroke-linejoin="round" stroke-width=".39"/><line x1="166.05" y1="162.75" x2="165.46" y2="162.22" fill="none" stroke="#231f20" stroke-linecap="round" stroke-linejoin="round" stroke-width=".39"/><ellipse cx="181.73" cy="163.1" rx=".79" ry=".67" transform="translate(-61.48 184.94) rotate(-47.04)" fill="#231f20" stroke-width="0"/><ellipse cx="179.24" cy="163.3" rx=".79" ry=".67" transform="translate(-62.42 183.18) rotate(-47.04)" fill="#231f20" stroke-width="0"/><ellipse cx="171.91" cy="164.2" rx=".79" ry=".67" transform="translate(-65.41 178.11) rotate(-47.04)" fill="#231f20" stroke-width="0"/><ellipse cx="169.42" cy="164.39" rx=".79" ry=".67" transform="translate(-66.34 176.35) rotate(-47.04)" fill="#231f20" stroke-width="0"/><ellipse cx="191.84" cy="161.99" rx=".79" ry=".67" transform="translate(-57.44 191.98) rotate(-47.04)" fill="#231f20" stroke-width="0"/><ellipse cx="189.35" cy="162.18" rx=".79" ry=".67" transform="translate(-58.38 190.22) rotate(-47.04)" fill="#231f20" stroke-width="0"/><ellipse cx="201.45" cy="160.91" rx=".79" ry=".67" transform="translate(-53.59 198.67) rotate(-47.04)" fill="#231f20" stroke-width="0"/><ellipse cx="198.96" cy="161.1" rx=".79" ry=".67" transform="translate(-54.53 196.91) rotate(-47.04)" fill="#231f20" stroke-width="0"/><polyline points="348.23 97.42 348.23 96.99 270.19 101.23 270.04 110.54" fill="none" stroke="#231f20" stroke-linecap="round" stroke-linejoin="round" stroke-width=".5"/><polyline points="213.93 162.82 268.18 156.97 345.91 148.22" fill="none" stroke="#231f20" stroke-linecap="round" stroke-linejoin="round" stroke-width=".5"/><line x1="205.79" y1="163.7" x2="211.61" y2="163.08" fill="none" stroke="#231f20" stroke-linecap="round" stroke-linejoin="round" stroke-width=".5"/><path d="M264,122.76l7.31,2.56s1.78.73,2.35-.7l.09-11.03s.34-1.16-1.32-1.67l-6.7-1.78s-1.34-.18-1.56.54" fill="none" stroke="#231f20" stroke-linecap="round" stroke-linejoin="round" stroke-width=".5"/><path d="M265.22,111.91l5.23,1.48s.89-.05.88,1.28l-.08,9.13" fill="none" stroke="#231f20" stroke-linecap="round" stroke-linejoin="round" stroke-width=".5"/><line x1="265.66" y1="114.59" x2="265.62" y2="120.06" fill="none" stroke="#231f20" stroke-linecap="round" stroke-linejoin="round" stroke-width=".5"/><line x1="266.5" y1="114.9" x2="266.45" y2="120.37" fill="none" stroke="#231f20" stroke-linecap="round" stroke-linejoin="round" stroke-width=".5"/><line x1="267.33" y1="115.21" x2="267.28" y2="120.68" fill="none" stroke="#231f20" stroke-linecap="round" stroke-linejoin="round" stroke-width=".5"/><ellipse cx="265.62" cy="107.9" rx=".91" ry=".7" transform="translate(132.58 361.86) rotate(-84.46)" fill="none" stroke="#231f20" stroke-linecap="round" stroke-linejoin="round" stroke-width=".5"/><line x1="269.26" y1="144.15" x2="269.11" y2="156.51" fill="none" stroke="#231f20" stroke-linecap="round" stroke-linejoin="round" stroke-width=".5"/><line x1="269.48" y1="124.8" x2="269.42" y2="130.66" fill="none" stroke="#231f20" stroke-linecap="round" stroke-linejoin="round" stroke-width=".5"/><line x1="293.58" y1="100.42" x2="292.13" y2="154.16" fill="none" stroke="#231f20" stroke-linecap="round" stroke-linejoin="round" stroke-width=".5"/><polygon points="281.86 116.84 274.79 117.22 274.79 112.97 281.97 112.57 281.86 116.84" fill="none" stroke="#231f20" stroke-linecap="round" stroke-linejoin="round" stroke-width=".5"/><polygon points="281.47 139.34 274.14 140.09 274.35 128.6 281.68 128.16 281.47 139.34" fill="none" stroke="#231f20" stroke-linecap="round" stroke-linejoin="round" stroke-width=".5"/><polyline points="281.48 135.08 280.71 135.13 280.73 136.15 279.72 136.23 279.71 138.22 275.67 138.67 275.78 129.92 279.7 129.71 279.75 131.82 280.82 131.76 280.84 132.71 281.43 132.71" fill="none" stroke="#231f20" stroke-linecap="round" stroke-linejoin="round" stroke-width=".5"/><line x1="279.72" y1="136.23" x2="275.99" y2="135.29" fill="none" stroke="#231f20" stroke-linecap="round" stroke-linejoin="round" stroke-width=".5"/><line x1="280.67" y1="135.13" x2="275.83" y2="133.88" fill="none" stroke="#231f20" stroke-linecap="round" stroke-linejoin="round" stroke-width=".5"/><line x1="279.76" y1="137.98" x2="276.02" y2="137.04" fill="none" stroke="#231f20" stroke-linecap="round" stroke-linejoin="round" stroke-width=".5"/><polygon points="281.09 152.79 273.72 153.83 273.92 142.4 281.29 141.66 281.09 152.79" fill="none" stroke="#231f20" stroke-linecap="round" stroke-linejoin="round" stroke-width=".5"/><polyline points="281.09 148.54 280.32 148.63 280.35 149.64 279.33 149.76 279.32 151.74 275.25 152.36 275.36 143.66 279.3 143.28 279.35 145.38 280.43 145.27 280.45 146.22 281.05 146.19" fill="none" stroke="#231f20" stroke-linecap="round" stroke-linejoin="round" stroke-width=".5"/><line x1="279.33" y1="149.76" x2="275.57" y2="148.98" fill="none" stroke="#231f20" stroke-linecap="round" stroke-linejoin="round" stroke-width=".5"/><line x1="280.28" y1="148.63" x2="275.41" y2="147.59" fill="none" stroke="#231f20" stroke-linecap="round" stroke-linejoin="round" stroke-width=".5"/><line x1="279.37" y1="151.5" x2="275.61" y2="150.72" fill="none" stroke="#231f20" stroke-linecap="round" stroke-linejoin="round" stroke-width=".5"/><polyline points="274.91 113.09 280.61 114.68 280.64 115.83 274.93 116.18" fill="none" stroke="#231f20" stroke-linecap="round" stroke-linejoin="round" stroke-width=".5"/><line x1="274.86" y1="114.9" x2="280.61" y2="114.68" fill="none" stroke="#231f20" stroke-linecap="round" stroke-linejoin="round" stroke-width=".5"/><ellipse cx="274.56" cy="110.16" rx=".67" ry=".83" transform="translate(-4.94 13.22) rotate(-2.73)" fill="#231f20" stroke-width="0"/><ellipse cx="274.5" cy="107.61" rx=".67" ry=".83" transform="translate(-4.82 13.21) rotate(-2.73)" fill="#231f20" stroke-width="0"/><ellipse cx="274.45" cy="105.05" rx=".67" ry=".83" transform="translate(-4.7 13.21) rotate(-2.73)" fill="#231f20" stroke-width="0"/><path d="M275.91,126.21h0c-.58-.05-1.04-.58-1.04-1.19l.04-4.59c0-.61.48-1.07,1.06-1.02h0c.58.05,1.04.58,1.04,1.19l-.04,4.59c0,.61-.48,1.07-1.06,1.02Z" fill="none" stroke="#231f20" stroke-miterlimit="10" stroke-width=".5"/><path d="M288.24,111.78l-1.01,37.66s.12,1.55-2.22,3.39" fill="none" stroke="#231f20" stroke-linecap="round" stroke-linejoin="round" stroke-width=".5"/><line x1="284.96" y1="154.63" x2="286.06" y2="109.2" fill="none" stroke="#231f20" stroke-linecap="round" stroke-linejoin="round" stroke-width=".5"/><polygon points="287.32 111.36 287.31 108.74 285.34 108.68 285.35 106.99 284.46 106.28 284.54 103.08 285.5 103.11 285.59 101.07 288.21 101.4 288.12 108.14 290.06 106.6 290.1 108.44 288.03 110.43 287.96 111.39 287.32 111.36" fill="none" stroke="#231f20" stroke-linecap="round" stroke-linejoin="round" stroke-width=".5"/><polyline points="290.31 106.48 290.41 101.21 288.21 101.4" fill="none" stroke="#231f20" stroke-linecap="round" stroke-linejoin="round" stroke-width=".5"/><polyline points="290.06 106.6 292.31 106.56 292.34 108.31 290.13 108.36" fill="none" stroke="#231f20" stroke-linecap="round" stroke-linejoin="round" stroke-width=".5"/><polyline points="292.35 108.28 290.08 110.44 290.07 111.34 287.96 111.39" fill="none" stroke="#231f20" stroke-linecap="round" stroke-linejoin="round" stroke-width=".5"/><line x1="290.08" y1="110.44" x2="288.03" y2="110.43" fill="none" stroke="#231f20" stroke-linecap="round" stroke-linejoin="round" stroke-width=".5"/><polyline points="285.59 101.07 287.69 100.81 290.41 101.21" fill="none" stroke="#231f20" stroke-linecap="round" stroke-linejoin="round" stroke-width=".5"/><polygon points="288.72 102.51 289.86 102.41 289.4 103.67 288.72 102.51" fill="#231f20" stroke-width="0"/><line x1="295.23" y1="100.17" x2="293.16" y2="154.16" fill="none" stroke="#231f20" stroke-linecap="round" stroke-linejoin="round" stroke-width=".5"/><path d="M323.16,109.42l-1.07,33.95s.09,3.88-2.55,6.14" fill="none" stroke="#231f20" stroke-linecap="round" stroke-linejoin="round" stroke-width=".5"/><line x1="319.45" y1="151.45" x2="321.03" y2="106.94" fill="none" stroke="#231f20" stroke-linecap="round" stroke-linejoin="round" stroke-width=".5"/><polygon points="322.25 109.01 322.29 106.53 320.32 106.44 320.37 104.84 319.5 104.15 319.64 101.13 320.6 101.17 320.74 99.25 323.35 99.62 323.12 105.98 325.09 104.56 325.09 106.3 322.98 108.14 322.89 109.05 322.25 109.01" fill="none" stroke="#231f20" stroke-linecap="round" stroke-linejoin="round" stroke-width=".5"/><polyline points="325.34 104.45 325.55 99.48 323.35 99.62" fill="none" stroke="#231f20" stroke-linecap="round" stroke-linejoin="round" stroke-width=".5"/><polyline points="325.09 104.56 327.33 104.56 327.33 106.23 325.12 106.23" fill="none" stroke="#231f20" stroke-linecap="round" stroke-linejoin="round" stroke-width=".5"/><polyline points="327.34 106.2 325.03 108.19 325 109.04 322.89 109.05" fill="none" stroke="#231f20" stroke-linecap="round" stroke-linejoin="round" stroke-width=".5"/><line x1="325.03" y1="108.19" x2="322.98" y2="108.14" fill="none" stroke="#231f20" stroke-linecap="round" stroke-linejoin="round" stroke-width=".5"/><polyline points="320.74 99.25 322.83 99.04 325.55 99.48" fill="none" stroke="#231f20" stroke-linecap="round" stroke-linejoin="round" stroke-width=".5"/><polygon points="323.83 100.67 324.97 100.59 324.49 101.79 323.83 100.67" fill="#231f20" stroke-width="0"/><path d="M309.47,110.02l-1.07,33.95s.09,3.88-2.55,6.14" fill="none" stroke="#231f20" stroke-linecap="round" stroke-linejoin="round" stroke-width=".5"/><line x1="305.75" y1="152.06" x2="307.34" y2="107.54" fill="none" stroke="#231f20" stroke-linecap="round" stroke-linejoin="round" stroke-width=".5"/><polygon points="308.56 109.61 308.6 107.14 306.63 107.04 306.68 105.44 305.81 104.75 305.94 101.73 306.91 101.78 307.04 99.85 309.65 100.22 309.43 106.59 311.39 105.17 311.39 106.91 309.29 108.75 309.2 109.65 308.56 109.61" fill="none" stroke="#231f20" stroke-linecap="round" stroke-linejoin="round" stroke-width=".5"/><polyline points="311.65 105.05 311.85 100.08 309.65 100.22" fill="none" stroke="#231f20" stroke-linecap="round" stroke-linejoin="round" stroke-width=".5"/><polyline points="311.39 105.17 313.64 105.17 313.64 106.83 311.43 106.83" fill="none" stroke="#231f20" stroke-linecap="round" stroke-linejoin="round" stroke-width=".5"/><polyline points="313.65 106.8 311.34 108.8 311.31 109.64 309.2 109.65" fill="none" stroke="#231f20" stroke-linecap="round" stroke-linejoin="round" stroke-width=".5"/><line x1="311.34" y1="108.8" x2="309.29" y2="108.75" fill="none" stroke="#231f20" stroke-linecap="round" stroke-linejoin="round" stroke-width=".5"/><polyline points="307.04 99.85 309.14 99.65 311.85 100.08" fill="none" stroke="#231f20" stroke-linecap="round" stroke-linejoin="round" stroke-width=".5"/><polygon points="310.14 101.28 311.28 101.2 310.8 102.39 310.14 101.28" fill="#231f20" stroke-width="0"/><path d="M350.06,107.79l-1.77,35.57s.09,1.47-2.29,3.16" fill="none" stroke="#231f20" stroke-linecap="round" stroke-linejoin="round" stroke-width=".5"/><line x1="345.91" y1="148.22" x2="347.93" y2="105.31" fill="none" stroke="#231f20" stroke-linecap="round" stroke-linejoin="round" stroke-width=".5"/><polygon points="349.14 107.38 349.19 104.9 347.22 104.81 347.26 103.21 346.39 102.52 346.53 99.5 347.49 99.54 347.63 97.62 350.24 97.99 350.01 104.35 351.98 102.93 351.98 104.67 349.88 106.51 349.78 107.42 349.14 107.38" fill="none" stroke="#231f20" stroke-linecap="round" stroke-linejoin="round" stroke-width=".5"/><polyline points="352.23 102.82 352.44 97.85 350.24 97.99" fill="none" stroke="#231f20" stroke-linecap="round" stroke-linejoin="round" stroke-width=".5"/><polyline points="351.98 102.93 354.23 102.93 354.23 104.6 352.02 104.6" fill="none" stroke="#231f20" stroke-linecap="round" stroke-linejoin="round" stroke-width=".5"/><polyline points="354.24 104.57 351.93 106.56 351.9 107.41 349.78 107.42" fill="none" stroke="#231f20" stroke-linecap="round" stroke-linejoin="round" stroke-width=".5"/><line x1="351.93" y1="106.56" x2="349.88" y2="106.51" fill="none" stroke="#231f20" stroke-linecap="round" stroke-linejoin="round" stroke-width=".5"/><polyline points="347.63 97.62 349.73 97.42 352.44 97.85" fill="none" stroke="#231f20" stroke-linecap="round" stroke-linejoin="round" stroke-width=".5"/><polygon points="350.73 99.04 351.86 98.97 351.39 100.16 350.73 99.04" fill="#231f20" stroke-width="0"/><path d="M336.93,108.58l-1.47,33.4s.05,3.47-2.65,6.33" fill="none" stroke="#231f20" stroke-linecap="round" stroke-linejoin="round" stroke-width=".5"/><line x1="332.67" y1="149.54" x2="334.8" y2="106.1" fill="none" stroke="#231f20" stroke-linecap="round" stroke-linejoin="round" stroke-width=".5"/><polygon points="336.02 108.17 336.06 105.69 334.09 105.6 334.14 104 333.27 103.31 333.4 100.29 334.37 100.33 334.5 98.41 337.11 98.78 336.89 105.14 338.85 103.72 338.85 105.46 336.75 107.3 336.66 108.21 336.02 108.17" fill="none" stroke="#231f20" stroke-linecap="round" stroke-linejoin="round" stroke-width=".5"/><polyline points="339.11 103.61 339.31 98.64 337.11 98.78" fill="none" stroke="#231f20" stroke-linecap="round" stroke-linejoin="round" stroke-width=".5"/><polyline points="338.85 103.72 341.1 103.72 341.1 105.39 338.89 105.39" fill="none" stroke="#231f20" stroke-linecap="round" stroke-linejoin="round" stroke-width=".5"/><polyline points="341.11 105.36 338.8 107.35 338.77 108.2 336.66 108.21" fill="none" stroke="#231f20" stroke-linecap="round" stroke-linejoin="round" stroke-width=".5"/><line x1="338.8" y1="107.35" x2="336.75" y2="107.3" fill="none" stroke="#231f20" stroke-linecap="round" stroke-linejoin="round" stroke-width=".5"/><polyline points="334.5 98.41 336.6 98.2 339.31 98.64" fill="none" stroke="#231f20" stroke-linecap="round" stroke-linejoin="round" stroke-width=".5"/><polygon points="337.6 99.83 338.74 99.75 338.26 100.94 337.6 99.83" fill="#231f20" stroke-width="0"/><path d="M325.49,109.87c.1.16.16.36.16.57,0,.51-.34.92-.75.92s-.75-.41-.75-.92c0-.51,1.2-.79,1.34-.57Z" fill="#231f20" stroke-width="0"/><path d="M313.63,150.64l-.89.07c-.17.01-.3-.11-.3-.28v-.9c0-.17.14-.32.3-.33l.89-.07c.17-.01.3.11.3.28v.9c0,.17-.14.32-.3.33Z" fill="#231f20" stroke-width="0"/><path d="M299.68,152.04l-.89.07c-.17.01-.3-.11-.3-.28v-.9c0-.17.14-.32.3-.33l.89-.07c.17-.01.3.11.3.28v.9c0,.17-.14.32-.3.33Z" fill="#231f20" stroke-width="0"/><path d="M326.82,149.26l-.89.07c-.17.01-.3-.11-.3-.28v-.9c0-.17.14-.32.3-.33l.89-.07c.17-.01.3.11.3.28v.9c0,.17-.14.32-.3.33Z" fill="#231f20" stroke-width="0"/><path d="M340.4,147.8l-.89.07c-.17.01-.3-.11-.3-.28v-.9c0-.17.14-.32.3-.33l.89-.07c.17-.01.3.11.3.28v.9c0,.17-.14.32-.3.33Z" fill="#231f20" stroke-width="0"/><polygon points="345.63 122.79 340.42 123.27 341.1 109.97 346.36 109.69 345.63 122.79" fill="none" stroke="#231f20" stroke-linecap="round" stroke-linejoin="round" stroke-width=".54"/><polyline points="340.42 123.2 339.45 122.67 340.14 109.37 345.39 109.09 346.37 109.66" fill="none" stroke="#231f20" stroke-linecap="round" stroke-linejoin="round" stroke-width=".54"/><line x1="341.1" y1="109.97" x2="340.14" y2="109.37" fill="none" stroke="#231f20" stroke-linecap="round" stroke-linejoin="round" stroke-width=".54"/><ellipse cx="338.07" cy="117.77" rx=".76" ry=".71" transform="translate(203.28 449.43) rotate(-87.09)" fill="#231f20" stroke-width="0"/><ellipse cx="338.21" cy="115.14" rx=".76" ry=".71" transform="translate(206.03 447.06) rotate(-87.09)" fill="#231f20" stroke-width="0"/><ellipse cx="337.42" cy="133.3" rx=".76" ry=".71" transform="translate(187.15 463.51) rotate(-87.09)" fill="#231f20" stroke-width="0"/><ellipse cx="337.55" cy="130.67" rx=".76" ry=".71" transform="translate(189.91 461.15) rotate(-87.09)" fill="#231f20" stroke-width="0"/><polyline points="339.9 138.23 340.38 125.62 345.59 125.16 345.2 137.67 339.83 138.25" fill="none" stroke="#231f20" stroke-linecap="round" stroke-linejoin="round" stroke-width=".54"/><polyline points="345.59 125.14 344.62 124.56 339.42 125.02 338.94 137.85 339.83 138.25" fill="none" stroke="#231f20" stroke-linecap="round" stroke-linejoin="round" stroke-width=".54"/><line x1="340.38" y1="125.62" x2="339.42" y2="125.02" fill="none" stroke="#231f20" stroke-linecap="round" stroke-linejoin="round" stroke-width=".54"/><polygon points="303.83 126.03 298.81 126.51 299.46 112.99 304.52 112.7 303.83 126.03" fill="none" stroke="#231f20" stroke-linecap="round" stroke-linejoin="round" stroke-width=".53"/><polyline points="298.81 126.45 297.88 125.9 298.54 112.38 303.6 112.09 304.53 112.67" fill="none" stroke="#231f20" stroke-linecap="round" stroke-linejoin="round" stroke-width=".53"/><line x1="299.46" y1="112.99" x2="298.54" y2="112.38" fill="none" stroke="#231f20" stroke-linecap="round" stroke-linejoin="round" stroke-width=".53"/><ellipse cx="296.55" cy="120.92" rx=".78" ry=".68" transform="translate(166.8 413.72) rotate(-88.28)" fill="#231f20" stroke-width="0"/><ellipse cx="296.68" cy="118.25" rx=".78" ry=".68" transform="translate(169.59 411.25) rotate(-88.28)" fill="#231f20" stroke-width="0"/><ellipse cx="295.92" cy="136.72" rx=".78" ry=".68" transform="translate(150.4 428.41) rotate(-88.28)" fill="#231f20" stroke-width="0"/><ellipse cx="296.05" cy="134.04" rx=".78" ry=".68" transform="translate(153.2 425.94) rotate(-88.28)" fill="#231f20" stroke-width="0"/><polyline points="298.31 141.74 298.77 128.9 303.78 128.44 303.41 141.16 298.24 141.75" fill="none" stroke="#231f20" stroke-linecap="round" stroke-linejoin="round" stroke-width=".53"/><polyline points="303.79 128.42 302.85 127.83 297.84 128.29 297.38 141.35 298.24 141.75" fill="none" stroke="#231f20" stroke-linecap="round" stroke-linejoin="round" stroke-width=".53"/><line x1="298.77" y1="128.9" x2="297.84" y2="128.29" fill="none" stroke="#231f20" stroke-linecap="round" stroke-linejoin="round" stroke-width=".53"/><polygon points="318.49 121.8 313.47 122.38 314.13 108.84 319.19 108.45 318.49 121.8" fill="none" stroke="#231f20" stroke-linecap="round" stroke-linejoin="round" stroke-width=".53"/><polyline points="313.48 122.32 312.54 121.79 313.2 108.25 318.26 107.86 319.2 108.42" fill="none" stroke="#231f20" stroke-linecap="round" stroke-linejoin="round" stroke-width=".53"/><line x1="314.13" y1="108.84" x2="313.2" y2="108.25" fill="none" stroke="#231f20" stroke-linecap="round" stroke-linejoin="round" stroke-width=".53"/><ellipse cx="311.22" cy="116.84" rx=".78" ry=".68" transform="translate(165.49 415.62) rotate(-84.58)" fill="#231f20" stroke-width="0"/><ellipse cx="311.34" cy="114.16" rx=".78" ry=".68" transform="translate(168.28 413.32) rotate(-84.58)" fill="#231f20" stroke-width="0"/><ellipse cx="310.45" cy="138.13" rx=".78" ry=".68" transform="translate(143.6 434.13) rotate(-84.58)" fill="#231f20" stroke-width="0"/><ellipse cx="310.57" cy="135.45" rx=".78" ry=".68" transform="translate(146.38 431.83) rotate(-84.58)" fill="#231f20" stroke-width="0"/><polyline points="312.84 143.73 313.3 130.88 318.31 130.32 317.94 143.05 312.76 143.74" fill="none" stroke="#231f20" stroke-linecap="round" stroke-linejoin="round" stroke-width=".53"/><polyline points="318.31 130.29 317.38 129.73 312.37 130.29 311.91 143.36 312.76 143.74" fill="none" stroke="#231f20" stroke-linecap="round" stroke-linejoin="round" stroke-width=".53"/><line x1="313.3" y1="130.88" x2="312.37" y2="130.29" fill="none" stroke="#231f20" stroke-linecap="round" stroke-linejoin="round" stroke-width=".53"/><path d="M353.51,99.32l.71.03.16-5.12L35.86,111.21s-1.12.05-1.03,1.31.23,5.54.23,5.54l-22.38-39.45-.1-3.51,182.07-4.95,159.66,24" fill="none" stroke="#231f20" stroke-linecap="round" stroke-linejoin="round" stroke-width=".5"/><polyline points="13.54 74.91 10.59 70.67 174.4 67.26 192.94 70.14" fill="none" stroke="#231f20" stroke-linecap="round" stroke-linejoin="round" stroke-width=".5"/><polyline points="10.59 70.67 10.59 73.6 12.43 76.38" fill="none" stroke="#231f20" stroke-linecap="round" stroke-linejoin="round" stroke-width=".5"/><line x1="34.9" y1="111.57" x2="12.59" y2="75.11" fill="none" stroke="#231f20" stroke-linecap="round" stroke-linejoin="round" stroke-width=".5"/><line x1="338.11" y1="152.02" x2="341.08" y2="151.69" fill="none" stroke="#231f20" stroke-linecap="round" stroke-linejoin="round" stroke-width=".5"/><polyline points="353.19 102.07 353.59 95.39 47.98 112.51 37.1 113.12 41.1 185.1" fill="none" stroke="#231f20" stroke-linecap="round" stroke-linejoin="round" stroke-width=".5"/><polyline points="185.67 168.99 273.64 159.25 350.28 150.66 352.91 106.75" fill="none" stroke="#231f20" stroke-linecap="round" stroke-linejoin="round" stroke-width=".5"/><polyline points="178.28 169.93 40.52 185.36 12.51 102.62 10.59 73.6" fill="none" stroke="#231f20" stroke-linecap="round" stroke-linejoin="round" stroke-width=".5"/><line x1="185.62" y1="167.07" x2="350.34" y2="149.3" fill="none" stroke="#231f20" stroke-linecap="round" stroke-linejoin="round" stroke-width=".5"/><line x1="269.09" y1="110.58" x2="269.24" y2="101.26" fill="none" stroke="#231f20" stroke-linecap="round" stroke-linejoin="round" stroke-width=".5"/><line x1="213.73" y1="164.03" x2="213.73" y2="149.38" fill="none" stroke="#231f20" stroke-linecap="round" stroke-linejoin="round" stroke-width=".5"/><polyline points="255.16 148.77 254.83 155.77 243.21 156.89 243.21 149.92" fill="none" stroke="#231f20" stroke-linecap="round" stroke-linejoin="round" stroke-width=".5"/><polyline points="228.96 151.86 228.96 158.24 240.7 156.98 240.91 150" fill="none" stroke="#231f20" stroke-linecap="round" stroke-linejoin="round" stroke-width=".5"/><polyline points="243.21 156.89 242.04 156.58 242.06 149.7" fill="none" stroke="#231f20" stroke-linecap="round" stroke-linejoin="round" stroke-width=".5"/><polyline points="228.96 158.24 227.78 157.71 227.78 152.35" fill="none" stroke="#231f20" stroke-linecap="round" stroke-linejoin="round" stroke-width=".5"/><line x1="112.77" y1="123.92" x2="113.58" y2="174.6" fill="none" stroke="#231f20" stroke-linecap="round" stroke-linejoin="round" stroke-width=".5"/><path d="M109.21,122.22h-.81l.54,1.21,1.02,39.89,2.29,1.95s.59,4.96-.62,6.11" fill="none" stroke="#231f20" stroke-linecap="round" stroke-linejoin="round" stroke-width=".5"/><path d="M109.04,120.38l-.5-.4v-1.95l-.9-1.95v-2.46h.9c0,.15-.05-2.06-.05-2.06l.2.1,1.45.7v7.62l.9-1.71h3.2v2.04l-.87,2.12v1.06h-3.34v-.98l1.14-2.24-.06-1.99" fill="none" stroke="#231f20" stroke-linecap="round" stroke-linejoin="round" stroke-width=".5"/><polyline points="109.44 123.19 109.44 118.13 109.04 117.78" fill="none" stroke="#231f20" stroke-linecap="round" stroke-linejoin="round" stroke-width=".5"/><polyline points="108.69 111.41 111.1 111.41 112.9 112.21 112.9 117.98" fill="none" stroke="#231f20" stroke-linecap="round" stroke-linejoin="round" stroke-width=".5"/><line x1="110.14" y1="112.36" x2="112.9" y2="112.36" fill="none" stroke="#231f20" stroke-linecap="round" stroke-linejoin="round" stroke-width=".5"/><line x1="111.17" y1="120.26" x2="114.24" y2="120.26" fill="none" stroke="#231f20" stroke-linecap="round" stroke-linejoin="round" stroke-width=".5"/><line x1="110.03" y1="122.51" x2="113.37" y2="122.51" fill="none" stroke="#231f20" stroke-linecap="round" stroke-linejoin="round" stroke-width=".5"/><line x1="92.12" y1="125.58" x2="93.79" y2="176.83" fill="none" stroke="#231f20" stroke-linecap="round" stroke-linejoin="round" stroke-width=".5"/><path d="M88.61,123.95l-.79.02.55,1.23,1.29,39.41,2.28,1.93s.96,5.41-.2,6.61" fill="none" stroke="#231f20" stroke-linecap="round" stroke-linejoin="round" stroke-width=".5"/><path d="M88.41,122.08l-.5-.4-.04-2-.92-1.97-.04-2.51.88-.03c0,.15-.09-2.1-.09-2.1l.2.1,1.43.68.14,7.79.85-1.78,3.13-.09.04,2.08-.81,2.19.02,1.08-3.27.09-.02-1,1.08-2.33-.1-2.04" fill="none" stroke="#231f20" stroke-linecap="round" stroke-linejoin="round" stroke-width=".5"/><polyline points="88.86 124.93 88.76 119.76 88.37 119.41" fill="none" stroke="#231f20" stroke-linecap="round" stroke-linejoin="round" stroke-width=".5"/><polyline points="87.91 112.91 90.26 112.84 92.04 113.61 92.14 119.51" fill="none" stroke="#231f20" stroke-linecap="round" stroke-linejoin="round" stroke-width=".5"/><line x1="89.35" y1="113.84" x2="92.04" y2="113.77" fill="none" stroke="#231f20" stroke-linecap="round" stroke-linejoin="round" stroke-width=".5"/><line x1="90.49" y1="121.89" x2="93.49" y2="121.81" fill="none" stroke="#231f20" stroke-linecap="round" stroke-linejoin="round" stroke-width=".5"/><line x1="89.41" y1="124.22" x2="92.68" y2="124.13" fill="none" stroke="#231f20" stroke-linecap="round" stroke-linejoin="round" stroke-width=".5"/><polyline points="70.93 126.49 73 177.18 74.41 178.78" fill="none" stroke="#231f20" stroke-linecap="round" stroke-linejoin="round" stroke-width=".5"/><polyline points="67.42 124.85 66.63 124.88 67.18 126.11 68.79 167.28 71.08 169.22 71.08 179.18" fill="none" stroke="#231f20" stroke-linecap="round" stroke-linejoin="round" stroke-width=".5"/><path d="M67.2,122.98l-.5-.4-.05-2-.93-1.98-.06-2.52.88-.03c0,.15-.1-2.11-.1-2.11l.2.1,1.43.68.2,7.81.83-1.78,3.12-.09.05,2.09-.79,2.2.03,1.09-3.26.1-.03-1,1.05-2.33-.11-2.04" fill="none" stroke="#231f20" stroke-linecap="round" stroke-linejoin="round" stroke-width=".5"/><polyline points="67.67 125.84 67.53 120.65 67.13 120.3" fill="none" stroke="#231f20" stroke-linecap="round" stroke-linejoin="round" stroke-width=".5"/><polyline points="66.63 113.79 68.97 113.72 70.75 114.48 70.9 120.4" fill="none" stroke="#231f20" stroke-linecap="round" stroke-linejoin="round" stroke-width=".5"/><line x1="68.06" y1="114.72" x2="70.75" y2="114.64" fill="none" stroke="#231f20" stroke-linecap="round" stroke-linejoin="round" stroke-width=".5"/><line x1="69.27" y1="122.79" x2="72.27" y2="122.7" fill="none" stroke="#231f20" stroke-linecap="round" stroke-linejoin="round" stroke-width=".5"/><line x1="68.22" y1="125.13" x2="71.47" y2="125.03" fill="none" stroke="#231f20" stroke-linecap="round" stroke-linejoin="round" stroke-width=".5"/><polygon points="65.11 146.12 57.29 146.94 56.63 132.05 64.5 131.55 65.11 146.12" fill="none" stroke="#231f20" stroke-linecap="round" stroke-linejoin="round" stroke-width=".5"/><polyline points="57.28 146.86 56.07 146.24 55.41 131.35 62.98 130.87 64.51 131.52" fill="none" stroke="#231f20" stroke-linecap="round" stroke-linejoin="round" stroke-width=".5"/><line x1="56.63" y1="132.05" x2="55.41" y2="131.35" fill="none" stroke="#231f20" stroke-linecap="round" stroke-linejoin="round" stroke-width=".5"/><polygon points="65.77 163.68 58.15 164.48 57.48 149.26 65.15 148.58 65.77 163.68" fill="none" stroke="#231f20" stroke-linecap="round" stroke-linejoin="round" stroke-width=".5"/><polyline points="58.14 164.41 56.96 163.79 56.29 148.57 63.66 147.91 65.15 148.55" fill="none" stroke="#231f20" stroke-linecap="round" stroke-linejoin="round" stroke-width=".5"/><line x1="57.48" y1="149.26" x2="56.29" y2="148.57" fill="none" stroke="#231f20" stroke-linecap="round" stroke-linejoin="round" stroke-width=".5"/><line x1="111.55" y1="165.19" x2="111.71" y2="175" fill="none" stroke="#231f20" stroke-linecap="round" stroke-linejoin="round" stroke-width=".5"/><line x1="91.43" y1="166.31" x2="91.6" y2="177.12" fill="none" stroke="#231f20" stroke-linecap="round" stroke-linejoin="round" stroke-width=".5"/><polyline points="107.69 109.31 109.51 110.94 90 111.91 88.25 110.24" fill="none" stroke="#231f20" stroke-linecap="round" stroke-linejoin="round" stroke-width=".5"/><polyline points="146.51 107.13 148.28 108.49 110.72 110.57 109.02 109.18" fill="none" stroke="#231f20" stroke-linecap="round" stroke-linejoin="round" stroke-width=".5"/><polyline points="67.87 111.57 69.28 113.05 88.81 112.06 87.22 110.43" fill="none" stroke="#231f20" stroke-linecap="round" stroke-linejoin="round" stroke-width=".5"/><polyline points="66.54 111.69 68.02 113.17 48.81 114.21 48 112.52 51.81 180.19" fill="none" stroke="#231f20" stroke-linecap="round" stroke-linejoin="round" stroke-width=".5"/><line x1="35.07" y1="118.06" x2="39.12" y2="181.36" fill="none" stroke="#231f20" stroke-linecap="round" stroke-linejoin="round" stroke-width=".5"/><polygon points="85.28 144.66 77.64 145.55 77.35 133.77 85.04 132.95 85.28 144.66" fill="none" stroke="#231f20" stroke-linecap="round" stroke-linejoin="round" stroke-width=".5"/><polyline points="77.64 145.55 76.47 144.88 76.18 133.1 83.57 132.31 85.05 132.92" fill="none" stroke="#231f20" stroke-linecap="round" stroke-linejoin="round" stroke-width=".5"/><line x1="77.29" y1="133.71" x2="76.26" y2="133.11" fill="none" stroke="#231f20" stroke-linecap="round" stroke-linejoin="round" stroke-width=".5"/><polygon points="85.96 171.3 78.5 172.17 78.21 160.52 85.71 159.72 85.96 171.3" fill="none" stroke="#231f20" stroke-linecap="round" stroke-linejoin="round" stroke-width=".5"/><polyline points="78.48 172.16 77.36 171.51 77.07 159.86 84.28 159.09 85.72 159.69" fill="none" stroke="#231f20" stroke-linecap="round" stroke-linejoin="round" stroke-width=".5"/><line x1="78.21" y1="160.52" x2="77.07" y2="159.86" fill="none" stroke="#231f20" stroke-linecap="round" stroke-linejoin="round" stroke-width=".5"/><polygon points="85.55 157.98 78.1 158.85 77.81 147.2 85.12 146.44 85.55 157.98" fill="none" stroke="#231f20" stroke-linecap="round" stroke-linejoin="round" stroke-width=".5"/><polyline points="78.1 158.85 76.96 158.19 76.67 146.54 83.69 145.81 85.13 146.42" fill="none" stroke="#231f20" stroke-linecap="round" stroke-linejoin="round" stroke-width=".5"/><line x1="77.81" y1="147.2" x2="76.67" y2="146.54" fill="none" stroke="#231f20" stroke-linecap="round" stroke-linejoin="round" stroke-width=".5"/><polygon points="84.9 131.17 77.26 132.07 76.97 120.28 84.66 119.7 84.9 131.17" fill="none" stroke="#231f20" stroke-linecap="round" stroke-linejoin="round" stroke-width=".5"/><polyline points="77.26 132.08 76.09 131.4 75.8 119.62 83.19 119.06 84.67 119.67" fill="none" stroke="#231f20" stroke-linecap="round" stroke-linejoin="round" stroke-width=".5"/><line x1="76.91" y1="120.22" x2="75.74" y2="119.55" fill="none" stroke="#231f20" stroke-linecap="round" stroke-linejoin="round" stroke-width=".5"/><ellipse cx="233.56" cy="159.21" rx=".86" ry=".71" transform="translate(-26.83 49.24) rotate(-11.39)" fill="#231f20" stroke-width="0"/><ellipse cx="236.21" cy="158.93" rx=".86" ry=".71" transform="translate(-26.73 49.76) rotate(-11.39)" fill="#231f20" stroke-width="0"/><ellipse cx="247.43" cy="157.81" rx=".86" ry=".71" transform="translate(-26.28 51.95) rotate(-11.39)" fill="#231f20" stroke-width="0"/><ellipse cx="250.08" cy="157.53" rx=".86" ry=".71" transform="translate(-26.18 52.47) rotate(-11.39)" fill="#231f20" stroke-width="0"/><ellipse cx="115.89" cy="122.47" rx=".89" ry=".96" fill="#231f20" stroke-width="0"/><ellipse cx="74.25" cy="141.35" rx=".89" ry=".96" fill="#231f20" stroke-width="0"/><ellipse cx="74.25" cy="138.04" rx=".89" ry=".96" fill="#231f20" stroke-width="0"/><ellipse cx="73.84" cy="128.32" rx=".89" ry=".96" fill="#231f20" stroke-width="0"/><ellipse cx="73.84" cy="125.01" rx=".89" ry=".96" fill="#231f20" stroke-width="0"/><ellipse cx="74.66" cy="154.77" rx=".89" ry=".96" fill="#231f20" stroke-width="0"/><ellipse cx="74.66" cy="151.45" rx=".89" ry=".96" fill="#231f20" stroke-width="0"/><ellipse cx="75.07" cy="167.52" rx=".89" ry=".96" fill="#231f20" stroke-width="0"/><ellipse cx="75.07" cy="164.21" rx=".89" ry=".96" fill="#231f20" stroke-width="0"/><polygon points="106.3 142.87 98.73 143.75 98.45 132.1 106.06 131.29 106.3 142.87" fill="none" stroke="#231f20" stroke-linecap="round" stroke-linejoin="round" stroke-width=".49"/><polyline points="98.73 143.75 97.57 143.09 97.29 131.44 104.6 130.65 106.06 131.26" fill="none" stroke="#231f20" stroke-linecap="round" stroke-linejoin="round" stroke-width=".49"/><line x1="98.39" y1="132.04" x2="97.37" y2="131.44" fill="none" stroke="#231f20" stroke-linecap="round" stroke-linejoin="round" stroke-width=".49"/><polygon points="106.96 169.22 99.59 170.08 99.3 158.56 106.72 157.77 106.96 169.22" fill="none" stroke="#231f20" stroke-linecap="round" stroke-linejoin="round" stroke-width=".49"/><polyline points="99.57 170.07 98.46 169.43 98.17 157.91 105.3 157.14 106.72 157.74" fill="none" stroke="#231f20" stroke-linecap="round" stroke-linejoin="round" stroke-width=".49"/><line x1="99.3" y1="158.56" x2="98.17" y2="157.91" fill="none" stroke="#231f20" stroke-linecap="round" stroke-linejoin="round" stroke-width=".49"/><polygon points="106.56 156.04 99.19 156.91 98.9 145.38 106.13 144.63 106.56 156.04" fill="none" stroke="#231f20" stroke-linecap="round" stroke-linejoin="round" stroke-width=".49"/><polyline points="99.18 156.9 98.06 156.25 97.77 144.73 104.72 144.01 106.14 144.61" fill="none" stroke="#231f20" stroke-linecap="round" stroke-linejoin="round" stroke-width=".49"/><line x1="98.9" y1="145.38" x2="97.77" y2="144.73" fill="none" stroke="#231f20" stroke-linecap="round" stroke-linejoin="round" stroke-width=".49"/><polygon points="105.92 129.53 98.35 130.41 98.07 118.76 105.68 118.18 105.92 129.53" fill="none" stroke="#231f20" stroke-linecap="round" stroke-linejoin="round" stroke-width=".49"/><polyline points="98.36 130.43 97.2 129.75 96.91 118.1 104.23 117.55 105.69 118.15" fill="none" stroke="#231f20" stroke-linecap="round" stroke-linejoin="round" stroke-width=".49"/><line x1="98.01" y1="118.7" x2="96.86" y2="118.04" fill="none" stroke="#231f20" stroke-linecap="round" stroke-linejoin="round" stroke-width=".49"/><ellipse cx="95.38" cy="139.59" rx=".88" ry=".95" fill="#231f20" stroke-width="0"/><ellipse cx="95.38" cy="136.32" rx=".88" ry=".95" fill="#231f20" stroke-width="0"/><ellipse cx="94.98" cy="126.7" rx=".88" ry=".95" fill="#231f20" stroke-width="0"/><ellipse cx="94.98" cy="123.43" rx=".88" ry=".95" fill="#231f20" stroke-width="0"/><ellipse cx="95.79" cy="152.86" rx=".88" ry=".95" fill="#231f20" stroke-width="0"/><ellipse cx="95.79" cy="149.59" rx=".88" ry=".95" fill="#231f20" stroke-width="0"/><ellipse cx="96.2" cy="165.48" rx=".88" ry=".95" fill="#231f20" stroke-width="0"/><ellipse cx="96.2" cy="162.21" rx=".88" ry=".95" fill="#231f20" stroke-width="0"/><ellipse cx="53.42" cy="141.2" rx=".88" ry=".97" transform="translate(-32.84 17.3) rotate(-14.12)" fill="#231f20" stroke-width="0"/><ellipse cx="53.23" cy="137.29" rx=".88" ry=".97" transform="translate(-31.89 17.14) rotate(-14.12)" fill="#231f20" stroke-width="0"/><ellipse cx="54.17" cy="158.65" rx=".88" ry=".97" transform="translate(-37.07 18.01) rotate(-14.12)" fill="#231f20" stroke-width="0"/><ellipse cx="53.97" cy="154.73" rx=".88" ry=".97" transform="translate(-36.12 17.85) rotate(-14.12)" fill="#231f20" stroke-width="0"/><polygon points="111 113.71 112.14 113.67 111.61 114.84 111 113.71" fill="#231f20" stroke-width="0"/><polygon points="90.24 114.97 91.38 114.94 90.85 116.11 90.24 114.97" fill="#231f20" stroke-width="0"/><polygon points="68.92 115.77 70.06 115.74 69.54 116.91 68.92 115.77" fill="#231f20" stroke-width="0"/><polyline points="169.06 168.85 47.68 181.98 45.24 144.31 39.14 144.68" fill="none" stroke="#231f20" stroke-linecap="round" stroke-linejoin="round" stroke-width=".5"/><g clip-path="url(#b)"><path d="M147.3,146.62c-7.19-6.46-14.94-13.9-21.89-20.7-2.4-2.33-4.87-4.59-7.31-6.88-.05-.05-.05-.13,0-.18l8.14-9.18c.09-.1.25-.11.35-.01,7.02,6.64,14.34,13.56,21.11,20.38-7.15-6.41-14.46-13.37-21.44-20.03,0,0,.35-.01.35-.01l-8.3,9.03v-.18c2.41,2.31,4.79,4.67,7.24,6.95,7.09,6.59,15.17,14.01,21.76,20.83h0Z" fill="#231f20" stroke-width="0"/><path d="M147.19,152.2c-9.83-8.76-19.54-18.62-29.2-27.58,4.28-5.2,9.39-10.22,14-15.3.1-.1.26-.11.37-.01,2.57,2.44,5.12,4.9,7.65,7.37,2.47,2.47,5.3,5,7.56,7.47-5.24-4.77-10.43-9.59-15.57-14.47,0,0,.37-.01.37-.01-4.69,5.02-9.44,9.98-14.2,14.94v-.18c2.41,2.31,4.79,4.67,7.25,6.94,7.09,6.59,15.17,14.01,21.76,20.83h0Z" fill="#231f20" stroke-width="0"/><path d="M147.25,157.6c-7.53-6.47-14.61-13.44-21.9-20.17,0,0-7.36-6.66-7.36-6.66-.09-.08-.09-.21,0-.29,3.29-3.54,6.6-7.05,9.94-10.54,2.99-2.95,7.22-7.62,10.18-10.32-2.79,3.1-6.93,7.56-9.81,10.66-3.31,3.52-6.65,7.01-10.01,10.47,0,0,0-.29,0-.29l7.21,6.82c7.2,6.75,14.98,13.33,21.77,20.31h0Z" fill="#231f20" stroke-width="0"/><path d="M147.64,163.81c-7.48-6.52-14.69-13.35-21.89-20.18,0,0-7.33-6.69-7.33-6.69-.06-.06-.06-.15,0-.21,8.19-9.2,16.59-18.63,25.08-27.36-8.11,9.35-16.42,18.52-24.86,27.56,0,0,0-.21,0-.21l7.24,6.79c7.29,6.65,14.94,13.37,21.78,20.3h0Z" fill="#231f20" stroke-width="0"/><path d="M148.12,170.01c-7.28-6.43-15.18-13.78-22.26-20.51-2.43-2.33-4.92-4.59-7.4-6.85-.05-.04-.05-.12,0-.17,6.86-7.8,13.7-15.6,20.72-23.26,0,0,7.02-7.65,7.02-7.65v.14s-2.75-2.68-2.7-2.71c.04-.05,2.81,2.57,2.85,2.57.04.04.04.1,0,.14l-6.84,7.81c-6.78,7.55-14.13,16.1-20.87,22.96,9.58,9.07,20.3,18.3,29.5,27.54h0Z" fill="#231f20" stroke-width="0"/><path d="M144.14,171.78c-8.77-7.57-16.99-15.71-25.54-23.51,4.24-5.3,9.15-10.48,13.67-15.68,4.6-5.07,9.32-10.44,14.01-15.23-4.48,5.24-9.02,10.44-13.62,15.58-4.53,4.92-9.51,10.81-13.91,15.17,8.37,7.92,17.42,15.56,25.39,23.68h0Z" fill="#231f20" stroke-width="0"/><path d="M147.4,121.78c-8.97,10.92-19.01,21.71-28.19,32.5,0,0-.01-.2-.01-.2,3.22,2.93,11.45,10.42,14.53,13.29,0,0,4.8,4.48,4.8,4.48,0,0-.33.02-.33.02,3.28-3.69,6.48-7.52,9.82-11.12-3.05,3.85-6.33,7.61-9.48,11.41-.08.1-.22.11-.32.03,0,0-4.84-4.45-4.85-4.45-3.07-2.81-11.25-10.5-14.38-13.46-.06-.05-.06-.15-.01-.2,9.45-10.49,18.82-22.18,28.41-32.31h0Z" fill="#231f20" stroke-width="0"/><path d="M134.81,170.11c1.75-2.6,4.2-4.56,6.13-6.99,1.96-2.4,4.01-4.82,6.33-6.84-1.79,2.53-3.95,4.82-6.13,7.03-2.21,2.12-3.97,5.03-6.34,6.81h0Z" fill="#231f20" stroke-width="0"/><path d="M147.44,127.65c-4.59,5.54-9.47,10.81-14.36,16.07-4.8,5.35-9.43,10.84-14.28,16.14,0,0-.02-.36-.02-.36,3.32,3.1,6.61,6.24,9.85,9.42.02.02-.01.06-.03.04-3.43-2.98-6.81-6.02-10.16-9.08-.1-.1-.11-.26-.02-.36,4.76-5.38,9.73-10.57,14.54-15.91,4.71-5.36,9.5-11.05,14.49-15.96h0Z" fill="#231f20" stroke-width="0"/><path d="M127.82,173.7c-3.14-2.69-6.2-5.46-9.23-8.28-.09-.08-.09-.22-.01-.3,2.41-2.65,4.92-5.2,7.3-7.89,6.86-7.77,14.5-16.65,21.68-23.85-6.66,7.91-14.46,16.36-21.55,23.97-2.43,2.63-4.71,5.39-7.1,8.06,0,0-.01-.3-.01-.3,2.97,2.8,6.25,5.71,8.93,8.6h0Z" fill="#231f20" stroke-width="0"/><path d="M122.13,174.04c-1.19-1.01-2.37-2.03-3.53-3.07-.07-.06-.07-.16-.02-.23,2.34-2.71,4.72-5.38,7.2-7.97,7.24-7.92,14.02-16.25,21.55-23.91-2.05,2.71-4.67,5.49-6.95,8.18-4.7,5.4-9.76,10.47-14.41,15.9-2.3,2.75-4.69,5.4-7.13,8.02,0,0-.01-.24-.01-.24,1.05,1.08,2.45,2.24,3.3,3.32h0Z" fill="#231f20" stroke-width="0"/><path d="M147.42,141.2c-5.17-4.34-9.81-9.25-14.74-13.85-5.01-4.52-9.97-9.08-14.74-13.85-.07-.06-.07-.17,0-.23,1.01-.91,2.01-1.91,3.05-2.75-.87,1.02-1.89,1.99-2.83,2.98,0,0,0-.23,0-.23,5.02,4.5,9.86,9.2,14.65,13.95,4.79,4.67,10.23,9.1,14.61,13.98h0Z" fill="#231f20" stroke-width="0"/><path d="M120.81,110.2c4.76,3.92,8.87,8.52,13.46,12.63,4.58,4.11,9.05,8.33,13.3,12.79.02.02-.01.06-.03.04-4.67-4.02-9.11-8.27-13.46-12.63-4.26-4.37-9.35-8.31-13.27-12.82h0Z" fill="#231f20" stroke-width="0"/><path d="M147.33,145.07c-3.99,5.01-8.68,9.38-12.86,14.23-4.19,4.83-8.49,9.56-13.02,14.08-.02.02-.06-.01-.04-.03,4.09-4.92,8.42-9.63,12.86-14.23,4.45-4.52,8.45-9.86,13.06-14.04h0Z" fill="#231f20" stroke-width="0"/><path d="M130.45,168.63c2.49-3.33,5.66-6,8.33-9.16,2.69-3.12,5.47-6.26,8.53-9.01-2.52,3.26-5.42,6.27-8.33,9.19-2.94,2.83-5.44,6.48-8.53,8.97h0Z" fill="#231f20" stroke-width="0"/><path d="M126.68,172.7c.03-.45.32-.64.66-.8.35-.49.49-1.1,1.22-1.23.02,0,.04.01.04.03-.07.73-.67.92-1.13,1.31-.13.36-.3.65-.75.72-.02,0-.04-.01-.04-.03h0Z" fill="#231f20" stroke-width="0"/><path d="M143.21,171.73c.44-.89,1.13-1.52,1.88-2.12,1.03-1.19,1.86-2.65,3.28-3.42-.7,1.48-2.05,2.41-3.16,3.53-.53.73-1.19,1.72-2,2.01h0Z" fill="#231f20" stroke-width="0"/></g><polyline points="12.23 100.81 11.98 102.09 8.63 102.13 8.14 102.92 5.43 102.97 3.38 71.04 4.02 70.49 6.25 70.44 6.34 71.13 9.65 71.07 9.71 70.4 10.13 70.36 10.55 71.04" fill="none" stroke="#231f20" stroke-linecap="round" stroke-linejoin="round" stroke-width=".5"/><ellipse cx="7.38" cy="78.52" rx="1.55" ry="1.92" transform="translate(-71.21 85.07) rotate(-89.39)" fill="none" stroke="#231f20" stroke-linecap="round" stroke-linejoin="round" stroke-width=".5"/><ellipse cx="8.57" cy="95.21" rx="2.03" ry="2.27" transform="translate(-86.72 102.77) rotate(-89.39)" fill="none" stroke="#231f20" stroke-linecap="round" stroke-linejoin="round" stroke-width=".5"/><path d="M102.33,174.95l-.89.07c-.17.01-.3-.11-.3-.28v-.9c0-.17.14-.32.3-.33l.89-.07c.17-.01.3.11.3.28v.9c0,.17-.14.32-.3.33Z" fill="#231f20" stroke-width="0"/><path d="M82.76,177.02l-.89.07c-.17.01-.3-.11-.3-.28v-.9c0-.17.14-.32.3-.33l.89-.07c.17-.01.3.11.3.28v.9c0,.17-.14.32-.3.33Z" fill="#231f20" stroke-width="0"/><path d="M61.06,179.32l-.89.07c-.17.01-.3-.11-.3-.28v-.9c0-.17.14-.32.3-.33l.89-.07c.17-.01.3.11.3.28v.9c0,.17-.14.32-.3.33Z" fill="#231f20" stroke-width="0"/><path d="M266.5,151.3l-.89.07c-.17.01-.3-.11-.3-.28v-.9c0-.17.14-.32.3-.33l.89-.07c.17-.01.3.11.3.28v.9c0,.17-.14.32-.3.33Z" fill="#231f20" stroke-width="0"/><path d="M114.68,120.73l.12,3.46,3.71-.2-.22-6.53-3.71.2v.26s.25,0,.25.26v2.19s-.15.36-.15.36Z" fill="#231f20" stroke-width="0"/><ellipse cx="116.61" cy="122.6" rx=".85" ry=".83" transform="translate(-46.18 168.74) rotate(-62.26)" fill="#fff" stroke-width="0"/><path d="M117.63,118.76v-.19s-.25.01-.25.01c-.03-.07-.1-.13-.17-.16v-.26s-.2,0-.2,0v.22s-.26.01-.26.01v-.22s-.19,0-.19,0v.22s-.26.01-.26.01v-.22s-.19,0-.19,0v.22s-.25.01-.25.01v-.22s-.19,0-.19,0v.25c-.07.04-.13.1-.16.18h-.25s0,.2,0,.2h.22s0,.26,0,.26h-.22s0,.2,0,.2h.22s0,.26,0,.26h-.22s0,.2,0,.2h.22s0,.26,0,.26h-.22s0,.2,0,.2h.25c.04.06.1.12.17.14v.25s.2,0,.2,0v-.22s.26-.01.26-.01v.22s.19,0,.19,0v-.22s.26-.01.26-.01v.22s.19,0,.19,0v-.22s.25-.01.25-.01v.22s.19,0,.19,0v-.25c.07-.04.12-.1.15-.18h.25s0-.2,0-.2h-.22s0-.26,0-.26h.22s0-.2,0-.2h-.22s0-.26,0-.26h.22s0-.2,0-.2h-.22s0-.26,0-.26h.22ZM116.43,119.83h-.15s-.4-.58-.4-.58l.02.61h-.14s-.03-.82-.03-.82h.15s.39.58.39.58l-.02-.61h.14s.03.82.03.82ZM116.94,119.8h-.16s-.3-.8-.3-.8h.15s.23.64.23.64l.19-.67h.15s-.25.83-.25.83Z" fill="#fff" stroke="#231f20" stroke-miterlimit="10" stroke-width=".02"/><polygon points="134.17 171.42 129.39 172.01 129.38 169.52 134.15 169.06 134.17 171.42" fill="#231f20" stroke-width="0"/><path d="M130.69,171.38s-.08,0-.1-.03c-.03-.02-.04-.06-.04-.1s.01-.08.04-.11c.03-.03.06-.05.1-.05s.08,0,.1.03c.03.03.04.06.04.1s-.01.08-.04.11c-.03.03-.06.05-.1.05ZM130.66,170.87s0-.06,0-.11c0-.05-.01-.11-.02-.17,0-.06-.01-.12-.02-.18s0-.1-.01-.13c0-.06,0-.12-.01-.17s0-.09,0-.12c0-.05.01-.09.03-.12.02-.02.05-.04.08-.04s.06,0,.08.03c.02.02.03.06.03.11,0,.03,0,.07,0,.12,0,.05,0,.11-.01.18,0,.03,0,.08,0,.14s-.01.12-.02.18c0,.06-.01.12-.02.18,0,.05,0,.09,0,.12h-.07Z" fill="#fff" stroke="#fff" stroke-miterlimit="10" stroke-width=".05"/><path d="M133.19,171.06l-.85.09c-.16.02-.29-.1-.29-.26v-.86c0-.16.13-.3.29-.32l.85-.09c.16-.02.29.1.29.26v.86c0,.16-.13.3-.29.32Z" fill="#fff" stroke-width="0"/><polyline points="327.87 104.65 332.42 104.34 331.98 113.16 327.27 113.72 327.62 106.01" fill="none" stroke="#231f20" stroke-linecap="round" stroke-linejoin="round" stroke-width=".49"/><polyline points="327.78 104.01 331.53 103.77 332.43 104.32" fill="none" stroke="#231f20" stroke-linecap="round" stroke-linejoin="round" stroke-width=".49"/><polyline points="327.24 113.71 326.4 113.21 326.7 107.07" fill="none" stroke="#231f20" stroke-linecap="round" stroke-linejoin="round" stroke-width=".49"/><polygon points="331.6 123.64 326.89 124.2 327.33 115.14 332.05 114.64 331.6 123.64" fill="none" stroke="#231f20" stroke-linecap="round" stroke-linejoin="round" stroke-width=".49"/><polyline points="326.9 124.14 326.03 123.68 326.46 114.62 331.19 114.12 332.06 114.62" fill="none" stroke="#231f20" stroke-linecap="round" stroke-linejoin="round" stroke-width=".49"/><line x1="327.33" y1="115.14" x2="326.46" y2="114.62" fill="none" stroke="#231f20" stroke-linecap="round" stroke-linejoin="round" stroke-width=".49"/><polygon points="331.26 134.15 326.55 134.71 326.98 125.65 331.71 125.15 331.26 134.15" fill="none" stroke="#231f20" stroke-linecap="round" stroke-linejoin="round" stroke-width=".49"/><polyline points="326.55 134.66 325.69 134.2 326.12 125.13 330.85 124.64 331.71 125.13" fill="none" stroke="#231f20" stroke-linecap="round" stroke-linejoin="round" stroke-width=".49"/><line x1="326.98" y1="125.65" x2="326.12" y2="125.13" fill="none" stroke="#231f20" stroke-linecap="round" stroke-linejoin="round" stroke-width=".49"/><polygon points="330.83 144.63 326.12 145.19 326.55 136.13 331.28 135.63 330.83 144.63" fill="none" stroke="#231f20" stroke-linecap="round" stroke-linejoin="round" stroke-width=".49"/><polyline points="326.12 145.13 325.26 144.67 325.69 135.61 330.41 135.11 331.28 135.61" fill="none" stroke="#231f20" stroke-linecap="round" stroke-linejoin="round" stroke-width=".49"/><line x1="326.55" y1="136.13" x2="325.69" y2="135.61" fill="none" stroke="#231f20" stroke-linecap="round" stroke-linejoin="round" stroke-width=".49"/><ellipse cx="324.59" cy="120.97" rx=".8" ry=".74" transform="translate(187.29 439) rotate(-87.09)" fill="#231f20" stroke-width="0"/><ellipse cx="324.73" cy="118.23" rx=".8" ry=".74" transform="translate(190.15 436.54) rotate(-87.09)" fill="#231f20" stroke-width="0"/><ellipse cx="324.22" cy="131.53" rx=".8" ry=".74" transform="translate(176.38 448.65) rotate(-87.09)" fill="#231f20" stroke-width="0"/><ellipse cx="324.36" cy="128.79" rx=".8" ry=".74" transform="translate(179.25 446.19) rotate(-87.09)" fill="#231f20" stroke-width="0"/><ellipse cx="323.84" cy="141.94" rx=".8" ry=".74" transform="translate(165.63 458.15) rotate(-87.09)" fill="#231f20" stroke-width="0"/><ellipse cx="323.98" cy="139.2" rx=".8" ry=".74" transform="translate(168.5 455.69) rotate(-87.09)" fill="#231f20" stroke-width="0"/><polyline points="229.26 147.89 229.2 151.63 228.16 151.83" fill="none" stroke="#231f20" stroke-linecap="round" stroke-linejoin="round" stroke-width=".5"/><polyline points="224.46 152.38 218.62 152.88 216.73 151.63 216.79 148.9" fill="none" stroke="#231f20" stroke-linecap="round" stroke-linejoin="round" stroke-width=".5"/><line x1="218.62" y1="152.88" x2="218.62" y2="149.58" fill="none" stroke="#231f20" stroke-linecap="round" stroke-linejoin="round" stroke-width=".5"/><polyline points="216.79 148.9 218.62 149.58 225.71 149.03 224.76 149.68 224.76 153.13 226.61 153.23 228.16 151.83 228.16 148.83 226.76 149.93 224.86 149.88" fill="none" stroke="#231f20" stroke-linecap="round" stroke-linejoin="round" stroke-width=".5"/><path d="M267.76,144.32c-.82,1.56-5.04,1.65-5.04,1.65l-1.74,1.92-31.31,3.02" fill="none" stroke="#231f20" stroke-linecap="round" stroke-linejoin="round" stroke-width=".5"/><line x1="178.17" y1="169.92" x2="173.74" y2="170.41" fill="none" stroke="#231f20" stroke-linecap="round" stroke-linejoin="round" stroke-width=".5"/><polygon points="227.14 134.99 231.93 137.08 269.64 133.9 267.46 131.75 227.14 134.99" fill="none" stroke="#231f20" stroke-linecap="round" stroke-linejoin="round" stroke-width=".5"/><line x1="267.3" y1="134.07" x2="267.3" y2="131.98" fill="none" stroke="#231f20" stroke-linecap="round" stroke-linejoin="round" stroke-width=".5"/><path d="M214.14,135.16l6.14,2.73,9.53-.83,1.88.86s35.85-3.21,38.26-3.21c2.1,0,1.11-1.14,1.11-1.14l-3.17-2.91-53.75,4.5v1.19" fill="none" stroke="#231f20" stroke-linecap="round" stroke-linejoin="round" stroke-width=".5"/><polyline points="220.33 138.14 220.33 147.69 220.94 147.6" fill="none" stroke="#231f20" stroke-linecap="round" stroke-linejoin="round" stroke-width=".5"/><path d="M221.05,138.44l-.05,9.59.92.47c-.39-8.02.25-9.59.25-9.59l9.21-.83v9.5l-9.37.96" fill="none" stroke="#231f20" stroke-linecap="round" stroke-linejoin="round" stroke-width=".5"/><line x1="222.16" y1="138.92" x2="221.1" y2="138.49" fill="none" stroke="#231f20" stroke-linecap="round" stroke-linejoin="round" stroke-width=".5"/><path d="M231.85,147.56l38.17-3.65s1.26-.07,1.33-2.32l-.05-7.44" fill="none" stroke="#231f20" stroke-linecap="round" stroke-linejoin="round" stroke-width=".5"/><line x1="213.62" y1="164.02" x2="213.62" y2="149.37" fill="none" stroke="#231f20" stroke-linecap="round" stroke-linejoin="round" stroke-width=".5"/><line x1="112.66" y1="123.9" x2="113.46" y2="174.58" fill="none" stroke="#231f20" stroke-linecap="round" stroke-linejoin="round" stroke-width=".5"/><path d="M109.1,122.21h-.81l.54,1.21,1.02,39.89,2.29,1.95s.59,4.96-.62,6.11" fill="none" stroke="#231f20" stroke-linecap="round" stroke-linejoin="round" stroke-width=".5"/><path d="M109.33,123.18v-5.06l-.4-.35v2.61l-.5-.4v-1.95l-.9-1.95v-2.46h.9c0,.15-.05-2.06-.05-2.06l.2.1,1.45.7v7.62l.9-1.71h3.2v2.04l-.87,2.12v1.06h-3.34v-.98l1.14-2.24-.06-1.99" fill="none" stroke="#231f20" stroke-linecap="round" stroke-linejoin="round" stroke-width=".5"/><polyline points="108.58 111.4 110.98 111.4 112.79 112.19 112.79 117.96" fill="none" stroke="#231f20" stroke-linecap="round" stroke-linejoin="round" stroke-width=".5"/><line x1="110.03" y1="112.35" x2="112.79" y2="112.35" fill="none" stroke="#231f20" stroke-linecap="round" stroke-linejoin="round" stroke-width=".5"/><line x1="111.05" y1="120.25" x2="114.13" y2="120.25" fill="none" stroke="#231f20" stroke-linecap="round" stroke-linejoin="round" stroke-width=".5"/><line x1="109.91" y1="122.49" x2="113.26" y2="122.49" fill="none" stroke="#231f20" stroke-linecap="round" stroke-linejoin="round" stroke-width=".5"/><line x1="111.43" y1="165.18" x2="111.6" y2="174.99" fill="none" stroke="#231f20" stroke-linecap="round" stroke-linejoin="round" stroke-width=".5"/><line x1="217.2" y1="103.17" x2="217.2" y2="133.92" fill="none" stroke="#231f20" stroke-linecap="round" stroke-linejoin="round" stroke-width=".5"/><path d="M221.33,132.89c-2.55-.33-2.85-2.38-2.85-2.38l.2-24.16s-.28-3.41,4.4-3.56" fill="none" stroke="#231f20" stroke-linecap="round" stroke-linejoin="round" stroke-width=".5"/><path d="M222.27,109.65l5.09-4.98,5.06-.45s.93.75.86,2.18l-.44.49s-4.43.27-7.72,5.27l-1.99-.82s-1.05-1-.86-1.68Z" fill="none" stroke="#231f20" stroke-linecap="round" stroke-linejoin="round" stroke-width=".5"/><path d="M234.4,106.65s-.11-2.05-.54-2.42l5.37-.14,5.39,4.76s-1.45,2.22-2.26,2.28c0,0-2.65-4.3-7.95-4.47Z" fill="none" stroke="#231f20" stroke-linecap="round" stroke-linejoin="round" stroke-width=".5"/><path d="M249.15,126.24s12.73-.76,13.61-.88.82-.8.82-.8l.36-20.39c0-.99-.99-1-.99-1l-14.57.61s-.65-.18-.66.73-.09,10.67-.09,10.67" fill="none" stroke="#231f20" stroke-linecap="round" stroke-linejoin="round" stroke-width=".5"/><path d="M219.86,114.46s-.36-2.17,1.21-3.03l1.8.94,1.74.63,2.79,1.57s-1.28,3.52.2,6.39c0,0-3.58,2.76-4.7,2.75" fill="none" stroke="#231f20" stroke-linecap="round" stroke-linejoin="round" stroke-width=".5"/><path d="M226.05,112.53l2.17,1.13s1.46-2.72,4.83-3.37l.08-2.29s-3.43-.59-7.09,4.53Z" fill="none" stroke="#231f20" stroke-linecap="round" stroke-linejoin="round" stroke-width=".5"/><path d="M234.43,110.3s3.12.03,5.22,2.65l1.82-1.22s-2.78-3.8-7.02-3.9l-.02,2.48Z" fill="none" stroke="#231f20" stroke-linecap="round" stroke-linejoin="round" stroke-width=".5"/><path d="M228.16,122.09l-1.88,1.47s1.97,3.55,7.02,3.53l-.1-2.42s-2.43.1-5.03-2.58Z" fill="none" stroke="#231f20" stroke-linecap="round" stroke-linejoin="round" stroke-width=".5"/><path d="M234.31,124.69l.23,2.23s4.56-.21,6.96-4.65l-1.86-.95s-1.96,2.96-5.33,3.37Z" fill="none" stroke="#231f20" stroke-linecap="round" stroke-linejoin="round" stroke-width=".5"/><path d="M245.67,122.34l-.1.37-.45.44-.83-.69-.83-.35c-.83-.4-3.12-1.93-3.12-1.93,1.64-3.01-.05-6.19-.05-6.19,0,0,2.81-.95,3.85-3.14,0,0,1.13-.48,1.38-.92,0,0,.88.06.92,1.03l-.02,2.05" fill="none" stroke="#231f20" stroke-linecap="round" stroke-linejoin="round" stroke-width=".5"/><path d="M250.43,110.31l3.52-3.97,5.84-.39s1.67.36,1.64,2.99c-.02,2.63-.2,11.56-.2,11.56,0,0-.12,2.14-1.69,2.42s-5.84.59-5.84.59l-3.46-3.35.18-9.85Z" fill="none" stroke="#231f20" stroke-linecap="round" stroke-linejoin="round" stroke-width=".5"/><path d="M251.56,121.34l3.09-.12s1.92-.57,2.03-2.47l.15-12.53" fill="none" stroke="#231f20" stroke-linecap="round" stroke-linejoin="round" stroke-width=".5"/><path d="M240.36,128.86c2.72-2.37,4.11-4.84,4.11-4.84-.63-.79-2.15-1.04-2.15-1.04-3.18,4.85-7.9,5.2-7.9,5.2,0,0,.44.54-.3,1.22" fill="none" stroke="#231f20" stroke-linecap="round" stroke-linejoin="round" stroke-width=".5"/><path d="M233,129.29c.59-.63-.04-1.12-.04-1.12-4.66.21-7.82-4.11-7.82-4.11l-2.17.81" fill="none" stroke="#231f20" stroke-linecap="round" stroke-linejoin="round" stroke-width=".5"/><path d="M221.64,125.49l2.11-.03.22,3.42s.23,1.27,1.56,1.18,21.02-1.58,21.02-1.58c0,0,.69.15.65-1.07s-.17-3.32-.17-3.32l1.77-.03.31,3.86s.47,2.1-1.4,2.72l-23.77,1.75s-1.96-.21-2.14-2.31l-.16-4.59Z" fill="none" stroke="#231f20" stroke-linecap="round" stroke-linejoin="round" stroke-width=".5"/><path d="M221.64,125.49l-1.48.57.02,3.85s.32,3.03,3.76,2.47" fill="none" stroke="#231f20" stroke-linecap="round" stroke-linejoin="round" stroke-width=".5"/><polyline points="245.42 128.32 245.26 124.51 247.03 124.09" fill="none" stroke="#231f20" stroke-linecap="round" stroke-linejoin="round" stroke-width=".5"/><path d="M220.01,114.94l-.06,6.73s1.86.99,2.08-2.32c0,0,.33-4.39-2.02-4.41Z" fill="none" stroke="#231f20" stroke-linecap="round" stroke-linejoin="round" stroke-width=".5"/><path d="M221.69,115.59c2.06-.22,1.57,4.58,1.57,4.58l-1.06.06-.02,1.92-.33.79-.02,2.46" fill="none" stroke="#231f20" stroke-linecap="round" stroke-linejoin="round" stroke-width=".5"/><polyline points="223.07 120.42 223.06 122.15 222.72 122.95 222.7 125.41" fill="none" stroke="#231f20" stroke-linecap="round" stroke-linejoin="round" stroke-width=".5"/><polyline points="221.17 121.63 221.16 122.35 220.83 123.15 220.81 125.61" fill="none" stroke="#231f20" stroke-linecap="round" stroke-linejoin="round" stroke-width=".5"/><path d="M245.22,121.58l1.42-.14-.13-2.19.41-.47.02-2.92s-.49-1.51-1.53-1.37c0,0-.89.09-.98,1.73l-.02,2.49.63.78.18,2.09Z" fill="none" stroke="#231f20" stroke-linecap="round" stroke-linejoin="round" stroke-width=".5"/><path d="M246.81,121.36l.13-.06.56-.25-.14-1.92.41-.47.02-2.92s-.49-1.51-1.53-1.37l-.86.12" fill="none" stroke="#231f20" stroke-linecap="round" stroke-linejoin="round" stroke-width=".5"/><polyline points="245.78 121.58 245.76 122.99 246.21 123.56 246.21 124.1" fill="none" stroke="#231f20" stroke-linecap="round" stroke-linejoin="round" stroke-width=".5"/><polyline points="246.62 121.35 246.61 122.76 247.06 123.33 247.06 123.87" fill="none" stroke="#231f20" stroke-linecap="round" stroke-linejoin="round" stroke-width=".5"/><polyline points="247.44 121.11 247.43 122.52 247.88 123.1 247.87 123.64" fill="none" stroke="#231f20" stroke-linecap="round" stroke-linejoin="round" stroke-width=".5"/><ellipse cx="245.65" cy="117.11" rx="1.26" ry=".46" transform="translate(126.48 361.77) rotate(-89.52)" fill="none" stroke="#231f20" stroke-linecap="round" stroke-linejoin="round" stroke-width=".5"/><ellipse cx="220.9" cy="118.33" rx="1.26" ry=".46" transform="translate(100.71 338.23) rotate(-89.52)" fill="none" stroke="#231f20" stroke-linecap="round" stroke-linejoin="round" stroke-width=".5"/><ellipse cx="244.51" cy="104.68" rx="2.2" ry="2.13" transform="translate(30.46 262.55) rotate(-59.59)" fill="none" stroke="#231f20" stroke-linecap="round" stroke-linejoin="round" stroke-width=".5"/><line x1="244.64" y1="103.27" x2="244.61" y2="105.99" fill="none" stroke="#231f20" stroke-linecap="round" stroke-linejoin="round" stroke-width=".5"/><ellipse cx="222.05" cy="105.89" rx="2.03" ry="1.92" transform="translate(55.55 286.99) rotate(-72.9)" fill="none" stroke="#231f20" stroke-linecap="round" stroke-linejoin="round" stroke-width=".5"/><line x1="222.16" y1="104.6" x2="222.14" y2="107.1" fill="none" stroke="#231f20" stroke-linecap="round" stroke-linejoin="round" stroke-width=".5"/><line x1="221.1" y1="105.98" x2="223.12" y2="105.84" fill="none" stroke="#231f20" stroke-linecap="round" stroke-linejoin="round" stroke-width=".5"/><path d="M245.54,114.27v-1.34s1.54.12,1.83,1.76" fill="none" stroke="#231f20" stroke-linecap="round" stroke-linejoin="round" stroke-width=".5"/><path d="M250.41,112.93l2.36,1.15s1.32.79-.29,1.3l-2.04-.93" fill="none" stroke="#231f20" stroke-linecap="round" stroke-linejoin="round" stroke-width=".5"/><path d="M250.46,111.89l3.92,1.9s1.32.79-.29,1.3l-1.49.29" fill="none" stroke="#231f20" stroke-linecap="round" stroke-linejoin="round" stroke-width=".5"/><path d="M254.29,119.69l1.49-.29c1.61-.51.29-1.3.29-1.3l-2.36-1.17-2.21.14,2.96,1.32s1.32.79-.29,1.3l-2.72-1.26v-.96" fill="none" stroke="#231f20" stroke-linecap="round" stroke-linejoin="round" stroke-width=".5"/><path d="M252.8,107.68l1.7.83s1.32.79-.29,1.3l-2.04-.93" fill="none" stroke="#231f20" stroke-linecap="round" stroke-linejoin="round" stroke-width=".5"/><path d="M253.44,106.92l2.67,1.3s1.32.79-.29,1.3l-1.49.29" fill="none" stroke="#231f20" stroke-linecap="round" stroke-linejoin="round" stroke-width=".5"/><path d="M266.94,110.15l.22-7.29s-.25-.83-1.92-.78l-17.06.75" fill="none" stroke="#231f20" stroke-linecap="round" stroke-linejoin="round" stroke-width=".5"/><polyline points="248.92 129.89 266.37 128.69 266.51 124.69" fill="none" stroke="#231f20" stroke-linecap="round" stroke-linejoin="round" stroke-width=".5"/><path d="M244.4,101.57s3.55-.18,3.97,2.2" fill="none" stroke="#231f20" stroke-linecap="round" stroke-linejoin="round" stroke-width=".5"/><line x1="243.41" y1="104.72" x2="245.88" y2="104.63" fill="none" stroke="#231f20" stroke-linecap="round" stroke-linejoin="round" stroke-width=".5"/><polygon points="110.88 113.69 112.02 113.66 111.5 114.83 110.88 113.69" fill="#231f20" stroke-width="0"/></g><g id="c"><path d="M361.98,129.97s1.57-13.69-15.43-18.88" fill="none" stroke="#fff" stroke-linecap="round" stroke-linejoin="round" stroke-width="8"/><path d="M362.11,127.07c-1.02-5.01-4.57-12.89-16.56-16.5" fill="none" stroke="#000" stroke-dasharray="0 0 2 3" stroke-linecap="round" stroke-linejoin="round" stroke-width="1.25"/><polygon points="365.04 125.85 362.48 131.54 358.84 126.49 365.04 125.85" stroke-width="0"/><path d="M341.45,142.64l17.51-9.27s2.88-1.65,5.87.21,3.09,3.5,3.09,3.5l4.02,12.57-1.03,1.24,1.44,4.33-4.84,2.68s1.34,1.13,2.06,1.34l.31,1.13s-2.27,1.34-3.91.62l-2.47-2.47-1.03.1v-1.44l.82-.21-.72-1.44-22.25,9.99s-2.27.52-3.3-.1l2.47-.41,1.96-22.35ZM366.66,147.43c.48-1.42.66-3.12.44-4.91-.54-4.47-3.48-8.34-6.3-7.45-2.54.8-3.83,4.29-3.29,8.76s3.78,7.03,5.43,7c.52-.01.84.2,1.29-.07,0,0,.32-2.69,1.05-3.55l1.03-.17.35.38Z" fill="#d0cfce" stroke="#fff" stroke-linecap="round" stroke-linejoin="round" stroke-width="2"/><polygon points="294.98 100.33 310.16 99.43 342.41 106.5 343.12 107.06 340.33 164.24 339.89 165.18 325.74 166.98 324.68 166.23 293.7 153.63 294.32 128.79 294.86 111.24 294.98 100.33" fill="#d0cfce" stroke="#fff" stroke-linecap="round" stroke-linejoin="round" stroke-width="2"/><path d="M341.45,142.64l17.51-9.27s2.88-1.65,5.87.21,3.09,3.5,3.09,3.5l4.02,12.57-1.03,1.24,1.44,4.33-4.84,2.68s1.34,1.13,2.06,1.34l.31,1.13s-2.27,1.34-3.91.62l-2.47-2.47-1.03.1v-1.44l.82-.21-.72-1.44-22.25,9.99s-2.27.52-3.3-.1l2.47-.41,1.96-22.35ZM366.66,147.43c.48-1.42.66-3.12.44-4.91-.54-4.47-3.48-8.34-6.3-7.45-2.54.8-3.83,4.29-3.29,8.76s3.78,7.03,5.43,7c.52-.01.84.2,1.29-.07,0,0,.32-2.69,1.05-3.55l1.03-.17.35.38Z" fill="#d0cfce" stroke-width="0"/><polygon points="295.11 100.34 310.16 99.43 342.41 106.5 343.12 107.06 340.33 164.24 339.89 165.18 325.74 166.98 324.68 166.23 293.7 153.63 295.11 100.34" fill="#d0cfce" stroke-width="0"/><line x1="309.61" y1="99.33" x2="342.6" y2="106.5" fill="none" stroke="#231f20" stroke-linecap="round" stroke-linejoin="round" stroke-width=".5"/><path d="M341.28,142.58l18.19-9.39s4.25-1.73,7.46,3.9l4.19,12.68.91-.13-4.15-12.75s-2.83-4.74-6.84-4.05" fill="none" stroke="#231f20" stroke-linecap="round" stroke-linejoin="round" stroke-width=".5"/><path d="M363.31,156.99l-.59-1.53s-19.85,8.86-22.07,9.88-3.41.17-3.41.17" fill="none" stroke="#231f20" stroke-linecap="round" stroke-linejoin="round" stroke-width=".5"/><path d="M362.51,157.3l.07,1.32.83-.28,2.25,2.43s.87.66,1.53-.49l-.42-.9h-.8s-1.32-1.14-1.32-1.63l5.13-2.32-1.35-4.61-1.63.76-.66-2.39.76-.21s-1.56-1.35-1.56-1.84c0,0-1.18,1.11-1.01,5.51l-1.56.73.83,1.91,1.56-.62.66,1.32-3.33,1.32Z" fill="none" stroke="#231f20" stroke-linecap="round" stroke-linejoin="round" stroke-width=".5"/><path d="M367.59,151.12l-.68-2.14.96-.09c-.25,0-1.52-1.79-1.52-1.79l-1,.04" fill="none" stroke="#231f20" stroke-linecap="round" stroke-linejoin="round" stroke-width=".5"/><polyline points="368.44 150.81 371.02 150.84 372.48 155.14 369.76 155.23" fill="none" stroke="#231f20" stroke-linecap="round" stroke-linejoin="round" stroke-width=".5"/><polyline points="364.66 157.75 367.44 157.64 372.48 155.14" fill="none" stroke="#231f20" stroke-linecap="round" stroke-linejoin="round" stroke-width=".5"/><path d="M367.68,157.89s.77,1.27,1.98,1.42l.19.9s-.65,1.24-3.46.87" fill="none" stroke="#231f20" stroke-linecap="round" stroke-linejoin="round" stroke-width=".5"/><path d="M364.23,150.78c-.45.27-.94.44-1.46.51-2.94.36-5.76-2.98-6.3-7.45s1.4-8.39,4.33-8.75c2.94-.36,5.76,2.98,6.3,7.45.22,1.79.04,3.49-.44,4.91" fill="none" stroke="#231f20" stroke-linecap="round" stroke-linejoin="round" stroke-width=".5"/><path d="M363.74,150.86c-2.94.36-5.76-2.98-6.3-7.45-.43-3.57.72-6.79,2.69-8.12" fill="none" stroke="#231f20" stroke-linecap="round" stroke-linejoin="round" stroke-width=".5"/><line x1="369.59" y1="150.77" x2="371.12" y2="149.78" fill="none" stroke="#231f20" stroke-linecap="round" stroke-linejoin="round" stroke-width=".5"/><line x1="372.04" y1="149.64" x2="370.69" y2="150.65" fill="none" stroke="#231f20" stroke-linecap="round" stroke-linejoin="round" stroke-width=".5"/><line x1="324.82" y1="166.36" x2="293.61" y2="153.5" fill="none" stroke="#231f20" stroke-linecap="round" stroke-linejoin="round" stroke-width=".5"/><line x1="327.23" y1="107.8" x2="295.15" y2="100.49" fill="none" stroke="#231f20" stroke-linecap="round" stroke-linejoin="round" stroke-width=".5"/><polygon points="325.88 168.99 342.29 175.38 335.39 176.26 365.16 180.5 365.16 172.76 357.86 173.65 341.1 167.12 325.88 168.99" fill="#221f20" stroke-width="0"/><polygon points="365.16 172.76 365.16 180.5 335.39 176.26 342.29 175.38 325.88 168.99 341.1 167.12 357.86 173.65 365.16 172.76" fill="none" stroke="#fff" stroke-linecap="round" stroke-linejoin="round" stroke-width="4"/><polygon points="325.88 168.99 342.29 175.38 335.39 176.26 365.16 180.5 365.16 172.76 357.86 173.65 341.1 167.12 325.88 168.99" fill="#221f20" stroke-width="0"/><polygon points="265.02 179.6 281.43 185.99 274.53 186.86 304.3 191.11 304.3 183.37 297 184.26 280.24 177.73 265.02 179.6" fill="#221f20" stroke-width="0"/><polygon points="340.28 164.25 343.09 106.92 342.6 106.5 327.58 107.53 327.07 108.04 324.82 166.36 325.45 166.78 339.86 164.96 340.28 164.25" fill="none" stroke="#231f20" stroke-linecap="round" stroke-linejoin="round" stroke-width=".5"/><polyline points="337.59 105.45 322.55 106.23 322.06 107 319.81 164.19" fill="none" stroke="#231f20" stroke-linecap="round" stroke-linejoin="round" stroke-width=".5"/><path d="M338.53,164.43l-.87.1c-.16.02-.3-.1-.3-.26v-.88c0-.16.13-.32.3-.33l.87-.1c.16-.02.3.1.3.26v.88c0,.16-.13.32-.3.33Z" fill="#231f20" stroke-width="0"/><line x1="291.39" y1="153.69" x2="292.45" y2="109.34" fill="none" stroke="#231f20" stroke-linecap="round" stroke-linejoin="round" stroke-width=".5"/><ellipse cx="328.4" cy="150.56" rx="1.04" ry=".84" transform="translate(161.35 470.89) rotate(-87.09)" fill="#231f20" stroke-width="0"/><ellipse cx="328.55" cy="147.34" rx="1.04" ry=".84" transform="translate(164.7 467.98) rotate(-87.09)" fill="#231f20" stroke-width="0"/><ellipse cx="329.56" cy="127.43" rx="1.04" ry=".84" transform="translate(185.56 450.09) rotate(-87.09)" fill="#231f20" stroke-width="0"/><ellipse cx="329.71" cy="124.21" rx="1.04" ry=".84" transform="translate(188.91 447.19) rotate(-87.09)" fill="#231f20" stroke-width="0"/><polygon points="337.85 156.76 331.37 157.49 332.1 141.08 338.59 140.54 337.85 156.76" fill="none" stroke="#231f20" stroke-linecap="round" stroke-linejoin="round" stroke-width=".64"/><polyline points="331.38 157.42 330.19 156.83 330.91 140.42 337.4 139.88 338.6 140.52" fill="none" stroke="#231f20" stroke-linecap="round" stroke-linejoin="round" stroke-width=".64"/><line x1="332.1" y1="141.08" x2="330.91" y2="140.42" fill="none" stroke="#231f20" stroke-linecap="round" stroke-linejoin="round" stroke-width=".64"/><polygon points="338.8 133.39 332.34 133.86 333.06 117.45 339.55 117.03 338.8 133.39" fill="none" stroke="#231f20" stroke-linecap="round" stroke-linejoin="round" stroke-width=".64"/><polyline points="332.34 133.79 331.15 133.2 331.87 116.79 338.36 116.36 339.56 117" fill="none" stroke="#231f20" stroke-linecap="round" stroke-linejoin="round" stroke-width=".64"/></g><g id="d"><polygon points="214.05 149.58 271.48 144.09 299.1 154.78 298.05 172.45 241.66 179.19 214.18 163.24 214.05 149.58" fill="#fff" stroke-width="0"/><polygon points="214.05 149.98 272 144.03 290.72 151.53 294.44 151.78 294.33 152.82 298.83 154.67 298.05 172.85 241.66 179.58 214.18 163.63 214.05 149.98" fill="#d0cfce" stroke-width="0"/><line x1="256.81" y1="159.53" x2="246.52" y2="160.66" fill="#fff" stroke="#231f20" stroke-linecap="round" stroke-linejoin="round" stroke-width=".5"/><line x1="299.1" y1="154.78" x2="295.75" y2="155.15" fill="#fff" stroke="#231f20" stroke-miterlimit="10" stroke-width=".5"/><polyline points="275.75 163.96 289.57 162.42 289.57 168.96 273.66 170.76 273.59 164.68" fill="none" stroke="#231f20" stroke-linecap="round" stroke-linejoin="round" stroke-width=".5"/><polyline points="280.79 162.52 288.44 161.67 289.57 162.42" fill="none" stroke="#231f20" stroke-linecap="round" stroke-linejoin="round" stroke-width=".5"/><polyline points="273.66 170.76 273.02 170.12 272.89 165.13" fill="none" stroke="#231f20" stroke-linecap="round" stroke-linejoin="round" stroke-width=".5"/><polyline points="271.63 165.54 271.63 170.8 255.72 172.6 255.72 170.03" fill="none" stroke="#231f20" stroke-linecap="round" stroke-linejoin="round" stroke-width=".5"/><polyline points="255.72 172.6 255.08 171.96 255.02 169.72" fill="none" stroke="#231f20" stroke-linecap="round" stroke-linejoin="round" stroke-width=".5"/><line x1="254.81" y1="165.1" x2="254.83" y2="166.19" fill="#fff" stroke="#231f20" stroke-linecap="round" stroke-linejoin="round" stroke-width=".5"/><line x1="241.59" y1="162.4" x2="242.93" y2="162.28" fill="none" stroke="#231f20" stroke-linecap="round" stroke-linejoin="round" stroke-width=".5"/></g><g id="e"><line x1="237" y1="176.59" x2="237.12" y2="160.75" fill="none" stroke="#231f20" stroke-miterlimit="10" stroke-width=".5"/><line x1="218.37" y1="148.93" x2="230.31" y2="154.63" fill="none" stroke="#231f20" stroke-miterlimit="10" stroke-width=".5"/><line x1="271.44" y1="143.8" x2="290.62" y2="151.49" fill="none" stroke="#231f20" stroke-linecap="round" stroke-linejoin="round" stroke-width=".5"/><polyline points="283.14 148.42 230.6 154.44 230.6 157.31 241.59 162.4 241.59 179.19 298.24 172.19 298.93 154.63 295.37 153.21" fill="none" stroke="#231f20" stroke-miterlimit="10" stroke-width=".5"/><line x1="241.59" y1="179.19" x2="213.53" y2="163.16" fill="none" stroke="#231f20" stroke-miterlimit="10" stroke-width=".5"/><path d="M254.77,165.07l-9.8-2.76c-4.69-2.21.69-4.28.69-4.28l29.94-7.45,15.73.97,3.17.14-.28.97s4,1.52-.14,2.76l-30.77,8.83-.64-.49,1.69-.49-1.27-.71-8.34,2.52Z" fill="none" stroke="#231f20" stroke-linecap="round" stroke-linejoin="round" stroke-width=".5"/><path d="M295.6,154.78c.5.54.49,1.24-1.6,1.86l-26.08,7.48c.06.06-.03,2.04-.03,2.04l26.21-7.52c1.55-.47,1.96-.97,1.86-1.42l-.04-1.93" fill="none" stroke="#231f20" stroke-linecap="round" stroke-linejoin="round" stroke-width=".5"/><path d="M263.02,163.78l-8.34,2.52-9.8-2.76c-1.11-.52-1.65-1.04-1.84-1.52v-1.93" fill="none" stroke="#231f20" stroke-linecap="round" stroke-linejoin="round" stroke-width=".5"/><ellipse cx="254.18" cy="160.5" rx="8.56" ry="1.83" fill="none" stroke="#231f20" stroke-miterlimit="10" stroke-width=".5"/><path d="M245.91,160.68c.99-.78,4.31-1.35,8.26-1.35s7.59.63,8.39,1.46" fill="none" stroke="#231f20" stroke-miterlimit="10" stroke-width=".5"/><ellipse cx="287.77" cy="153.5" rx="2.25" ry=".52" fill="none" stroke="#231f20" stroke-linecap="round" stroke-linejoin="round" stroke-width=".5"/><polygon points="257.96 167.44 257.96 170.32 263.05 168.68 263.05 165.84 257.96 167.44" fill="none" stroke="#231f20" stroke-linecap="round" stroke-linejoin="round" stroke-width=".5"/><polygon points="255.05 166.46 257.89 167.31 257.89 170.25 255.05 169.39 255.05 166.46" fill="none" stroke="#231f20" stroke-linecap="round" stroke-linejoin="round" stroke-width=".5"/><polygon points="264.16 166.2 264.9 163.85 264.9 166.79 264.16 169.13 264.16 166.2" fill="none" stroke="#231f20" stroke-linecap="round" stroke-linejoin="round" stroke-width=".5"/><line x1="266.89" y1="163.47" x2="267.92" y2="164.13" fill="none" stroke="#231f20" stroke-linecap="round" stroke-linejoin="round" stroke-width=".5"/><line x1="267.89" y1="166.17" x2="265.16" y2="167" fill="none" stroke="#231f20" stroke-linecap="round" stroke-linejoin="round" stroke-width=".5"/><line x1="267.89" y1="164.15" x2="265.16" y2="164.98" fill="none" stroke="#231f20" stroke-linecap="round" stroke-linejoin="round" stroke-width=".5"/><line x1="242.77" y1="160.11" x2="230.6" y2="154.44" fill="none" stroke="#231f20" stroke-miterlimit="10" stroke-width=".5"/><path d="M296.96,164.68l-.89.07c-.17.01-.3-.11-.3-.28v-.9c0-.17.14-.32.3-.33l.89-.07c.17-.01.3.11.3.28v.9c0,.17-.14.32-.3.33Z" fill="#231f20" stroke-width="0"/><polyline points="263.15 165.84 262 165.11 264.46 164.31" fill="none" stroke="#231f20" stroke-linecap="round" stroke-linejoin="round" stroke-width=".5"/><line x1="263.05" y1="165.84" x2="264.16" y2="166.2" fill="none" stroke="#231f20" stroke-linecap="round" stroke-linejoin="round" stroke-width=".5"/><line x1="263.05" y1="168.68" x2="264.16" y2="169.13" fill="none" stroke="#231f20" stroke-linecap="round" stroke-linejoin="round" stroke-width=".5"/><path d="M249.2,169.78c-4.04-.01-9.21-1.46-9.08-8.82" fill="none" stroke="#fff" stroke-linecap="round" stroke-linejoin="round" stroke-width="3"/><path d="M249.46,169.78c-4.08.05-9.48-1.29-9.34-8.82" fill="none" stroke="#000" stroke-dasharray="0 0 1.5 3" stroke-linecap="round" stroke-linejoin="round" stroke-width="1.25"/><polygon points="248.21 166.69 253.91 169.21 248.88 172.89 248.21 166.69" stroke-width="0"/><polygon points="259.14 167.88 259.13 169.04 260.43 168.11 259.14 167.88" fill="#231f20" stroke-width="0"/></g><g id="f"><circle cx="385.58" cy="54.97" r="40.25" fill="#fff" stroke-width="0"/><path d="M381.74,93.79l.92-24.55-2-.31v-2.46l3.08.46v-6.31h-2.62v-6.31l-2.46-4.46.15-10h2l.46-7.69,6.77.15,10.16.31-.46,18.31,4.62.15.92,1.23.31,5.85-5.85,8.46-.15,3.08-5.08.77-.77,21.94s-7.39,1.23-10,1.38Z" fill="#d0cfce" stroke-width="0"/><g clip-path="url(#g)"><polyline points="397.73 51.03 398.13 32.48 388.33 32.48 381.31 32.08 381.31 40.17 378.92 40.03 378.66 49.84 381.17 54.48 381.04 60.57 383.82 60.84 383.95 52.22 385.94 52.49 385.85 69.8 387.66 70.1 387.66 66.4 393.49 58.72 393.63 52.75 392.57 51.3 390.58 56.99 387.66 58.98 388.33 32.48" fill="none" stroke="#231f20" stroke-linecap="round" stroke-linejoin="round" stroke-width=".5"/><polyline points="392.57 51.3 402.5 51.16 403.56 52.62 403.7 57.66 397.6 66.13 397.6 69.98 387.74 70.1" fill="none" stroke="#231f20" stroke-linecap="round" stroke-linejoin="round" stroke-width=".5"/><line x1="387.66" y1="66.4" x2="397.38" y2="66.3" fill="none" stroke="#231f20" stroke-linecap="round" stroke-linejoin="round" stroke-width=".5"/><line x1="385.91" y1="57.9" x2="384.08" y2="57.69" fill="none" stroke="#231f20" stroke-linecap="round" stroke-linejoin="round" stroke-width=".5"/><polyline points="383.82 60.84 383.82 66.75 380.78 66.34 380.78 68.76 381.6 68.9" fill="none" stroke="#231f20" stroke-linecap="round" stroke-linejoin="round" stroke-width=".5"/><path d="M385.65,69.73l-2.7-.54-2.86,120.17,5.61,5.42s.25,11.42-4.35,15.39v1.32s6.18-.57,7.13-9.84c0,0,.77-9.22,1.04-20.04l3.19-111.57" fill="none" stroke="#231f20" stroke-linecap="round" stroke-linejoin="round" stroke-width=".5"/><polygon points="389.65 36.32 397.02 36.32 393.33 44.1 389.65 36.32" fill="#231f20" stroke-width="0"/><path d="M385.68,31.95s.09-1.37-4.65-1.28-52.05.18-52.05.18c0,0-3.46-.82-3.46,4.38l-.09,94.07" fill="none" stroke="#231f20" stroke-miterlimit="10" stroke-width=".5"/><path d="M357.71,33.39c2.81,2.2,5.08,4.88,7.27,7.66,3.98,4.22,8.87,8.15,11.82,13.04-4.64-3.69-8.16-8.42-12.06-12.82-2.5-2.39-5.43-4.92-7.03-7.88h0Z" fill="#231f20" stroke-width="0"/><path d="M346.97,40.71c3.59,3.07,6.65,6.62,9.6,10.27,5.28,5.66,11.46,11.05,15.71,17.38-5.94-5.14-10.76-11.31-15.95-17.16-3.28-3.26-6.98-6.67-9.36-10.49h0Z" fill="#231f20" stroke-width="0"/><path d="M355.52,32.97c-.61,1.62-1.76,2.76-3.03,3.82-1.05,1.24-1.72,2.79-2.83,3.99-.73.8-1.51,1.56-2.45,2.19,0,0-.08-.06-.08-.06,1.04-2.64,3.25-4.32,5.1-6.33.81-1.44,1.72-2.78,3.2-3.68,0,0,.08.06.08.06h0Z" fill="#231f20" stroke-width="0"/><path d="M371.87,33.21c-3.66,4.9-7.89,9.29-12.18,13.62-4.08,4.52-7.83,9.34-11.99,13.79,0,0,0-.71,0-.71,2.61,2.89,5.17,5.81,7.58,8.87,0,0-.07.07-.07.07-2.98-2.75-5.82-5.63-8.61-8.57,2.13-2.4,4.33-4.73,6.55-7.06,2.12-2.19,4.3-4.32,6.31-6.61,3.9-4.59,7.88-9.66,12.42-13.41h0Z" fill="#231f20" stroke-width="0"/><path d="M356.42,68.66c2.23-3.25,4.98-6.01,7.84-8.68,4.32-4.76,8.28-10.41,13.35-14.2-3.74,5.38-8.61,9.73-13.11,14.42-2.44,2.95-5,6.35-8.07,8.46h0Z" fill="#231f20" stroke-width="0"/><path d="M365.29,96.87c2.14,1.49,3.74,3.47,5.25,5.54,1.71,1.89,3.78,3.44,5.44,5.37,1.12,1.28,2.17,2.61,3.09,4.07l-.07.07c-3.52-2.51-5.92-6.06-8.7-9.29-1.94-1.68-3.78-3.44-5.09-5.69,0,0,.07-.07.07-.07h0Z" fill="#231f20" stroke-width="0"/><path d="M355.65,103.45c3.27,2.71,5.99,5.91,8.62,9.21,4.74,5.08,10.38,9.87,14.08,15.61-5.39-4.55-9.67-10.14-14.32-15.39-2.95-2.91-6.33-5.96-8.39-9.42h0Z" fill="#231f20" stroke-width="0"/><path d="M363.32,96.5c-.5,1.49-1.55,2.5-2.71,3.44-.95,1.11-1.51,2.54-2.51,3.6-.66.72-1.37,1.39-2.23,1.94l-.08-.06c.86-2.43,2.89-3.89,4.57-5.68.71-1.31,1.51-2.53,2.88-3.3,0,0,.08.06.08.06h0Z" fill="#231f20" stroke-width="0"/><path d="M377.99,96.72c-2.34,3.42-5.2,6.35-8.17,9.19-4.51,5.05-8.65,10.97-13.91,15.05,3.92-5.66,8.98-10.29,13.67-15.27,2.55-3.12,5.21-6.69,8.41-8.97h0Z" fill="#231f20" stroke-width="0"/><path d="M368.85,123.86c.84-1.71,2.2-2.91,3.66-4.02,1.26-1.3,2.16-2.95,3.47-4.2.86-.85,1.78-1.64,2.84-2.3,0,0,.07.07.07.07-1.42,2.8-3.96,4.55-6.15,6.66-1.04,1.52-2.16,2.94-3.82,3.87,0,0-.07-.07-.07-.07h0Z" fill="#231f20" stroke-width="0"/><ellipse cx="340.36" cy="45.21" rx="2.93" ry="3.02" fill="#231f20" stroke-width="0"/><ellipse cx="340.36" cy="54.35" rx="2.93" ry="3.02" fill="#231f20" stroke-width="0"/><ellipse cx="340.36" cy="63.49" rx="2.93" ry="3.02" fill="#231f20" stroke-width="0"/><polygon points="340.51 75.38 340.51 86.67 340.51 91.02 371.48 89.8 371.48 74.16 340.51 75.38" fill="none" stroke="#231f20" stroke-miterlimit="10" stroke-width=".5"/><polygon points="367.17 85.67 342.97 86.49 342.97 82.86 367.17 82.32 367.17 85.67" fill="none" stroke="#231f20" stroke-miterlimit="10" stroke-width=".5"/><line x1="342.79" y1="82.77" x2="340.71" y2="81.5" fill="none" stroke="#231f20" stroke-miterlimit="10" stroke-width=".5"/><line x1="342.79" y1="86.4" x2="340.71" y2="85.13" fill="none" stroke="#231f20" stroke-miterlimit="10" stroke-width=".5"/><line x1="366.89" y1="82.05" x2="352.64" y2="74.99" fill="none" stroke="#231f20" stroke-miterlimit="10" stroke-width=".5"/><path d="M347.93,121.71l-3.45.2c-1.48.09-2.65-1.09-2.6-2.62l.62-19.11c.05-1.53,1.3-2.85,2.78-2.94l3.45-.2c1.48-.09,2.65,1.09,2.6,2.62l-.62,19.11c-.05,1.53-1.3,2.85-2.78,2.94Z" fill="none" stroke="#231f20" stroke-miterlimit="10" stroke-width=".5"/><line x1="312.95" y1="25" x2="456.54" y2="26.01" fill="none" stroke="#231f20" stroke-miterlimit="10" stroke-width=".5"/><line x1="312.95" y1="19.21" x2="456.54" y2="20.21" fill="none" stroke="#231f20" stroke-miterlimit="10" stroke-width=".5"/><line x1="408.36" y1="111.5" x2="411.2" y2="30.04" fill="none" stroke="#231f20" stroke-miterlimit="10" stroke-width=".5"/><line x1="456.44" y1="28.83" x2="234.17" y2="28.53" fill="none" stroke="#231f20" stroke-miterlimit="10" stroke-width=".5"/><polyline points="374.57 33.11 347.23 33.32 347.23 69.27 374.69 68.38" fill="none" stroke-width="0"/><polyline points="377.71 94.98 355.58 95.8 355.28 128.56" fill="none" stroke-width="0"/><line x1="321.14" y1="30.78" x2="328.01" y2="30.78" fill="none" stroke="#231f20" stroke-miterlimit="10" stroke-width=".5"/></g><circle cx="385.58" cy="54.97" r="40.25" fill="none" stroke="#fff" stroke-miterlimit="10" stroke-width="4"/><circle cx="385.58" cy="54.97" r="40.25" fill="none" stroke="#231f20" stroke-miterlimit="10"/><polygon points="390.2 30.33 380.36 20.98 385.38 21.02 385.59 3.55 395.47 3.63 395.26 21.1 400.27 21.15 390.2 30.33" fill="#2c2a26" stroke="#fff" stroke-linecap="round" stroke-linejoin="round"/><path d="M373.66,19.67c0,7.59-6.25,13.75-13.95,13.75s-13.95-6.15-13.95-13.75,6.25-13.75,13.95-13.75,13.95,6.16,13.95,13.75" fill="#211f1f" stroke="#fff" stroke-miterlimit="10" stroke-width="1.5"/><path d="M361.3,26.71h-1.85v-11.76c-.44.42-1.03.85-1.75,1.27-.72.42-1.37.74-1.94.95v-1.78c1.03-.49,1.93-1.07,2.71-1.76s1.32-1.36,1.64-2.01h1.19v15.09Z" fill="#fff" stroke-width="0"/><line x1="375.44" y1="154.66" x2="392.13" y2="96.93" fill="none" stroke="#fff" stroke-linecap="round" stroke-miterlimit="10" stroke-width="4"/><line x1="375.44" y1="154.66" x2="392.13" y2="96.93" fill="none" stroke="#231f20" stroke-linecap="round" stroke-linejoin="round"/><line x1="267.44" y1="159.69" x2="341.71" y2="62.16" fill="none" stroke="#fff" stroke-linecap="round" stroke-miterlimit="10" stroke-width="4"/><line x1="267.44" y1="159.69" x2="341.71" y2="62.16" fill="none" stroke="#231f20" stroke-linecap="round" stroke-linejoin="round"/></g></svg>